<svg class="main-svg" xmlns="http://www.w3.org/2000/svg" xmlns:xlink="http://www.w3.org/1999/xlink" width="1800" height="900" style="" viewBox="0 0 1800 900"><rect x="0" y="0" width="1800" height="900" style="fill: rgb(255, 255, 255); fill-opacity: 1;"/><defs id="defs-b799a4"><g class="clips"><clipPath id="clipb799a4xyplot" class="plotclip"><rect width="1445.72" height="600"/></clipPath><clipPath id="clipb799a4xy2plot" class="plotclip"><rect width="1445.72" height="600"/></clipPath><clipPath class="axesclip" id="clipb799a4x"><rect x="80" y="0" width="1445.72" height="900"/></clipPath><clipPath class="axesclip" id="clipb799a4y"><rect x="0" y="80" width="1800" height="600"/></clipPath><clipPath class="axesclip" id="clipb799a4xy"><rect x="80" y="80" width="1445.72" height="600"/></clipPath><clipPath class="axesclip" id="clipb799a4y2"><rect x="0" y="80" width="1800" height="600"/></clipPath><clipPath class="axesclip" id="clipb799a4xy2"><rect x="80" y="80" width="1445.72" height="600"/></clipPath></g><g class="gradients"/><g class="patterns"/></defs><g class="bglayer"><rect class="bg" x="80" y="80" width="1445.72" height="600" style="fill: rgb(229, 236, 246); fill-opacity: 1; stroke-width: 0;"/></g><g class="layer-below"><g class="imagelayer"/><g class="shapelayer"/></g><g class="cartesianlayer"><g class="subplot xy"><g class="layer-subplot"><g class="shapelayer"/><g class="imagelayer"/></g><g class="minor-gridlayer"><g class="x"/><g class="y"/><g class="y2"/></g><g class="gridlayer"><g class="x"/><g class="y"><path class="ygrid crisp" transform="translate(0,610.78)" d="M80,0h1445.72" style="stroke: rgb(255, 255, 255); stroke-opacity: 1; stroke-width: 1px;"/><path class="ygrid crisp" transform="translate(0,541.55)" d="M80,0h1445.72" style="stroke: rgb(255, 255, 255); stroke-opacity: 1; stroke-width: 1px;"/><path class="ygrid crisp" transform="translate(0,472.33)" d="M80,0h1445.72" style="stroke: rgb(255, 255, 255); stroke-opacity: 1; stroke-width: 1px;"/><path class="ygrid crisp" transform="translate(0,403.1)" d="M80,0h1445.72" style="stroke: rgb(255, 255, 255); stroke-opacity: 1; stroke-width: 1px;"/><path class="ygrid crisp" transform="translate(0,333.88)" d="M80,0h1445.72" style="stroke: rgb(255, 255, 255); stroke-opacity: 1; stroke-width: 1px;"/><path class="ygrid crisp" transform="translate(0,264.65999999999997)" d="M80,0h1445.72" style="stroke: rgb(255, 255, 255); stroke-opacity: 1; stroke-width: 1px;"/><path class="ygrid crisp" transform="translate(0,195.43)" d="M80,0h1445.72" style="stroke: rgb(255, 255, 255); stroke-opacity: 1; stroke-width: 1px;"/><path class="ygrid crisp" transform="translate(0,126.21000000000001)" d="M80,0h1445.72" style="stroke: rgb(255, 255, 255); stroke-opacity: 1; stroke-width: 1px;"/></g><g class="y2"><path class="y2grid crisp" transform="translate(0,639.8)" d="M80,0h1445.72" style="stroke: rgb(255, 255, 255); stroke-opacity: 1; stroke-width: 1px;"/><path class="y2grid crisp" transform="translate(0,570.4100000000001)" d="M80,0h1445.72" style="stroke: rgb(255, 255, 255); stroke-opacity: 1; stroke-width: 1px;"/><path class="y2grid crisp" transform="translate(0,501.01)" d="M80,0h1445.72" style="stroke: rgb(255, 255, 255); stroke-opacity: 1; stroke-width: 1px;"/><path class="y2grid crisp" transform="translate(0,362.22)" d="M80,0h1445.72" style="stroke: rgb(255, 255, 255); stroke-opacity: 1; stroke-width: 1px;"/><path class="y2grid crisp" transform="translate(0,292.83000000000004)" d="M80,0h1445.72" style="stroke: rgb(255, 255, 255); stroke-opacity: 1; stroke-width: 1px;"/><path class="y2grid crisp" transform="translate(0,223.43)" d="M80,0h1445.72" style="stroke: rgb(255, 255, 255); stroke-opacity: 1; stroke-width: 1px;"/><path class="y2grid crisp" transform="translate(0,154.04000000000002)" d="M80,0h1445.72" style="stroke: rgb(255, 255, 255); stroke-opacity: 1; stroke-width: 1px;"/><path class="y2grid crisp" transform="translate(0,84.64)" d="M80,0h1445.72" style="stroke: rgb(255, 255, 255); stroke-opacity: 1; stroke-width: 1px;"/></g></g><g class="zerolinelayer"><path class="yzl zl crisp" transform="translate(0,680)" d="M80,0h1445.72" style="stroke: rgb(255, 255, 255); stroke-opacity: 1; stroke-width: 2px;"/><path class="y2zl zl crisp" transform="translate(0,431.62)" d="M80,0h1445.72" style="stroke: rgb(255, 255, 255); stroke-opacity: 1; stroke-width: 2px;"/></g><g class="layer-between"><g class="shapelayer"/><g class="imagelayer"/></g><path class="xlines-below"/><path class="ylines-below"/><g class="overlines-below"><path class="xy2-x"/><path class="xy2-y"/></g><g class="xaxislayer-below"/><g class="yaxislayer-below"/><g class="overaxes-below"><g class="xy2-x"/><g class="xy2-y"/></g><g class="plot" transform="translate(80,80)" clip-path="url(#clipb799a4xyplot)"><g class="barlayer mlayer"><g class="trace bars" style="opacity: 1;"><g class="points"><g class="point"><path d="M60.36,600V30H91.72V600Z" style="vector-effect: none; opacity: 1; stroke-width: 0.5px; fill: rgb(70, 130, 180); fill-opacity: 1; stroke: rgb(229, 236, 246); stroke-opacity: 1;"/></g><g class="point"><path d="M99.56,600V34.43H130.92V600Z" style="vector-effect: none; opacity: 1; stroke-width: 0.5px; fill: rgb(70, 130, 180); fill-opacity: 1; stroke: rgb(229, 236, 246); stroke-opacity: 1;"/></g><g class="point"><path d="M138.76,600V54.8H170.12V600Z" style="vector-effect: none; opacity: 1; stroke-width: 0.5px; fill: rgb(70, 130, 180); fill-opacity: 1; stroke: rgb(229, 236, 246); stroke-opacity: 1;"/></g><g class="point"><path d="M177.96,600V84.56H209.32V600Z" style="vector-effect: none; opacity: 1; stroke-width: 0.5px; fill: rgb(70, 130, 180); fill-opacity: 1; stroke: rgb(229, 236, 246); stroke-opacity: 1;"/></g><g class="point"><path d="M217.16,600V88.21H248.52V600Z" style="vector-effect: none; opacity: 1; stroke-width: 0.5px; fill: rgb(70, 130, 180); fill-opacity: 1; stroke: rgb(229, 236, 246); stroke-opacity: 1;"/></g><g class="point"><path d="M256.36,600V92.64H287.72V600Z" style="vector-effect: none; opacity: 1; stroke-width: 0.5px; fill: rgb(70, 130, 180); fill-opacity: 1; stroke: rgb(229, 236, 246); stroke-opacity: 1;"/></g><g class="point"><path d="M295.56,600V101.94H326.93V600Z" style="vector-effect: none; opacity: 1; stroke-width: 0.5px; fill: rgb(70, 130, 180); fill-opacity: 1; stroke: rgb(229, 236, 246); stroke-opacity: 1;"/></g><g class="point"><path d="M334.77,600V105.8H366.13V600Z" style="vector-effect: none; opacity: 1; stroke-width: 0.5px; fill: rgb(70, 130, 180); fill-opacity: 1; stroke: rgb(229, 236, 246); stroke-opacity: 1;"/></g><g class="point"><path d="M373.97,600V117.27H405.33V600Z" style="vector-effect: none; opacity: 1; stroke-width: 0.5px; fill: rgb(70, 130, 180); fill-opacity: 1; stroke: rgb(229, 236, 246); stroke-opacity: 1;"/></g><g class="point"><path d="M413.17,600V124.34H444.53V600Z" style="vector-effect: none; opacity: 1; stroke-width: 0.5px; fill: rgb(70, 130, 180); fill-opacity: 1; stroke: rgb(229, 236, 246); stroke-opacity: 1;"/></g><g class="point"><path d="M452.37,600V134.42H483.73V600Z" style="vector-effect: none; opacity: 1; stroke-width: 0.5px; fill: rgb(70, 130, 180); fill-opacity: 1; stroke: rgb(229, 236, 246); stroke-opacity: 1;"/></g><g class="point"><path d="M491.57,600V146.13H522.93V600Z" style="vector-effect: none; opacity: 1; stroke-width: 0.5px; fill: rgb(70, 130, 180); fill-opacity: 1; stroke: rgb(229, 236, 246); stroke-opacity: 1;"/></g><g class="point"><path d="M530.77,600V160.96H562.13V600Z" style="vector-effect: none; opacity: 1; stroke-width: 0.5px; fill: rgb(70, 130, 180); fill-opacity: 1; stroke: rgb(229, 236, 246); stroke-opacity: 1;"/></g><g class="point"><path d="M569.97,600V186.36H601.34V600Z" style="vector-effect: none; opacity: 1; stroke-width: 0.5px; fill: rgb(70, 130, 180); fill-opacity: 1; stroke: rgb(229, 236, 246); stroke-opacity: 1;"/></g><g class="point"><path d="M609.18,600V195.28H640.54V600Z" style="vector-effect: none; opacity: 1; stroke-width: 0.5px; fill: rgb(70, 130, 180); fill-opacity: 1; stroke: rgb(229, 236, 246); stroke-opacity: 1;"/></g><g class="point"><path d="M648.38,600V208.2H679.74V600Z" style="vector-effect: none; opacity: 1; stroke-width: 0.5px; fill: rgb(70, 130, 180); fill-opacity: 1; stroke: rgb(229, 236, 246); stroke-opacity: 1;"/></g><g class="point"><path d="M687.58,600V215.37H718.94V600Z" style="vector-effect: none; opacity: 1; stroke-width: 0.5px; fill: rgb(70, 130, 180); fill-opacity: 1; stroke: rgb(229, 236, 246); stroke-opacity: 1;"/></g><g class="point"><path d="M726.78,600V238.41H758.14V600Z" style="vector-effect: none; opacity: 1; stroke-width: 0.5px; fill: rgb(70, 130, 180); fill-opacity: 1; stroke: rgb(229, 236, 246); stroke-opacity: 1;"/></g><g class="point"><path d="M765.98,600V289.8H797.34V600Z" style="vector-effect: none; opacity: 1; stroke-width: 0.5px; fill: rgb(70, 130, 180); fill-opacity: 1; stroke: rgb(229, 236, 246); stroke-opacity: 1;"/></g><g class="point"><path d="M805.18,600V304.62H836.54V600Z" style="vector-effect: none; opacity: 1; stroke-width: 0.5px; fill: rgb(70, 130, 180); fill-opacity: 1; stroke: rgb(229, 236, 246); stroke-opacity: 1;"/></g><g class="point"><path d="M844.38,600V340.4H875.75V600Z" style="vector-effect: none; opacity: 1; stroke-width: 0.5px; fill: rgb(70, 130, 180); fill-opacity: 1; stroke: rgb(229, 236, 246); stroke-opacity: 1;"/></g><g class="point"><path d="M883.59,600V355.86H914.95V600Z" style="vector-effect: none; opacity: 1; stroke-width: 0.5px; fill: rgb(70, 130, 180); fill-opacity: 1; stroke: rgb(229, 236, 246); stroke-opacity: 1;"/></g><g class="point"><path d="M922.79,600V367.24H954.15V600Z" style="vector-effect: none; opacity: 1; stroke-width: 0.5px; fill: rgb(70, 130, 180); fill-opacity: 1; stroke: rgb(229, 236, 246); stroke-opacity: 1;"/></g><g class="point"><path d="M961.99,600V382.89H993.35V600Z" style="vector-effect: none; opacity: 1; stroke-width: 0.5px; fill: rgb(70, 130, 180); fill-opacity: 1; stroke: rgb(229, 236, 246); stroke-opacity: 1;"/></g><g class="point"><path d="M1001.19,600V422.96H1032.55V600Z" style="vector-effect: none; opacity: 1; stroke-width: 0.5px; fill: rgb(70, 130, 180); fill-opacity: 1; stroke: rgb(229, 236, 246); stroke-opacity: 1;"/></g><g class="point"><path d="M1040.39,600V445.78H1071.75V600Z" style="vector-effect: none; opacity: 1; stroke-width: 0.5px; fill: rgb(70, 130, 180); fill-opacity: 1; stroke: rgb(229, 236, 246); stroke-opacity: 1;"/></g><g class="point"><path d="M1079.59,600V450.59H1110.95V600Z" style="vector-effect: none; opacity: 1; stroke-width: 0.5px; fill: rgb(70, 130, 180); fill-opacity: 1; stroke: rgb(229, 236, 246); stroke-opacity: 1;"/></g><g class="point"><path d="M1118.79,600V455.82H1150.16V600Z" style="vector-effect: none; opacity: 1; stroke-width: 0.5px; fill: rgb(70, 130, 180); fill-opacity: 1; stroke: rgb(229, 236, 246); stroke-opacity: 1;"/></g><g class="point"><path d="M1158,600V483H1189.36V600Z" style="vector-effect: none; opacity: 1; stroke-width: 0.5px; fill: rgb(70, 130, 180); fill-opacity: 1; stroke: rgb(229, 236, 246); stroke-opacity: 1;"/></g><g class="point"><path d="M1197.2,600V492.27H1228.56V600Z" style="vector-effect: none; opacity: 1; stroke-width: 0.5px; fill: rgb(70, 130, 180); fill-opacity: 1; stroke: rgb(229, 236, 246); stroke-opacity: 1;"/></g><g class="point"><path d="M1236.4,600V492.27H1267.76V600Z" style="vector-effect: none; opacity: 1; stroke-width: 0.5px; fill: rgb(70, 130, 180); fill-opacity: 1; stroke: rgb(229, 236, 246); stroke-opacity: 1;"/></g><g class="point"><path d="M1275.6,600V492.27H1306.96V600Z" style="vector-effect: none; opacity: 1; stroke-width: 0.5px; fill: rgb(70, 130, 180); fill-opacity: 1; stroke: rgb(229, 236, 246); stroke-opacity: 1;"/></g><g class="point"><path d="M1314.8,600V503.23H1346.16V600Z" style="vector-effect: none; opacity: 1; stroke-width: 0.5px; fill: rgb(70, 130, 180); fill-opacity: 1; stroke: rgb(229, 236, 246); stroke-opacity: 1;"/></g><g class="point"><path d="M1354,600V503.23H1385.36V600Z" style="vector-effect: none; opacity: 1; stroke-width: 0.5px; fill: rgb(70, 130, 180); fill-opacity: 1; stroke: rgb(229, 236, 246); stroke-opacity: 1;"/></g></g></g></g></g><g class="overplot"><g class="xy2" transform="translate(80,80)" clip-path="url(#clipb799a4xy2plot)"><g class="scatterlayer mlayer"><g class="trace scatter tracec8f86e" style="stroke-miterlimit: 2; opacity: 1;"><g class="fills"/><g class="errorbars"/><g class="lines"><path class="js-line" d="M76.04,127.23L115.24,213.91L154.44,239.5L193.64,415.01L232.84,170.31L272.04,235.74L311.24,206.34L350.45,162.34L389.65,284.12L428.85,283.04L468.05,227.73L507.25,387.18L546.45,241.39L585.65,329.1L624.86,83.42L664.06,44.46L703.26,167.72L742.46,163.84L781.66,389.32L820.86,246.22L860.07,87.19L899.27,440.52L938.47,508.52L977.67,482.78L1016.87,515.16L1056.07,47.26L1095.27,377.54L1134.48,243.12L1173.68,364.52L1212.88,149.88L1252.08,248.01L1291.28,291.49L1330.48,566.25L1369.68,102.92" style="vector-effect: none; fill: none; stroke: rgb(0, 0, 255); stroke-opacity: 1; stroke-width: 2px; opacity: 1;"/></g><g class="points"><path class="point" transform="translate(76.04,127.23)" d="M3,0A3,3 0 1,1 0,-3A3,3 0 0,1 3,0Z" style="opacity: 1; stroke-width: 0px; fill: rgb(0, 0, 255); fill-opacity: 1;"/><path class="point" transform="translate(115.24,213.91)" d="M3,0A3,3 0 1,1 0,-3A3,3 0 0,1 3,0Z" style="opacity: 1; stroke-width: 0px; fill: rgb(0, 0, 255); fill-opacity: 1;"/><path class="point" transform="translate(154.44,239.5)" d="M3,0A3,3 0 1,1 0,-3A3,3 0 0,1 3,0Z" style="opacity: 1; stroke-width: 0px; fill: rgb(0, 0, 255); fill-opacity: 1;"/><path class="point" transform="translate(193.64,415.01)" d="M3,0A3,3 0 1,1 0,-3A3,3 0 0,1 3,0Z" style="opacity: 1; stroke-width: 0px; fill: rgb(0, 0, 255); fill-opacity: 1;"/><path class="point" transform="translate(232.84,170.31)" d="M3,0A3,3 0 1,1 0,-3A3,3 0 0,1 3,0Z" style="opacity: 1; stroke-width: 0px; fill: rgb(0, 0, 255); fill-opacity: 1;"/><path class="point" transform="translate(272.04,235.74)" d="M3,0A3,3 0 1,1 0,-3A3,3 0 0,1 3,0Z" style="opacity: 1; stroke-width: 0px; fill: rgb(0, 0, 255); fill-opacity: 1;"/><path class="point" transform="translate(311.24,206.34)" d="M3,0A3,3 0 1,1 0,-3A3,3 0 0,1 3,0Z" style="opacity: 1; stroke-width: 0px; fill: rgb(0, 0, 255); fill-opacity: 1;"/><path class="point" transform="translate(350.45,162.34)" d="M3,0A3,3 0 1,1 0,-3A3,3 0 0,1 3,0Z" style="opacity: 1; stroke-width: 0px; fill: rgb(0, 0, 255); fill-opacity: 1;"/><path class="point" transform="translate(389.65,284.12)" d="M3,0A3,3 0 1,1 0,-3A3,3 0 0,1 3,0Z" style="opacity: 1; stroke-width: 0px; fill: rgb(0, 0, 255); fill-opacity: 1;"/><path class="point" transform="translate(428.85,283.04)" d="M3,0A3,3 0 1,1 0,-3A3,3 0 0,1 3,0Z" style="opacity: 1; stroke-width: 0px; fill: rgb(0, 0, 255); fill-opacity: 1;"/><path class="point" transform="translate(468.05,227.73)" d="M3,0A3,3 0 1,1 0,-3A3,3 0 0,1 3,0Z" style="opacity: 1; stroke-width: 0px; fill: rgb(0, 0, 255); fill-opacity: 1;"/><path class="point" transform="translate(507.25,387.18)" d="M3,0A3,3 0 1,1 0,-3A3,3 0 0,1 3,0Z" style="opacity: 1; stroke-width: 0px; fill: rgb(0, 0, 255); fill-opacity: 1;"/><path class="point" transform="translate(546.45,241.39)" d="M3,0A3,3 0 1,1 0,-3A3,3 0 0,1 3,0Z" style="opacity: 1; stroke-width: 0px; fill: rgb(0, 0, 255); fill-opacity: 1;"/><path class="point" transform="translate(585.65,329.1)" d="M3,0A3,3 0 1,1 0,-3A3,3 0 0,1 3,0Z" style="opacity: 1; stroke-width: 0px; fill: rgb(0, 0, 255); fill-opacity: 1;"/><path class="point" transform="translate(624.86,83.42)" d="M3,0A3,3 0 1,1 0,-3A3,3 0 0,1 3,0Z" style="opacity: 1; stroke-width: 0px; fill: rgb(0, 0, 255); fill-opacity: 1;"/><path class="point" transform="translate(664.06,44.46)" d="M3,0A3,3 0 1,1 0,-3A3,3 0 0,1 3,0Z" style="opacity: 1; stroke-width: 0px; fill: rgb(0, 0, 255); fill-opacity: 1;"/><path class="point" transform="translate(703.26,167.72)" d="M3,0A3,3 0 1,1 0,-3A3,3 0 0,1 3,0Z" style="opacity: 1; stroke-width: 0px; fill: rgb(0, 0, 255); fill-opacity: 1;"/><path class="point" transform="translate(742.46,163.84)" d="M3,0A3,3 0 1,1 0,-3A3,3 0 0,1 3,0Z" style="opacity: 1; stroke-width: 0px; fill: rgb(0, 0, 255); fill-opacity: 1;"/><path class="point" transform="translate(781.66,389.32)" d="M3,0A3,3 0 1,1 0,-3A3,3 0 0,1 3,0Z" style="opacity: 1; stroke-width: 0px; fill: rgb(0, 0, 255); fill-opacity: 1;"/><path class="point" transform="translate(820.86,246.22)" d="M3,0A3,3 0 1,1 0,-3A3,3 0 0,1 3,0Z" style="opacity: 1; stroke-width: 0px; fill: rgb(0, 0, 255); fill-opacity: 1;"/><path class="point" transform="translate(860.07,87.19)" d="M3,0A3,3 0 1,1 0,-3A3,3 0 0,1 3,0Z" style="opacity: 1; stroke-width: 0px; fill: rgb(0, 0, 255); fill-opacity: 1;"/><path class="point" transform="translate(899.27,440.52)" d="M3,0A3,3 0 1,1 0,-3A3,3 0 0,1 3,0Z" style="opacity: 1; stroke-width: 0px; fill: rgb(0, 0, 255); fill-opacity: 1;"/><path class="point" transform="translate(938.47,508.52)" d="M3,0A3,3 0 1,1 0,-3A3,3 0 0,1 3,0Z" style="opacity: 1; stroke-width: 0px; fill: rgb(0, 0, 255); fill-opacity: 1;"/><path class="point" transform="translate(977.67,482.78)" d="M3,0A3,3 0 1,1 0,-3A3,3 0 0,1 3,0Z" style="opacity: 1; stroke-width: 0px; fill: rgb(0, 0, 255); fill-opacity: 1;"/><path class="point" transform="translate(1016.87,515.16)" d="M3,0A3,3 0 1,1 0,-3A3,3 0 0,1 3,0Z" style="opacity: 1; stroke-width: 0px; fill: rgb(0, 0, 255); fill-opacity: 1;"/><path class="point" transform="translate(1056.07,47.26)" d="M3,0A3,3 0 1,1 0,-3A3,3 0 0,1 3,0Z" style="opacity: 1; stroke-width: 0px; fill: rgb(0, 0, 255); fill-opacity: 1;"/><path class="point" transform="translate(1095.27,377.54)" d="M3,0A3,3 0 1,1 0,-3A3,3 0 0,1 3,0Z" style="opacity: 1; stroke-width: 0px; fill: rgb(0, 0, 255); fill-opacity: 1;"/><path class="point" transform="translate(1134.48,243.12)" d="M3,0A3,3 0 1,1 0,-3A3,3 0 0,1 3,0Z" style="opacity: 1; stroke-width: 0px; fill: rgb(0, 0, 255); fill-opacity: 1;"/><path class="point" transform="translate(1173.68,364.52)" d="M3,0A3,3 0 1,1 0,-3A3,3 0 0,1 3,0Z" style="opacity: 1; stroke-width: 0px; fill: rgb(0, 0, 255); fill-opacity: 1;"/><path class="point" transform="translate(1212.88,149.88)" d="M3,0A3,3 0 1,1 0,-3A3,3 0 0,1 3,0Z" style="opacity: 1; stroke-width: 0px; fill: rgb(0, 0, 255); fill-opacity: 1;"/><path class="point" transform="translate(1252.08,248.01)" d="M3,0A3,3 0 1,1 0,-3A3,3 0 0,1 3,0Z" style="opacity: 1; stroke-width: 0px; fill: rgb(0, 0, 255); fill-opacity: 1;"/><path class="point" transform="translate(1291.28,291.49)" d="M3,0A3,3 0 1,1 0,-3A3,3 0 0,1 3,0Z" style="opacity: 1; stroke-width: 0px; fill: rgb(0, 0, 255); fill-opacity: 1;"/><path class="point" transform="translate(1330.48,566.25)" d="M3,0A3,3 0 1,1 0,-3A3,3 0 0,1 3,0Z" style="opacity: 1; stroke-width: 0px; fill: rgb(0, 0, 255); fill-opacity: 1;"/><path class="point" transform="translate(1369.68,102.92)" d="M3,0A3,3 0 1,1 0,-3A3,3 0 0,1 3,0Z" style="opacity: 1; stroke-width: 0px; fill: rgb(0, 0, 255); fill-opacity: 1;"/></g><g class="text"/></g><g class="trace scatter tracec7de5b" style="stroke-miterlimit: 2; opacity: 1;"><g class="fills"/><g class="errorbars"/><g class="lines"><path class="js-line" d="M76.04,117.35L115.24,191.26L154.44,213.07L193.64,406.68L232.84,149.58L272.04,218.11L311.24,170.82L350.45,146.41L389.65,234.86L428.85,237.76L468.05,184.79L507.25,378.54L546.45,219.88L585.65,281.63L624.86,69.12L664.06,33.75L703.26,145.44L742.46,117.05L781.66,388.89L820.86,217.13L860.07,71.38L899.27,391.61L938.47,468.75L977.67,467.12L1016.87,480.92L1056.07,37.54L1095.27,312.05L1134.48,205.76L1173.68,276.8L1212.88,141.71L1252.08,197.84L1291.28,298.4L1330.48,553.54L1369.68,70.43" style="vector-effect: none; fill: none; stroke: rgb(255, 0, 0); stroke-opacity: 1; stroke-width: 2px; opacity: 1;"/></g><g class="points"><path class="point" transform="translate(76.04,117.35)" d="M3,0A3,3 0 1,1 0,-3A3,3 0 0,1 3,0Z" style="opacity: 1; stroke-width: 0px; fill: rgb(255, 0, 0); fill-opacity: 1;"/><path class="point" transform="translate(115.24,191.26)" d="M3,0A3,3 0 1,1 0,-3A3,3 0 0,1 3,0Z" style="opacity: 1; stroke-width: 0px; fill: rgb(255, 0, 0); fill-opacity: 1;"/><path class="point" transform="translate(154.44,213.07)" d="M3,0A3,3 0 1,1 0,-3A3,3 0 0,1 3,0Z" style="opacity: 1; stroke-width: 0px; fill: rgb(255, 0, 0); fill-opacity: 1;"/><path class="point" transform="translate(193.64,406.68)" d="M3,0A3,3 0 1,1 0,-3A3,3 0 0,1 3,0Z" style="opacity: 1; stroke-width: 0px; fill: rgb(255, 0, 0); fill-opacity: 1;"/><path class="point" transform="translate(232.84,149.58)" d="M3,0A3,3 0 1,1 0,-3A3,3 0 0,1 3,0Z" style="opacity: 1; stroke-width: 0px; fill: rgb(255, 0, 0); fill-opacity: 1;"/><path class="point" transform="translate(272.04,218.11)" d="M3,0A3,3 0 1,1 0,-3A3,3 0 0,1 3,0Z" style="opacity: 1; stroke-width: 0px; fill: rgb(255, 0, 0); fill-opacity: 1;"/><path class="point" transform="translate(311.24,170.82)" d="M3,0A3,3 0 1,1 0,-3A3,3 0 0,1 3,0Z" style="opacity: 1; stroke-width: 0px; fill: rgb(255, 0, 0); fill-opacity: 1;"/><path class="point" transform="translate(350.45,146.41)" d="M3,0A3,3 0 1,1 0,-3A3,3 0 0,1 3,0Z" style="opacity: 1; stroke-width: 0px; fill: rgb(255, 0, 0); fill-opacity: 1;"/><path class="point" transform="translate(389.65,234.86)" d="M3,0A3,3 0 1,1 0,-3A3,3 0 0,1 3,0Z" style="opacity: 1; stroke-width: 0px; fill: rgb(255, 0, 0); fill-opacity: 1;"/><path class="point" transform="translate(428.85,237.76)" d="M3,0A3,3 0 1,1 0,-3A3,3 0 0,1 3,0Z" style="opacity: 1; stroke-width: 0px; fill: rgb(255, 0, 0); fill-opacity: 1;"/><path class="point" transform="translate(468.05,184.79)" d="M3,0A3,3 0 1,1 0,-3A3,3 0 0,1 3,0Z" style="opacity: 1; stroke-width: 0px; fill: rgb(255, 0, 0); fill-opacity: 1;"/><path class="point" transform="translate(507.25,378.54)" d="M3,0A3,3 0 1,1 0,-3A3,3 0 0,1 3,0Z" style="opacity: 1; stroke-width: 0px; fill: rgb(255, 0, 0); fill-opacity: 1;"/><path class="point" transform="translate(546.45,219.88)" d="M3,0A3,3 0 1,1 0,-3A3,3 0 0,1 3,0Z" style="opacity: 1; stroke-width: 0px; fill: rgb(255, 0, 0); fill-opacity: 1;"/><path class="point" transform="translate(585.65,281.63)" d="M3,0A3,3 0 1,1 0,-3A3,3 0 0,1 3,0Z" style="opacity: 1; stroke-width: 0px; fill: rgb(255, 0, 0); fill-opacity: 1;"/><path class="point" transform="translate(624.86,69.12)" d="M3,0A3,3 0 1,1 0,-3A3,3 0 0,1 3,0Z" style="opacity: 1; stroke-width: 0px; fill: rgb(255, 0, 0); fill-opacity: 1;"/><path class="point" transform="translate(664.06,33.75)" d="M3,0A3,3 0 1,1 0,-3A3,3 0 0,1 3,0Z" style="opacity: 1; stroke-width: 0px; fill: rgb(255, 0, 0); fill-opacity: 1;"/><path class="point" transform="translate(703.26,145.44)" d="M3,0A3,3 0 1,1 0,-3A3,3 0 0,1 3,0Z" style="opacity: 1; stroke-width: 0px; fill: rgb(255, 0, 0); fill-opacity: 1;"/><path class="point" transform="translate(742.46,117.05)" d="M3,0A3,3 0 1,1 0,-3A3,3 0 0,1 3,0Z" style="opacity: 1; stroke-width: 0px; fill: rgb(255, 0, 0); fill-opacity: 1;"/><path class="point" transform="translate(781.66,388.89)" d="M3,0A3,3 0 1,1 0,-3A3,3 0 0,1 3,0Z" style="opacity: 1; stroke-width: 0px; fill: rgb(255, 0, 0); fill-opacity: 1;"/><path class="point" transform="translate(820.86,217.13)" d="M3,0A3,3 0 1,1 0,-3A3,3 0 0,1 3,0Z" style="opacity: 1; stroke-width: 0px; fill: rgb(255, 0, 0); fill-opacity: 1;"/><path class="point" transform="translate(860.07,71.38)" d="M3,0A3,3 0 1,1 0,-3A3,3 0 0,1 3,0Z" style="opacity: 1; stroke-width: 0px; fill: rgb(255, 0, 0); fill-opacity: 1;"/><path class="point" transform="translate(899.27,391.61)" d="M3,0A3,3 0 1,1 0,-3A3,3 0 0,1 3,0Z" style="opacity: 1; stroke-width: 0px; fill: rgb(255, 0, 0); fill-opacity: 1;"/><path class="point" transform="translate(938.47,468.75)" d="M3,0A3,3 0 1,1 0,-3A3,3 0 0,1 3,0Z" style="opacity: 1; stroke-width: 0px; fill: rgb(255, 0, 0); fill-opacity: 1;"/><path class="point" transform="translate(977.67,467.12)" d="M3,0A3,3 0 1,1 0,-3A3,3 0 0,1 3,0Z" style="opacity: 1; stroke-width: 0px; fill: rgb(255, 0, 0); fill-opacity: 1;"/><path class="point" transform="translate(1016.87,480.92)" d="M3,0A3,3 0 1,1 0,-3A3,3 0 0,1 3,0Z" style="opacity: 1; stroke-width: 0px; fill: rgb(255, 0, 0); fill-opacity: 1;"/><path class="point" transform="translate(1056.07,37.54)" d="M3,0A3,3 0 1,1 0,-3A3,3 0 0,1 3,0Z" style="opacity: 1; stroke-width: 0px; fill: rgb(255, 0, 0); fill-opacity: 1;"/><path class="point" transform="translate(1095.27,312.05)" d="M3,0A3,3 0 1,1 0,-3A3,3 0 0,1 3,0Z" style="opacity: 1; stroke-width: 0px; fill: rgb(255, 0, 0); fill-opacity: 1;"/><path class="point" transform="translate(1134.48,205.76)" d="M3,0A3,3 0 1,1 0,-3A3,3 0 0,1 3,0Z" style="opacity: 1; stroke-width: 0px; fill: rgb(255, 0, 0); fill-opacity: 1;"/><path class="point" transform="translate(1173.68,276.8)" d="M3,0A3,3 0 1,1 0,-3A3,3 0 0,1 3,0Z" style="opacity: 1; stroke-width: 0px; fill: rgb(255, 0, 0); fill-opacity: 1;"/><path class="point" transform="translate(1212.88,141.71)" d="M3,0A3,3 0 1,1 0,-3A3,3 0 0,1 3,0Z" style="opacity: 1; stroke-width: 0px; fill: rgb(255, 0, 0); fill-opacity: 1;"/><path class="point" transform="translate(1252.08,197.84)" d="M3,0A3,3 0 1,1 0,-3A3,3 0 0,1 3,0Z" style="opacity: 1; stroke-width: 0px; fill: rgb(255, 0, 0); fill-opacity: 1;"/><path class="point" transform="translate(1291.28,298.4)" d="M3,0A3,3 0 1,1 0,-3A3,3 0 0,1 3,0Z" style="opacity: 1; stroke-width: 0px; fill: rgb(255, 0, 0); fill-opacity: 1;"/><path class="point" transform="translate(1330.48,553.54)" d="M3,0A3,3 0 1,1 0,-3A3,3 0 0,1 3,0Z" style="opacity: 1; stroke-width: 0px; fill: rgb(255, 0, 0); fill-opacity: 1;"/><path class="point" transform="translate(1369.68,70.43)" d="M3,0A3,3 0 1,1 0,-3A3,3 0 0,1 3,0Z" style="opacity: 1; stroke-width: 0px; fill: rgb(255, 0, 0); fill-opacity: 1;"/></g><g class="text"/></g></g></g></g><path class="xlines-above crisp" d="M0,0" style="fill: none;"/><path class="ylines-above crisp" d="M0,0" style="fill: none;"/><g class="overlines-above"><path class="xy2-x crisp" d="M0,0" style="fill: none;"/><path class="xy2-y crisp" d="M0,0" style="fill: none;"/></g><g class="xaxislayer-above"><g class="xtick"><text text-anchor="end" x="0" y="691" transform="translate(156.04000000000002,0) rotate(-45,0,686)" style="font-family: 'Open Sans', verdana, arial, sans-serif; font-size: 10px; fill: rgb(42, 63, 95); fill-opacity: 1; white-space: pre; opacity: 1;">B cell (Plasmocyte)</text></g><g class="xtick"><text text-anchor="end" x="0" y="691" transform="translate(195.24,0) rotate(-45,0,686)" style="font-family: 'Open Sans', verdana, arial, sans-serif; font-size: 10px; fill: rgb(42, 63, 95); fill-opacity: 1; white-space: pre; opacity: 1;">Enterocyte progenitor</text></g><g class="xtick"><text text-anchor="end" x="0" y="691" transform="translate(234.44,0) rotate(-45,0,686)" style="font-family: 'Open Sans', verdana, arial, sans-serif; font-size: 10px; fill: rgb(42, 63, 95); fill-opacity: 1; white-space: pre; opacity: 1;">Enterocyte</text></g><g class="xtick"><text text-anchor="end" x="0" y="691" transform="translate(273.64,0) rotate(-45,0,686)" style="font-family: 'Open Sans', verdana, arial, sans-serif; font-size: 10px; fill: rgb(42, 63, 95); fill-opacity: 1; white-space: pre; opacity: 1;">Stromal cell</text></g><g class="xtick"><text text-anchor="end" x="0" y="691" transform="translate(312.84000000000003,0) rotate(-45,0,686)" style="font-family: 'Open Sans', verdana, arial, sans-serif; font-size: 10px; fill: rgb(42, 63, 95); fill-opacity: 1; white-space: pre; opacity: 1;">Gastric chief cell</text></g><g class="xtick"><text text-anchor="end" x="0" y="691" transform="translate(352.04,0) rotate(-45,0,686)" style="font-family: 'Open Sans', verdana, arial, sans-serif; font-size: 10px; fill: rgb(42, 63, 95); fill-opacity: 1; white-space: pre; opacity: 1;">Goblet cell</text></g><g class="xtick"><text text-anchor="end" x="0" y="691" transform="translate(391.24,0) rotate(-45,0,686)" style="font-family: 'Open Sans', verdana, arial, sans-serif; font-size: 10px; fill: rgb(42, 63, 95); fill-opacity: 1; white-space: pre; opacity: 1;">Fibroblast</text></g><g class="xtick"><text text-anchor="end" x="0" y="691" transform="translate(430.45,0) rotate(-45,0,686)" style="font-family: 'Open Sans', verdana, arial, sans-serif; font-size: 10px; fill: rgb(42, 63, 95); fill-opacity: 1; white-space: pre; opacity: 1;">Basal cell</text></g><g class="xtick"><text text-anchor="end" x="0" y="691" transform="translate(469.65,0) rotate(-45,0,686)" style="font-family: 'Open Sans', verdana, arial, sans-serif; font-size: 10px; fill: rgb(42, 63, 95); fill-opacity: 1; white-space: pre; opacity: 1;">B cell</text></g><g class="xtick"><text text-anchor="end" x="0" y="691" transform="translate(508.85,0) rotate(-45,0,686)" style="font-family: 'Open Sans', verdana, arial, sans-serif; font-size: 10px; fill: rgb(42, 63, 95); fill-opacity: 1; white-space: pre; opacity: 1;">T cell</text></g><g class="xtick"><text text-anchor="end" x="0" y="691" transform="translate(548.05,0) rotate(-45,0,686)" style="font-family: 'Open Sans', verdana, arial, sans-serif; font-size: 10px; fill: rgb(42, 63, 95); fill-opacity: 1; white-space: pre; opacity: 1;">Epithelial cell</text></g><g class="xtick"><text text-anchor="end" x="0" y="691" transform="translate(587.25,0) rotate(-45,0,686)" style="font-family: 'Open Sans', verdana, arial, sans-serif; font-size: 10px; fill: rgb(42, 63, 95); fill-opacity: 1; white-space: pre; opacity: 1;">Macrophage</text></g><g class="xtick"><text text-anchor="end" x="0" y="691" transform="translate(626.45,0) rotate(-45,0,686)" style="font-family: 'Open Sans', verdana, arial, sans-serif; font-size: 10px; fill: rgb(42, 63, 95); fill-opacity: 1; white-space: pre; opacity: 1;">Endothelial cell (APC)</text></g><g class="xtick"><text text-anchor="end" x="0" y="691" transform="translate(665.65,0) rotate(-45,0,686)" style="font-family: 'Open Sans', verdana, arial, sans-serif; font-size: 10px; fill: rgb(42, 63, 95); fill-opacity: 1; white-space: pre; opacity: 1;">Dendritic cell</text></g><g class="xtick"><text text-anchor="end" x="0" y="691" transform="translate(704.86,0) rotate(-45,0,686)" style="font-family: 'Open Sans', verdana, arial, sans-serif; font-size: 10px; fill: rgb(42, 63, 95); fill-opacity: 1; white-space: pre; opacity: 1;">Stratified epithelial cell</text></g><g class="xtick"><text text-anchor="end" x="0" y="691" transform="translate(744.06,0) rotate(-45,0,686)" style="font-family: 'Open Sans', verdana, arial, sans-serif; font-size: 10px; fill: rgb(42, 63, 95); fill-opacity: 1; white-space: pre; opacity: 1;">Fetal endocrine cell</text></g><g class="xtick"><text text-anchor="end" x="0" y="691" transform="translate(783.26,0) rotate(-45,0,686)" style="font-family: 'Open Sans', verdana, arial, sans-serif; font-size: 10px; fill: rgb(42, 63, 95); fill-opacity: 1; white-space: pre; opacity: 1;">Mast cell</text></g><g class="xtick"><text text-anchor="end" x="0" y="691" transform="translate(822.46,0) rotate(-45,0,686)" style="font-family: 'Open Sans', verdana, arial, sans-serif; font-size: 10px; fill: rgb(42, 63, 95); fill-opacity: 1; white-space: pre; opacity: 1;">Smooth muscle cell</text></g><g class="xtick"><text text-anchor="end" x="0" y="691" transform="translate(861.66,0) rotate(-45,0,686)" style="font-family: 'Open Sans', verdana, arial, sans-serif; font-size: 10px; fill: rgb(42, 63, 95); fill-opacity: 1; white-space: pre; opacity: 1;">Endothelial cell</text></g><g class="xtick"><text text-anchor="end" x="0" y="691" transform="translate(900.86,0) rotate(-45,0,686)" style="font-family: 'Open Sans', verdana, arial, sans-serif; font-size: 10px; fill: rgb(42, 63, 95); fill-opacity: 1; white-space: pre; opacity: 1;">Monocyte</text></g><g class="xtick"><text text-anchor="end" x="0" y="691" transform="translate(940.07,0) rotate(-45,0,686)" style="font-family: 'Open Sans', verdana, arial, sans-serif; font-size: 10px; fill: rgb(42, 63, 95); fill-opacity: 1; white-space: pre; opacity: 1;">Neutrophil</text></g><g class="xtick"><text text-anchor="end" x="0" y="691" transform="translate(979.27,0) rotate(-45,0,686)" style="font-family: 'Open Sans', verdana, arial, sans-serif; font-size: 10px; fill: rgb(42, 63, 95); fill-opacity: 1; white-space: pre; opacity: 1;">Fetal enterocyte</text></g><g class="xtick"><text text-anchor="end" x="0" y="691" transform="translate(1018.47,0) rotate(-45,0,686)" style="font-family: 'Open Sans', verdana, arial, sans-serif; font-size: 10px; fill: rgb(42, 63, 95); fill-opacity: 1; white-space: pre; opacity: 1;">Fetal stromal cell</text></g><g class="xtick"><text text-anchor="end" x="0" y="691" transform="translate(1057.67,0) rotate(-45,0,686)" style="font-family: 'Open Sans', verdana, arial, sans-serif; font-size: 10px; fill: rgb(42, 63, 95); fill-opacity: 1; white-space: pre; opacity: 1;">Endothelial cell (endothelial to mesenchymal transition)</text></g><g class="xtick"><text text-anchor="end" x="0" y="691" transform="translate(1096.87,0) rotate(-45,0,686)" style="font-family: 'Open Sans', verdana, arial, sans-serif; font-size: 10px; fill: rgb(42, 63, 95); fill-opacity: 1; white-space: pre; opacity: 1;">Fetal Neuron</text></g><g class="xtick"><text text-anchor="end" x="0" y="691" transform="translate(1136.07,0) rotate(-45,0,686)" style="font-family: 'Open Sans', verdana, arial, sans-serif; font-size: 10px; fill: rgb(42, 63, 95); fill-opacity: 1; white-space: pre; opacity: 1;">Fetal neuron</text></g><g class="xtick"><text text-anchor="end" x="0" y="691" transform="translate(1175.27,0) rotate(-45,0,686)" style="font-family: 'Open Sans', verdana, arial, sans-serif; font-size: 10px; fill: rgb(42, 63, 95); fill-opacity: 1; white-space: pre; opacity: 1;">Hepatocyte/Endodermal cell</text></g><g class="xtick"><text text-anchor="end" x="0" y="691" transform="translate(1214.48,0) rotate(-45,0,686)" style="font-family: 'Open Sans', verdana, arial, sans-serif; font-size: 10px; fill: rgb(42, 63, 95); fill-opacity: 1; white-space: pre; opacity: 1;">Fetal epithelial progenitor</text></g><g class="xtick"><text text-anchor="end" x="0" y="691" transform="translate(1253.68,0) rotate(-45,0,686)" style="font-family: 'Open Sans', verdana, arial, sans-serif; font-size: 10px; fill: rgb(42, 63, 95); fill-opacity: 1; white-space: pre; opacity: 1;">Fetal mesenchymal progenitor</text></g><g class="xtick"><text text-anchor="end" x="0" y="691" transform="translate(1292.88,0) rotate(-45,0,686)" style="font-family: 'Open Sans', verdana, arial, sans-serif; font-size: 10px; fill: rgb(42, 63, 95); fill-opacity: 1; white-space: pre; opacity: 1;">Epithelial cell (intermediated)</text></g><g class="xtick"><text text-anchor="end" x="0" y="691" transform="translate(1332.08,0) rotate(-45,0,686)" style="font-family: 'Open Sans', verdana, arial, sans-serif; font-size: 10px; fill: rgb(42, 63, 95); fill-opacity: 1; white-space: pre; opacity: 1;">CB CD34+</text></g><g class="xtick"><text text-anchor="end" x="0" y="691" transform="translate(1371.28,0) rotate(-45,0,686)" style="font-family: 'Open Sans', verdana, arial, sans-serif; font-size: 10px; fill: rgb(42, 63, 95); fill-opacity: 1; white-space: pre; opacity: 1;">M2 Macrophage</text></g><g class="xtick"><text text-anchor="end" x="0" y="691" transform="translate(1410.48,0) rotate(-45,0,686)" style="font-family: 'Open Sans', verdana, arial, sans-serif; font-size: 10px; fill: rgb(42, 63, 95); fill-opacity: 1; white-space: pre; opacity: 1;">Primordial germ cell</text></g><g class="xtick"><text text-anchor="end" x="0" y="691" transform="translate(1449.68,0) rotate(-45,0,686)" style="font-family: 'Open Sans', verdana, arial, sans-serif; font-size: 10px; fill: rgb(42, 63, 95); fill-opacity: 1; white-space: pre; opacity: 1;">Gastric endocrine cell</text></g></g><g class="yaxislayer-above"><g class="ytick"><text text-anchor="end" x="79" y="4.199999999999999" transform="translate(0,680)" style="font-family: 'Open Sans', verdana, arial, sans-serif; font-size: 12px; fill: rgb(42, 63, 95); fill-opacity: 1; white-space: pre; opacity: 1;">0</text></g><g class="ytick"><text text-anchor="end" x="79" y="4.199999999999999" style="font-family: 'Open Sans', verdana, arial, sans-serif; font-size: 12px; fill: rgb(42, 63, 95); fill-opacity: 1; white-space: pre; opacity: 1;" transform="translate(0,610.78)">0.5</text></g><g class="ytick"><text text-anchor="end" x="79" y="4.199999999999999" style="font-family: 'Open Sans', verdana, arial, sans-serif; font-size: 12px; fill: rgb(42, 63, 95); fill-opacity: 1; white-space: pre; opacity: 1;" transform="translate(0,541.55)">1</text></g><g class="ytick"><text text-anchor="end" x="79" y="4.199999999999999" style="font-family: 'Open Sans', verdana, arial, sans-serif; font-size: 12px; fill: rgb(42, 63, 95); fill-opacity: 1; white-space: pre; opacity: 1;" transform="translate(0,472.33)">1.5</text></g><g class="ytick"><text text-anchor="end" x="79" y="4.199999999999999" style="font-family: 'Open Sans', verdana, arial, sans-serif; font-size: 12px; fill: rgb(42, 63, 95); fill-opacity: 1; white-space: pre; opacity: 1;" transform="translate(0,403.1)">2</text></g><g class="ytick"><text text-anchor="end" x="79" y="4.199999999999999" style="font-family: 'Open Sans', verdana, arial, sans-serif; font-size: 12px; fill: rgb(42, 63, 95); fill-opacity: 1; white-space: pre; opacity: 1;" transform="translate(0,333.88)">2.5</text></g><g class="ytick"><text text-anchor="end" x="79" y="4.199999999999999" style="font-family: 'Open Sans', verdana, arial, sans-serif; font-size: 12px; fill: rgb(42, 63, 95); fill-opacity: 1; white-space: pre; opacity: 1;" transform="translate(0,264.65999999999997)">3</text></g><g class="ytick"><text text-anchor="end" x="79" y="4.199999999999999" style="font-family: 'Open Sans', verdana, arial, sans-serif; font-size: 12px; fill: rgb(42, 63, 95); fill-opacity: 1; white-space: pre; opacity: 1;" transform="translate(0,195.43)">3.5</text></g><g class="ytick"><text text-anchor="end" x="79" y="4.199999999999999" style="font-family: 'Open Sans', verdana, arial, sans-serif; font-size: 12px; fill: rgb(42, 63, 95); fill-opacity: 1; white-space: pre; opacity: 1;" transform="translate(0,126.21000000000001)">4</text></g></g><g class="overaxes-above"><g class="xy2-x"/><g class="xy2-y"><g class="y2tick"><text text-anchor="start" x="1526.72" y="4.199999999999999" transform="translate(0,639.8)" style="font-family: 'Open Sans', verdana, arial, sans-serif; font-size: 12px; fill: rgb(42, 63, 95); fill-opacity: 1; white-space: pre; opacity: 1;">−0.6</text></g><g class="y2tick"><text text-anchor="start" x="1526.72" y="4.199999999999999" style="font-family: 'Open Sans', verdana, arial, sans-serif; font-size: 12px; fill: rgb(42, 63, 95); fill-opacity: 1; white-space: pre; opacity: 1;" transform="translate(0,570.4100000000001)">−0.4</text></g><g class="y2tick"><text text-anchor="start" x="1526.72" y="4.199999999999999" style="font-family: 'Open Sans', verdana, arial, sans-serif; font-size: 12px; fill: rgb(42, 63, 95); fill-opacity: 1; white-space: pre; opacity: 1;" transform="translate(0,501.01)">−0.2</text></g><g class="y2tick"><text text-anchor="start" x="1526.72" y="4.199999999999999" style="font-family: 'Open Sans', verdana, arial, sans-serif; font-size: 12px; fill: rgb(42, 63, 95); fill-opacity: 1; white-space: pre; opacity: 1;" transform="translate(0,431.62)">0</text></g><g class="y2tick"><text text-anchor="start" x="1526.72" y="4.199999999999999" style="font-family: 'Open Sans', verdana, arial, sans-serif; font-size: 12px; fill: rgb(42, 63, 95); fill-opacity: 1; white-space: pre; opacity: 1;" transform="translate(0,362.22)">0.2</text></g><g class="y2tick"><text text-anchor="start" x="1526.72" y="4.199999999999999" style="font-family: 'Open Sans', verdana, arial, sans-serif; font-size: 12px; fill: rgb(42, 63, 95); fill-opacity: 1; white-space: pre; opacity: 1;" transform="translate(0,292.83000000000004)">0.4</text></g><g class="y2tick"><text text-anchor="start" x="1526.72" y="4.199999999999999" style="font-family: 'Open Sans', verdana, arial, sans-serif; font-size: 12px; fill: rgb(42, 63, 95); fill-opacity: 1; white-space: pre; opacity: 1;" transform="translate(0,223.43)">0.6</text></g><g class="y2tick"><text text-anchor="start" x="1526.72" y="4.199999999999999" style="font-family: 'Open Sans', verdana, arial, sans-serif; font-size: 12px; fill: rgb(42, 63, 95); fill-opacity: 1; white-space: pre; opacity: 1;" transform="translate(0,154.04000000000002)">0.8</text></g><g class="y2tick"><text text-anchor="start" x="1526.72" y="4.199999999999999" style="font-family: 'Open Sans', verdana, arial, sans-serif; font-size: 12px; fill: rgb(42, 63, 95); fill-opacity: 1; white-space: pre; opacity: 1;" transform="translate(0,84.64)">1</text></g></g></g></g><g class="subplot xy2"/></g><g class="polarlayer"/><g class="smithlayer"/><g class="ternarylayer"/><g class="geolayer"/><g class="funnelarealayer"/><g class="pielayer"/><g class="iciclelayer"/><g class="treemaplayer"/><g class="sunburstlayer"/><g class="glimages"/><defs id="topdefs-b799a4"><g class="clips"/><clipPath id="legendb799a4"><rect width="139" height="67" x="0" y="0"/></clipPath></defs><g class="layer-above"><g class="imagelayer"/><g class="shapelayer"/></g><g class="infolayer"><g class="legend" pointer-events="all" transform="translate(1648.76,80)"><rect class="bg" shape-rendering="crispEdges" style="stroke: rgb(68, 68, 68); stroke-opacity: 1; fill: rgb(255, 255, 255); fill-opacity: 1; stroke-width: 0px;" width="139" height="67" x="0" y="0"/><g class="scrollbox" transform="" clip-path="url(#legendb799a4)"><g class="groups"><g class="traces" transform="translate(0,14.5)" style="opacity: 1;"><text class="legendtext" text-anchor="start" x="40" y="4.680000000000001" style="font-family: 'Open Sans', verdana, arial, sans-serif; font-size: 12px; fill: rgb(42, 63, 95); fill-opacity: 1; white-space: pre;">log10(Cell Count)</text><g class="layers" style="opacity: 1;"><g class="legendfill"/><g class="legendlines"/><g class="legendsymbols"><g class="legendpoints"><path class="legendundefined" d="M6,6H-6V-6H6Z" transform="translate(20,0)" style="stroke-width: 0.5px; fill: rgb(70, 130, 180); fill-opacity: 1; stroke: rgb(229, 236, 246); stroke-opacity: 1;"/></g></g></g><rect class="legendtoggle" x="0" y="-9.5" width="133.390625" height="19" style="fill: rgb(0, 0, 0); fill-opacity: 0;"/></g><g class="traces" transform="translate(0,33.5)" style="opacity: 1;"><text class="legendtext" text-anchor="start" x="40" y="4.680000000000001" style="font-family: 'Open Sans', verdana, arial, sans-serif; font-size: 12px; fill: rgb(42, 63, 95); fill-opacity: 1; white-space: pre;">Mean</text><g class="layers" style="opacity: 1;"><g class="legendfill"/><g class="legendlines"><path class="js-line" d="M5,0h30" style="fill: none; stroke: rgb(0, 0, 255); stroke-opacity: 1; stroke-width: 2px;"/></g><g class="legendsymbols"><g class="legendpoints"><path class="scatterpts" transform="translate(20,0)" d="M3,0A3,3 0 1,1 0,-3A3,3 0 0,1 3,0Z" style="opacity: 1; stroke-width: 0px; fill: rgb(0, 0, 255); fill-opacity: 1;"/></g></g></g><rect class="legendtoggle" x="0" y="-9.5" width="133.390625" height="19" style="fill: rgb(0, 0, 0); fill-opacity: 0;"/></g><g class="traces" transform="translate(0,52.5)" style="opacity: 1;"><text class="legendtext" text-anchor="start" x="40" y="4.680000000000001" style="font-family: 'Open Sans', verdana, arial, sans-serif; font-size: 12px; fill: rgb(42, 63, 95); fill-opacity: 1; white-space: pre;">Median</text><g class="layers" style="opacity: 1;"><g class="legendfill"/><g class="legendlines"><path class="js-line" d="M5,0h30" style="fill: none; stroke: rgb(255, 0, 0); stroke-opacity: 1; stroke-width: 2px;"/></g><g class="legendsymbols"><g class="legendpoints"><path class="scatterpts" transform="translate(20,0)" d="M3,0A3,3 0 1,1 0,-3A3,3 0 0,1 3,0Z" style="opacity: 1; stroke-width: 0px; fill: rgb(255, 0, 0); fill-opacity: 1;"/></g></g></g><rect class="legendtoggle" x="0" y="-9.5" width="133.390625" height="19" style="fill: rgb(0, 0, 0); fill-opacity: 0;"/></g></g></g><rect class="scrollbar" rx="20" ry="3" width="0" height="0" style="fill: rgb(128, 139, 164); fill-opacity: 1;" x="0" y="0"/></g><g class="g-gtitle"><text class="gtitle" x="90" y="40" text-anchor="start" dy="0em" style="font-family: 'Open Sans', verdana, arial, sans-serif; font-size: 17px; fill: rgb(42, 63, 95); opacity: 1; white-space: pre;">Cluster Cell Count (log10) vs Silhouette</text></g><g class="g-xtitle"><text class="xtitle" x="802.86" y="887.805859375" text-anchor="middle" style="font-family: 'Open Sans', verdana, arial, sans-serif; font-size: 14px; fill: rgb(42, 63, 95); opacity: 1; white-space: pre;">author_cell_type</text></g><g class="g-ytitle"><text class="ytitle" transform="rotate(-90,42.9125,380)" x="42.9125" y="380" text-anchor="middle" style="font-family: 'Open Sans', verdana, arial, sans-serif; font-size: 14px; fill: rgb(42, 63, 95); opacity: 1; white-space: pre;">log10(Cell Count)</text></g><g class="g-y2title"><text class="y2title" transform="rotate(-90,1575.05,380)" x="1575.05" y="380" text-anchor="middle" style="font-family: 'Open Sans', verdana, arial, sans-serif; font-size: 14px; fill: rgb(42, 63, 95); opacity: 1; white-space: pre;">Silhouette Score</text></g></g></svg>