<?xml version="1.0" encoding="utf-8" standalone="no"?>
<!DOCTYPE svg PUBLIC "-//W3C//DTD SVG 1.1//EN"
  "http://www.w3.org/Graphics/SVG/1.1/DTD/svg11.dtd">
<svg xmlns:xlink="http://www.w3.org/1999/xlink" width="911.34pt" height="495.723492pt" viewBox="0 0 911.34 495.723492" xmlns="http://www.w3.org/2000/svg" version="1.1">
 <metadata>
  <rdf:RDF xmlns:dc="http://purl.org/dc/elements/1.1/" xmlns:cc="http://creativecommons.org/ns#" xmlns:rdf="http://www.w3.org/1999/02/22-rdf-syntax-ns#">
   <cc:Work>
    <dc:type rdf:resource="http://purl.org/dc/dcmitype/StillImage"/>
    <dc:date>2026-05-04T18:22:13.129868</dc:date>
    <dc:format>image/svg+xml</dc:format>
    <dc:creator>
     <cc:Agent>
      <dc:title>Matplotlib v3.8.0, https://matplotlib.org/</dc:title>
     </cc:Agent>
    </dc:creator>
   </cc:Work>
  </rdf:RDF>
 </metadata>
 <defs>
  <style type="text/css">*{stroke-linejoin: round; stroke-linecap: butt}</style>
 </defs>
 <g id="figure_1">
  <g id="patch_1">
   <path d="M 0 495.723492 
L 911.34 495.723492 
L 911.34 0 
L 0 0 
z
" style="fill: #ffffff"/>
  </g>
  <g id="axes_1">
   <g id="patch_2">
    <path d="M 28.8 376.9632 
L 882.54 376.9632 
L 882.54 28.8 
L 28.8 28.8 
z
" style="fill: #ffffff"/>
   </g>
   <g id="matplotlib.axis_1">
    <g id="xtick_1">
     <g id="text_1">
      <!-- Differentiated_KC -->
      <g transform="translate(69.789084 456.673687) rotate(-90) scale(0.0833 -0.0833)">
       <defs>
        <path id="DejaVuSans-44" d="M 1259 4147 
L 1259 519 
L 2022 519 
Q 2988 519 3436 956 
Q 3884 1394 3884 2338 
Q 3884 3275 3436 3711 
Q 2988 4147 2022 4147 
L 1259 4147 
z
M 628 4666 
L 1925 4666 
Q 3281 4666 3915 4102 
Q 4550 3538 4550 2338 
Q 4550 1131 3912 565 
Q 3275 0 1925 0 
L 628 0 
L 628 4666 
z
" transform="scale(0.015625)"/>
        <path id="DejaVuSans-69" d="M 603 3500 
L 1178 3500 
L 1178 0 
L 603 0 
L 603 3500 
z
M 603 4863 
L 1178 4863 
L 1178 4134 
L 603 4134 
L 603 4863 
z
" transform="scale(0.015625)"/>
        <path id="DejaVuSans-66" d="M 2375 4863 
L 2375 4384 
L 1825 4384 
Q 1516 4384 1395 4259 
Q 1275 4134 1275 3809 
L 1275 3500 
L 2222 3500 
L 2222 3053 
L 1275 3053 
L 1275 0 
L 697 0 
L 697 3053 
L 147 3053 
L 147 3500 
L 697 3500 
L 697 3744 
Q 697 4328 969 4595 
Q 1241 4863 1831 4863 
L 2375 4863 
z
" transform="scale(0.015625)"/>
        <path id="DejaVuSans-65" d="M 3597 1894 
L 3597 1613 
L 953 1613 
Q 991 1019 1311 708 
Q 1631 397 2203 397 
Q 2534 397 2845 478 
Q 3156 559 3463 722 
L 3463 178 
Q 3153 47 2828 -22 
Q 2503 -91 2169 -91 
Q 1331 -91 842 396 
Q 353 884 353 1716 
Q 353 2575 817 3079 
Q 1281 3584 2069 3584 
Q 2775 3584 3186 3129 
Q 3597 2675 3597 1894 
z
M 3022 2063 
Q 3016 2534 2758 2815 
Q 2500 3097 2075 3097 
Q 1594 3097 1305 2825 
Q 1016 2553 972 2059 
L 3022 2063 
z
" transform="scale(0.015625)"/>
        <path id="DejaVuSans-72" d="M 2631 2963 
Q 2534 3019 2420 3045 
Q 2306 3072 2169 3072 
Q 1681 3072 1420 2755 
Q 1159 2438 1159 1844 
L 1159 0 
L 581 0 
L 581 3500 
L 1159 3500 
L 1159 2956 
Q 1341 3275 1631 3429 
Q 1922 3584 2338 3584 
Q 2397 3584 2469 3576 
Q 2541 3569 2628 3553 
L 2631 2963 
z
" transform="scale(0.015625)"/>
        <path id="DejaVuSans-6e" d="M 3513 2113 
L 3513 0 
L 2938 0 
L 2938 2094 
Q 2938 2591 2744 2837 
Q 2550 3084 2163 3084 
Q 1697 3084 1428 2787 
Q 1159 2491 1159 1978 
L 1159 0 
L 581 0 
L 581 3500 
L 1159 3500 
L 1159 2956 
Q 1366 3272 1645 3428 
Q 1925 3584 2291 3584 
Q 2894 3584 3203 3211 
Q 3513 2838 3513 2113 
z
" transform="scale(0.015625)"/>
        <path id="DejaVuSans-74" d="M 1172 4494 
L 1172 3500 
L 2356 3500 
L 2356 3053 
L 1172 3053 
L 1172 1153 
Q 1172 725 1289 603 
Q 1406 481 1766 481 
L 2356 481 
L 2356 0 
L 1766 0 
Q 1100 0 847 248 
Q 594 497 594 1153 
L 594 3053 
L 172 3053 
L 172 3500 
L 594 3500 
L 594 4494 
L 1172 4494 
z
" transform="scale(0.015625)"/>
        <path id="DejaVuSans-61" d="M 2194 1759 
Q 1497 1759 1228 1600 
Q 959 1441 959 1056 
Q 959 750 1161 570 
Q 1363 391 1709 391 
Q 2188 391 2477 730 
Q 2766 1069 2766 1631 
L 2766 1759 
L 2194 1759 
z
M 3341 1997 
L 3341 0 
L 2766 0 
L 2766 531 
Q 2569 213 2275 61 
Q 1981 -91 1556 -91 
Q 1019 -91 701 211 
Q 384 513 384 1019 
Q 384 1609 779 1909 
Q 1175 2209 1959 2209 
L 2766 2209 
L 2766 2266 
Q 2766 2663 2505 2880 
Q 2244 3097 1772 3097 
Q 1472 3097 1187 3025 
Q 903 2953 641 2809 
L 641 3341 
Q 956 3463 1253 3523 
Q 1550 3584 1831 3584 
Q 2591 3584 2966 3190 
Q 3341 2797 3341 1997 
z
" transform="scale(0.015625)"/>
        <path id="DejaVuSans-64" d="M 2906 2969 
L 2906 4863 
L 3481 4863 
L 3481 0 
L 2906 0 
L 2906 525 
Q 2725 213 2448 61 
Q 2172 -91 1784 -91 
Q 1150 -91 751 415 
Q 353 922 353 1747 
Q 353 2572 751 3078 
Q 1150 3584 1784 3584 
Q 2172 3584 2448 3432 
Q 2725 3281 2906 2969 
z
M 947 1747 
Q 947 1113 1208 752 
Q 1469 391 1925 391 
Q 2381 391 2643 752 
Q 2906 1113 2906 1747 
Q 2906 2381 2643 2742 
Q 2381 3103 1925 3103 
Q 1469 3103 1208 2742 
Q 947 2381 947 1747 
z
" transform="scale(0.015625)"/>
        <path id="DejaVuSans-5f" d="M 3263 -1063 
L 3263 -1509 
L -63 -1509 
L -63 -1063 
L 3263 -1063 
z
" transform="scale(0.015625)"/>
        <path id="DejaVuSans-4b" d="M 628 4666 
L 1259 4666 
L 1259 2694 
L 3353 4666 
L 4166 4666 
L 1850 2491 
L 4331 0 
L 3500 0 
L 1259 2247 
L 1259 0 
L 628 0 
L 628 4666 
z
" transform="scale(0.015625)"/>
        <path id="DejaVuSans-43" d="M 4122 4306 
L 4122 3641 
Q 3803 3938 3442 4084 
Q 3081 4231 2675 4231 
Q 1875 4231 1450 3742 
Q 1025 3253 1025 2328 
Q 1025 1406 1450 917 
Q 1875 428 2675 428 
Q 3081 428 3442 575 
Q 3803 722 4122 1019 
L 4122 359 
Q 3791 134 3420 21 
Q 3050 -91 2638 -91 
Q 1578 -91 968 557 
Q 359 1206 359 2328 
Q 359 3453 968 4101 
Q 1578 4750 2638 4750 
Q 3056 4750 3426 4639 
Q 3797 4528 4122 4306 
z
" transform="scale(0.015625)"/>
       </defs>
       <use xlink:href="#DejaVuSans-44"/>
       <use xlink:href="#DejaVuSans-69" x="77.001953"/>
       <use xlink:href="#DejaVuSans-66" x="104.785156"/>
       <use xlink:href="#DejaVuSans-66" x="139.990234"/>
       <use xlink:href="#DejaVuSans-65" x="175.195312"/>
       <use xlink:href="#DejaVuSans-72" x="236.71875"/>
       <use xlink:href="#DejaVuSans-65" x="275.582031"/>
       <use xlink:href="#DejaVuSans-6e" x="337.105469"/>
       <use xlink:href="#DejaVuSans-74" x="400.484375"/>
       <use xlink:href="#DejaVuSans-69" x="439.693359"/>
       <use xlink:href="#DejaVuSans-61" x="467.476562"/>
       <use xlink:href="#DejaVuSans-74" x="528.755859"/>
       <use xlink:href="#DejaVuSans-65" x="567.964844"/>
       <use xlink:href="#DejaVuSans-64" x="629.488281"/>
       <use xlink:href="#DejaVuSans-5f" x="692.964844"/>
       <use xlink:href="#DejaVuSans-4b" x="742.964844"/>
       <use xlink:href="#DejaVuSans-43" x="803.041016"/>
      </g>
     </g>
    </g>
    <g id="xtick_2">
     <g id="text_2">
      <!-- Undifferentiated_KC -->
      <g transform="translate(93.308092 466.923492) rotate(-90) scale(0.0833 -0.0833)">
       <defs>
        <path id="DejaVuSans-55" d="M 556 4666 
L 1191 4666 
L 1191 1831 
Q 1191 1081 1462 751 
Q 1734 422 2344 422 
Q 2950 422 3222 751 
Q 3494 1081 3494 1831 
L 3494 4666 
L 4128 4666 
L 4128 1753 
Q 4128 841 3676 375 
Q 3225 -91 2344 -91 
Q 1459 -91 1007 375 
Q 556 841 556 1753 
L 556 4666 
z
" transform="scale(0.015625)"/>
       </defs>
       <use xlink:href="#DejaVuSans-55"/>
       <use xlink:href="#DejaVuSans-6e" x="73.193359"/>
       <use xlink:href="#DejaVuSans-64" x="136.572266"/>
       <use xlink:href="#DejaVuSans-69" x="200.048828"/>
       <use xlink:href="#DejaVuSans-66" x="227.832031"/>
       <use xlink:href="#DejaVuSans-66" x="263.037109"/>
       <use xlink:href="#DejaVuSans-65" x="298.242188"/>
       <use xlink:href="#DejaVuSans-72" x="359.765625"/>
       <use xlink:href="#DejaVuSans-65" x="398.628906"/>
       <use xlink:href="#DejaVuSans-6e" x="460.152344"/>
       <use xlink:href="#DejaVuSans-74" x="523.53125"/>
       <use xlink:href="#DejaVuSans-69" x="562.740234"/>
       <use xlink:href="#DejaVuSans-61" x="590.523438"/>
       <use xlink:href="#DejaVuSans-74" x="651.802734"/>
       <use xlink:href="#DejaVuSans-65" x="691.011719"/>
       <use xlink:href="#DejaVuSans-64" x="752.535156"/>
       <use xlink:href="#DejaVuSans-5f" x="816.011719"/>
       <use xlink:href="#DejaVuSans-4b" x="866.011719"/>
       <use xlink:href="#DejaVuSans-43" x="926.087891"/>
      </g>
     </g>
    </g>
    <g id="xtick_3">
     <g id="text_3">
      <!-- VE1 -->
      <g transform="translate(116.94294 400.224922) rotate(-90) scale(0.0833 -0.0833)">
       <defs>
        <path id="DejaVuSans-56" d="M 1831 0 
L 50 4666 
L 709 4666 
L 2188 738 
L 3669 4666 
L 4325 4666 
L 2547 0 
L 1831 0 
z
" transform="scale(0.015625)"/>
        <path id="DejaVuSans-45" d="M 628 4666 
L 3578 4666 
L 3578 4134 
L 1259 4134 
L 1259 2753 
L 3481 2753 
L 3481 2222 
L 1259 2222 
L 1259 531 
L 3634 531 
L 3634 0 
L 628 0 
L 628 4666 
z
" transform="scale(0.015625)"/>
        <path id="DejaVuSans-31" d="M 794 531 
L 1825 531 
L 1825 4091 
L 703 3866 
L 703 4441 
L 1819 4666 
L 2450 4666 
L 2450 531 
L 3481 531 
L 3481 0 
L 794 0 
L 794 531 
z
" transform="scale(0.015625)"/>
       </defs>
       <use xlink:href="#DejaVuSans-56"/>
       <use xlink:href="#DejaVuSans-45" x="68.408203"/>
       <use xlink:href="#DejaVuSans-31" x="131.591797"/>
      </g>
     </g>
    </g>
    <g id="xtick_4">
     <g id="text_4">
      <!-- VE2 -->
      <g transform="translate(140.461948 400.224922) rotate(-90) scale(0.0833 -0.0833)">
       <defs>
        <path id="DejaVuSans-32" d="M 1228 531 
L 3431 531 
L 3431 0 
L 469 0 
L 469 531 
Q 828 903 1448 1529 
Q 2069 2156 2228 2338 
Q 2531 2678 2651 2914 
Q 2772 3150 2772 3378 
Q 2772 3750 2511 3984 
Q 2250 4219 1831 4219 
Q 1534 4219 1204 4116 
Q 875 4013 500 3803 
L 500 4441 
Q 881 4594 1212 4672 
Q 1544 4750 1819 4750 
Q 2544 4750 2975 4387 
Q 3406 4025 3406 3419 
Q 3406 3131 3298 2873 
Q 3191 2616 2906 2266 
Q 2828 2175 2409 1742 
Q 1991 1309 1228 531 
z
" transform="scale(0.015625)"/>
       </defs>
       <use xlink:href="#DejaVuSans-56"/>
       <use xlink:href="#DejaVuSans-45" x="68.408203"/>
       <use xlink:href="#DejaVuSans-32" x="131.591797"/>
      </g>
     </g>
    </g>
    <g id="xtick_5">
     <g id="text_5">
      <!-- VE3 -->
      <g transform="translate(163.980956 400.224922) rotate(-90) scale(0.0833 -0.0833)">
       <defs>
        <path id="DejaVuSans-33" d="M 2597 2516 
Q 3050 2419 3304 2112 
Q 3559 1806 3559 1356 
Q 3559 666 3084 287 
Q 2609 -91 1734 -91 
Q 1441 -91 1130 -33 
Q 819 25 488 141 
L 488 750 
Q 750 597 1062 519 
Q 1375 441 1716 441 
Q 2309 441 2620 675 
Q 2931 909 2931 1356 
Q 2931 1769 2642 2001 
Q 2353 2234 1838 2234 
L 1294 2234 
L 1294 2753 
L 1863 2753 
Q 2328 2753 2575 2939 
Q 2822 3125 2822 3475 
Q 2822 3834 2567 4026 
Q 2313 4219 1838 4219 
Q 1578 4219 1281 4162 
Q 984 4106 628 3988 
L 628 4550 
Q 988 4650 1302 4700 
Q 1616 4750 1894 4750 
Q 2613 4750 3031 4423 
Q 3450 4097 3450 3541 
Q 3450 3153 3228 2886 
Q 3006 2619 2597 2516 
z
" transform="scale(0.015625)"/>
       </defs>
       <use xlink:href="#DejaVuSans-56"/>
       <use xlink:href="#DejaVuSans-45" x="68.408203"/>
       <use xlink:href="#DejaVuSans-33" x="131.591797"/>
      </g>
     </g>
    </g>
    <g id="xtick_6">
     <g id="text_6">
      <!-- LE1 -->
      <g transform="translate(187.499964 399.168053) rotate(-90) scale(0.0833 -0.0833)">
       <defs>
        <path id="DejaVuSans-4c" d="M 628 4666 
L 1259 4666 
L 1259 531 
L 3531 531 
L 3531 0 
L 628 0 
L 628 4666 
z
" transform="scale(0.015625)"/>
       </defs>
       <use xlink:href="#DejaVuSans-4c"/>
       <use xlink:href="#DejaVuSans-45" x="55.712891"/>
       <use xlink:href="#DejaVuSans-31" x="118.896484"/>
      </g>
     </g>
    </g>
    <g id="xtick_7">
     <g id="text_7">
      <!-- LE2 -->
      <g transform="translate(211.018973 399.168053) rotate(-90) scale(0.0833 -0.0833)">
       <use xlink:href="#DejaVuSans-4c"/>
       <use xlink:href="#DejaVuSans-45" x="55.712891"/>
       <use xlink:href="#DejaVuSans-32" x="118.896484"/>
      </g>
     </g>
    </g>
    <g id="xtick_8">
     <g id="text_8">
      <!-- Schwann_1 -->
      <g transform="translate(234.422142 431.051128) rotate(-90) scale(0.0833 -0.0833)">
       <defs>
        <path id="DejaVuSans-53" d="M 3425 4513 
L 3425 3897 
Q 3066 4069 2747 4153 
Q 2428 4238 2131 4238 
Q 1616 4238 1336 4038 
Q 1056 3838 1056 3469 
Q 1056 3159 1242 3001 
Q 1428 2844 1947 2747 
L 2328 2669 
Q 3034 2534 3370 2195 
Q 3706 1856 3706 1288 
Q 3706 609 3251 259 
Q 2797 -91 1919 -91 
Q 1588 -91 1214 -16 
Q 841 59 441 206 
L 441 856 
Q 825 641 1194 531 
Q 1563 422 1919 422 
Q 2459 422 2753 634 
Q 3047 847 3047 1241 
Q 3047 1584 2836 1778 
Q 2625 1972 2144 2069 
L 1759 2144 
Q 1053 2284 737 2584 
Q 422 2884 422 3419 
Q 422 4038 858 4394 
Q 1294 4750 2059 4750 
Q 2388 4750 2728 4690 
Q 3069 4631 3425 4513 
z
" transform="scale(0.015625)"/>
        <path id="DejaVuSans-63" d="M 3122 3366 
L 3122 2828 
Q 2878 2963 2633 3030 
Q 2388 3097 2138 3097 
Q 1578 3097 1268 2742 
Q 959 2388 959 1747 
Q 959 1106 1268 751 
Q 1578 397 2138 397 
Q 2388 397 2633 464 
Q 2878 531 3122 666 
L 3122 134 
Q 2881 22 2623 -34 
Q 2366 -91 2075 -91 
Q 1284 -91 818 406 
Q 353 903 353 1747 
Q 353 2603 823 3093 
Q 1294 3584 2113 3584 
Q 2378 3584 2631 3529 
Q 2884 3475 3122 3366 
z
" transform="scale(0.015625)"/>
        <path id="DejaVuSans-68" d="M 3513 2113 
L 3513 0 
L 2938 0 
L 2938 2094 
Q 2938 2591 2744 2837 
Q 2550 3084 2163 3084 
Q 1697 3084 1428 2787 
Q 1159 2491 1159 1978 
L 1159 0 
L 581 0 
L 581 4863 
L 1159 4863 
L 1159 2956 
Q 1366 3272 1645 3428 
Q 1925 3584 2291 3584 
Q 2894 3584 3203 3211 
Q 3513 2838 3513 2113 
z
" transform="scale(0.015625)"/>
        <path id="DejaVuSans-77" d="M 269 3500 
L 844 3500 
L 1563 769 
L 2278 3500 
L 2956 3500 
L 3675 769 
L 4391 3500 
L 4966 3500 
L 4050 0 
L 3372 0 
L 2619 2869 
L 1863 0 
L 1184 0 
L 269 3500 
z
" transform="scale(0.015625)"/>
       </defs>
       <use xlink:href="#DejaVuSans-53"/>
       <use xlink:href="#DejaVuSans-63" x="63.476562"/>
       <use xlink:href="#DejaVuSans-68" x="118.457031"/>
       <use xlink:href="#DejaVuSans-77" x="181.835938"/>
       <use xlink:href="#DejaVuSans-61" x="263.623047"/>
       <use xlink:href="#DejaVuSans-6e" x="324.902344"/>
       <use xlink:href="#DejaVuSans-6e" x="388.28125"/>
       <use xlink:href="#DejaVuSans-5f" x="451.660156"/>
       <use xlink:href="#DejaVuSans-31" x="501.660156"/>
      </g>
     </g>
    </g>
    <g id="xtick_9">
     <g id="text_9">
      <!-- F2 -->
      <g transform="translate(258.056989 394.054214) rotate(-90) scale(0.0833 -0.0833)">
       <defs>
        <path id="DejaVuSans-46" d="M 628 4666 
L 3309 4666 
L 3309 4134 
L 1259 4134 
L 1259 2759 
L 3109 2759 
L 3109 2228 
L 1259 2228 
L 1259 0 
L 628 0 
L 628 4666 
z
" transform="scale(0.015625)"/>
       </defs>
       <use xlink:href="#DejaVuSans-46"/>
       <use xlink:href="#DejaVuSans-32" x="57.519531"/>
      </g>
     </g>
    </g>
    <g id="xtick_10">
     <g id="text_10">
      <!-- F1 -->
      <g transform="translate(281.575997 394.054214) rotate(-90) scale(0.0833 -0.0833)">
       <use xlink:href="#DejaVuSans-46"/>
       <use xlink:href="#DejaVuSans-31" x="57.519531"/>
      </g>
     </g>
    </g>
    <g id="xtick_11">
     <g id="text_11">
      <!-- F3 -->
      <g transform="translate(305.095006 394.054214) rotate(-90) scale(0.0833 -0.0833)">
       <use xlink:href="#DejaVuSans-46"/>
       <use xlink:href="#DejaVuSans-33" x="57.519531"/>
      </g>
     </g>
    </g>
    <g id="xtick_12">
     <g id="text_12">
      <!-- Pericyte_1 -->
      <g transform="translate(328.498175 426.914762) rotate(-90) scale(0.0833 -0.0833)">
       <defs>
        <path id="DejaVuSans-50" d="M 1259 4147 
L 1259 2394 
L 2053 2394 
Q 2494 2394 2734 2622 
Q 2975 2850 2975 3272 
Q 2975 3691 2734 3919 
Q 2494 4147 2053 4147 
L 1259 4147 
z
M 628 4666 
L 2053 4666 
Q 2838 4666 3239 4311 
Q 3641 3956 3641 3272 
Q 3641 2581 3239 2228 
Q 2838 1875 2053 1875 
L 1259 1875 
L 1259 0 
L 628 0 
L 628 4666 
z
" transform="scale(0.015625)"/>
        <path id="DejaVuSans-79" d="M 2059 -325 
Q 1816 -950 1584 -1140 
Q 1353 -1331 966 -1331 
L 506 -1331 
L 506 -850 
L 844 -850 
Q 1081 -850 1212 -737 
Q 1344 -625 1503 -206 
L 1606 56 
L 191 3500 
L 800 3500 
L 1894 763 
L 2988 3500 
L 3597 3500 
L 2059 -325 
z
" transform="scale(0.015625)"/>
       </defs>
       <use xlink:href="#DejaVuSans-50"/>
       <use xlink:href="#DejaVuSans-65" x="56.677734"/>
       <use xlink:href="#DejaVuSans-72" x="118.201172"/>
       <use xlink:href="#DejaVuSans-69" x="159.314453"/>
       <use xlink:href="#DejaVuSans-63" x="187.097656"/>
       <use xlink:href="#DejaVuSans-79" x="242.078125"/>
       <use xlink:href="#DejaVuSans-74" x="301.257812"/>
       <use xlink:href="#DejaVuSans-65" x="340.466797"/>
       <use xlink:href="#DejaVuSans-5f" x="401.990234"/>
       <use xlink:href="#DejaVuSans-31" x="451.990234"/>
      </g>
     </g>
    </g>
    <g id="xtick_13">
     <g id="text_13">
      <!-- Pericyte_2 -->
      <g transform="translate(352.017183 426.914762) rotate(-90) scale(0.0833 -0.0833)">
       <use xlink:href="#DejaVuSans-50"/>
       <use xlink:href="#DejaVuSans-65" x="56.677734"/>
       <use xlink:href="#DejaVuSans-72" x="118.201172"/>
       <use xlink:href="#DejaVuSans-69" x="159.314453"/>
       <use xlink:href="#DejaVuSans-63" x="187.097656"/>
       <use xlink:href="#DejaVuSans-79" x="242.078125"/>
       <use xlink:href="#DejaVuSans-74" x="301.257812"/>
       <use xlink:href="#DejaVuSans-65" x="340.466797"/>
       <use xlink:href="#DejaVuSans-5f" x="401.990234"/>
       <use xlink:href="#DejaVuSans-32" x="451.990234"/>
      </g>
     </g>
    </g>
    <g id="xtick_14">
     <g id="text_14">
      <!-- Schwann_2 -->
      <g transform="translate(375.536191 431.051128) rotate(-90) scale(0.0833 -0.0833)">
       <use xlink:href="#DejaVuSans-53"/>
       <use xlink:href="#DejaVuSans-63" x="63.476562"/>
       <use xlink:href="#DejaVuSans-68" x="118.457031"/>
       <use xlink:href="#DejaVuSans-77" x="181.835938"/>
       <use xlink:href="#DejaVuSans-61" x="263.623047"/>
       <use xlink:href="#DejaVuSans-6e" x="324.902344"/>
       <use xlink:href="#DejaVuSans-6e" x="388.28125"/>
       <use xlink:href="#DejaVuSans-5f" x="451.660156"/>
       <use xlink:href="#DejaVuSans-32" x="501.660156"/>
      </g>
     </g>
    </g>
    <g id="xtick_15">
     <g id="text_15">
      <!-- Melanocyte -->
      <g transform="translate(399.171039 431.972634) rotate(-90) scale(0.0833 -0.0833)">
       <defs>
        <path id="DejaVuSans-4d" d="M 628 4666 
L 1569 4666 
L 2759 1491 
L 3956 4666 
L 4897 4666 
L 4897 0 
L 4281 0 
L 4281 4097 
L 3078 897 
L 2444 897 
L 1241 4097 
L 1241 0 
L 628 0 
L 628 4666 
z
" transform="scale(0.015625)"/>
        <path id="DejaVuSans-6c" d="M 603 4863 
L 1178 4863 
L 1178 0 
L 603 0 
L 603 4863 
z
" transform="scale(0.015625)"/>
        <path id="DejaVuSans-6f" d="M 1959 3097 
Q 1497 3097 1228 2736 
Q 959 2375 959 1747 
Q 959 1119 1226 758 
Q 1494 397 1959 397 
Q 2419 397 2687 759 
Q 2956 1122 2956 1747 
Q 2956 2369 2687 2733 
Q 2419 3097 1959 3097 
z
M 1959 3584 
Q 2709 3584 3137 3096 
Q 3566 2609 3566 1747 
Q 3566 888 3137 398 
Q 2709 -91 1959 -91 
Q 1206 -91 779 398 
Q 353 888 353 1747 
Q 353 2609 779 3096 
Q 1206 3584 1959 3584 
z
" transform="scale(0.015625)"/>
       </defs>
       <use xlink:href="#DejaVuSans-4d"/>
       <use xlink:href="#DejaVuSans-65" x="86.279297"/>
       <use xlink:href="#DejaVuSans-6c" x="147.802734"/>
       <use xlink:href="#DejaVuSans-61" x="175.585938"/>
       <use xlink:href="#DejaVuSans-6e" x="236.865234"/>
       <use xlink:href="#DejaVuSans-6f" x="300.244141"/>
       <use xlink:href="#DejaVuSans-63" x="361.425781"/>
       <use xlink:href="#DejaVuSans-79" x="416.40625"/>
       <use xlink:href="#DejaVuSans-74" x="475.585938"/>
       <use xlink:href="#DejaVuSans-65" x="514.794922"/>
      </g>
     </g>
    </g>
    <g id="xtick_16">
     <g id="text_16">
      <!-- Plasma -->
      <g transform="translate(422.690047 413.962914) rotate(-90) scale(0.0833 -0.0833)">
       <defs>
        <path id="DejaVuSans-73" d="M 2834 3397 
L 2834 2853 
Q 2591 2978 2328 3040 
Q 2066 3103 1784 3103 
Q 1356 3103 1142 2972 
Q 928 2841 928 2578 
Q 928 2378 1081 2264 
Q 1234 2150 1697 2047 
L 1894 2003 
Q 2506 1872 2764 1633 
Q 3022 1394 3022 966 
Q 3022 478 2636 193 
Q 2250 -91 1575 -91 
Q 1294 -91 989 -36 
Q 684 19 347 128 
L 347 722 
Q 666 556 975 473 
Q 1284 391 1588 391 
Q 1994 391 2212 530 
Q 2431 669 2431 922 
Q 2431 1156 2273 1281 
Q 2116 1406 1581 1522 
L 1381 1569 
Q 847 1681 609 1914 
Q 372 2147 372 2553 
Q 372 3047 722 3315 
Q 1072 3584 1716 3584 
Q 2034 3584 2315 3537 
Q 2597 3491 2834 3397 
z
" transform="scale(0.015625)"/>
        <path id="DejaVuSans-6d" d="M 3328 2828 
Q 3544 3216 3844 3400 
Q 4144 3584 4550 3584 
Q 5097 3584 5394 3201 
Q 5691 2819 5691 2113 
L 5691 0 
L 5113 0 
L 5113 2094 
Q 5113 2597 4934 2840 
Q 4756 3084 4391 3084 
Q 3944 3084 3684 2787 
Q 3425 2491 3425 1978 
L 3425 0 
L 2847 0 
L 2847 2094 
Q 2847 2600 2669 2842 
Q 2491 3084 2119 3084 
Q 1678 3084 1418 2786 
Q 1159 2488 1159 1978 
L 1159 0 
L 581 0 
L 581 3500 
L 1159 3500 
L 1159 2956 
Q 1356 3278 1631 3431 
Q 1906 3584 2284 3584 
Q 2666 3584 2933 3390 
Q 3200 3197 3328 2828 
z
" transform="scale(0.015625)"/>
       </defs>
       <use xlink:href="#DejaVuSans-50"/>
       <use xlink:href="#DejaVuSans-6c" x="60.302734"/>
       <use xlink:href="#DejaVuSans-61" x="88.085938"/>
       <use xlink:href="#DejaVuSans-73" x="149.365234"/>
       <use xlink:href="#DejaVuSans-6d" x="201.464844"/>
       <use xlink:href="#DejaVuSans-61" x="298.876953"/>
      </g>
     </g>
    </g>
    <g id="xtick_17">
     <g id="text_17">
      <!-- Mast_cell -->
      <g transform="translate(446.093216 422.359294) rotate(-90) scale(0.0833 -0.0833)">
       <use xlink:href="#DejaVuSans-4d"/>
       <use xlink:href="#DejaVuSans-61" x="86.279297"/>
       <use xlink:href="#DejaVuSans-73" x="147.558594"/>
       <use xlink:href="#DejaVuSans-74" x="199.658203"/>
       <use xlink:href="#DejaVuSans-5f" x="238.867188"/>
       <use xlink:href="#DejaVuSans-63" x="288.867188"/>
       <use xlink:href="#DejaVuSans-65" x="343.847656"/>
       <use xlink:href="#DejaVuSans-6c" x="405.371094"/>
       <use xlink:href="#DejaVuSans-6c" x="433.154297"/>
      </g>
     </g>
    </g>
    <g id="xtick_18">
     <g id="text_18">
      <!-- NK -->
      <g transform="translate(469.728064 395.657739) rotate(-90) scale(0.0833 -0.0833)">
       <defs>
        <path id="DejaVuSans-4e" d="M 628 4666 
L 1478 4666 
L 3547 763 
L 3547 4666 
L 4159 4666 
L 4159 0 
L 3309 0 
L 1241 3903 
L 1241 0 
L 628 0 
L 628 4666 
z
" transform="scale(0.015625)"/>
       </defs>
       <use xlink:href="#DejaVuSans-4e"/>
       <use xlink:href="#DejaVuSans-4b" x="74.804688"/>
      </g>
     </g>
    </g>
    <g id="xtick_19">
     <g id="text_19">
      <!-- ILC1_NK -->
      <g transform="translate(493.057694 418.038106) rotate(-90) scale(0.0833 -0.0833)">
       <defs>
        <path id="DejaVuSans-49" d="M 628 4666 
L 1259 4666 
L 1259 0 
L 628 0 
L 628 4666 
z
" transform="scale(0.015625)"/>
       </defs>
       <use xlink:href="#DejaVuSans-49"/>
       <use xlink:href="#DejaVuSans-4c" x="29.492188"/>
       <use xlink:href="#DejaVuSans-43" x="85.205078"/>
       <use xlink:href="#DejaVuSans-31" x="155.029297"/>
       <use xlink:href="#DejaVuSans-5f" x="218.652344"/>
       <use xlink:href="#DejaVuSans-4e" x="268.652344"/>
       <use xlink:href="#DejaVuSans-4b" x="343.457031"/>
      </g>
     </g>
    </g>
    <g id="xtick_20">
     <g id="text_20">
      <!-- ILC1_3 -->
      <g transform="translate(516.576703 411.64353) rotate(-90) scale(0.0833 -0.0833)">
       <use xlink:href="#DejaVuSans-49"/>
       <use xlink:href="#DejaVuSans-4c" x="29.492188"/>
       <use xlink:href="#DejaVuSans-43" x="85.205078"/>
       <use xlink:href="#DejaVuSans-31" x="155.029297"/>
       <use xlink:href="#DejaVuSans-5f" x="218.652344"/>
       <use xlink:href="#DejaVuSans-33" x="268.652344"/>
      </g>
     </g>
    </g>
    <g id="xtick_21">
     <g id="text_21">
      <!-- Tc -->
      <g transform="translate(540.285088 392.215106) rotate(-90) scale(0.0833 -0.0833)">
       <defs>
        <path id="DejaVuSans-54" d="M -19 4666 
L 3928 4666 
L 3928 4134 
L 2272 4134 
L 2272 0 
L 1638 0 
L 1638 4134 
L -19 4134 
L -19 4666 
z
" transform="scale(0.015625)"/>
       </defs>
       <use xlink:href="#DejaVuSans-54"/>
       <use xlink:href="#DejaVuSans-63" x="44.083984"/>
      </g>
     </g>
    </g>
    <g id="xtick_22">
     <g id="text_22">
      <!-- ILC2 -->
      <g transform="translate(563.804097 402.178567) rotate(-90) scale(0.0833 -0.0833)">
       <use xlink:href="#DejaVuSans-49"/>
       <use xlink:href="#DejaVuSans-4c" x="29.492188"/>
       <use xlink:href="#DejaVuSans-43" x="85.205078"/>
       <use xlink:href="#DejaVuSans-32" x="155.029297"/>
      </g>
     </g>
    </g>
    <g id="xtick_23">
     <g id="text_23">
      <!-- Th -->
      <g transform="translate(587.323105 394.330145) rotate(-90) scale(0.0833 -0.0833)">
       <use xlink:href="#DejaVuSans-54"/>
       <use xlink:href="#DejaVuSans-68" x="61.083984"/>
      </g>
     </g>
    </g>
    <g id="xtick_24">
     <g id="text_24">
      <!-- Treg -->
      <g transform="translate(610.842113 401.47312) rotate(-90) scale(0.0833 -0.0833)">
       <defs>
        <path id="DejaVuSans-67" d="M 2906 1791 
Q 2906 2416 2648 2759 
Q 2391 3103 1925 3103 
Q 1463 3103 1205 2759 
Q 947 2416 947 1791 
Q 947 1169 1205 825 
Q 1463 481 1925 481 
Q 2391 481 2648 825 
Q 2906 1169 2906 1791 
z
M 3481 434 
Q 3481 -459 3084 -895 
Q 2688 -1331 1869 -1331 
Q 1566 -1331 1297 -1286 
Q 1028 -1241 775 -1147 
L 775 -588 
Q 1028 -725 1275 -790 
Q 1522 -856 1778 -856 
Q 2344 -856 2625 -561 
Q 2906 -266 2906 331 
L 2906 616 
Q 2728 306 2450 153 
Q 2172 0 1784 0 
Q 1141 0 747 490 
Q 353 981 353 1791 
Q 353 2603 747 3093 
Q 1141 3584 1784 3584 
Q 2172 3584 2450 3431 
Q 2728 3278 2906 2969 
L 2906 3500 
L 3481 3500 
L 3481 434 
z
" transform="scale(0.015625)"/>
       </defs>
       <use xlink:href="#DejaVuSans-54"/>
       <use xlink:href="#DejaVuSans-72" x="46.333984"/>
       <use xlink:href="#DejaVuSans-65" x="85.197266"/>
       <use xlink:href="#DejaVuSans-67" x="146.720703"/>
      </g>
     </g>
    </g>
    <g id="xtick_25">
     <g id="text_25">
      <!-- Inf_mac -->
      <g transform="translate(634.245282 416.595975) rotate(-90) scale(0.0833 -0.0833)">
       <use xlink:href="#DejaVuSans-49"/>
       <use xlink:href="#DejaVuSans-6e" x="29.492188"/>
       <use xlink:href="#DejaVuSans-66" x="92.871094"/>
       <use xlink:href="#DejaVuSans-5f" x="128.076172"/>
       <use xlink:href="#DejaVuSans-6d" x="178.076172"/>
       <use xlink:href="#DejaVuSans-61" x="275.488281"/>
       <use xlink:href="#DejaVuSans-63" x="336.767578"/>
      </g>
     </g>
    </g>
    <g id="xtick_26">
     <g id="text_26">
      <!-- DC1 -->
      <g transform="translate(657.88013 401.493945) rotate(-90) scale(0.0833 -0.0833)">
       <use xlink:href="#DejaVuSans-44"/>
       <use xlink:href="#DejaVuSans-43" x="77.001953"/>
       <use xlink:href="#DejaVuSans-31" x="146.826172"/>
      </g>
     </g>
    </g>
    <g id="xtick_27">
     <g id="text_27">
      <!-- MigDC -->
      <g transform="translate(681.399138 410.983637) rotate(-90) scale(0.0833 -0.0833)">
       <use xlink:href="#DejaVuSans-4d"/>
       <use xlink:href="#DejaVuSans-69" x="86.279297"/>
       <use xlink:href="#DejaVuSans-67" x="114.0625"/>
       <use xlink:href="#DejaVuSans-44" x="177.539062"/>
       <use xlink:href="#DejaVuSans-43" x="254.541016"/>
      </g>
     </g>
    </g>
    <g id="xtick_28">
     <g id="text_28">
      <!-- moDC -->
      <g transform="translate(704.918146 409.404842) rotate(-90) scale(0.0833 -0.0833)">
       <use xlink:href="#DejaVuSans-6d"/>
       <use xlink:href="#DejaVuSans-6f" x="97.412109"/>
       <use xlink:href="#DejaVuSans-44" x="158.59375"/>
       <use xlink:href="#DejaVuSans-43" x="235.595703"/>
      </g>
     </g>
    </g>
    <g id="xtick_29">
     <g id="text_29">
      <!-- migLC -->
      <g transform="translate(728.437154 410.137622) rotate(-90) scale(0.0833 -0.0833)">
       <use xlink:href="#DejaVuSans-6d"/>
       <use xlink:href="#DejaVuSans-69" x="97.412109"/>
       <use xlink:href="#DejaVuSans-67" x="125.195312"/>
       <use xlink:href="#DejaVuSans-4c" x="188.671875"/>
       <use xlink:href="#DejaVuSans-43" x="244.384766"/>
      </g>
     </g>
    </g>
    <g id="xtick_30">
     <g id="text_30">
      <!-- LC -->
      <g transform="translate(751.956163 394.421255) rotate(-90) scale(0.0833 -0.0833)">
       <use xlink:href="#DejaVuSans-4c"/>
       <use xlink:href="#DejaVuSans-43" x="55.712891"/>
      </g>
     </g>
    </g>
    <g id="xtick_31">
     <g id="text_31">
      <!-- DC2 -->
      <g transform="translate(775.475171 401.493945) rotate(-90) scale(0.0833 -0.0833)">
       <use xlink:href="#DejaVuSans-44"/>
       <use xlink:href="#DejaVuSans-43" x="77.001953"/>
       <use xlink:href="#DejaVuSans-32" x="146.826172"/>
      </g>
     </g>
    </g>
    <g id="xtick_32">
     <g id="text_32">
      <!-- Macro_2 -->
      <g transform="translate(798.804802 418.634222) rotate(-90) scale(0.0833 -0.0833)">
       <use xlink:href="#DejaVuSans-4d"/>
       <use xlink:href="#DejaVuSans-61" x="86.279297"/>
       <use xlink:href="#DejaVuSans-63" x="147.558594"/>
       <use xlink:href="#DejaVuSans-72" x="202.539062"/>
       <use xlink:href="#DejaVuSans-6f" x="241.402344"/>
       <use xlink:href="#DejaVuSans-5f" x="302.583984"/>
       <use xlink:href="#DejaVuSans-32" x="352.583984"/>
      </g>
     </g>
    </g>
    <g id="xtick_33">
     <g id="text_33">
      <!-- Macro_1 -->
      <g transform="translate(822.281509 418.634222) rotate(-90) scale(0.0833 -0.0833)">
       <use xlink:href="#DejaVuSans-4d"/>
       <use xlink:href="#DejaVuSans-61" x="86.279297"/>
       <use xlink:href="#DejaVuSans-63" x="147.558594"/>
       <use xlink:href="#DejaVuSans-72" x="202.539062"/>
       <use xlink:href="#DejaVuSans-6f" x="241.402344"/>
       <use xlink:href="#DejaVuSans-5f" x="302.583984"/>
       <use xlink:href="#DejaVuSans-31" x="352.583984"/>
      </g>
     </g>
    </g>
    <g id="xtick_34">
     <g id="text_34">
      <!-- Mono_mac -->
      <g transform="translate(845.800518 428.58727) rotate(-90) scale(0.0833 -0.0833)">
       <use xlink:href="#DejaVuSans-4d"/>
       <use xlink:href="#DejaVuSans-6f" x="86.279297"/>
       <use xlink:href="#DejaVuSans-6e" x="147.460938"/>
       <use xlink:href="#DejaVuSans-6f" x="210.839844"/>
       <use xlink:href="#DejaVuSans-5f" x="272.021484"/>
       <use xlink:href="#DejaVuSans-6d" x="322.021484"/>
       <use xlink:href="#DejaVuSans-61" x="419.433594"/>
       <use xlink:href="#DejaVuSans-63" x="480.712891"/>
      </g>
     </g>
    </g>
   </g>
   <g id="matplotlib.axis_2">
    <g id="ytick_1"/>
    <g id="ytick_2"/>
    <g id="ytick_3"/>
    <g id="ytick_4"/>
    <g id="ytick_5"/>
    <g id="ytick_6"/>
    <g id="ytick_7"/>
    <g id="ytick_8"/>
   </g>
   <g id="line2d_1">
    <path d="M 67.606364 361.1376 
L 67.606364 270.792864 
L 91.125372 270.792864 
L 91.125372 361.1376 
" clip-path="url(#p2c1faa013e)" style="fill: none; stroke: #555555; stroke-width: 1.5; stroke-linecap: square"/>
   </g>
   <g id="line2d_2">
    <path d="M 114.64438 361.1376 
L 114.64438 351.034669 
L 138.163388 351.034669 
L 138.163388 361.1376 
" clip-path="url(#p2c1faa013e)" style="fill: none; stroke: #555555; stroke-width: 1.5; stroke-linecap: square"/>
   </g>
   <g id="line2d_3">
    <path d="M 126.403884 351.034669 
L 126.403884 286.693994 
L 161.682397 286.693994 
L 161.682397 361.1376 
" clip-path="url(#p2c1faa013e)" style="fill: none; stroke: #555555; stroke-width: 1.5; stroke-linecap: square"/>
   </g>
   <g id="line2d_4">
    <path d="M 185.201405 361.1376 
L 185.201405 309.74283 
L 208.720413 309.74283 
L 208.720413 361.1376 
" clip-path="url(#p2c1faa013e)" style="fill: none; stroke: #555555; stroke-width: 1.5; stroke-linecap: square"/>
   </g>
   <g id="line2d_5">
    <path d="M 144.04314 286.693994 
L 144.04314 209.013083 
L 196.960909 209.013083 
L 196.960909 309.74283 
" clip-path="url(#p2c1faa013e)" style="fill: none; stroke: #555555; stroke-width: 1.5; stroke-linecap: square"/>
   </g>
   <g id="line2d_6">
    <path d="M 232.239421 361.1376 
L 232.239421 300.428469 
L 255.75843 300.428469 
L 255.75843 361.1376 
" clip-path="url(#p2c1faa013e)" style="fill: none; stroke: #555555; stroke-width: 1.5; stroke-linecap: square"/>
   </g>
   <g id="line2d_7">
    <path d="M 279.277438 361.1376 
L 279.277438 345.426433 
L 302.796446 345.426433 
L 302.796446 361.1376 
" clip-path="url(#p2c1faa013e)" style="fill: none; stroke: #555555; stroke-width: 1.5; stroke-linecap: square"/>
   </g>
   <g id="line2d_8">
    <path d="M 243.998926 300.428469 
L 243.998926 278.531847 
L 291.036942 278.531847 
L 291.036942 345.426433 
" clip-path="url(#p2c1faa013e)" style="fill: none; stroke: #555555; stroke-width: 1.5; stroke-linecap: square"/>
   </g>
   <g id="line2d_9">
    <path d="M 349.834463 361.1376 
L 349.834463 318.03228 
L 373.353471 318.03228 
L 373.353471 361.1376 
" clip-path="url(#p2c1faa013e)" style="fill: none; stroke: #555555; stroke-width: 1.5; stroke-linecap: square"/>
   </g>
   <g id="line2d_10">
    <path d="M 326.315455 361.1376 
L 326.315455 268.837725 
L 361.593967 268.837725 
L 361.593967 318.03228 
" clip-path="url(#p2c1faa013e)" style="fill: none; stroke: #555555; stroke-width: 1.5; stroke-linecap: square"/>
   </g>
   <g id="line2d_11">
    <path d="M 267.517934 278.531847 
L 267.517934 199.79353 
L 343.954711 199.79353 
L 343.954711 268.837725 
" clip-path="url(#p2c1faa013e)" style="fill: none; stroke: #555555; stroke-width: 1.5; stroke-linecap: square"/>
   </g>
   <g id="line2d_12">
    <path d="M 170.502025 209.013083 
L 170.502025 143.405437 
L 305.736322 143.405437 
L 305.736322 199.79353 
" clip-path="url(#p2c1faa013e)" style="fill: none; stroke: #555555; stroke-width: 1.5; stroke-linecap: square"/>
   </g>
   <g id="line2d_13">
    <path d="M 420.391488 361.1376 
L 420.391488 271.279439 
L 443.910496 271.279439 
L 443.910496 361.1376 
" clip-path="url(#p2c1faa013e)" style="fill: none; stroke: #555555; stroke-width: 1.5; stroke-linecap: square"/>
   </g>
   <g id="line2d_14">
    <path d="M 467.429504 361.1376 
L 467.429504 350.521645 
L 490.948512 350.521645 
L 490.948512 361.1376 
" clip-path="url(#p2c1faa013e)" style="fill: none; stroke: #555555; stroke-width: 1.5; stroke-linecap: square"/>
   </g>
   <g id="line2d_15">
    <path d="M 479.189008 350.521645 
L 479.189008 319.289347 
L 514.467521 319.289347 
L 514.467521 361.1376 
" clip-path="url(#p2c1faa013e)" style="fill: none; stroke: #555555; stroke-width: 1.5; stroke-linecap: square"/>
   </g>
   <g id="line2d_16">
    <path d="M 561.505537 361.1376 
L 561.505537 348.236503 
L 585.024545 348.236503 
L 585.024545 361.1376 
" clip-path="url(#p2c1faa013e)" style="fill: none; stroke: #555555; stroke-width: 1.5; stroke-linecap: square"/>
   </g>
   <g id="line2d_17">
    <path d="M 537.986529 361.1376 
L 537.986529 339.335485 
L 573.265041 339.335485 
L 573.265041 348.236503 
" clip-path="url(#p2c1faa013e)" style="fill: none; stroke: #555555; stroke-width: 1.5; stroke-linecap: square"/>
   </g>
   <g id="line2d_18">
    <path d="M 555.625785 339.335485 
L 555.625785 306.044087 
L 608.543554 306.044087 
L 608.543554 361.1376 
" clip-path="url(#p2c1faa013e)" style="fill: none; stroke: #555555; stroke-width: 1.5; stroke-linecap: square"/>
   </g>
   <g id="line2d_19">
    <path d="M 496.828264 319.289347 
L 496.828264 273.714699 
L 582.084669 273.714699 
L 582.084669 306.044087 
" clip-path="url(#p2c1faa013e)" style="fill: none; stroke: #555555; stroke-width: 1.5; stroke-linecap: square"/>
   </g>
   <g id="line2d_20">
    <path d="M 432.150992 271.279439 
L 432.150992 237.302677 
L 539.456467 237.302677 
L 539.456467 273.714699 
" clip-path="url(#p2c1faa013e)" style="fill: none; stroke: #555555; stroke-width: 1.5; stroke-linecap: square"/>
   </g>
   <g id="line2d_21">
    <path d="M 396.872479 361.1376 
L 396.872479 144.183848 
L 485.803729 144.183848 
L 485.803729 237.302677 
" clip-path="url(#p2c1faa013e)" style="fill: none; stroke: #555555; stroke-width: 1.5; stroke-linecap: square"/>
   </g>
   <g id="line2d_22">
    <path d="M 632.062562 361.1376 
L 632.062562 321.311638 
L 655.58157 321.311638 
L 655.58157 361.1376 
" clip-path="url(#p2c1faa013e)" style="fill: none; stroke: #555555; stroke-width: 1.5; stroke-linecap: square"/>
   </g>
   <g id="line2d_23">
    <path d="M 679.100579 361.1376 
L 679.100579 345.465525 
L 702.619587 345.465525 
L 702.619587 361.1376 
" clip-path="url(#p2c1faa013e)" style="fill: none; stroke: #555555; stroke-width: 1.5; stroke-linecap: square"/>
   </g>
   <g id="line2d_24">
    <path d="M 643.822066 321.311638 
L 643.822066 310.325065 
L 690.860083 310.325065 
L 690.860083 345.465525 
" clip-path="url(#p2c1faa013e)" style="fill: none; stroke: #555555; stroke-width: 1.5; stroke-linecap: square"/>
   </g>
   <g id="line2d_25">
    <path d="M 726.138595 361.1376 
L 726.138595 324.05941 
L 749.657603 324.05941 
L 749.657603 361.1376 
" clip-path="url(#p2c1faa013e)" style="fill: none; stroke: #555555; stroke-width: 1.5; stroke-linecap: square"/>
   </g>
   <g id="line2d_26">
    <path d="M 773.176612 361.1376 
L 773.176612 335.391655 
L 796.69562 335.391655 
L 796.69562 361.1376 
" clip-path="url(#p2c1faa013e)" style="fill: none; stroke: #555555; stroke-width: 1.5; stroke-linecap: square"/>
   </g>
   <g id="line2d_27">
    <path d="M 737.898099 324.05941 
L 737.898099 265.116244 
L 784.936116 265.116244 
L 784.936116 335.391655 
" clip-path="url(#p2c1faa013e)" style="fill: none; stroke: #555555; stroke-width: 1.5; stroke-linecap: square"/>
   </g>
   <g id="line2d_28">
    <path d="M 667.341074 310.325065 
L 667.341074 244.504819 
L 761.417107 244.504819 
L 761.417107 265.116244 
" clip-path="url(#p2c1faa013e)" style="fill: none; stroke: #555555; stroke-width: 1.5; stroke-linecap: square"/>
   </g>
   <g id="line2d_29">
    <path d="M 820.214628 361.1376 
L 820.214628 331.644086 
L 843.733636 331.644086 
L 843.733636 361.1376 
" clip-path="url(#p2c1faa013e)" style="fill: none; stroke: #555555; stroke-width: 1.5; stroke-linecap: square"/>
   </g>
   <g id="line2d_30">
    <path d="M 714.379091 244.504819 
L 714.379091 204.850479 
L 831.974132 204.850479 
L 831.974132 331.644086 
" clip-path="url(#p2c1faa013e)" style="fill: none; stroke: #555555; stroke-width: 1.5; stroke-linecap: square"/>
   </g>
   <g id="line2d_31">
    <path d="M 441.338104 144.183848 
L 441.338104 113.813083 
L 773.176612 113.813083 
L 773.176612 204.850479 
" clip-path="url(#p2c1faa013e)" style="fill: none; stroke: #555555; stroke-width: 1.5; stroke-linecap: square"/>
   </g>
   <g id="line2d_32">
    <path d="M 238.119174 143.405437 
L 238.119174 80.518299 
L 607.257358 80.518299 
L 607.257358 113.813083 
" clip-path="url(#p2c1faa013e)" style="fill: none; stroke: #555555; stroke-width: 1.5; stroke-linecap: square"/>
   </g>
   <g id="line2d_33">
    <path d="M 79.365868 270.792864 
L 79.365868 44.6256 
L 422.688266 44.6256 
L 422.688266 80.518299 
" clip-path="url(#p2c1faa013e)" style="fill: none; stroke: #555555; stroke-width: 1.5; stroke-linecap: square"/>
   </g>
  </g>
 </g>
 <defs>
  <clipPath id="p2c1faa013e">
   <rect x="28.8" y="28.8" width="853.74" height="348.1632"/>
  </clipPath>
 </defs>
</svg>
