<?xml version="1.0" encoding="utf-8" standalone="no"?>
<!DOCTYPE svg PUBLIC "-//W3C//DTD SVG 1.1//EN"
  "http://www.w3.org/Graphics/SVG/1.1/DTD/svg11.dtd">
<svg xmlns:xlink="http://www.w3.org/1999/xlink" width="460.8pt" height="345.6pt" viewBox="0 0 460.8 345.6" xmlns="http://www.w3.org/2000/svg" version="1.1">
 <metadata>
  <rdf:RDF xmlns:dc="http://purl.org/dc/elements/1.1/" xmlns:cc="http://creativecommons.org/ns#" xmlns:rdf="http://www.w3.org/1999/02/22-rdf-syntax-ns#">
   <cc:Work>
    <dc:type rdf:resource="http://purl.org/dc/dcmitype/StillImage"/>
    <dc:date>2026-03-16T15:30:13.799428</dc:date>
    <dc:format>image/svg+xml</dc:format>
    <dc:creator>
     <cc:Agent>
      <dc:title>Matplotlib v3.8.0, https://matplotlib.org/</dc:title>
     </cc:Agent>
    </dc:creator>
   </cc:Work>
  </rdf:RDF>
 </metadata>
 <defs>
  <style type="text/css">*{stroke-linejoin: round; stroke-linecap: butt}</style>
 </defs>
 <g id="figure_1">
  <g id="patch_1">
   <path d="M 0 345.6 
L 460.8 345.6 
L 460.8 0 
L 0 0 
z
" style="fill: #ffffff"/>
  </g>
  <g id="axes_1">
   <g id="patch_2">
    <path d="M 57.6 307.584 
L 414.72 307.584 
L 414.72 41.472 
L 57.6 41.472 
z
" style="fill: #ffffff"/>
   </g>
   <g id="patch_3">
    <path d="M 73.832727 307.584 
L 77.079273 307.584 
L 77.079273 303.659307 
L 73.832727 303.659307 
z
" clip-path="url(#p201525675b)" style="fill: #1f77b4"/>
   </g>
   <g id="patch_4">
    <path d="M 77.079273 307.584 
L 80.325818 307.584 
L 80.325818 303.897168 
L 77.079273 303.897168 
z
" clip-path="url(#p201525675b)" style="fill: #1f77b4"/>
   </g>
   <g id="patch_5">
    <path d="M 80.325818 307.584 
L 83.572364 307.584 
L 83.572364 304.610748 
L 80.325818 304.610748 
z
" clip-path="url(#p201525675b)" style="fill: #1f77b4"/>
   </g>
   <g id="patch_6">
    <path d="M 83.572364 307.584 
L 86.818909 307.584 
L 86.818909 304.610748 
L 83.572364 304.610748 
z
" clip-path="url(#p201525675b)" style="fill: #1f77b4"/>
   </g>
   <g id="patch_7">
    <path d="M 86.818909 307.584 
L 90.065455 307.584 
L 90.065455 296.523503 
L 86.818909 296.523503 
z
" clip-path="url(#p201525675b)" style="fill: #1f77b4"/>
   </g>
   <g id="patch_8">
    <path d="M 90.065455 307.584 
L 93.312 307.584 
L 93.312 299.615685 
L 90.065455 299.615685 
z
" clip-path="url(#p201525675b)" style="fill: #1f77b4"/>
   </g>
   <g id="patch_9">
    <path d="M 93.312 307.584 
L 96.558545 307.584 
L 96.558545 300.923916 
L 93.312 300.923916 
z
" clip-path="url(#p201525675b)" style="fill: #1f77b4"/>
   </g>
   <g id="patch_10">
    <path d="M 96.558545 307.584 
L 99.805091 307.584 
L 99.805091 301.161776 
L 96.558545 301.161776 
z
" clip-path="url(#p201525675b)" style="fill: #1f77b4"/>
   </g>
   <g id="patch_11">
    <path d="M 99.805091 307.584 
L 103.051636 307.584 
L 103.051636 301.399636 
L 99.805091 301.399636 
z
" clip-path="url(#p201525675b)" style="fill: #1f77b4"/>
   </g>
   <g id="patch_12">
    <path d="M 103.051636 307.584 
L 106.298182 307.584 
L 106.298182 280.824732 
L 103.051636 280.824732 
z
" clip-path="url(#p201525675b)" style="fill: #1f77b4"/>
   </g>
   <g id="patch_13">
    <path d="M 106.298182 307.584 
L 109.544727 307.584 
L 109.544727 284.392634 
L 106.298182 284.392634 
z
" clip-path="url(#p201525675b)" style="fill: #1f77b4"/>
   </g>
   <g id="patch_14">
    <path d="M 109.544727 307.584 
L 112.791273 307.584 
L 112.791273 288.198397 
L 109.544727 288.198397 
z
" clip-path="url(#p201525675b)" style="fill: #1f77b4"/>
   </g>
   <g id="patch_15">
    <path d="M 112.791273 307.584 
L 116.037818 307.584 
L 116.037818 289.387698 
L 112.791273 289.387698 
z
" clip-path="url(#p201525675b)" style="fill: #1f77b4"/>
   </g>
   <g id="patch_16">
    <path d="M 116.037818 307.584 
L 119.284364 307.584 
L 119.284364 278.44613 
L 116.037818 278.44613 
z
" clip-path="url(#p201525675b)" style="fill: #1f77b4"/>
   </g>
   <g id="patch_17">
    <path d="M 119.284364 307.584 
L 122.530909 307.584 
L 122.530909 266.790983 
L 119.284364 266.790983 
z
" clip-path="url(#p201525675b)" style="fill: #1f77b4"/>
   </g>
   <g id="patch_18">
    <path d="M 122.530909 307.584 
L 125.777455 307.584 
L 125.777455 275.591809 
L 122.530909 275.591809 
z
" clip-path="url(#p201525675b)" style="fill: #1f77b4"/>
   </g>
   <g id="patch_19">
    <path d="M 125.777455 307.584 
L 129.024 307.584 
L 129.024 274.759298 
L 125.777455 274.759298 
z
" clip-path="url(#p201525675b)" style="fill: #1f77b4"/>
   </g>
   <g id="patch_20">
    <path d="M 129.024 307.584 
L 132.270545 307.584 
L 132.270545 277.49469 
L 129.024 277.49469 
z
" clip-path="url(#p201525675b)" style="fill: #1f77b4"/>
   </g>
   <g id="patch_21">
    <path d="M 132.270545 307.584 
L 135.517091 307.584 
L 135.517091 280.467942 
L 132.270545 280.467942 
z
" clip-path="url(#p201525675b)" style="fill: #1f77b4"/>
   </g>
   <g id="patch_22">
    <path d="M 135.517091 307.584 
L 138.763636 307.584 
L 138.763636 266.790983 
L 135.517091 266.790983 
z
" clip-path="url(#p201525675b)" style="fill: #1f77b4"/>
   </g>
   <g id="patch_23">
    <path d="M 138.763636 307.584 
L 142.010182 307.584 
L 142.010182 277.018969 
L 138.763636 277.018969 
z
" clip-path="url(#p201525675b)" style="fill: #1f77b4"/>
   </g>
   <g id="patch_24">
    <path d="M 142.010182 307.584 
L 145.256727 307.584 
L 145.256727 277.85148 
L 142.010182 277.85148 
z
" clip-path="url(#p201525675b)" style="fill: #1f77b4"/>
   </g>
   <g id="patch_25">
    <path d="M 145.256727 307.584 
L 148.503273 307.584 
L 148.503273 276.067529 
L 145.256727 276.067529 
z
" clip-path="url(#p201525675b)" style="fill: #1f77b4"/>
   </g>
   <g id="patch_26">
    <path d="M 148.503273 307.584 
L 151.749818 307.584 
L 151.749818 264.412381 
L 148.503273 264.412381 
z
" clip-path="url(#p201525675b)" style="fill: #1f77b4"/>
   </g>
   <g id="patch_27">
    <path d="M 151.749818 307.584 
L 154.996364 307.584 
L 154.996364 270.596745 
L 151.749818 270.596745 
z
" clip-path="url(#p201525675b)" style="fill: #1f77b4"/>
   </g>
   <g id="patch_28">
    <path d="M 154.996364 307.584 
L 158.242909 307.584 
L 158.242909 274.997158 
L 154.996364 274.997158 
z
" clip-path="url(#p201525675b)" style="fill: #1f77b4"/>
   </g>
   <g id="patch_29">
    <path d="M 158.242909 307.584 
L 161.489455 307.584 
L 161.489455 277.1379 
L 158.242909 277.1379 
z
" clip-path="url(#p201525675b)" style="fill: #1f77b4"/>
   </g>
   <g id="patch_30">
    <path d="M 161.489455 307.584 
L 164.736 307.584 
L 164.736 276.543249 
L 161.489455 276.543249 
z
" clip-path="url(#p201525675b)" style="fill: #1f77b4"/>
   </g>
   <g id="patch_31">
    <path d="M 164.736 307.584 
L 167.982545 307.584 
L 167.982545 271.667116 
L 164.736 271.667116 
z
" clip-path="url(#p201525675b)" style="fill: #1f77b4"/>
   </g>
   <g id="patch_32">
    <path d="M 167.982545 307.584 
L 171.229091 307.584 
L 171.229091 275.591809 
L 167.982545 275.591809 
z
" clip-path="url(#p201525675b)" style="fill: #1f77b4"/>
   </g>
   <g id="patch_33">
    <path d="M 171.229091 307.584 
L 174.475636 307.584 
L 174.475636 274.045718 
L 171.229091 274.045718 
z
" clip-path="url(#p201525675b)" style="fill: #1f77b4"/>
   </g>
   <g id="patch_34">
    <path d="M 174.475636 307.584 
L 177.722182 307.584 
L 177.722182 275.710739 
L 174.475636 275.710739 
z
" clip-path="url(#p201525675b)" style="fill: #1f77b4"/>
   </g>
   <g id="patch_35">
    <path d="M 177.722182 307.584 
L 180.968727 307.584 
L 180.968727 280.111152 
L 177.722182 280.111152 
z
" clip-path="url(#p201525675b)" style="fill: #1f77b4"/>
   </g>
   <g id="patch_36">
    <path d="M 180.968727 307.584 
L 184.215273 307.584 
L 184.215273 266.315262 
L 180.968727 266.315262 
z
" clip-path="url(#p201525675b)" style="fill: #1f77b4"/>
   </g>
   <g id="patch_37">
    <path d="M 184.215273 307.584 
L 187.461818 307.584 
L 187.461818 278.802921 
L 184.215273 278.802921 
z
" clip-path="url(#p201525675b)" style="fill: #1f77b4"/>
   </g>
   <g id="patch_38">
    <path d="M 187.461818 307.584 
L 190.708364 307.584 
L 190.708364 279.397571 
L 187.461818 279.397571 
z
" clip-path="url(#p201525675b)" style="fill: #1f77b4"/>
   </g>
   <g id="patch_39">
    <path d="M 190.708364 307.584 
L 193.954909 307.584 
L 193.954909 276.543249 
L 190.708364 276.543249 
z
" clip-path="url(#p201525675b)" style="fill: #1f77b4"/>
   </g>
   <g id="patch_40">
    <path d="M 193.954909 307.584 
L 197.201455 307.584 
L 197.201455 278.20827 
L 193.954909 278.20827 
z
" clip-path="url(#p201525675b)" style="fill: #1f77b4"/>
   </g>
   <g id="patch_41">
    <path d="M 197.201455 307.584 
L 200.448 307.584 
L 200.448 266.077402 
L 197.201455 266.077402 
z
" clip-path="url(#p201525675b)" style="fill: #1f77b4"/>
   </g>
   <g id="patch_42">
    <path d="M 200.448 307.584 
L 203.694545 307.584 
L 203.694545 273.688927 
L 200.448 273.688927 
z
" clip-path="url(#p201525675b)" style="fill: #1f77b4"/>
   </g>
   <g id="patch_43">
    <path d="M 203.694545 307.584 
L 206.941091 307.584 
L 206.941091 277.1379 
L 203.694545 277.1379 
z
" clip-path="url(#p201525675b)" style="fill: #1f77b4"/>
   </g>
   <g id="patch_44">
    <path d="M 206.941091 307.584 
L 210.187636 307.584 
L 210.187636 279.159711 
L 206.941091 279.159711 
z
" clip-path="url(#p201525675b)" style="fill: #1f77b4"/>
   </g>
   <g id="patch_45">
    <path d="M 210.187636 307.584 
L 213.434182 307.584 
L 213.434182 267.147773 
L 210.187636 267.147773 
z
" clip-path="url(#p201525675b)" style="fill: #1f77b4"/>
   </g>
   <g id="patch_46">
    <path d="M 213.434182 307.584 
L 216.680727 307.584 
L 216.680727 276.900039 
L 213.434182 276.900039 
z
" clip-path="url(#p201525675b)" style="fill: #1f77b4"/>
   </g>
   <g id="patch_47">
    <path d="M 216.680727 307.584 
L 219.927273 307.584 
L 219.927273 275.948599 
L 216.680727 275.948599 
z
" clip-path="url(#p201525675b)" style="fill: #1f77b4"/>
   </g>
   <g id="patch_48">
    <path d="M 219.927273 307.584 
L 223.173818 307.584 
L 223.173818 275.353948 
L 219.927273 275.353948 
z
" clip-path="url(#p201525675b)" style="fill: #1f77b4"/>
   </g>
   <g id="patch_49">
    <path d="M 223.173818 307.584 
L 226.420364 307.584 
L 226.420364 282.251893 
L 223.173818 282.251893 
z
" clip-path="url(#p201525675b)" style="fill: #1f77b4"/>
   </g>
   <g id="patch_50">
    <path d="M 226.420364 307.584 
L 229.666909 307.584 
L 229.666909 257.395506 
L 226.420364 257.395506 
z
" clip-path="url(#p201525675b)" style="fill: #1f77b4"/>
   </g>
   <g id="patch_51">
    <path d="M 229.666909 307.584 
L 232.913455 307.584 
L 232.913455 268.218144 
L 229.666909 268.218144 
z
" clip-path="url(#p201525675b)" style="fill: #1f77b4"/>
   </g>
   <g id="patch_52">
    <path d="M 232.913455 307.584 
L 236.16 307.584 
L 236.16 271.786046 
L 232.913455 271.786046 
z
" clip-path="url(#p201525675b)" style="fill: #1f77b4"/>
   </g>
   <g id="patch_53">
    <path d="M 236.16 307.584 
L 239.406545 307.584 
L 239.406545 268.931724 
L 236.16 268.931724 
z
" clip-path="url(#p201525675b)" style="fill: #1f77b4"/>
   </g>
   <g id="patch_54">
    <path d="M 239.406545 307.584 
L 242.653091 307.584 
L 242.653091 274.283578 
L 239.406545 274.283578 
z
" clip-path="url(#p201525675b)" style="fill: #1f77b4"/>
   </g>
   <g id="patch_55">
    <path d="M 242.653091 307.584 
L 245.899636 307.584 
L 245.899636 252.876163 
L 242.653091 252.876163 
z
" clip-path="url(#p201525675b)" style="fill: #1f77b4"/>
   </g>
   <g id="patch_56">
    <path d="M 245.899636 307.584 
L 249.146182 307.584 
L 249.146182 270.358885 
L 245.899636 270.358885 
z
" clip-path="url(#p201525675b)" style="fill: #1f77b4"/>
   </g>
   <g id="patch_57">
    <path d="M 249.146182 307.584 
L 252.392727 307.584 
L 252.392727 264.412381 
L 249.146182 264.412381 
z
" clip-path="url(#p201525675b)" style="fill: #1f77b4"/>
   </g>
   <g id="patch_58">
    <path d="M 252.392727 307.584 
L 255.639273 307.584 
L 255.639273 270.477815 
L 252.392727 270.477815 
z
" clip-path="url(#p201525675b)" style="fill: #1f77b4"/>
   </g>
   <g id="patch_59">
    <path d="M 255.639273 307.584 
L 258.885818 307.584 
L 258.885818 271.904976 
L 255.639273 271.904976 
z
" clip-path="url(#p201525675b)" style="fill: #1f77b4"/>
   </g>
   <g id="patch_60">
    <path d="M 258.885818 307.584 
L 262.132364 307.584 
L 262.132364 243.480687 
L 258.885818 243.480687 
z
" clip-path="url(#p201525675b)" style="fill: #1f77b4"/>
   </g>
   <g id="patch_61">
    <path d="M 262.132364 307.584 
L 265.378909 307.584 
L 265.378909 262.5095 
L 262.132364 262.5095 
z
" clip-path="url(#p201525675b)" style="fill: #1f77b4"/>
   </g>
   <g id="patch_62">
    <path d="M 265.378909 307.584 
L 268.625455 307.584 
L 268.625455 265.839542 
L 265.378909 265.839542 
z
" clip-path="url(#p201525675b)" style="fill: #1f77b4"/>
   </g>
   <g id="patch_63">
    <path d="M 268.625455 307.584 
L 271.872 307.584 
L 271.872 267.623493 
L 268.625455 267.623493 
z
" clip-path="url(#p201525675b)" style="fill: #1f77b4"/>
   </g>
   <g id="patch_64">
    <path d="M 271.872 307.584 
L 275.118545 307.584 
L 275.118545 241.102085 
L 271.872 241.102085 
z
" clip-path="url(#p201525675b)" style="fill: #1f77b4"/>
   </g>
   <g id="patch_65">
    <path d="M 275.118545 307.584 
L 278.365091 307.584 
L 278.365091 261.439129 
L 275.118545 261.439129 
z
" clip-path="url(#p201525675b)" style="fill: #1f77b4"/>
   </g>
   <g id="patch_66">
    <path d="M 278.365091 307.584 
L 281.611636 307.584 
L 281.611636 261.676989 
L 278.365091 261.676989 
z
" clip-path="url(#p201525675b)" style="fill: #1f77b4"/>
   </g>
   <g id="patch_67">
    <path d="M 281.611636 307.584 
L 284.858182 307.584 
L 284.858182 263.22308 
L 281.611636 263.22308 
z
" clip-path="url(#p201525675b)" style="fill: #1f77b4"/>
   </g>
   <g id="patch_68">
    <path d="M 284.858182 307.584 
L 288.104727 307.584 
L 288.104727 260.963409 
L 284.858182 260.963409 
z
" clip-path="url(#p201525675b)" style="fill: #1f77b4"/>
   </g>
   <g id="patch_69">
    <path d="M 288.104727 307.584 
L 291.351273 307.584 
L 291.351273 230.517308 
L 288.104727 230.517308 
z
" clip-path="url(#p201525675b)" style="fill: #1f77b4"/>
   </g>
   <g id="patch_70">
    <path d="M 291.351273 307.584 
L 294.597818 307.584 
L 294.597818 256.800856 
L 291.351273 256.800856 
z
" clip-path="url(#p201525675b)" style="fill: #1f77b4"/>
   </g>
   <g id="patch_71">
    <path d="M 294.597818 307.584 
L 297.844364 307.584 
L 297.844364 256.206206 
L 294.597818 256.206206 
z
" clip-path="url(#p201525675b)" style="fill: #1f77b4"/>
   </g>
   <g id="patch_72">
    <path d="M 297.844364 307.584 
L 301.090909 307.584 
L 301.090909 257.038716 
L 297.844364 257.038716 
z
" clip-path="url(#p201525675b)" style="fill: #1f77b4"/>
   </g>
   <g id="patch_73">
    <path d="M 301.090909 307.584 
L 304.337455 307.584 
L 304.337455 260.130898 
L 301.090909 260.130898 
z
" clip-path="url(#p201525675b)" style="fill: #1f77b4"/>
   </g>
   <g id="patch_74">
    <path d="M 304.337455 307.584 
L 307.584 307.584 
L 307.584 213.391377 
L 304.337455 213.391377 
z
" clip-path="url(#p201525675b)" style="fill: #1f77b4"/>
   </g>
   <g id="patch_75">
    <path d="M 307.584 307.584 
L 310.830545 307.584 
L 310.830545 245.502498 
L 307.584 245.502498 
z
" clip-path="url(#p201525675b)" style="fill: #1f77b4"/>
   </g>
   <g id="patch_76">
    <path d="M 310.830545 307.584 
L 314.077091 307.584 
L 314.077091 248.35682 
L 310.830545 248.35682 
z
" clip-path="url(#p201525675b)" style="fill: #1f77b4"/>
   </g>
   <g id="patch_77">
    <path d="M 314.077091 307.584 
L 317.323636 307.584 
L 317.323636 248.713611 
L 314.077091 248.713611 
z
" clip-path="url(#p201525675b)" style="fill: #1f77b4"/>
   </g>
   <g id="patch_78">
    <path d="M 317.323636 307.584 
L 320.570182 307.584 
L 320.570182 255.968345 
L 317.323636 255.968345 
z
" clip-path="url(#p201525675b)" style="fill: #1f77b4"/>
   </g>
   <g id="patch_79">
    <path d="M 320.570182 307.584 
L 323.816727 307.584 
L 323.816727 179.853094 
L 320.570182 179.853094 
z
" clip-path="url(#p201525675b)" style="fill: #1f77b4"/>
   </g>
   <g id="patch_80">
    <path d="M 323.816727 307.584 
L 327.063273 307.584 
L 327.063273 235.274511 
L 323.816727 235.274511 
z
" clip-path="url(#p201525675b)" style="fill: #1f77b4"/>
   </g>
   <g id="patch_81">
    <path d="M 327.063273 307.584 
L 330.309818 307.584 
L 330.309818 238.961344 
L 327.063273 238.961344 
z
" clip-path="url(#p201525675b)" style="fill: #1f77b4"/>
   </g>
   <g id="patch_82">
    <path d="M 330.309818 307.584 
L 333.556364 307.584 
L 333.556364 247.048589 
L 330.309818 247.048589 
z
" clip-path="url(#p201525675b)" style="fill: #1f77b4"/>
   </g>
   <g id="patch_83">
    <path d="M 333.556364 307.584 
L 336.802909 307.584 
L 336.802909 194.362564 
L 333.556364 194.362564 
z
" clip-path="url(#p201525675b)" style="fill: #1f77b4"/>
   </g>
   <g id="patch_84">
    <path d="M 336.802909 307.584 
L 340.049455 307.584 
L 340.049455 226.235825 
L 336.802909 226.235825 
z
" clip-path="url(#p201525675b)" style="fill: #1f77b4"/>
   </g>
   <g id="patch_85">
    <path d="M 340.049455 307.584 
L 343.296 307.584 
L 343.296 233.13377 
L 340.049455 233.13377 
z
" clip-path="url(#p201525675b)" style="fill: #1f77b4"/>
   </g>
   <g id="patch_86">
    <path d="M 343.296 307.584 
L 346.542545 307.584 
L 346.542545 242.648176 
L 343.296 242.648176 
z
" clip-path="url(#p201525675b)" style="fill: #1f77b4"/>
   </g>
   <g id="patch_87">
    <path d="M 346.542545 307.584 
L 349.789091 307.584 
L 349.789091 255.135835 
L 346.542545 255.135835 
z
" clip-path="url(#p201525675b)" style="fill: #1f77b4"/>
   </g>
   <g id="patch_88">
    <path d="M 349.789091 307.584 
L 353.035636 307.584 
L 353.035636 168.316877 
L 349.789091 168.316877 
z
" clip-path="url(#p201525675b)" style="fill: #1f77b4"/>
   </g>
   <g id="patch_89">
    <path d="M 353.035636 307.584 
L 356.282182 307.584 
L 356.282182 226.116895 
L 353.035636 226.116895 
z
" clip-path="url(#p201525675b)" style="fill: #1f77b4"/>
   </g>
   <g id="patch_90">
    <path d="M 356.282182 307.584 
L 359.528727 307.584 
L 359.528727 237.890973 
L 356.282182 237.890973 
z
" clip-path="url(#p201525675b)" style="fill: #1f77b4"/>
   </g>
   <g id="patch_91">
    <path d="M 359.528727 307.584 
L 362.775273 307.584 
L 362.775273 251.449002 
L 359.528727 251.449002 
z
" clip-path="url(#p201525675b)" style="fill: #1f77b4"/>
   </g>
   <g id="patch_92">
    <path d="M 362.775273 307.584 
L 366.021818 307.584 
L 366.021818 264.769171 
L 362.775273 264.769171 
z
" clip-path="url(#p201525675b)" style="fill: #1f77b4"/>
   </g>
   <g id="patch_93">
    <path d="M 366.021818 307.584 
L 369.268364 307.584 
L 369.268364 155.115638 
L 366.021818 155.115638 
z
" clip-path="url(#p201525675b)" style="fill: #1f77b4"/>
   </g>
   <g id="patch_94">
    <path d="M 369.268364 307.584 
L 372.514909 307.584 
L 372.514909 238.723484 
L 369.268364 238.723484 
z
" clip-path="url(#p201525675b)" style="fill: #1f77b4"/>
   </g>
   <g id="patch_95">
    <path d="M 372.514909 307.584 
L 375.761455 307.584 
L 375.761455 257.514436 
L 372.514909 257.514436 
z
" clip-path="url(#p201525675b)" style="fill: #1f77b4"/>
   </g>
   <g id="patch_96">
    <path d="M 375.761455 307.584 
L 379.008 307.584 
L 379.008 262.74736 
L 375.761455 262.74736 
z
" clip-path="url(#p201525675b)" style="fill: #1f77b4"/>
   </g>
   <g id="patch_97">
    <path d="M 379.008 307.584 
L 382.254545 307.584 
L 382.254545 279.992221 
L 379.008 279.992221 
z
" clip-path="url(#p201525675b)" style="fill: #1f77b4"/>
   </g>
   <g id="patch_98">
    <path d="M 382.254545 307.584 
L 385.501091 307.584 
L 385.501091 156.661729 
L 382.254545 156.661729 
z
" clip-path="url(#p201525675b)" style="fill: #1f77b4"/>
   </g>
   <g id="patch_99">
    <path d="M 385.501091 307.584 
L 388.747636 307.584 
L 388.747636 263.10415 
L 385.501091 263.10415 
z
" clip-path="url(#p201525675b)" style="fill: #1f77b4"/>
   </g>
   <g id="patch_100">
    <path d="M 388.747636 307.584 
L 391.994182 307.584 
L 391.994182 271.904976 
L 388.747636 271.904976 
z
" clip-path="url(#p201525675b)" style="fill: #1f77b4"/>
   </g>
   <g id="patch_101">
    <path d="M 391.994182 307.584 
L 395.240727 307.584 
L 395.240727 286.890166 
L 391.994182 286.890166 
z
" clip-path="url(#p201525675b)" style="fill: #1f77b4"/>
   </g>
   <g id="patch_102">
    <path d="M 395.240727 307.584 
L 398.487273 307.584 
L 398.487273 54.144 
L 395.240727 54.144 
z
" clip-path="url(#p201525675b)" style="fill: #1f77b4"/>
   </g>
   <g id="matplotlib.axis_1">
    <g id="xtick_1">
     <g id="line2d_1">
      <defs>
       <path id="m8fd4a2272d" d="M 0 0 
L 0 3.5 
" style="stroke: #000000; stroke-width: 0.8"/>
      </defs>
      <g>
       <use xlink:href="#m8fd4a2272d" x="73.641922" y="307.584" style="stroke: #000000; stroke-width: 0.8"/>
      </g>
     </g>
     <g id="text_1">
      <!-- 0.0 -->
      <g transform="translate(65.69036 322.182437) scale(0.1 -0.1)">
       <defs>
        <path id="DejaVuSans-30" d="M 2034 4250 
Q 1547 4250 1301 3770 
Q 1056 3291 1056 2328 
Q 1056 1369 1301 889 
Q 1547 409 2034 409 
Q 2525 409 2770 889 
Q 3016 1369 3016 2328 
Q 3016 3291 2770 3770 
Q 2525 4250 2034 4250 
z
M 2034 4750 
Q 2819 4750 3233 4129 
Q 3647 3509 3647 2328 
Q 3647 1150 3233 529 
Q 2819 -91 2034 -91 
Q 1250 -91 836 529 
Q 422 1150 422 2328 
Q 422 3509 836 4129 
Q 1250 4750 2034 4750 
z
" transform="scale(0.015625)"/>
        <path id="DejaVuSans-2e" d="M 684 794 
L 1344 794 
L 1344 0 
L 684 0 
L 684 794 
z
" transform="scale(0.015625)"/>
       </defs>
       <use xlink:href="#DejaVuSans-30"/>
       <use xlink:href="#DejaVuSans-2e" x="63.623047"/>
       <use xlink:href="#DejaVuSans-30" x="95.410156"/>
      </g>
     </g>
    </g>
    <g id="xtick_2">
     <g id="line2d_2">
      <g>
       <use xlink:href="#m8fd4a2272d" x="138.610992" y="307.584" style="stroke: #000000; stroke-width: 0.8"/>
      </g>
     </g>
     <g id="text_2">
      <!-- 0.2 -->
      <g transform="translate(130.65943 322.182437) scale(0.1 -0.1)">
       <defs>
        <path id="DejaVuSans-32" d="M 1228 531 
L 3431 531 
L 3431 0 
L 469 0 
L 469 531 
Q 828 903 1448 1529 
Q 2069 2156 2228 2338 
Q 2531 2678 2651 2914 
Q 2772 3150 2772 3378 
Q 2772 3750 2511 3984 
Q 2250 4219 1831 4219 
Q 1534 4219 1204 4116 
Q 875 4013 500 3803 
L 500 4441 
Q 881 4594 1212 4672 
Q 1544 4750 1819 4750 
Q 2544 4750 2975 4387 
Q 3406 4025 3406 3419 
Q 3406 3131 3298 2873 
Q 3191 2616 2906 2266 
Q 2828 2175 2409 1742 
Q 1991 1309 1228 531 
z
" transform="scale(0.015625)"/>
       </defs>
       <use xlink:href="#DejaVuSans-30"/>
       <use xlink:href="#DejaVuSans-2e" x="63.623047"/>
       <use xlink:href="#DejaVuSans-32" x="95.410156"/>
      </g>
     </g>
    </g>
    <g id="xtick_3">
     <g id="line2d_3">
      <g>
       <use xlink:href="#m8fd4a2272d" x="203.580062" y="307.584" style="stroke: #000000; stroke-width: 0.8"/>
      </g>
     </g>
     <g id="text_3">
      <!-- 0.4 -->
      <g transform="translate(195.6285 322.182437) scale(0.1 -0.1)">
       <defs>
        <path id="DejaVuSans-34" d="M 2419 4116 
L 825 1625 
L 2419 1625 
L 2419 4116 
z
M 2253 4666 
L 3047 4666 
L 3047 1625 
L 3713 1625 
L 3713 1100 
L 3047 1100 
L 3047 0 
L 2419 0 
L 2419 1100 
L 313 1100 
L 313 1709 
L 2253 4666 
z
" transform="scale(0.015625)"/>
       </defs>
       <use xlink:href="#DejaVuSans-30"/>
       <use xlink:href="#DejaVuSans-2e" x="63.623047"/>
       <use xlink:href="#DejaVuSans-34" x="95.410156"/>
      </g>
     </g>
    </g>
    <g id="xtick_4">
     <g id="line2d_4">
      <g>
       <use xlink:href="#m8fd4a2272d" x="268.549133" y="307.584" style="stroke: #000000; stroke-width: 0.8"/>
      </g>
     </g>
     <g id="text_4">
      <!-- 0.6 -->
      <g transform="translate(260.59757 322.182437) scale(0.1 -0.1)">
       <defs>
        <path id="DejaVuSans-36" d="M 2113 2584 
Q 1688 2584 1439 2293 
Q 1191 2003 1191 1497 
Q 1191 994 1439 701 
Q 1688 409 2113 409 
Q 2538 409 2786 701 
Q 3034 994 3034 1497 
Q 3034 2003 2786 2293 
Q 2538 2584 2113 2584 
z
M 3366 4563 
L 3366 3988 
Q 3128 4100 2886 4159 
Q 2644 4219 2406 4219 
Q 1781 4219 1451 3797 
Q 1122 3375 1075 2522 
Q 1259 2794 1537 2939 
Q 1816 3084 2150 3084 
Q 2853 3084 3261 2657 
Q 3669 2231 3669 1497 
Q 3669 778 3244 343 
Q 2819 -91 2113 -91 
Q 1303 -91 875 529 
Q 447 1150 447 2328 
Q 447 3434 972 4092 
Q 1497 4750 2381 4750 
Q 2619 4750 2861 4703 
Q 3103 4656 3366 4563 
z
" transform="scale(0.015625)"/>
       </defs>
       <use xlink:href="#DejaVuSans-30"/>
       <use xlink:href="#DejaVuSans-2e" x="63.623047"/>
       <use xlink:href="#DejaVuSans-36" x="95.410156"/>
      </g>
     </g>
    </g>
    <g id="xtick_5">
     <g id="line2d_5">
      <g>
       <use xlink:href="#m8fd4a2272d" x="333.518203" y="307.584" style="stroke: #000000; stroke-width: 0.8"/>
      </g>
     </g>
     <g id="text_5">
      <!-- 0.8 -->
      <g transform="translate(325.56664 322.182437) scale(0.1 -0.1)">
       <defs>
        <path id="DejaVuSans-38" d="M 2034 2216 
Q 1584 2216 1326 1975 
Q 1069 1734 1069 1313 
Q 1069 891 1326 650 
Q 1584 409 2034 409 
Q 2484 409 2743 651 
Q 3003 894 3003 1313 
Q 3003 1734 2745 1975 
Q 2488 2216 2034 2216 
z
M 1403 2484 
Q 997 2584 770 2862 
Q 544 3141 544 3541 
Q 544 4100 942 4425 
Q 1341 4750 2034 4750 
Q 2731 4750 3128 4425 
Q 3525 4100 3525 3541 
Q 3525 3141 3298 2862 
Q 3072 2584 2669 2484 
Q 3125 2378 3379 2068 
Q 3634 1759 3634 1313 
Q 3634 634 3220 271 
Q 2806 -91 2034 -91 
Q 1263 -91 848 271 
Q 434 634 434 1313 
Q 434 1759 690 2068 
Q 947 2378 1403 2484 
z
M 1172 3481 
Q 1172 3119 1398 2916 
Q 1625 2713 2034 2713 
Q 2441 2713 2670 2916 
Q 2900 3119 2900 3481 
Q 2900 3844 2670 4047 
Q 2441 4250 2034 4250 
Q 1625 4250 1398 4047 
Q 1172 3844 1172 3481 
z
" transform="scale(0.015625)"/>
       </defs>
       <use xlink:href="#DejaVuSans-30"/>
       <use xlink:href="#DejaVuSans-2e" x="63.623047"/>
       <use xlink:href="#DejaVuSans-38" x="95.410156"/>
      </g>
     </g>
    </g>
    <g id="xtick_6">
     <g id="line2d_6">
      <g>
       <use xlink:href="#m8fd4a2272d" x="398.487273" y="307.584" style="stroke: #000000; stroke-width: 0.8"/>
      </g>
     </g>
     <g id="text_6">
      <!-- 1.0 -->
      <g transform="translate(390.53571 322.182437) scale(0.1 -0.1)">
       <defs>
        <path id="DejaVuSans-31" d="M 794 531 
L 1825 531 
L 1825 4091 
L 703 3866 
L 703 4441 
L 1819 4666 
L 2450 4666 
L 2450 531 
L 3481 531 
L 3481 0 
L 794 0 
L 794 531 
z
" transform="scale(0.015625)"/>
       </defs>
       <use xlink:href="#DejaVuSans-31"/>
       <use xlink:href="#DejaVuSans-2e" x="63.623047"/>
       <use xlink:href="#DejaVuSans-30" x="95.410156"/>
      </g>
     </g>
    </g>
   </g>
   <g id="matplotlib.axis_2">
    <g id="ytick_1">
     <g id="line2d_7">
      <defs>
       <path id="m77c914a0be" d="M 0 0 
L -3.5 0 
" style="stroke: #000000; stroke-width: 0.8"/>
      </defs>
      <g>
       <use xlink:href="#m77c914a0be" x="57.6" y="307.584" style="stroke: #000000; stroke-width: 0.8"/>
      </g>
     </g>
     <g id="text_7">
      <!-- 0 -->
      <g transform="translate(44.2375 311.383219) scale(0.1 -0.1)">
       <use xlink:href="#DejaVuSans-30"/>
      </g>
     </g>
    </g>
    <g id="ytick_2">
     <g id="line2d_8">
      <g>
       <use xlink:href="#m77c914a0be" x="57.6" y="277.85148" style="stroke: #000000; stroke-width: 0.8"/>
      </g>
     </g>
     <g id="text_8">
      <!-- 250 -->
      <g transform="translate(31.5125 281.650699) scale(0.1 -0.1)">
       <defs>
        <path id="DejaVuSans-35" d="M 691 4666 
L 3169 4666 
L 3169 4134 
L 1269 4134 
L 1269 2991 
Q 1406 3038 1543 3061 
Q 1681 3084 1819 3084 
Q 2600 3084 3056 2656 
Q 3513 2228 3513 1497 
Q 3513 744 3044 326 
Q 2575 -91 1722 -91 
Q 1428 -91 1123 -41 
Q 819 9 494 109 
L 494 744 
Q 775 591 1075 516 
Q 1375 441 1709 441 
Q 2250 441 2565 725 
Q 2881 1009 2881 1497 
Q 2881 1984 2565 2268 
Q 2250 2553 1709 2553 
Q 1456 2553 1204 2497 
Q 953 2441 691 2322 
L 691 4666 
z
" transform="scale(0.015625)"/>
       </defs>
       <use xlink:href="#DejaVuSans-32"/>
       <use xlink:href="#DejaVuSans-35" x="63.623047"/>
       <use xlink:href="#DejaVuSans-30" x="127.246094"/>
      </g>
     </g>
    </g>
    <g id="ytick_3">
     <g id="line2d_9">
      <g>
       <use xlink:href="#m77c914a0be" x="57.6" y="248.11896" style="stroke: #000000; stroke-width: 0.8"/>
      </g>
     </g>
     <g id="text_9">
      <!-- 500 -->
      <g transform="translate(31.5125 251.918179) scale(0.1 -0.1)">
       <use xlink:href="#DejaVuSans-35"/>
       <use xlink:href="#DejaVuSans-30" x="63.623047"/>
       <use xlink:href="#DejaVuSans-30" x="127.246094"/>
      </g>
     </g>
    </g>
    <g id="ytick_4">
     <g id="line2d_10">
      <g>
       <use xlink:href="#m77c914a0be" x="57.6" y="218.38644" style="stroke: #000000; stroke-width: 0.8"/>
      </g>
     </g>
     <g id="text_10">
      <!-- 750 -->
      <g transform="translate(31.5125 222.185659) scale(0.1 -0.1)">
       <defs>
        <path id="DejaVuSans-37" d="M 525 4666 
L 3525 4666 
L 3525 4397 
L 1831 0 
L 1172 0 
L 2766 4134 
L 525 4134 
L 525 4666 
z
" transform="scale(0.015625)"/>
       </defs>
       <use xlink:href="#DejaVuSans-37"/>
       <use xlink:href="#DejaVuSans-35" x="63.623047"/>
       <use xlink:href="#DejaVuSans-30" x="127.246094"/>
      </g>
     </g>
    </g>
    <g id="ytick_5">
     <g id="line2d_11">
      <g>
       <use xlink:href="#m77c914a0be" x="57.6" y="188.65392" style="stroke: #000000; stroke-width: 0.8"/>
      </g>
     </g>
     <g id="text_11">
      <!-- 1000 -->
      <g transform="translate(25.15 192.453139) scale(0.1 -0.1)">
       <use xlink:href="#DejaVuSans-31"/>
       <use xlink:href="#DejaVuSans-30" x="63.623047"/>
       <use xlink:href="#DejaVuSans-30" x="127.246094"/>
       <use xlink:href="#DejaVuSans-30" x="190.869141"/>
      </g>
     </g>
    </g>
    <g id="ytick_6">
     <g id="line2d_12">
      <g>
       <use xlink:href="#m77c914a0be" x="57.6" y="158.9214" style="stroke: #000000; stroke-width: 0.8"/>
      </g>
     </g>
     <g id="text_12">
      <!-- 1250 -->
      <g transform="translate(25.15 162.720619) scale(0.1 -0.1)">
       <use xlink:href="#DejaVuSans-31"/>
       <use xlink:href="#DejaVuSans-32" x="63.623047"/>
       <use xlink:href="#DejaVuSans-35" x="127.246094"/>
       <use xlink:href="#DejaVuSans-30" x="190.869141"/>
      </g>
     </g>
    </g>
    <g id="ytick_7">
     <g id="line2d_13">
      <g>
       <use xlink:href="#m77c914a0be" x="57.6" y="129.18888" style="stroke: #000000; stroke-width: 0.8"/>
      </g>
     </g>
     <g id="text_13">
      <!-- 1500 -->
      <g transform="translate(25.15 132.988099) scale(0.1 -0.1)">
       <use xlink:href="#DejaVuSans-31"/>
       <use xlink:href="#DejaVuSans-35" x="63.623047"/>
       <use xlink:href="#DejaVuSans-30" x="127.246094"/>
       <use xlink:href="#DejaVuSans-30" x="190.869141"/>
      </g>
     </g>
    </g>
    <g id="ytick_8">
     <g id="line2d_14">
      <g>
       <use xlink:href="#m77c914a0be" x="57.6" y="99.45636" style="stroke: #000000; stroke-width: 0.8"/>
      </g>
     </g>
     <g id="text_14">
      <!-- 1750 -->
      <g transform="translate(25.15 103.255579) scale(0.1 -0.1)">
       <use xlink:href="#DejaVuSans-31"/>
       <use xlink:href="#DejaVuSans-37" x="63.623047"/>
       <use xlink:href="#DejaVuSans-35" x="127.246094"/>
       <use xlink:href="#DejaVuSans-30" x="190.869141"/>
      </g>
     </g>
    </g>
    <g id="ytick_9">
     <g id="line2d_15">
      <g>
       <use xlink:href="#m77c914a0be" x="57.6" y="69.72384" style="stroke: #000000; stroke-width: 0.8"/>
      </g>
     </g>
     <g id="text_15">
      <!-- 2000 -->
      <g transform="translate(25.15 73.523059) scale(0.1 -0.1)">
       <use xlink:href="#DejaVuSans-32"/>
       <use xlink:href="#DejaVuSans-30" x="63.623047"/>
       <use xlink:href="#DejaVuSans-30" x="127.246094"/>
       <use xlink:href="#DejaVuSans-30" x="190.869141"/>
      </g>
     </g>
    </g>
   </g>
   <g id="patch_103">
    <path d="M 57.6 307.584 
L 57.6 41.472 
" style="fill: none; stroke: #000000; stroke-width: 0.8; stroke-linejoin: miter; stroke-linecap: square"/>
   </g>
   <g id="patch_104">
    <path d="M 414.72 307.584 
L 414.72 41.472 
" style="fill: none; stroke: #000000; stroke-width: 0.8; stroke-linejoin: miter; stroke-linecap: square"/>
   </g>
   <g id="patch_105">
    <path d="M 57.6 307.584 
L 414.72 307.584 
" style="fill: none; stroke: #000000; stroke-width: 0.8; stroke-linejoin: miter; stroke-linecap: square"/>
   </g>
   <g id="patch_106">
    <path d="M 57.6 41.472 
L 414.72 41.472 
" style="fill: none; stroke: #000000; stroke-width: 0.8; stroke-linejoin: miter; stroke-linecap: square"/>
   </g>
   <g id="text_16">
    <!-- Non-zero binary scores -->
    <g transform="translate(167.157187 35.472) scale(0.12 -0.12)">
     <defs>
      <path id="DejaVuSans-4e" d="M 628 4666 
L 1478 4666 
L 3547 763 
L 3547 4666 
L 4159 4666 
L 4159 0 
L 3309 0 
L 1241 3903 
L 1241 0 
L 628 0 
L 628 4666 
z
" transform="scale(0.015625)"/>
      <path id="DejaVuSans-6f" d="M 1959 3097 
Q 1497 3097 1228 2736 
Q 959 2375 959 1747 
Q 959 1119 1226 758 
Q 1494 397 1959 397 
Q 2419 397 2687 759 
Q 2956 1122 2956 1747 
Q 2956 2369 2687 2733 
Q 2419 3097 1959 3097 
z
M 1959 3584 
Q 2709 3584 3137 3096 
Q 3566 2609 3566 1747 
Q 3566 888 3137 398 
Q 2709 -91 1959 -91 
Q 1206 -91 779 398 
Q 353 888 353 1747 
Q 353 2609 779 3096 
Q 1206 3584 1959 3584 
z
" transform="scale(0.015625)"/>
      <path id="DejaVuSans-6e" d="M 3513 2113 
L 3513 0 
L 2938 0 
L 2938 2094 
Q 2938 2591 2744 2837 
Q 2550 3084 2163 3084 
Q 1697 3084 1428 2787 
Q 1159 2491 1159 1978 
L 1159 0 
L 581 0 
L 581 3500 
L 1159 3500 
L 1159 2956 
Q 1366 3272 1645 3428 
Q 1925 3584 2291 3584 
Q 2894 3584 3203 3211 
Q 3513 2838 3513 2113 
z
" transform="scale(0.015625)"/>
      <path id="DejaVuSans-2d" d="M 313 2009 
L 1997 2009 
L 1997 1497 
L 313 1497 
L 313 2009 
z
" transform="scale(0.015625)"/>
      <path id="DejaVuSans-7a" d="M 353 3500 
L 3084 3500 
L 3084 2975 
L 922 459 
L 3084 459 
L 3084 0 
L 275 0 
L 275 525 
L 2438 3041 
L 353 3041 
L 353 3500 
z
" transform="scale(0.015625)"/>
      <path id="DejaVuSans-65" d="M 3597 1894 
L 3597 1613 
L 953 1613 
Q 991 1019 1311 708 
Q 1631 397 2203 397 
Q 2534 397 2845 478 
Q 3156 559 3463 722 
L 3463 178 
Q 3153 47 2828 -22 
Q 2503 -91 2169 -91 
Q 1331 -91 842 396 
Q 353 884 353 1716 
Q 353 2575 817 3079 
Q 1281 3584 2069 3584 
Q 2775 3584 3186 3129 
Q 3597 2675 3597 1894 
z
M 3022 2063 
Q 3016 2534 2758 2815 
Q 2500 3097 2075 3097 
Q 1594 3097 1305 2825 
Q 1016 2553 972 2059 
L 3022 2063 
z
" transform="scale(0.015625)"/>
      <path id="DejaVuSans-72" d="M 2631 2963 
Q 2534 3019 2420 3045 
Q 2306 3072 2169 3072 
Q 1681 3072 1420 2755 
Q 1159 2438 1159 1844 
L 1159 0 
L 581 0 
L 581 3500 
L 1159 3500 
L 1159 2956 
Q 1341 3275 1631 3429 
Q 1922 3584 2338 3584 
Q 2397 3584 2469 3576 
Q 2541 3569 2628 3553 
L 2631 2963 
z
" transform="scale(0.015625)"/>
      <path id="DejaVuSans-20" transform="scale(0.015625)"/>
      <path id="DejaVuSans-62" d="M 3116 1747 
Q 3116 2381 2855 2742 
Q 2594 3103 2138 3103 
Q 1681 3103 1420 2742 
Q 1159 2381 1159 1747 
Q 1159 1113 1420 752 
Q 1681 391 2138 391 
Q 2594 391 2855 752 
Q 3116 1113 3116 1747 
z
M 1159 2969 
Q 1341 3281 1617 3432 
Q 1894 3584 2278 3584 
Q 2916 3584 3314 3078 
Q 3713 2572 3713 1747 
Q 3713 922 3314 415 
Q 2916 -91 2278 -91 
Q 1894 -91 1617 61 
Q 1341 213 1159 525 
L 1159 0 
L 581 0 
L 581 4863 
L 1159 4863 
L 1159 2969 
z
" transform="scale(0.015625)"/>
      <path id="DejaVuSans-69" d="M 603 3500 
L 1178 3500 
L 1178 0 
L 603 0 
L 603 3500 
z
M 603 4863 
L 1178 4863 
L 1178 4134 
L 603 4134 
L 603 4863 
z
" transform="scale(0.015625)"/>
      <path id="DejaVuSans-61" d="M 2194 1759 
Q 1497 1759 1228 1600 
Q 959 1441 959 1056 
Q 959 750 1161 570 
Q 1363 391 1709 391 
Q 2188 391 2477 730 
Q 2766 1069 2766 1631 
L 2766 1759 
L 2194 1759 
z
M 3341 1997 
L 3341 0 
L 2766 0 
L 2766 531 
Q 2569 213 2275 61 
Q 1981 -91 1556 -91 
Q 1019 -91 701 211 
Q 384 513 384 1019 
Q 384 1609 779 1909 
Q 1175 2209 1959 2209 
L 2766 2209 
L 2766 2266 
Q 2766 2663 2505 2880 
Q 2244 3097 1772 3097 
Q 1472 3097 1187 3025 
Q 903 2953 641 2809 
L 641 3341 
Q 956 3463 1253 3523 
Q 1550 3584 1831 3584 
Q 2591 3584 2966 3190 
Q 3341 2797 3341 1997 
z
" transform="scale(0.015625)"/>
      <path id="DejaVuSans-79" d="M 2059 -325 
Q 1816 -950 1584 -1140 
Q 1353 -1331 966 -1331 
L 506 -1331 
L 506 -850 
L 844 -850 
Q 1081 -850 1212 -737 
Q 1344 -625 1503 -206 
L 1606 56 
L 191 3500 
L 800 3500 
L 1894 763 
L 2988 3500 
L 3597 3500 
L 2059 -325 
z
" transform="scale(0.015625)"/>
      <path id="DejaVuSans-73" d="M 2834 3397 
L 2834 2853 
Q 2591 2978 2328 3040 
Q 2066 3103 1784 3103 
Q 1356 3103 1142 2972 
Q 928 2841 928 2578 
Q 928 2378 1081 2264 
Q 1234 2150 1697 2047 
L 1894 2003 
Q 2506 1872 2764 1633 
Q 3022 1394 3022 966 
Q 3022 478 2636 193 
Q 2250 -91 1575 -91 
Q 1294 -91 989 -36 
Q 684 19 347 128 
L 347 722 
Q 666 556 975 473 
Q 1284 391 1588 391 
Q 1994 391 2212 530 
Q 2431 669 2431 922 
Q 2431 1156 2273 1281 
Q 2116 1406 1581 1522 
L 1381 1569 
Q 847 1681 609 1914 
Q 372 2147 372 2553 
Q 372 3047 722 3315 
Q 1072 3584 1716 3584 
Q 2034 3584 2315 3537 
Q 2597 3491 2834 3397 
z
" transform="scale(0.015625)"/>
      <path id="DejaVuSans-63" d="M 3122 3366 
L 3122 2828 
Q 2878 2963 2633 3030 
Q 2388 3097 2138 3097 
Q 1578 3097 1268 2742 
Q 959 2388 959 1747 
Q 959 1106 1268 751 
Q 1578 397 2138 397 
Q 2388 397 2633 464 
Q 2878 531 3122 666 
L 3122 134 
Q 2881 22 2623 -34 
Q 2366 -91 2075 -91 
Q 1284 -91 818 406 
Q 353 903 353 1747 
Q 353 2603 823 3093 
Q 1294 3584 2113 3584 
Q 2378 3584 2631 3529 
Q 2884 3475 3122 3366 
z
" transform="scale(0.015625)"/>
     </defs>
     <use xlink:href="#DejaVuSans-4e"/>
     <use xlink:href="#DejaVuSans-6f" x="74.804688"/>
     <use xlink:href="#DejaVuSans-6e" x="135.986328"/>
     <use xlink:href="#DejaVuSans-2d" x="199.365234"/>
     <use xlink:href="#DejaVuSans-7a" x="235.449219"/>
     <use xlink:href="#DejaVuSans-65" x="287.939453"/>
     <use xlink:href="#DejaVuSans-72" x="349.462891"/>
     <use xlink:href="#DejaVuSans-6f" x="388.326172"/>
     <use xlink:href="#DejaVuSans-20" x="449.507812"/>
     <use xlink:href="#DejaVuSans-62" x="481.294922"/>
     <use xlink:href="#DejaVuSans-69" x="544.771484"/>
     <use xlink:href="#DejaVuSans-6e" x="572.554688"/>
     <use xlink:href="#DejaVuSans-61" x="635.933594"/>
     <use xlink:href="#DejaVuSans-72" x="697.212891"/>
     <use xlink:href="#DejaVuSans-79" x="738.326172"/>
     <use xlink:href="#DejaVuSans-20" x="797.505859"/>
     <use xlink:href="#DejaVuSans-73" x="829.292969"/>
     <use xlink:href="#DejaVuSans-63" x="881.392578"/>
     <use xlink:href="#DejaVuSans-6f" x="936.373047"/>
     <use xlink:href="#DejaVuSans-72" x="997.554688"/>
     <use xlink:href="#DejaVuSans-65" x="1036.417969"/>
     <use xlink:href="#DejaVuSans-73" x="1097.941406"/>
    </g>
   </g>
  </g>
 </g>
 <defs>
  <clipPath id="p201525675b">
   <rect x="57.6" y="41.472" width="357.12" height="266.112"/>
  </clipPath>
 </defs>
</svg>
