<?xml version="1.0" encoding="utf-8" standalone="no"?>
<!DOCTYPE svg PUBLIC "-//W3C//DTD SVG 1.1//EN"
  "http://www.w3.org/Graphics/SVG/1.1/DTD/svg11.dtd">
<svg xmlns:xlink="http://www.w3.org/1999/xlink" width="615.6pt" height="541.306267pt" viewBox="0 0 615.6 541.306267" xmlns="http://www.w3.org/2000/svg" version="1.1">
 <metadata>
  <rdf:RDF xmlns:dc="http://purl.org/dc/elements/1.1/" xmlns:cc="http://creativecommons.org/ns#" xmlns:rdf="http://www.w3.org/1999/02/22-rdf-syntax-ns#">
   <cc:Work>
    <dc:type rdf:resource="http://purl.org/dc/dcmitype/StillImage"/>
    <dc:date>2026-05-04T17:31:32.870524</dc:date>
    <dc:format>image/svg+xml</dc:format>
    <dc:creator>
     <cc:Agent>
      <dc:title>Matplotlib v3.8.0, https://matplotlib.org/</dc:title>
     </cc:Agent>
    </dc:creator>
   </cc:Work>
  </rdf:RDF>
 </metadata>
 <defs>
  <style type="text/css">*{stroke-linejoin: round; stroke-linecap: butt}</style>
 </defs>
 <g id="figure_1">
  <g id="patch_1">
   <path d="M 0 541.306267 
L 615.6 541.306267 
L 615.6 0 
L 0 0 
z
" style="fill: #ffffff"/>
  </g>
  <g id="axes_1">
   <g id="patch_2">
    <path d="M 28.8 403.5744 
L 586.8 403.5744 
L 586.8 28.8 
L 28.8 28.8 
z
" style="fill: #ffffff"/>
   </g>
   <g id="matplotlib.axis_1">
    <g id="xtick_1">
     <g id="text_1">
      <!-- beta_major -->
      <g transform="translate(56.346357 457.577727) rotate(-90) scale(0.0833 -0.0833)">
       <defs>
        <path id="DejaVuSans-62" d="M 3116 1747 
Q 3116 2381 2855 2742 
Q 2594 3103 2138 3103 
Q 1681 3103 1420 2742 
Q 1159 2381 1159 1747 
Q 1159 1113 1420 752 
Q 1681 391 2138 391 
Q 2594 391 2855 752 
Q 3116 1113 3116 1747 
z
M 1159 2969 
Q 1341 3281 1617 3432 
Q 1894 3584 2278 3584 
Q 2916 3584 3314 3078 
Q 3713 2572 3713 1747 
Q 3713 922 3314 415 
Q 2916 -91 2278 -91 
Q 1894 -91 1617 61 
Q 1341 213 1159 525 
L 1159 0 
L 581 0 
L 581 4863 
L 1159 4863 
L 1159 2969 
z
" transform="scale(0.015625)"/>
        <path id="DejaVuSans-65" d="M 3597 1894 
L 3597 1613 
L 953 1613 
Q 991 1019 1311 708 
Q 1631 397 2203 397 
Q 2534 397 2845 478 
Q 3156 559 3463 722 
L 3463 178 
Q 3153 47 2828 -22 
Q 2503 -91 2169 -91 
Q 1331 -91 842 396 
Q 353 884 353 1716 
Q 353 2575 817 3079 
Q 1281 3584 2069 3584 
Q 2775 3584 3186 3129 
Q 3597 2675 3597 1894 
z
M 3022 2063 
Q 3016 2534 2758 2815 
Q 2500 3097 2075 3097 
Q 1594 3097 1305 2825 
Q 1016 2553 972 2059 
L 3022 2063 
z
" transform="scale(0.015625)"/>
        <path id="DejaVuSans-74" d="M 1172 4494 
L 1172 3500 
L 2356 3500 
L 2356 3053 
L 1172 3053 
L 1172 1153 
Q 1172 725 1289 603 
Q 1406 481 1766 481 
L 2356 481 
L 2356 0 
L 1766 0 
Q 1100 0 847 248 
Q 594 497 594 1153 
L 594 3053 
L 172 3053 
L 172 3500 
L 594 3500 
L 594 4494 
L 1172 4494 
z
" transform="scale(0.015625)"/>
        <path id="DejaVuSans-61" d="M 2194 1759 
Q 1497 1759 1228 1600 
Q 959 1441 959 1056 
Q 959 750 1161 570 
Q 1363 391 1709 391 
Q 2188 391 2477 730 
Q 2766 1069 2766 1631 
L 2766 1759 
L 2194 1759 
z
M 3341 1997 
L 3341 0 
L 2766 0 
L 2766 531 
Q 2569 213 2275 61 
Q 1981 -91 1556 -91 
Q 1019 -91 701 211 
Q 384 513 384 1019 
Q 384 1609 779 1909 
Q 1175 2209 1959 2209 
L 2766 2209 
L 2766 2266 
Q 2766 2663 2505 2880 
Q 2244 3097 1772 3097 
Q 1472 3097 1187 3025 
Q 903 2953 641 2809 
L 641 3341 
Q 956 3463 1253 3523 
Q 1550 3584 1831 3584 
Q 2591 3584 2966 3190 
Q 3341 2797 3341 1997 
z
" transform="scale(0.015625)"/>
        <path id="DejaVuSans-5f" d="M 3263 -1063 
L 3263 -1509 
L -63 -1509 
L -63 -1063 
L 3263 -1063 
z
" transform="scale(0.015625)"/>
        <path id="DejaVuSans-6d" d="M 3328 2828 
Q 3544 3216 3844 3400 
Q 4144 3584 4550 3584 
Q 5097 3584 5394 3201 
Q 5691 2819 5691 2113 
L 5691 0 
L 5113 0 
L 5113 2094 
Q 5113 2597 4934 2840 
Q 4756 3084 4391 3084 
Q 3944 3084 3684 2787 
Q 3425 2491 3425 1978 
L 3425 0 
L 2847 0 
L 2847 2094 
Q 2847 2600 2669 2842 
Q 2491 3084 2119 3084 
Q 1678 3084 1418 2786 
Q 1159 2488 1159 1978 
L 1159 0 
L 581 0 
L 581 3500 
L 1159 3500 
L 1159 2956 
Q 1356 3278 1631 3431 
Q 1906 3584 2284 3584 
Q 2666 3584 2933 3390 
Q 3200 3197 3328 2828 
z
" transform="scale(0.015625)"/>
        <path id="DejaVuSans-6a" d="M 603 3500 
L 1178 3500 
L 1178 -63 
Q 1178 -731 923 -1031 
Q 669 -1331 103 -1331 
L -116 -1331 
L -116 -844 
L 38 -844 
Q 366 -844 484 -692 
Q 603 -541 603 -63 
L 603 3500 
z
M 603 4863 
L 1178 4863 
L 1178 4134 
L 603 4134 
L 603 4863 
z
" transform="scale(0.015625)"/>
        <path id="DejaVuSans-6f" d="M 1959 3097 
Q 1497 3097 1228 2736 
Q 959 2375 959 1747 
Q 959 1119 1226 758 
Q 1494 397 1959 397 
Q 2419 397 2687 759 
Q 2956 1122 2956 1747 
Q 2956 2369 2687 2733 
Q 2419 3097 1959 3097 
z
M 1959 3584 
Q 2709 3584 3137 3096 
Q 3566 2609 3566 1747 
Q 3566 888 3137 398 
Q 2709 -91 1959 -91 
Q 1206 -91 779 398 
Q 353 888 353 1747 
Q 353 2609 779 3096 
Q 1206 3584 1959 3584 
z
" transform="scale(0.015625)"/>
        <path id="DejaVuSans-72" d="M 2631 2963 
Q 2534 3019 2420 3045 
Q 2306 3072 2169 3072 
Q 1681 3072 1420 2755 
Q 1159 2438 1159 1844 
L 1159 0 
L 581 0 
L 581 3500 
L 1159 3500 
L 1159 2956 
Q 1341 3275 1631 3429 
Q 1922 3584 2338 3584 
Q 2397 3584 2469 3576 
Q 2541 3569 2628 3553 
L 2631 2963 
z
" transform="scale(0.015625)"/>
       </defs>
       <use xlink:href="#DejaVuSans-62"/>
       <use xlink:href="#DejaVuSans-65" x="63.476562"/>
       <use xlink:href="#DejaVuSans-74" x="125"/>
       <use xlink:href="#DejaVuSans-61" x="164.208984"/>
       <use xlink:href="#DejaVuSans-5f" x="225.488281"/>
       <use xlink:href="#DejaVuSans-6d" x="275.488281"/>
       <use xlink:href="#DejaVuSans-61" x="372.900391"/>
       <use xlink:href="#DejaVuSans-6a" x="434.179688"/>
       <use xlink:href="#DejaVuSans-6f" x="461.962891"/>
       <use xlink:href="#DejaVuSans-72" x="523.144531"/>
      </g>
     </g>
    </g>
    <g id="xtick_2">
     <g id="text_2">
      <!-- beta_minor -->
      <g transform="translate(95.367336 457.752136) rotate(-90) scale(0.0833 -0.0833)">
       <defs>
        <path id="DejaVuSans-69" d="M 603 3500 
L 1178 3500 
L 1178 0 
L 603 0 
L 603 3500 
z
M 603 4863 
L 1178 4863 
L 1178 4134 
L 603 4134 
L 603 4863 
z
" transform="scale(0.015625)"/>
        <path id="DejaVuSans-6e" d="M 3513 2113 
L 3513 0 
L 2938 0 
L 2938 2094 
Q 2938 2591 2744 2837 
Q 2550 3084 2163 3084 
Q 1697 3084 1428 2787 
Q 1159 2491 1159 1978 
L 1159 0 
L 581 0 
L 581 3500 
L 1159 3500 
L 1159 2956 
Q 1366 3272 1645 3428 
Q 1925 3584 2291 3584 
Q 2894 3584 3203 3211 
Q 3513 2838 3513 2113 
z
" transform="scale(0.015625)"/>
       </defs>
       <use xlink:href="#DejaVuSans-62"/>
       <use xlink:href="#DejaVuSans-65" x="63.476562"/>
       <use xlink:href="#DejaVuSans-74" x="125"/>
       <use xlink:href="#DejaVuSans-61" x="164.208984"/>
       <use xlink:href="#DejaVuSans-5f" x="225.488281"/>
       <use xlink:href="#DejaVuSans-6d" x="275.488281"/>
       <use xlink:href="#DejaVuSans-69" x="372.900391"/>
       <use xlink:href="#DejaVuSans-6e" x="400.683594"/>
       <use xlink:href="#DejaVuSans-6f" x="464.0625"/>
       <use xlink:href="#DejaVuSans-72" x="525.244141"/>
      </g>
     </g>
    </g>
    <g id="xtick_3">
     <g id="text_3">
      <!-- delta -->
      <g transform="translate(134.504154 431.672728) rotate(-90) scale(0.0833 -0.0833)">
       <defs>
        <path id="DejaVuSans-64" d="M 2906 2969 
L 2906 4863 
L 3481 4863 
L 3481 0 
L 2906 0 
L 2906 525 
Q 2725 213 2448 61 
Q 2172 -91 1784 -91 
Q 1150 -91 751 415 
Q 353 922 353 1747 
Q 353 2572 751 3078 
Q 1150 3584 1784 3584 
Q 2172 3584 2448 3432 
Q 2725 3281 2906 2969 
z
M 947 1747 
Q 947 1113 1208 752 
Q 1469 391 1925 391 
Q 2381 391 2643 752 
Q 2906 1113 2906 1747 
Q 2906 2381 2643 2742 
Q 2381 3103 1925 3103 
Q 1469 3103 1208 2742 
Q 947 2381 947 1747 
z
" transform="scale(0.015625)"/>
        <path id="DejaVuSans-6c" d="M 603 4863 
L 1178 4863 
L 1178 0 
L 603 0 
L 603 4863 
z
" transform="scale(0.015625)"/>
       </defs>
       <use xlink:href="#DejaVuSans-64"/>
       <use xlink:href="#DejaVuSans-65" x="63.476562"/>
       <use xlink:href="#DejaVuSans-6c" x="125"/>
       <use xlink:href="#DejaVuSans-74" x="152.783203"/>
       <use xlink:href="#DejaVuSans-61" x="191.992188"/>
      </g>
     </g>
    </g>
    <g id="xtick_4">
     <g id="text_4">
      <!-- epsilon -->
      <g transform="translate(173.525133 440.332023) rotate(-90) scale(0.0833 -0.0833)">
       <defs>
        <path id="DejaVuSans-70" d="M 1159 525 
L 1159 -1331 
L 581 -1331 
L 581 3500 
L 1159 3500 
L 1159 2969 
Q 1341 3281 1617 3432 
Q 1894 3584 2278 3584 
Q 2916 3584 3314 3078 
Q 3713 2572 3713 1747 
Q 3713 922 3314 415 
Q 2916 -91 2278 -91 
Q 1894 -91 1617 61 
Q 1341 213 1159 525 
z
M 3116 1747 
Q 3116 2381 2855 2742 
Q 2594 3103 2138 3103 
Q 1681 3103 1420 2742 
Q 1159 2381 1159 1747 
Q 1159 1113 1420 752 
Q 1681 391 2138 391 
Q 2594 391 2855 752 
Q 3116 1113 3116 1747 
z
" transform="scale(0.015625)"/>
        <path id="DejaVuSans-73" d="M 2834 3397 
L 2834 2853 
Q 2591 2978 2328 3040 
Q 2066 3103 1784 3103 
Q 1356 3103 1142 2972 
Q 928 2841 928 2578 
Q 928 2378 1081 2264 
Q 1234 2150 1697 2047 
L 1894 2003 
Q 2506 1872 2764 1633 
Q 3022 1394 3022 966 
Q 3022 478 2636 193 
Q 2250 -91 1575 -91 
Q 1294 -91 989 -36 
Q 684 19 347 128 
L 347 722 
Q 666 556 975 473 
Q 1284 391 1588 391 
Q 1994 391 2212 530 
Q 2431 669 2431 922 
Q 2431 1156 2273 1281 
Q 2116 1406 1581 1522 
L 1381 1569 
Q 847 1681 609 1914 
Q 372 2147 372 2553 
Q 372 3047 722 3315 
Q 1072 3584 1716 3584 
Q 2034 3584 2315 3537 
Q 2597 3491 2834 3397 
z
" transform="scale(0.015625)"/>
       </defs>
       <use xlink:href="#DejaVuSans-65"/>
       <use xlink:href="#DejaVuSans-70" x="61.523438"/>
       <use xlink:href="#DejaVuSans-73" x="125"/>
       <use xlink:href="#DejaVuSans-69" x="177.099609"/>
       <use xlink:href="#DejaVuSans-6c" x="204.882812"/>
       <use xlink:href="#DejaVuSans-6f" x="232.666016"/>
       <use xlink:href="#DejaVuSans-6e" x="293.847656"/>
      </g>
     </g>
    </g>
    <g id="xtick_5">
     <g id="text_5">
      <!-- pp -->
      <g transform="translate(212.546112 421.150897) rotate(-90) scale(0.0833 -0.0833)">
       <use xlink:href="#DejaVuSans-70"/>
       <use xlink:href="#DejaVuSans-70" x="63.476562"/>
      </g>
     </g>
    </g>
    <g id="xtick_6">
     <g id="text_6">
      <!-- hybrid -->
      <g transform="translate(251.567091 437.098942) rotate(-90) scale(0.0833 -0.0833)">
       <defs>
        <path id="DejaVuSans-68" d="M 3513 2113 
L 3513 0 
L 2938 0 
L 2938 2094 
Q 2938 2591 2744 2837 
Q 2550 3084 2163 3084 
Q 1697 3084 1428 2787 
Q 1159 2491 1159 1978 
L 1159 0 
L 581 0 
L 581 4863 
L 1159 4863 
L 1159 2956 
Q 1366 3272 1645 3428 
Q 1925 3584 2291 3584 
Q 2894 3584 3203 3211 
Q 3513 2838 3513 2113 
z
" transform="scale(0.015625)"/>
        <path id="DejaVuSans-79" d="M 2059 -325 
Q 1816 -950 1584 -1140 
Q 1353 -1331 966 -1331 
L 506 -1331 
L 506 -850 
L 844 -850 
Q 1081 -850 1212 -737 
Q 1344 -625 1503 -206 
L 1606 56 
L 191 3500 
L 800 3500 
L 1894 763 
L 2988 3500 
L 3597 3500 
L 2059 -325 
z
" transform="scale(0.015625)"/>
       </defs>
       <use xlink:href="#DejaVuSans-68"/>
       <use xlink:href="#DejaVuSans-79" x="63.378906"/>
       <use xlink:href="#DejaVuSans-62" x="122.558594"/>
       <use xlink:href="#DejaVuSans-72" x="186.035156"/>
       <use xlink:href="#DejaVuSans-69" x="227.148438"/>
       <use xlink:href="#DejaVuSans-64" x="254.931641"/>
      </g>
     </g>
    </g>
    <g id="xtick_7">
     <g id="text_7">
      <!-- alpha -->
      <g transform="translate(290.58807 433.66542) rotate(-90) scale(0.0833 -0.0833)">
       <use xlink:href="#DejaVuSans-61"/>
       <use xlink:href="#DejaVuSans-6c" x="61.279297"/>
       <use xlink:href="#DejaVuSans-70" x="89.0625"/>
       <use xlink:href="#DejaVuSans-68" x="152.539062"/>
       <use xlink:href="#DejaVuSans-61" x="215.917969"/>
      </g>
     </g>
    </g>
    <g id="xtick_8">
     <g id="text_8">
      <!-- duct_major -->
      <g transform="translate(329.49321 457.206781) rotate(-90) scale(0.0833 -0.0833)">
       <defs>
        <path id="DejaVuSans-75" d="M 544 1381 
L 544 3500 
L 1119 3500 
L 1119 1403 
Q 1119 906 1312 657 
Q 1506 409 1894 409 
Q 2359 409 2629 706 
Q 2900 1003 2900 1516 
L 2900 3500 
L 3475 3500 
L 3475 0 
L 2900 0 
L 2900 538 
Q 2691 219 2414 64 
Q 2138 -91 1772 -91 
Q 1169 -91 856 284 
Q 544 659 544 1381 
z
M 1991 3584 
L 1991 3584 
z
" transform="scale(0.015625)"/>
        <path id="DejaVuSans-63" d="M 3122 3366 
L 3122 2828 
Q 2878 2963 2633 3030 
Q 2388 3097 2138 3097 
Q 1578 3097 1268 2742 
Q 959 2388 959 1747 
Q 959 1106 1268 751 
Q 1578 397 2138 397 
Q 2388 397 2633 464 
Q 2878 531 3122 666 
L 3122 134 
Q 2881 22 2623 -34 
Q 2366 -91 2075 -91 
Q 1284 -91 818 406 
Q 353 903 353 1747 
Q 353 2603 823 3093 
Q 1294 3584 2113 3584 
Q 2378 3584 2631 3529 
Q 2884 3475 3122 3366 
z
" transform="scale(0.015625)"/>
       </defs>
       <use xlink:href="#DejaVuSans-64"/>
       <use xlink:href="#DejaVuSans-75" x="63.476562"/>
       <use xlink:href="#DejaVuSans-63" x="126.855469"/>
       <use xlink:href="#DejaVuSans-74" x="181.835938"/>
       <use xlink:href="#DejaVuSans-5f" x="221.044922"/>
       <use xlink:href="#DejaVuSans-6d" x="271.044922"/>
       <use xlink:href="#DejaVuSans-61" x="368.457031"/>
       <use xlink:href="#DejaVuSans-6a" x="429.736328"/>
       <use xlink:href="#DejaVuSans-6f" x="457.519531"/>
       <use xlink:href="#DejaVuSans-72" x="518.701172"/>
      </g>
     </g>
    </g>
    <g id="xtick_9">
     <g id="text_9">
      <!-- duct_acinar_related -->
      <g transform="translate(368.514189 492.585853) rotate(-90) scale(0.0833 -0.0833)">
       <use xlink:href="#DejaVuSans-64"/>
       <use xlink:href="#DejaVuSans-75" x="63.476562"/>
       <use xlink:href="#DejaVuSans-63" x="126.855469"/>
       <use xlink:href="#DejaVuSans-74" x="181.835938"/>
       <use xlink:href="#DejaVuSans-5f" x="221.044922"/>
       <use xlink:href="#DejaVuSans-61" x="271.044922"/>
       <use xlink:href="#DejaVuSans-63" x="332.324219"/>
       <use xlink:href="#DejaVuSans-69" x="387.304688"/>
       <use xlink:href="#DejaVuSans-6e" x="415.087891"/>
       <use xlink:href="#DejaVuSans-61" x="478.466797"/>
       <use xlink:href="#DejaVuSans-72" x="539.746094"/>
       <use xlink:href="#DejaVuSans-5f" x="580.859375"/>
       <use xlink:href="#DejaVuSans-72" x="630.859375"/>
       <use xlink:href="#DejaVuSans-65" x="669.722656"/>
       <use xlink:href="#DejaVuSans-6c" x="731.246094"/>
       <use xlink:href="#DejaVuSans-61" x="759.029297"/>
       <use xlink:href="#DejaVuSans-74" x="820.308594"/>
       <use xlink:href="#DejaVuSans-65" x="859.517578"/>
       <use xlink:href="#DejaVuSans-64" x="921.041016"/>
      </g>
     </g>
    </g>
    <g id="xtick_10">
     <g id="text_10">
      <!-- stellates -->
      <g transform="translate(407.651007 445.76865) rotate(-90) scale(0.0833 -0.0833)">
       <use xlink:href="#DejaVuSans-73"/>
       <use xlink:href="#DejaVuSans-74" x="52.099609"/>
       <use xlink:href="#DejaVuSans-65" x="91.308594"/>
       <use xlink:href="#DejaVuSans-6c" x="152.832031"/>
       <use xlink:href="#DejaVuSans-6c" x="180.615234"/>
       <use xlink:href="#DejaVuSans-61" x="208.398438"/>
       <use xlink:href="#DejaVuSans-74" x="269.677734"/>
       <use xlink:href="#DejaVuSans-65" x="308.886719"/>
       <use xlink:href="#DejaVuSans-73" x="370.410156"/>
      </g>
     </g>
    </g>
    <g id="xtick_11">
     <g id="text_11">
      <!-- endothelial -->
      <g transform="translate(446.671986 457.081831) rotate(-90) scale(0.0833 -0.0833)">
       <use xlink:href="#DejaVuSans-65"/>
       <use xlink:href="#DejaVuSans-6e" x="61.523438"/>
       <use xlink:href="#DejaVuSans-64" x="124.902344"/>
       <use xlink:href="#DejaVuSans-6f" x="188.378906"/>
       <use xlink:href="#DejaVuSans-74" x="249.560547"/>
       <use xlink:href="#DejaVuSans-68" x="288.769531"/>
       <use xlink:href="#DejaVuSans-65" x="352.148438"/>
       <use xlink:href="#DejaVuSans-6c" x="413.671875"/>
       <use xlink:href="#DejaVuSans-69" x="441.455078"/>
       <use xlink:href="#DejaVuSans-61" x="469.238281"/>
       <use xlink:href="#DejaVuSans-6c" x="530.517578"/>
      </g>
     </g>
    </g>
    <g id="xtick_12">
     <g id="text_12">
      <!-- immune_stellates -->
      <g transform="translate(485.577126 484.159537) rotate(-90) scale(0.0833 -0.0833)">
       <use xlink:href="#DejaVuSans-69"/>
       <use xlink:href="#DejaVuSans-6d" x="27.783203"/>
       <use xlink:href="#DejaVuSans-6d" x="125.195312"/>
       <use xlink:href="#DejaVuSans-75" x="222.607422"/>
       <use xlink:href="#DejaVuSans-6e" x="285.986328"/>
       <use xlink:href="#DejaVuSans-65" x="349.365234"/>
       <use xlink:href="#DejaVuSans-5f" x="410.888672"/>
       <use xlink:href="#DejaVuSans-73" x="460.888672"/>
       <use xlink:href="#DejaVuSans-74" x="512.988281"/>
       <use xlink:href="#DejaVuSans-65" x="552.197266"/>
       <use xlink:href="#DejaVuSans-6c" x="613.720703"/>
       <use xlink:href="#DejaVuSans-6c" x="641.503906"/>
       <use xlink:href="#DejaVuSans-61" x="669.287109"/>
       <use xlink:href="#DejaVuSans-74" x="730.566406"/>
       <use xlink:href="#DejaVuSans-65" x="769.775391"/>
       <use xlink:href="#DejaVuSans-73" x="831.298828"/>
      </g>
     </g>
    </g>
    <g id="xtick_13">
     <g id="text_13">
      <!-- acinar_minor_mhcclassII -->
      <g transform="translate(524.598105 512.506267) rotate(-90) scale(0.0833 -0.0833)">
       <defs>
        <path id="DejaVuSans-49" d="M 628 4666 
L 1259 4666 
L 1259 0 
L 628 0 
L 628 4666 
z
" transform="scale(0.015625)"/>
       </defs>
       <use xlink:href="#DejaVuSans-61"/>
       <use xlink:href="#DejaVuSans-63" x="61.279297"/>
       <use xlink:href="#DejaVuSans-69" x="116.259766"/>
       <use xlink:href="#DejaVuSans-6e" x="144.042969"/>
       <use xlink:href="#DejaVuSans-61" x="207.421875"/>
       <use xlink:href="#DejaVuSans-72" x="268.701172"/>
       <use xlink:href="#DejaVuSans-5f" x="309.814453"/>
       <use xlink:href="#DejaVuSans-6d" x="359.814453"/>
       <use xlink:href="#DejaVuSans-69" x="457.226562"/>
       <use xlink:href="#DejaVuSans-6e" x="485.009766"/>
       <use xlink:href="#DejaVuSans-6f" x="548.388672"/>
       <use xlink:href="#DejaVuSans-72" x="609.570312"/>
       <use xlink:href="#DejaVuSans-5f" x="650.683594"/>
       <use xlink:href="#DejaVuSans-6d" x="700.683594"/>
       <use xlink:href="#DejaVuSans-68" x="798.095703"/>
       <use xlink:href="#DejaVuSans-63" x="861.474609"/>
       <use xlink:href="#DejaVuSans-63" x="916.455078"/>
       <use xlink:href="#DejaVuSans-6c" x="971.435547"/>
       <use xlink:href="#DejaVuSans-61" x="999.21875"/>
       <use xlink:href="#DejaVuSans-73" x="1060.498047"/>
       <use xlink:href="#DejaVuSans-73" x="1112.597656"/>
       <use xlink:href="#DejaVuSans-49" x="1164.697266"/>
       <use xlink:href="#DejaVuSans-49" x="1194.189453"/>
      </g>
     </g>
    </g>
    <g id="xtick_14">
     <g id="text_14">
      <!-- acinar -->
      <g transform="translate(563.734923 436.381781) rotate(-90) scale(0.0833 -0.0833)">
       <use xlink:href="#DejaVuSans-61"/>
       <use xlink:href="#DejaVuSans-63" x="61.279297"/>
       <use xlink:href="#DejaVuSans-69" x="116.259766"/>
       <use xlink:href="#DejaVuSans-6e" x="144.042969"/>
       <use xlink:href="#DejaVuSans-61" x="207.421875"/>
       <use xlink:href="#DejaVuSans-72" x="268.701172"/>
      </g>
     </g>
    </g>
   </g>
   <g id="matplotlib.axis_2">
    <g id="ytick_1"/>
    <g id="ytick_2"/>
    <g id="ytick_3"/>
    <g id="ytick_4"/>
    <g id="ytick_5"/>
    <g id="ytick_6"/>
    <g id="ytick_7"/>
    <g id="ytick_8"/>
    <g id="ytick_9"/>
   </g>
   <g id="line2d_1">
    <path d="M 54.163636 386.5392 
L 54.163636 380.281687 
L 93.184615 380.281687 
L 93.184615 386.5392 
" clip-path="url(#p5d501099a2)" style="fill: none; stroke: #555555; stroke-width: 1.5; stroke-linecap: square"/>
   </g>
   <g id="line2d_2">
    <path d="M 73.674126 380.281687 
L 73.674126 332.008771 
L 132.205594 332.008771 
L 132.205594 386.5392 
" clip-path="url(#p5d501099a2)" style="fill: none; stroke: #555555; stroke-width: 1.5; stroke-linecap: square"/>
   </g>
   <g id="line2d_3">
    <path d="M 210.247552 386.5392 
L 210.247552 348.974849 
L 249.268531 348.974849 
L 249.268531 386.5392 
" clip-path="url(#p5d501099a2)" style="fill: none; stroke: #555555; stroke-width: 1.5; stroke-linecap: square"/>
   </g>
   <g id="line2d_4">
    <path d="M 171.226573 386.5392 
L 171.226573 320.645717 
L 229.758042 320.645717 
L 229.758042 348.974849 
" clip-path="url(#p5d501099a2)" style="fill: none; stroke: #555555; stroke-width: 1.5; stroke-linecap: square"/>
   </g>
   <g id="line2d_5">
    <path d="M 102.93986 332.008771 
L 102.93986 282.771451 
L 200.492308 282.771451 
L 200.492308 320.645717 
" clip-path="url(#p5d501099a2)" style="fill: none; stroke: #555555; stroke-width: 1.5; stroke-linecap: square"/>
   </g>
   <g id="line2d_6">
    <path d="M 151.716084 282.771451 
L 151.716084 279.007827 
L 288.28951 279.007827 
L 288.28951 386.5392 
" clip-path="url(#p5d501099a2)" style="fill: none; stroke: #555555; stroke-width: 1.5; stroke-linecap: square"/>
   </g>
   <g id="line2d_7">
    <path d="M 327.31049 386.5392 
L 327.31049 361.231793 
L 366.331469 361.231793 
L 366.331469 386.5392 
" clip-path="url(#p5d501099a2)" style="fill: none; stroke: #555555; stroke-width: 1.5; stroke-linecap: square"/>
   </g>
   <g id="line2d_8">
    <path d="M 405.352448 386.5392 
L 405.352448 250.930047 
L 444.373427 250.930047 
L 444.373427 386.5392 
" clip-path="url(#p5d501099a2)" style="fill: none; stroke: #555555; stroke-width: 1.5; stroke-linecap: square"/>
   </g>
   <g id="line2d_9">
    <path d="M 424.862937 250.930047 
L 424.862937 193.817787 
L 483.394406 193.817787 
L 483.394406 386.5392 
" clip-path="url(#p5d501099a2)" style="fill: none; stroke: #555555; stroke-width: 1.5; stroke-linecap: square"/>
   </g>
   <g id="line2d_10">
    <path d="M 346.820979 361.231793 
L 346.820979 152.552265 
L 454.128671 152.552265 
L 454.128671 193.817787 
" clip-path="url(#p5d501099a2)" style="fill: none; stroke: #555555; stroke-width: 1.5; stroke-linecap: square"/>
   </g>
   <g id="line2d_11">
    <path d="M 522.415385 386.5392 
L 522.415385 254.55229 
L 561.436364 254.55229 
L 561.436364 386.5392 
" clip-path="url(#p5d501099a2)" style="fill: none; stroke: #555555; stroke-width: 1.5; stroke-linecap: square"/>
   </g>
   <g id="line2d_12">
    <path d="M 400.474825 152.552265 
L 400.474825 87.743847 
L 541.925874 87.743847 
L 541.925874 254.55229 
" clip-path="url(#p5d501099a2)" style="fill: none; stroke: #555555; stroke-width: 1.5; stroke-linecap: square"/>
   </g>
   <g id="line2d_13">
    <path d="M 220.002797 279.007827 
L 220.002797 45.8352 
L 471.20035 45.8352 
L 471.20035 87.743847 
" clip-path="url(#p5d501099a2)" style="fill: none; stroke: #555555; stroke-width: 1.5; stroke-linecap: square"/>
   </g>
  </g>
 </g>
 <defs>
  <clipPath id="p5d501099a2">
   <rect x="28.8" y="28.8" width="558" height="374.7744"/>
  </clipPath>
 </defs>
</svg>
