<?xml version="1.0" encoding="utf-8" standalone="no"?>
<!DOCTYPE svg PUBLIC "-//W3C//DTD SVG 1.1//EN"
  "http://www.w3.org/Graphics/SVG/1.1/DTD/svg11.dtd">
<svg xmlns:xlink="http://www.w3.org/1999/xlink" width="615.6pt" height="618.76585pt" viewBox="0 0 615.6 618.76585" xmlns="http://www.w3.org/2000/svg" version="1.1">
 <metadata>
  <rdf:RDF xmlns:dc="http://purl.org/dc/elements/1.1/" xmlns:cc="http://creativecommons.org/ns#" xmlns:rdf="http://www.w3.org/1999/02/22-rdf-syntax-ns#">
   <cc:Work>
    <dc:type rdf:resource="http://purl.org/dc/dcmitype/StillImage"/>
    <dc:date>2026-05-04T21:42:29.610097</dc:date>
    <dc:format>image/svg+xml</dc:format>
    <dc:creator>
     <cc:Agent>
      <dc:title>Matplotlib v3.8.0, https://matplotlib.org/</dc:title>
     </cc:Agent>
    </dc:creator>
   </cc:Work>
  </rdf:RDF>
 </metadata>
 <defs>
  <style type="text/css">*{stroke-linejoin: round; stroke-linecap: butt}</style>
 </defs>
 <g id="figure_1">
  <g id="patch_1">
   <path d="M 0 618.76585 
L 615.6 618.76585 
L 615.6 0 
L 0 0 
z
" style="fill: #ffffff"/>
  </g>
  <g id="axes_1">
   <g id="patch_2">
    <path d="M 28.8 450.144 
L 586.8 450.144 
L 586.8 28.8 
L 28.8 28.8 
z
" style="fill: #ffffff"/>
   </g>
   <g id="matplotlib.axis_1">
    <g id="xtick_1">
     <g id="text_1">
      <!-- Stromal Cells -->
      <g transform="translate(56.462196 512.122) rotate(-90) scale(0.0833 -0.0833)">
       <defs>
        <path id="DejaVuSans-53" d="M 3425 4513 
L 3425 3897 
Q 3066 4069 2747 4153 
Q 2428 4238 2131 4238 
Q 1616 4238 1336 4038 
Q 1056 3838 1056 3469 
Q 1056 3159 1242 3001 
Q 1428 2844 1947 2747 
L 2328 2669 
Q 3034 2534 3370 2195 
Q 3706 1856 3706 1288 
Q 3706 609 3251 259 
Q 2797 -91 1919 -91 
Q 1588 -91 1214 -16 
Q 841 59 441 206 
L 441 856 
Q 825 641 1194 531 
Q 1563 422 1919 422 
Q 2459 422 2753 634 
Q 3047 847 3047 1241 
Q 3047 1584 2836 1778 
Q 2625 1972 2144 2069 
L 1759 2144 
Q 1053 2284 737 2584 
Q 422 2884 422 3419 
Q 422 4038 858 4394 
Q 1294 4750 2059 4750 
Q 2388 4750 2728 4690 
Q 3069 4631 3425 4513 
z
" transform="scale(0.015625)"/>
        <path id="DejaVuSans-74" d="M 1172 4494 
L 1172 3500 
L 2356 3500 
L 2356 3053 
L 1172 3053 
L 1172 1153 
Q 1172 725 1289 603 
Q 1406 481 1766 481 
L 2356 481 
L 2356 0 
L 1766 0 
Q 1100 0 847 248 
Q 594 497 594 1153 
L 594 3053 
L 172 3053 
L 172 3500 
L 594 3500 
L 594 4494 
L 1172 4494 
z
" transform="scale(0.015625)"/>
        <path id="DejaVuSans-72" d="M 2631 2963 
Q 2534 3019 2420 3045 
Q 2306 3072 2169 3072 
Q 1681 3072 1420 2755 
Q 1159 2438 1159 1844 
L 1159 0 
L 581 0 
L 581 3500 
L 1159 3500 
L 1159 2956 
Q 1341 3275 1631 3429 
Q 1922 3584 2338 3584 
Q 2397 3584 2469 3576 
Q 2541 3569 2628 3553 
L 2631 2963 
z
" transform="scale(0.015625)"/>
        <path id="DejaVuSans-6f" d="M 1959 3097 
Q 1497 3097 1228 2736 
Q 959 2375 959 1747 
Q 959 1119 1226 758 
Q 1494 397 1959 397 
Q 2419 397 2687 759 
Q 2956 1122 2956 1747 
Q 2956 2369 2687 2733 
Q 2419 3097 1959 3097 
z
M 1959 3584 
Q 2709 3584 3137 3096 
Q 3566 2609 3566 1747 
Q 3566 888 3137 398 
Q 2709 -91 1959 -91 
Q 1206 -91 779 398 
Q 353 888 353 1747 
Q 353 2609 779 3096 
Q 1206 3584 1959 3584 
z
" transform="scale(0.015625)"/>
        <path id="DejaVuSans-6d" d="M 3328 2828 
Q 3544 3216 3844 3400 
Q 4144 3584 4550 3584 
Q 5097 3584 5394 3201 
Q 5691 2819 5691 2113 
L 5691 0 
L 5113 0 
L 5113 2094 
Q 5113 2597 4934 2840 
Q 4756 3084 4391 3084 
Q 3944 3084 3684 2787 
Q 3425 2491 3425 1978 
L 3425 0 
L 2847 0 
L 2847 2094 
Q 2847 2600 2669 2842 
Q 2491 3084 2119 3084 
Q 1678 3084 1418 2786 
Q 1159 2488 1159 1978 
L 1159 0 
L 581 0 
L 581 3500 
L 1159 3500 
L 1159 2956 
Q 1356 3278 1631 3431 
Q 1906 3584 2284 3584 
Q 2666 3584 2933 3390 
Q 3200 3197 3328 2828 
z
" transform="scale(0.015625)"/>
        <path id="DejaVuSans-61" d="M 2194 1759 
Q 1497 1759 1228 1600 
Q 959 1441 959 1056 
Q 959 750 1161 570 
Q 1363 391 1709 391 
Q 2188 391 2477 730 
Q 2766 1069 2766 1631 
L 2766 1759 
L 2194 1759 
z
M 3341 1997 
L 3341 0 
L 2766 0 
L 2766 531 
Q 2569 213 2275 61 
Q 1981 -91 1556 -91 
Q 1019 -91 701 211 
Q 384 513 384 1019 
Q 384 1609 779 1909 
Q 1175 2209 1959 2209 
L 2766 2209 
L 2766 2266 
Q 2766 2663 2505 2880 
Q 2244 3097 1772 3097 
Q 1472 3097 1187 3025 
Q 903 2953 641 2809 
L 641 3341 
Q 956 3463 1253 3523 
Q 1550 3584 1831 3584 
Q 2591 3584 2966 3190 
Q 3341 2797 3341 1997 
z
" transform="scale(0.015625)"/>
        <path id="DejaVuSans-6c" d="M 603 4863 
L 1178 4863 
L 1178 0 
L 603 0 
L 603 4863 
z
" transform="scale(0.015625)"/>
        <path id="DejaVuSans-20" transform="scale(0.015625)"/>
        <path id="DejaVuSans-43" d="M 4122 4306 
L 4122 3641 
Q 3803 3938 3442 4084 
Q 3081 4231 2675 4231 
Q 1875 4231 1450 3742 
Q 1025 3253 1025 2328 
Q 1025 1406 1450 917 
Q 1875 428 2675 428 
Q 3081 428 3442 575 
Q 3803 722 4122 1019 
L 4122 359 
Q 3791 134 3420 21 
Q 3050 -91 2638 -91 
Q 1578 -91 968 557 
Q 359 1206 359 2328 
Q 359 3453 968 4101 
Q 1578 4750 2638 4750 
Q 3056 4750 3426 4639 
Q 3797 4528 4122 4306 
z
" transform="scale(0.015625)"/>
        <path id="DejaVuSans-65" d="M 3597 1894 
L 3597 1613 
L 953 1613 
Q 991 1019 1311 708 
Q 1631 397 2203 397 
Q 2534 397 2845 478 
Q 3156 559 3463 722 
L 3463 178 
Q 3153 47 2828 -22 
Q 2503 -91 2169 -91 
Q 1331 -91 842 396 
Q 353 884 353 1716 
Q 353 2575 817 3079 
Q 1281 3584 2069 3584 
Q 2775 3584 3186 3129 
Q 3597 2675 3597 1894 
z
M 3022 2063 
Q 3016 2534 2758 2815 
Q 2500 3097 2075 3097 
Q 1594 3097 1305 2825 
Q 1016 2553 972 2059 
L 3022 2063 
z
" transform="scale(0.015625)"/>
        <path id="DejaVuSans-73" d="M 2834 3397 
L 2834 2853 
Q 2591 2978 2328 3040 
Q 2066 3103 1784 3103 
Q 1356 3103 1142 2972 
Q 928 2841 928 2578 
Q 928 2378 1081 2264 
Q 1234 2150 1697 2047 
L 1894 2003 
Q 2506 1872 2764 1633 
Q 3022 1394 3022 966 
Q 3022 478 2636 193 
Q 2250 -91 1575 -91 
Q 1294 -91 989 -36 
Q 684 19 347 128 
L 347 722 
Q 666 556 975 473 
Q 1284 391 1588 391 
Q 1994 391 2212 530 
Q 2431 669 2431 922 
Q 2431 1156 2273 1281 
Q 2116 1406 1581 1522 
L 1381 1569 
Q 847 1681 609 1914 
Q 372 2147 372 2553 
Q 372 3047 722 3315 
Q 1072 3584 1716 3584 
Q 2034 3584 2315 3537 
Q 2597 3491 2834 3397 
z
" transform="scale(0.015625)"/>
       </defs>
       <use xlink:href="#DejaVuSans-53"/>
       <use xlink:href="#DejaVuSans-74" x="63.476562"/>
       <use xlink:href="#DejaVuSans-72" x="102.685547"/>
       <use xlink:href="#DejaVuSans-6f" x="141.548828"/>
       <use xlink:href="#DejaVuSans-6d" x="202.730469"/>
       <use xlink:href="#DejaVuSans-61" x="300.142578"/>
       <use xlink:href="#DejaVuSans-6c" x="361.421875"/>
       <use xlink:href="#DejaVuSans-20" x="389.205078"/>
       <use xlink:href="#DejaVuSans-43" x="420.992188"/>
       <use xlink:href="#DejaVuSans-65" x="490.816406"/>
       <use xlink:href="#DejaVuSans-6c" x="552.339844"/>
       <use xlink:href="#DejaVuSans-6c" x="580.123047"/>
       <use xlink:href="#DejaVuSans-73" x="607.90625"/>
      </g>
     </g>
    </g>
    <g id="xtick_2">
     <g id="text_2">
      <!-- Lymphatic  Cells -->
      <g transform="translate(86.301768 525.106387) rotate(-90) scale(0.0833 -0.0833)">
       <defs>
        <path id="DejaVuSans-4c" d="M 628 4666 
L 1259 4666 
L 1259 531 
L 3531 531 
L 3531 0 
L 628 0 
L 628 4666 
z
" transform="scale(0.015625)"/>
        <path id="DejaVuSans-79" d="M 2059 -325 
Q 1816 -950 1584 -1140 
Q 1353 -1331 966 -1331 
L 506 -1331 
L 506 -850 
L 844 -850 
Q 1081 -850 1212 -737 
Q 1344 -625 1503 -206 
L 1606 56 
L 191 3500 
L 800 3500 
L 1894 763 
L 2988 3500 
L 3597 3500 
L 2059 -325 
z
" transform="scale(0.015625)"/>
        <path id="DejaVuSans-70" d="M 1159 525 
L 1159 -1331 
L 581 -1331 
L 581 3500 
L 1159 3500 
L 1159 2969 
Q 1341 3281 1617 3432 
Q 1894 3584 2278 3584 
Q 2916 3584 3314 3078 
Q 3713 2572 3713 1747 
Q 3713 922 3314 415 
Q 2916 -91 2278 -91 
Q 1894 -91 1617 61 
Q 1341 213 1159 525 
z
M 3116 1747 
Q 3116 2381 2855 2742 
Q 2594 3103 2138 3103 
Q 1681 3103 1420 2742 
Q 1159 2381 1159 1747 
Q 1159 1113 1420 752 
Q 1681 391 2138 391 
Q 2594 391 2855 752 
Q 3116 1113 3116 1747 
z
" transform="scale(0.015625)"/>
        <path id="DejaVuSans-68" d="M 3513 2113 
L 3513 0 
L 2938 0 
L 2938 2094 
Q 2938 2591 2744 2837 
Q 2550 3084 2163 3084 
Q 1697 3084 1428 2787 
Q 1159 2491 1159 1978 
L 1159 0 
L 581 0 
L 581 4863 
L 1159 4863 
L 1159 2956 
Q 1366 3272 1645 3428 
Q 1925 3584 2291 3584 
Q 2894 3584 3203 3211 
Q 3513 2838 3513 2113 
z
" transform="scale(0.015625)"/>
        <path id="DejaVuSans-69" d="M 603 3500 
L 1178 3500 
L 1178 0 
L 603 0 
L 603 3500 
z
M 603 4863 
L 1178 4863 
L 1178 4134 
L 603 4134 
L 603 4863 
z
" transform="scale(0.015625)"/>
        <path id="DejaVuSans-63" d="M 3122 3366 
L 3122 2828 
Q 2878 2963 2633 3030 
Q 2388 3097 2138 3097 
Q 1578 3097 1268 2742 
Q 959 2388 959 1747 
Q 959 1106 1268 751 
Q 1578 397 2138 397 
Q 2388 397 2633 464 
Q 2878 531 3122 666 
L 3122 134 
Q 2881 22 2623 -34 
Q 2366 -91 2075 -91 
Q 1284 -91 818 406 
Q 353 903 353 1747 
Q 353 2603 823 3093 
Q 1294 3584 2113 3584 
Q 2378 3584 2631 3529 
Q 2884 3475 3122 3366 
z
" transform="scale(0.015625)"/>
       </defs>
       <use xlink:href="#DejaVuSans-4c"/>
       <use xlink:href="#DejaVuSans-79" x="46.587891"/>
       <use xlink:href="#DejaVuSans-6d" x="105.767578"/>
       <use xlink:href="#DejaVuSans-70" x="203.179688"/>
       <use xlink:href="#DejaVuSans-68" x="266.65625"/>
       <use xlink:href="#DejaVuSans-61" x="330.035156"/>
       <use xlink:href="#DejaVuSans-74" x="391.314453"/>
       <use xlink:href="#DejaVuSans-69" x="430.523438"/>
       <use xlink:href="#DejaVuSans-63" x="458.306641"/>
       <use xlink:href="#DejaVuSans-20" x="513.287109"/>
       <use xlink:href="#DejaVuSans-20" x="545.074219"/>
       <use xlink:href="#DejaVuSans-43" x="576.861328"/>
       <use xlink:href="#DejaVuSans-65" x="646.685547"/>
       <use xlink:href="#DejaVuSans-6c" x="708.208984"/>
       <use xlink:href="#DejaVuSans-6c" x="735.992188"/>
       <use xlink:href="#DejaVuSans-73" x="763.775391"/>
      </g>
     </g>
    </g>
    <g id="xtick_3">
     <g id="text_3">
      <!-- Vein -->
      <g transform="translate(116.14134 474.915534) rotate(-90) scale(0.0833 -0.0833)">
       <defs>
        <path id="DejaVuSans-56" d="M 1831 0 
L 50 4666 
L 709 4666 
L 2188 738 
L 3669 4666 
L 4325 4666 
L 2547 0 
L 1831 0 
z
" transform="scale(0.015625)"/>
        <path id="DejaVuSans-6e" d="M 3513 2113 
L 3513 0 
L 2938 0 
L 2938 2094 
Q 2938 2591 2744 2837 
Q 2550 3084 2163 3084 
Q 1697 3084 1428 2787 
Q 1159 2491 1159 1978 
L 1159 0 
L 581 0 
L 581 3500 
L 1159 3500 
L 1159 2956 
Q 1366 3272 1645 3428 
Q 1925 3584 2291 3584 
Q 2894 3584 3203 3211 
Q 3513 2838 3513 2113 
z
" transform="scale(0.015625)"/>
       </defs>
       <use xlink:href="#DejaVuSans-56"/>
       <use xlink:href="#DejaVuSans-65" x="60.658203"/>
       <use xlink:href="#DejaVuSans-69" x="122.181641"/>
       <use xlink:href="#DejaVuSans-6e" x="149.964844"/>
      </g>
     </g>
    </g>
    <g id="xtick_4">
     <g id="text_4">
      <!-- Artery -->
      <g transform="translate(145.980912 483.012555) rotate(-90) scale(0.0833 -0.0833)">
       <defs>
        <path id="DejaVuSans-41" d="M 2188 4044 
L 1331 1722 
L 3047 1722 
L 2188 4044 
z
M 1831 4666 
L 2547 4666 
L 4325 0 
L 3669 0 
L 3244 1197 
L 1141 1197 
L 716 0 
L 50 0 
L 1831 4666 
z
" transform="scale(0.015625)"/>
       </defs>
       <use xlink:href="#DejaVuSans-41"/>
       <use xlink:href="#DejaVuSans-72" x="68.408203"/>
       <use xlink:href="#DejaVuSans-74" x="109.521484"/>
       <use xlink:href="#DejaVuSans-65" x="148.730469"/>
       <use xlink:href="#DejaVuSans-72" x="210.253906"/>
       <use xlink:href="#DejaVuSans-79" x="251.367188"/>
      </g>
     </g>
    </g>
    <g id="xtick_5">
     <g id="text_5">
      <!-- Capillary -->
      <g transform="translate(175.820485 493.755652) rotate(-90) scale(0.0833 -0.0833)">
       <use xlink:href="#DejaVuSans-43"/>
       <use xlink:href="#DejaVuSans-61" x="69.824219"/>
       <use xlink:href="#DejaVuSans-70" x="131.103516"/>
       <use xlink:href="#DejaVuSans-69" x="194.580078"/>
       <use xlink:href="#DejaVuSans-6c" x="222.363281"/>
       <use xlink:href="#DejaVuSans-6c" x="250.146484"/>
       <use xlink:href="#DejaVuSans-61" x="277.929688"/>
       <use xlink:href="#DejaVuSans-72" x="339.208984"/>
       <use xlink:href="#DejaVuSans-79" x="380.322266"/>
      </g>
     </g>
    </g>
    <g id="xtick_6">
     <g id="text_6">
      <!-- Neutrophils -->
      <g transform="translate(205.660057 504.915248) rotate(-90) scale(0.0833 -0.0833)">
       <defs>
        <path id="DejaVuSans-4e" d="M 628 4666 
L 1478 4666 
L 3547 763 
L 3547 4666 
L 4159 4666 
L 4159 0 
L 3309 0 
L 1241 3903 
L 1241 0 
L 628 0 
L 628 4666 
z
" transform="scale(0.015625)"/>
        <path id="DejaVuSans-75" d="M 544 1381 
L 544 3500 
L 1119 3500 
L 1119 1403 
Q 1119 906 1312 657 
Q 1506 409 1894 409 
Q 2359 409 2629 706 
Q 2900 1003 2900 1516 
L 2900 3500 
L 3475 3500 
L 3475 0 
L 2900 0 
L 2900 538 
Q 2691 219 2414 64 
Q 2138 -91 1772 -91 
Q 1169 -91 856 284 
Q 544 659 544 1381 
z
M 1991 3584 
L 1991 3584 
z
" transform="scale(0.015625)"/>
       </defs>
       <use xlink:href="#DejaVuSans-4e"/>
       <use xlink:href="#DejaVuSans-65" x="74.804688"/>
       <use xlink:href="#DejaVuSans-75" x="136.328125"/>
       <use xlink:href="#DejaVuSans-74" x="199.707031"/>
       <use xlink:href="#DejaVuSans-72" x="238.916016"/>
       <use xlink:href="#DejaVuSans-6f" x="277.779297"/>
       <use xlink:href="#DejaVuSans-70" x="338.960938"/>
       <use xlink:href="#DejaVuSans-68" x="402.4375"/>
       <use xlink:href="#DejaVuSans-69" x="465.816406"/>
       <use xlink:href="#DejaVuSans-6c" x="493.599609"/>
       <use xlink:href="#DejaVuSans-73" x="521.382812"/>
      </g>
     </g>
    </g>
    <g id="xtick_7">
     <g id="text_7">
      <!-- Basophil and Mast Cells -->
      <g transform="translate(235.499629 556.017195) rotate(-90) scale(0.0833 -0.0833)">
       <defs>
        <path id="DejaVuSans-42" d="M 1259 2228 
L 1259 519 
L 2272 519 
Q 2781 519 3026 730 
Q 3272 941 3272 1375 
Q 3272 1813 3026 2020 
Q 2781 2228 2272 2228 
L 1259 2228 
z
M 1259 4147 
L 1259 2741 
L 2194 2741 
Q 2656 2741 2882 2914 
Q 3109 3088 3109 3444 
Q 3109 3797 2882 3972 
Q 2656 4147 2194 4147 
L 1259 4147 
z
M 628 4666 
L 2241 4666 
Q 2963 4666 3353 4366 
Q 3744 4066 3744 3513 
Q 3744 3084 3544 2831 
Q 3344 2578 2956 2516 
Q 3422 2416 3680 2098 
Q 3938 1781 3938 1306 
Q 3938 681 3513 340 
Q 3088 0 2303 0 
L 628 0 
L 628 4666 
z
" transform="scale(0.015625)"/>
        <path id="DejaVuSans-64" d="M 2906 2969 
L 2906 4863 
L 3481 4863 
L 3481 0 
L 2906 0 
L 2906 525 
Q 2725 213 2448 61 
Q 2172 -91 1784 -91 
Q 1150 -91 751 415 
Q 353 922 353 1747 
Q 353 2572 751 3078 
Q 1150 3584 1784 3584 
Q 2172 3584 2448 3432 
Q 2725 3281 2906 2969 
z
M 947 1747 
Q 947 1113 1208 752 
Q 1469 391 1925 391 
Q 2381 391 2643 752 
Q 2906 1113 2906 1747 
Q 2906 2381 2643 2742 
Q 2381 3103 1925 3103 
Q 1469 3103 1208 2742 
Q 947 2381 947 1747 
z
" transform="scale(0.015625)"/>
        <path id="DejaVuSans-4d" d="M 628 4666 
L 1569 4666 
L 2759 1491 
L 3956 4666 
L 4897 4666 
L 4897 0 
L 4281 0 
L 4281 4097 
L 3078 897 
L 2444 897 
L 1241 4097 
L 1241 0 
L 628 0 
L 628 4666 
z
" transform="scale(0.015625)"/>
       </defs>
       <use xlink:href="#DejaVuSans-42"/>
       <use xlink:href="#DejaVuSans-61" x="68.603516"/>
       <use xlink:href="#DejaVuSans-73" x="129.882812"/>
       <use xlink:href="#DejaVuSans-6f" x="181.982422"/>
       <use xlink:href="#DejaVuSans-70" x="243.164062"/>
       <use xlink:href="#DejaVuSans-68" x="306.640625"/>
       <use xlink:href="#DejaVuSans-69" x="370.019531"/>
       <use xlink:href="#DejaVuSans-6c" x="397.802734"/>
       <use xlink:href="#DejaVuSans-20" x="425.585938"/>
       <use xlink:href="#DejaVuSans-61" x="457.373047"/>
       <use xlink:href="#DejaVuSans-6e" x="518.652344"/>
       <use xlink:href="#DejaVuSans-64" x="582.03125"/>
       <use xlink:href="#DejaVuSans-20" x="645.507812"/>
       <use xlink:href="#DejaVuSans-4d" x="677.294922"/>
       <use xlink:href="#DejaVuSans-61" x="763.574219"/>
       <use xlink:href="#DejaVuSans-73" x="824.853516"/>
       <use xlink:href="#DejaVuSans-74" x="876.953125"/>
       <use xlink:href="#DejaVuSans-20" x="916.162109"/>
       <use xlink:href="#DejaVuSans-43" x="947.949219"/>
       <use xlink:href="#DejaVuSans-65" x="1017.773438"/>
       <use xlink:href="#DejaVuSans-6c" x="1079.296875"/>
       <use xlink:href="#DejaVuSans-6c" x="1107.080078"/>
       <use xlink:href="#DejaVuSans-73" x="1134.863281"/>
      </g>
     </g>
    </g>
    <g id="xtick_8">
     <g id="text_8">
      <!-- B Cells -->
      <g transform="translate(265.339201 485.416541) rotate(-90) scale(0.0833 -0.0833)">
       <use xlink:href="#DejaVuSans-42"/>
       <use xlink:href="#DejaVuSans-20" x="68.603516"/>
       <use xlink:href="#DejaVuSans-43" x="100.390625"/>
       <use xlink:href="#DejaVuSans-65" x="170.214844"/>
       <use xlink:href="#DejaVuSans-6c" x="231.738281"/>
       <use xlink:href="#DejaVuSans-6c" x="259.521484"/>
       <use xlink:href="#DejaVuSans-73" x="287.304688"/>
      </g>
     </g>
    </g>
    <g id="xtick_9">
     <g id="text_9">
      <!-- T Cells -->
      <g transform="translate(295.178773 484.789187) rotate(-90) scale(0.0833 -0.0833)">
       <defs>
        <path id="DejaVuSans-54" d="M -19 4666 
L 3928 4666 
L 3928 4134 
L 2272 4134 
L 2272 0 
L 1638 0 
L 1638 4134 
L -19 4134 
L -19 4666 
z
" transform="scale(0.015625)"/>
       </defs>
       <use xlink:href="#DejaVuSans-54"/>
       <use xlink:href="#DejaVuSans-20" x="61.083984"/>
       <use xlink:href="#DejaVuSans-43" x="92.871094"/>
       <use xlink:href="#DejaVuSans-65" x="162.695312"/>
       <use xlink:href="#DejaVuSans-6c" x="224.21875"/>
       <use xlink:href="#DejaVuSans-6c" x="252.001953"/>
       <use xlink:href="#DejaVuSans-73" x="279.785156"/>
      </g>
     </g>
    </g>
    <g id="xtick_10">
     <g id="text_10">
      <!-- Natural Killer Cells -->
      <g transform="translate(325.018345 534.028598) rotate(-90) scale(0.0833 -0.0833)">
       <defs>
        <path id="DejaVuSans-4b" d="M 628 4666 
L 1259 4666 
L 1259 2694 
L 3353 4666 
L 4166 4666 
L 1850 2491 
L 4331 0 
L 3500 0 
L 1259 2247 
L 1259 0 
L 628 0 
L 628 4666 
z
" transform="scale(0.015625)"/>
       </defs>
       <use xlink:href="#DejaVuSans-4e"/>
       <use xlink:href="#DejaVuSans-61" x="74.804688"/>
       <use xlink:href="#DejaVuSans-74" x="136.083984"/>
       <use xlink:href="#DejaVuSans-75" x="175.292969"/>
       <use xlink:href="#DejaVuSans-72" x="238.671875"/>
       <use xlink:href="#DejaVuSans-61" x="279.785156"/>
       <use xlink:href="#DejaVuSans-6c" x="341.064453"/>
       <use xlink:href="#DejaVuSans-20" x="368.847656"/>
       <use xlink:href="#DejaVuSans-4b" x="400.634766"/>
       <use xlink:href="#DejaVuSans-69" x="466.210938"/>
       <use xlink:href="#DejaVuSans-6c" x="493.994141"/>
       <use xlink:href="#DejaVuSans-6c" x="521.777344"/>
       <use xlink:href="#DejaVuSans-65" x="549.560547"/>
       <use xlink:href="#DejaVuSans-72" x="611.083984"/>
       <use xlink:href="#DejaVuSans-20" x="652.197266"/>
       <use xlink:href="#DejaVuSans-43" x="683.984375"/>
       <use xlink:href="#DejaVuSans-65" x="753.808594"/>
       <use xlink:href="#DejaVuSans-6c" x="815.332031"/>
       <use xlink:href="#DejaVuSans-6c" x="843.115234"/>
       <use xlink:href="#DejaVuSans-73" x="870.898438"/>
      </g>
     </g>
    </g>
    <g id="xtick_11">
     <g id="text_11">
      <!-- Monocytes -->
      <g transform="translate(354.857918 502.045303) rotate(-90) scale(0.0833 -0.0833)">
       <use xlink:href="#DejaVuSans-4d"/>
       <use xlink:href="#DejaVuSans-6f" x="86.279297"/>
       <use xlink:href="#DejaVuSans-6e" x="147.460938"/>
       <use xlink:href="#DejaVuSans-6f" x="210.839844"/>
       <use xlink:href="#DejaVuSans-63" x="272.021484"/>
       <use xlink:href="#DejaVuSans-79" x="327.001953"/>
       <use xlink:href="#DejaVuSans-74" x="386.181641"/>
       <use xlink:href="#DejaVuSans-65" x="425.390625"/>
       <use xlink:href="#DejaVuSans-73" x="486.914062"/>
      </g>
     </g>
    </g>
    <g id="xtick_12">
     <g id="text_12">
      <!-- Macrophage and Dendritic Cells -->
      <g transform="translate(384.69749 589.96585) rotate(-90) scale(0.0833 -0.0833)">
       <defs>
        <path id="DejaVuSans-67" d="M 2906 1791 
Q 2906 2416 2648 2759 
Q 2391 3103 1925 3103 
Q 1463 3103 1205 2759 
Q 947 2416 947 1791 
Q 947 1169 1205 825 
Q 1463 481 1925 481 
Q 2391 481 2648 825 
Q 2906 1169 2906 1791 
z
M 3481 434 
Q 3481 -459 3084 -895 
Q 2688 -1331 1869 -1331 
Q 1566 -1331 1297 -1286 
Q 1028 -1241 775 -1147 
L 775 -588 
Q 1028 -725 1275 -790 
Q 1522 -856 1778 -856 
Q 2344 -856 2625 -561 
Q 2906 -266 2906 331 
L 2906 616 
Q 2728 306 2450 153 
Q 2172 0 1784 0 
Q 1141 0 747 490 
Q 353 981 353 1791 
Q 353 2603 747 3093 
Q 1141 3584 1784 3584 
Q 2172 3584 2450 3431 
Q 2728 3278 2906 2969 
L 2906 3500 
L 3481 3500 
L 3481 434 
z
" transform="scale(0.015625)"/>
        <path id="DejaVuSans-44" d="M 1259 4147 
L 1259 519 
L 2022 519 
Q 2988 519 3436 956 
Q 3884 1394 3884 2338 
Q 3884 3275 3436 3711 
Q 2988 4147 2022 4147 
L 1259 4147 
z
M 628 4666 
L 1925 4666 
Q 3281 4666 3915 4102 
Q 4550 3538 4550 2338 
Q 4550 1131 3912 565 
Q 3275 0 1925 0 
L 628 0 
L 628 4666 
z
" transform="scale(0.015625)"/>
       </defs>
       <use xlink:href="#DejaVuSans-4d"/>
       <use xlink:href="#DejaVuSans-61" x="86.279297"/>
       <use xlink:href="#DejaVuSans-63" x="147.558594"/>
       <use xlink:href="#DejaVuSans-72" x="202.539062"/>
       <use xlink:href="#DejaVuSans-6f" x="241.402344"/>
       <use xlink:href="#DejaVuSans-70" x="302.583984"/>
       <use xlink:href="#DejaVuSans-68" x="366.060547"/>
       <use xlink:href="#DejaVuSans-61" x="429.439453"/>
       <use xlink:href="#DejaVuSans-67" x="490.71875"/>
       <use xlink:href="#DejaVuSans-65" x="554.195312"/>
       <use xlink:href="#DejaVuSans-20" x="615.71875"/>
       <use xlink:href="#DejaVuSans-61" x="647.505859"/>
       <use xlink:href="#DejaVuSans-6e" x="708.785156"/>
       <use xlink:href="#DejaVuSans-64" x="772.164062"/>
       <use xlink:href="#DejaVuSans-20" x="835.640625"/>
       <use xlink:href="#DejaVuSans-44" x="867.427734"/>
       <use xlink:href="#DejaVuSans-65" x="944.429688"/>
       <use xlink:href="#DejaVuSans-6e" x="1005.953125"/>
       <use xlink:href="#DejaVuSans-64" x="1069.332031"/>
       <use xlink:href="#DejaVuSans-72" x="1132.808594"/>
       <use xlink:href="#DejaVuSans-69" x="1173.921875"/>
       <use xlink:href="#DejaVuSans-74" x="1201.705078"/>
       <use xlink:href="#DejaVuSans-69" x="1240.914062"/>
       <use xlink:href="#DejaVuSans-63" x="1268.697266"/>
       <use xlink:href="#DejaVuSans-20" x="1323.677734"/>
       <use xlink:href="#DejaVuSans-43" x="1355.464844"/>
       <use xlink:href="#DejaVuSans-65" x="1425.289062"/>
       <use xlink:href="#DejaVuSans-6c" x="1486.8125"/>
       <use xlink:href="#DejaVuSans-6c" x="1514.595703"/>
       <use xlink:href="#DejaVuSans-73" x="1542.378906"/>
      </g>
     </g>
    </g>
    <g id="xtick_13">
     <g id="text_13">
      <!-- Macrophages -->
      <g transform="translate(414.537062 512.775384) rotate(-90) scale(0.0833 -0.0833)">
       <use xlink:href="#DejaVuSans-4d"/>
       <use xlink:href="#DejaVuSans-61" x="86.279297"/>
       <use xlink:href="#DejaVuSans-63" x="147.558594"/>
       <use xlink:href="#DejaVuSans-72" x="202.539062"/>
       <use xlink:href="#DejaVuSans-6f" x="241.402344"/>
       <use xlink:href="#DejaVuSans-70" x="302.583984"/>
       <use xlink:href="#DejaVuSans-68" x="366.060547"/>
       <use xlink:href="#DejaVuSans-61" x="429.439453"/>
       <use xlink:href="#DejaVuSans-67" x="490.71875"/>
       <use xlink:href="#DejaVuSans-65" x="554.195312"/>
       <use xlink:href="#DejaVuSans-73" x="615.71875"/>
      </g>
     </g>
    </g>
    <g id="xtick_14">
     <g id="text_14">
      <!-- AT2 -->
      <g transform="translate(444.376634 472.584436) rotate(-90) scale(0.0833 -0.0833)">
       <defs>
        <path id="DejaVuSans-32" d="M 1228 531 
L 3431 531 
L 3431 0 
L 469 0 
L 469 531 
Q 828 903 1448 1529 
Q 2069 2156 2228 2338 
Q 2531 2678 2651 2914 
Q 2772 3150 2772 3378 
Q 2772 3750 2511 3984 
Q 2250 4219 1831 4219 
Q 1534 4219 1204 4116 
Q 875 4013 500 3803 
L 500 4441 
Q 881 4594 1212 4672 
Q 1544 4750 1819 4750 
Q 2544 4750 2975 4387 
Q 3406 4025 3406 3419 
Q 3406 3131 3298 2873 
Q 3191 2616 2906 2266 
Q 2828 2175 2409 1742 
Q 1991 1309 1228 531 
z
" transform="scale(0.015625)"/>
       </defs>
       <use xlink:href="#DejaVuSans-41"/>
       <use xlink:href="#DejaVuSans-54" x="60.658203"/>
       <use xlink:href="#DejaVuSans-32" x="121.742188"/>
      </g>
     </g>
    </g>
    <g id="xtick_15">
     <g id="text_15">
      <!-- Proliferating Macrophage -->
      <g transform="translate(474.216206 561.656866) rotate(-90) scale(0.0833 -0.0833)">
       <defs>
        <path id="DejaVuSans-50" d="M 1259 4147 
L 1259 2394 
L 2053 2394 
Q 2494 2394 2734 2622 
Q 2975 2850 2975 3272 
Q 2975 3691 2734 3919 
Q 2494 4147 2053 4147 
L 1259 4147 
z
M 628 4666 
L 2053 4666 
Q 2838 4666 3239 4311 
Q 3641 3956 3641 3272 
Q 3641 2581 3239 2228 
Q 2838 1875 2053 1875 
L 1259 1875 
L 1259 0 
L 628 0 
L 628 4666 
z
" transform="scale(0.015625)"/>
        <path id="DejaVuSans-66" d="M 2375 4863 
L 2375 4384 
L 1825 4384 
Q 1516 4384 1395 4259 
Q 1275 4134 1275 3809 
L 1275 3500 
L 2222 3500 
L 2222 3053 
L 1275 3053 
L 1275 0 
L 697 0 
L 697 3053 
L 147 3053 
L 147 3500 
L 697 3500 
L 697 3744 
Q 697 4328 969 4595 
Q 1241 4863 1831 4863 
L 2375 4863 
z
" transform="scale(0.015625)"/>
       </defs>
       <use xlink:href="#DejaVuSans-50"/>
       <use xlink:href="#DejaVuSans-72" x="58.552734"/>
       <use xlink:href="#DejaVuSans-6f" x="97.416016"/>
       <use xlink:href="#DejaVuSans-6c" x="158.597656"/>
       <use xlink:href="#DejaVuSans-69" x="186.380859"/>
       <use xlink:href="#DejaVuSans-66" x="214.164062"/>
       <use xlink:href="#DejaVuSans-65" x="249.369141"/>
       <use xlink:href="#DejaVuSans-72" x="310.892578"/>
       <use xlink:href="#DejaVuSans-61" x="352.005859"/>
       <use xlink:href="#DejaVuSans-74" x="413.285156"/>
       <use xlink:href="#DejaVuSans-69" x="452.494141"/>
       <use xlink:href="#DejaVuSans-6e" x="480.277344"/>
       <use xlink:href="#DejaVuSans-67" x="543.65625"/>
       <use xlink:href="#DejaVuSans-20" x="607.132812"/>
       <use xlink:href="#DejaVuSans-4d" x="638.919922"/>
       <use xlink:href="#DejaVuSans-61" x="725.199219"/>
       <use xlink:href="#DejaVuSans-63" x="786.478516"/>
       <use xlink:href="#DejaVuSans-72" x="841.458984"/>
       <use xlink:href="#DejaVuSans-6f" x="880.322266"/>
       <use xlink:href="#DejaVuSans-70" x="941.503906"/>
       <use xlink:href="#DejaVuSans-68" x="1004.980469"/>
       <use xlink:href="#DejaVuSans-61" x="1068.359375"/>
       <use xlink:href="#DejaVuSans-67" x="1129.638672"/>
       <use xlink:href="#DejaVuSans-65" x="1193.115234"/>
      </g>
     </g>
    </g>
    <g id="xtick_16">
     <g id="text_16">
      <!-- Other Epithelial Cells -->
      <g transform="translate(504.055779 544.58427) rotate(-90) scale(0.0833 -0.0833)">
       <defs>
        <path id="DejaVuSans-4f" d="M 2522 4238 
Q 1834 4238 1429 3725 
Q 1025 3213 1025 2328 
Q 1025 1447 1429 934 
Q 1834 422 2522 422 
Q 3209 422 3611 934 
Q 4013 1447 4013 2328 
Q 4013 3213 3611 3725 
Q 3209 4238 2522 4238 
z
M 2522 4750 
Q 3503 4750 4090 4092 
Q 4678 3434 4678 2328 
Q 4678 1225 4090 567 
Q 3503 -91 2522 -91 
Q 1538 -91 948 565 
Q 359 1222 359 2328 
Q 359 3434 948 4092 
Q 1538 4750 2522 4750 
z
" transform="scale(0.015625)"/>
        <path id="DejaVuSans-45" d="M 628 4666 
L 3578 4666 
L 3578 4134 
L 1259 4134 
L 1259 2753 
L 3481 2753 
L 3481 2222 
L 1259 2222 
L 1259 531 
L 3634 531 
L 3634 0 
L 628 0 
L 628 4666 
z
" transform="scale(0.015625)"/>
       </defs>
       <use xlink:href="#DejaVuSans-4f"/>
       <use xlink:href="#DejaVuSans-74" x="78.710938"/>
       <use xlink:href="#DejaVuSans-68" x="117.919922"/>
       <use xlink:href="#DejaVuSans-65" x="181.298828"/>
       <use xlink:href="#DejaVuSans-72" x="242.822266"/>
       <use xlink:href="#DejaVuSans-20" x="283.935547"/>
       <use xlink:href="#DejaVuSans-45" x="315.722656"/>
       <use xlink:href="#DejaVuSans-70" x="378.90625"/>
       <use xlink:href="#DejaVuSans-69" x="442.382812"/>
       <use xlink:href="#DejaVuSans-74" x="470.166016"/>
       <use xlink:href="#DejaVuSans-68" x="509.375"/>
       <use xlink:href="#DejaVuSans-65" x="572.753906"/>
       <use xlink:href="#DejaVuSans-6c" x="634.277344"/>
       <use xlink:href="#DejaVuSans-69" x="662.060547"/>
       <use xlink:href="#DejaVuSans-61" x="689.84375"/>
       <use xlink:href="#DejaVuSans-6c" x="751.123047"/>
       <use xlink:href="#DejaVuSans-20" x="778.90625"/>
       <use xlink:href="#DejaVuSans-43" x="810.693359"/>
       <use xlink:href="#DejaVuSans-65" x="880.517578"/>
       <use xlink:href="#DejaVuSans-6c" x="942.041016"/>
       <use xlink:href="#DejaVuSans-6c" x="969.824219"/>
       <use xlink:href="#DejaVuSans-73" x="997.607422"/>
      </g>
     </g>
    </g>
    <g id="xtick_17">
     <g id="text_17">
      <!-- Ciliated Cells -->
      <g transform="translate(533.895351 511.244747) rotate(-90) scale(0.0833 -0.0833)">
       <use xlink:href="#DejaVuSans-43"/>
       <use xlink:href="#DejaVuSans-69" x="69.824219"/>
       <use xlink:href="#DejaVuSans-6c" x="97.607422"/>
       <use xlink:href="#DejaVuSans-69" x="125.390625"/>
       <use xlink:href="#DejaVuSans-61" x="153.173828"/>
       <use xlink:href="#DejaVuSans-74" x="214.453125"/>
       <use xlink:href="#DejaVuSans-65" x="253.662109"/>
       <use xlink:href="#DejaVuSans-64" x="315.185547"/>
       <use xlink:href="#DejaVuSans-20" x="378.662109"/>
       <use xlink:href="#DejaVuSans-43" x="410.449219"/>
       <use xlink:href="#DejaVuSans-65" x="480.273438"/>
       <use xlink:href="#DejaVuSans-6c" x="541.796875"/>
       <use xlink:href="#DejaVuSans-6c" x="569.580078"/>
       <use xlink:href="#DejaVuSans-73" x="597.363281"/>
      </g>
     </g>
    </g>
    <g id="xtick_18">
     <g id="text_18">
      <!-- AT1 -->
      <g transform="translate(563.734923 472.584436) rotate(-90) scale(0.0833 -0.0833)">
       <defs>
        <path id="DejaVuSans-31" d="M 794 531 
L 1825 531 
L 1825 4091 
L 703 3866 
L 703 4441 
L 1819 4666 
L 2450 4666 
L 2450 531 
L 3481 531 
L 3481 0 
L 794 0 
L 794 531 
z
" transform="scale(0.015625)"/>
       </defs>
       <use xlink:href="#DejaVuSans-41"/>
       <use xlink:href="#DejaVuSans-54" x="60.658203"/>
       <use xlink:href="#DejaVuSans-31" x="121.742188"/>
      </g>
     </g>
    </g>
   </g>
   <g id="matplotlib.axis_2">
    <g id="ytick_1"/>
    <g id="ytick_2"/>
    <g id="ytick_3"/>
    <g id="ytick_4"/>
    <g id="ytick_5"/>
    <g id="ytick_6"/>
    <g id="ytick_7"/>
    <g id="ytick_8"/>
    <g id="ytick_9"/>
   </g>
   <g id="line2d_1">
    <path d="M 113.842781 430.992 
L 113.842781 402.071173 
L 143.682353 402.071173 
L 143.682353 430.992 
" clip-path="url(#pab420e9dd6)" style="fill: none; stroke: #555555; stroke-width: 1.5; stroke-linecap: square"/>
   </g>
   <g id="line2d_2">
    <path d="M 128.762567 402.071173 
L 128.762567 363.039241 
L 173.521925 363.039241 
L 173.521925 430.992 
" clip-path="url(#pab420e9dd6)" style="fill: none; stroke: #555555; stroke-width: 1.5; stroke-linecap: square"/>
   </g>
   <g id="line2d_3">
    <path d="M 84.003209 430.992 
L 84.003209 336.666635 
L 151.142246 336.666635 
L 151.142246 363.039241 
" clip-path="url(#pab420e9dd6)" style="fill: none; stroke: #555555; stroke-width: 1.5; stroke-linecap: square"/>
   </g>
   <g id="line2d_4">
    <path d="M 54.163636 430.992 
L 54.163636 292.197956 
L 117.572727 292.197956 
L 117.572727 336.666635 
" clip-path="url(#pab420e9dd6)" style="fill: none; stroke: #555555; stroke-width: 1.5; stroke-linecap: square"/>
   </g>
   <g id="line2d_5">
    <path d="M 233.20107 430.992 
L 233.20107 345.771484 
L 263.040642 345.771484 
L 263.040642 430.992 
" clip-path="url(#pab420e9dd6)" style="fill: none; stroke: #555555; stroke-width: 1.5; stroke-linecap: square"/>
   </g>
   <g id="line2d_6">
    <path d="M 292.880214 430.992 
L 292.880214 391.043628 
L 322.719786 391.043628 
L 322.719786 430.992 
" clip-path="url(#pab420e9dd6)" style="fill: none; stroke: #555555; stroke-width: 1.5; stroke-linecap: square"/>
   </g>
   <g id="line2d_7">
    <path d="M 248.120856 345.771484 
L 248.120856 304.202455 
L 307.8 304.202455 
L 307.8 391.043628 
" clip-path="url(#pab420e9dd6)" style="fill: none; stroke: #555555; stroke-width: 1.5; stroke-linecap: square"/>
   </g>
   <g id="line2d_8">
    <path d="M 203.361497 430.992 
L 203.361497 249.734778 
L 277.960428 249.734778 
L 277.960428 304.202455 
" clip-path="url(#pab420e9dd6)" style="fill: none; stroke: #555555; stroke-width: 1.5; stroke-linecap: square"/>
   </g>
   <g id="line2d_9">
    <path d="M 85.868182 292.197956 
L 85.868182 214.753898 
L 240.660963 214.753898 
L 240.660963 249.734778 
" clip-path="url(#pab420e9dd6)" style="fill: none; stroke: #555555; stroke-width: 1.5; stroke-linecap: square"/>
   </g>
   <g id="line2d_10">
    <path d="M 382.39893 430.992 
L 382.39893 393.345589 
L 412.238503 393.345589 
L 412.238503 430.992 
" clip-path="url(#pab420e9dd6)" style="fill: none; stroke: #555555; stroke-width: 1.5; stroke-linecap: square"/>
   </g>
   <g id="line2d_11">
    <path d="M 352.559358 430.992 
L 352.559358 323.771761 
L 397.318717 323.771761 
L 397.318717 393.345589 
" clip-path="url(#pab420e9dd6)" style="fill: none; stroke: #555555; stroke-width: 1.5; stroke-linecap: square"/>
   </g>
   <g id="line2d_12">
    <path d="M 163.264572 214.753898 
L 163.264572 145.288243 
L 374.939037 145.288243 
L 374.939037 323.771761 
" clip-path="url(#pab420e9dd6)" style="fill: none; stroke: #555555; stroke-width: 1.5; stroke-linecap: square"/>
   </g>
   <g id="line2d_13">
    <path d="M 442.078075 430.992 
L 442.078075 245.532379 
L 471.917647 245.532379 
L 471.917647 430.992 
" clip-path="url(#pab420e9dd6)" style="fill: none; stroke: #555555; stroke-width: 1.5; stroke-linecap: square"/>
   </g>
   <g id="line2d_14">
    <path d="M 501.757219 430.992 
L 501.757219 244.765651 
L 531.596791 244.765651 
L 531.596791 430.992 
" clip-path="url(#pab420e9dd6)" style="fill: none; stroke: #555555; stroke-width: 1.5; stroke-linecap: square"/>
   </g>
   <g id="line2d_15">
    <path d="M 516.677005 244.765651 
L 516.677005 196.458153 
L 561.436364 196.458153 
L 561.436364 430.992 
" clip-path="url(#pab420e9dd6)" style="fill: none; stroke: #555555; stroke-width: 1.5; stroke-linecap: square"/>
   </g>
   <g id="line2d_16">
    <path d="M 456.997861 245.532379 
L 456.997861 124.170495 
L 539.056684 124.170495 
L 539.056684 196.458153 
" clip-path="url(#pab420e9dd6)" style="fill: none; stroke: #555555; stroke-width: 1.5; stroke-linecap: square"/>
   </g>
   <g id="line2d_17">
    <path d="M 269.101805 145.288243 
L 269.101805 47.952 
L 498.027273 47.952 
L 498.027273 124.170495 
" clip-path="url(#pab420e9dd6)" style="fill: none; stroke: #555555; stroke-width: 1.5; stroke-linecap: square"/>
   </g>
  </g>
 </g>
 <defs>
  <clipPath id="pab420e9dd6">
   <rect x="28.8" y="28.8" width="558" height="421.344"/>
  </clipPath>
 </defs>
</svg>
