<svg class="main-svg" xmlns="http://www.w3.org/2000/svg" xmlns:xlink="http://www.w3.org/1999/xlink" width="1800" height="900" style="" viewBox="0 0 1800 900"><rect x="0" y="0" width="1800" height="900" style="fill: rgb(255, 255, 255); fill-opacity: 1;"/><defs id="defs-e957ef"><g class="clips"><clipPath id="clipe957efxyplot" class="plotclip"><rect width="1574.3999999999999" height="588.8000000000001"/></clipPath><clipPath id="clipe957efxy2plot" class="plotclip"><rect width="1574.3999999999999" height="588.8000000000001"/></clipPath><clipPath class="axesclip" id="clipe957efx"><rect x="112.8" y="0" width="1574.3999999999999" height="900"/></clipPath><clipPath class="axesclip" id="clipe957efy"><rect x="0" y="211.2" width="1800" height="588.8000000000001"/></clipPath><clipPath class="axesclip" id="clipe957efxy"><rect x="112.8" y="211.2" width="1574.3999999999999" height="588.8000000000001"/></clipPath><clipPath class="axesclip" id="clipe957efy2"><rect x="0" y="211.2" width="1800" height="588.8000000000001"/></clipPath><clipPath class="axesclip" id="clipe957efxy2"><rect x="112.8" y="211.2" width="1574.3999999999999" height="588.8000000000001"/></clipPath></g><g class="gradients"/><g class="patterns"/></defs><g class="bglayer"><rect class="bg" x="112.8" y="211.2" width="1574.3999999999999" height="588.8000000000001" style="fill: rgb(229, 236, 246); fill-opacity: 1; stroke-width: 0;"/></g><g class="layer-below"><g class="imagelayer"/><g class="shapelayer"/></g><g class="cartesianlayer"><g class="subplot xy"><g class="layer-subplot"><g class="shapelayer"/><g class="imagelayer"/></g><g class="minor-gridlayer"><g class="x"/><g class="y"/><g class="y2"/></g><g class="gridlayer"><g class="x"/><g class="y"><path class="ygrid crisp" transform="translate(0,652.8)" d="M112.8,0h1574.3999999999999" style="stroke: rgb(255, 255, 255); stroke-opacity: 1; stroke-width: 1px;"/><path class="ygrid crisp" transform="translate(0,358.4)" d="M112.8,0h1574.3999999999999" style="stroke: rgb(255, 255, 255); stroke-opacity: 1; stroke-width: 1px;"/></g><g class="y2"/></g><g class="zerolinelayer"><path class="yzl zl crisp" transform="translate(0,505.59999999999997)" d="M112.8,0h1574.3999999999999" style="stroke: rgb(255, 255, 255); stroke-opacity: 1; stroke-width: 2px;"/><path class="y2zl zl crisp" transform="translate(0,800)" d="M112.8,0h1574.3999999999999" style="stroke: rgb(255, 255, 255); stroke-opacity: 1; stroke-width: 2px;"/></g><g class="layer-between"><g class="shapelayer"/><g class="imagelayer"/></g><path class="xlines-below"/><path class="ylines-below"/><g class="overlines-below"><path class="xy2-x"/><path class="xy2-y"/></g><g class="xaxislayer-below"/><g class="yaxislayer-below"/><g class="overaxes-below"><g class="xy2-x"/><g class="xy2-y"/></g><g class="plot" transform="translate(112.8,211.2)" clip-path="url(#clipe957efxyplot)"><g class="boxlayer mlayer"><g class="trace boxes" style="opacity: 1;"><path class="box" d="M38.29,33.45H80.98M38.29,40.96H80.98V29.12H38.29ZM59.64,40.96V55.76M59.64,29.12V25.49M48.96,55.76H70.31M48.96,25.49H70.31" style="vector-effect: none; stroke-width: 2px; stroke: rgb(0, 0, 255); stroke-opacity: 1; fill: rgb(0, 0, 255); fill-opacity: 0.5;"/><g class="points"><path class="point" transform="translate(59.64,62.95)" d="M3,0A3,3 0 1,1 0,-3A3,3 0 0,1 3,0Z" style="opacity: 1; stroke-width: 0px; fill: rgb(173, 216, 230); fill-opacity: 1;"/><path class="point" transform="translate(59.64,62.02)" d="M3,0A3,3 0 1,1 0,-3A3,3 0 0,1 3,0Z" style="opacity: 1; stroke-width: 0px; fill: rgb(173, 216, 230); fill-opacity: 1;"/><path class="point" transform="translate(59.64,58.83)" d="M3,0A3,3 0 1,1 0,-3A3,3 0 0,1 3,0Z" style="opacity: 1; stroke-width: 0px; fill: rgb(173, 216, 230); fill-opacity: 1;"/></g><path class="mean" d="M38.29,36.14H80.98" style="fill: none; vector-effect: non-scaling-stroke; stroke-width: 2; stroke-dasharray: 4px, 2px; stroke: rgb(0, 0, 255); stroke-opacity: 1;"/></g><g class="trace boxes" style="opacity: 1;"><path class="box" d="M212.56,45.7H255.25M212.56,53.72H255.25V37.99H212.56ZM233.9,53.72V68.47M233.9,37.99V34.39M223.23,68.47H244.58M223.23,34.39H244.58" style="vector-effect: none; stroke-width: 2px; stroke: rgb(0, 0, 255); stroke-opacity: 1; fill: rgb(0, 0, 255); fill-opacity: 0.5;"/><g class="points"><path class="point" transform="translate(233.9,460.93)" d="M3,0A3,3 0 1,1 0,-3A3,3 0 0,1 3,0Z" style="opacity: 1; stroke-width: 0px; fill: rgb(173, 216, 230); fill-opacity: 1;"/></g><path class="mean" d="M212.56,50.59H255.25" style="fill: none; vector-effect: non-scaling-stroke; stroke-width: 2; stroke-dasharray: 4px, 2px; stroke: rgb(0, 0, 255); stroke-opacity: 1;"/></g><g class="trace boxes" style="opacity: 1;"><path class="box" d="M386.82,49.3H429.52M386.82,55.79H429.52V45.05H386.82ZM408.17,55.79V62.02M408.17,45.05V44.51M397.5,62.02H418.84M397.5,44.51H418.84" style="vector-effect: none; stroke-width: 2px; stroke: rgb(0, 0, 255); stroke-opacity: 1; fill: rgb(0, 0, 255); fill-opacity: 0.5;"/><g class="points"><path class="point" transform="translate(408.17,560.64)" d="M3,0A3,3 0 1,1 0,-3A3,3 0 0,1 3,0Z" style="opacity: 1; stroke-width: 0px; fill: rgb(173, 216, 230); fill-opacity: 1;"/></g><path class="mean" d="M386.82,74.45H429.52" style="fill: none; vector-effect: non-scaling-stroke; stroke-width: 2; stroke-dasharray: 4px, 2px; stroke: rgb(0, 0, 255); stroke-opacity: 1;"/></g><g class="trace boxes" style="opacity: 1;"><path class="box" d="M561.09,78.27H603.78M561.09,99.4H603.78V66.48H561.09ZM582.44,99.4V147.53M582.44,66.48V56.8M571.76,147.53H593.11M571.76,56.8H593.11" style="vector-effect: none; stroke-width: 2px; stroke: rgb(0, 0, 255); stroke-opacity: 1; fill: rgb(0, 0, 255); fill-opacity: 0.5;"/><g class="points"><path class="point" transform="translate(582.44,202.17)" d="M3,0A3,3 0 1,1 0,-3A3,3 0 0,1 3,0Z" style="opacity: 1; stroke-width: 0px; fill: rgb(173, 216, 230); fill-opacity: 1;"/><path class="point" transform="translate(582.44,176.74)" d="M3,0A3,3 0 1,1 0,-3A3,3 0 0,1 3,0Z" style="opacity: 1; stroke-width: 0px; fill: rgb(173, 216, 230); fill-opacity: 1;"/><path class="point" transform="translate(582.44,172.79)" d="M3,0A3,3 0 1,1 0,-3A3,3 0 0,1 3,0Z" style="opacity: 1; stroke-width: 0px; fill: rgb(173, 216, 230); fill-opacity: 1;"/><path class="point" transform="translate(582.44,167)" d="M3,0A3,3 0 1,1 0,-3A3,3 0 0,1 3,0Z" style="opacity: 1; stroke-width: 0px; fill: rgb(173, 216, 230); fill-opacity: 1;"/><path class="point" transform="translate(582.44,165.99)" d="M3,0A3,3 0 1,1 0,-3A3,3 0 0,1 3,0Z" style="opacity: 1; stroke-width: 0px; fill: rgb(173, 216, 230); fill-opacity: 1;"/><path class="point" transform="translate(582.44,164.28)" d="M3,0A3,3 0 1,1 0,-3A3,3 0 0,1 3,0Z" style="opacity: 1; stroke-width: 0px; fill: rgb(173, 216, 230); fill-opacity: 1;"/><path class="point" transform="translate(582.44,162.61)" d="M3,0A3,3 0 1,1 0,-3A3,3 0 0,1 3,0Z" style="opacity: 1; stroke-width: 0px; fill: rgb(173, 216, 230); fill-opacity: 1;"/><path class="point" transform="translate(582.44,162.2)" d="M3,0A3,3 0 1,1 0,-3A3,3 0 0,1 3,0Z" style="opacity: 1; stroke-width: 0px; fill: rgb(173, 216, 230); fill-opacity: 1;"/><path class="point" transform="translate(582.44,161.87)" d="M3,0A3,3 0 1,1 0,-3A3,3 0 0,1 3,0Z" style="opacity: 1; stroke-width: 0px; fill: rgb(173, 216, 230); fill-opacity: 1;"/><path class="point" transform="translate(582.44,161.07)" d="M3,0A3,3 0 1,1 0,-3A3,3 0 0,1 3,0Z" style="opacity: 1; stroke-width: 0px; fill: rgb(173, 216, 230); fill-opacity: 1;"/></g><path class="mean" d="M561.09,86.68H603.78" style="fill: none; vector-effect: non-scaling-stroke; stroke-width: 2; stroke-dasharray: 4px, 2px; stroke: rgb(0, 0, 255); stroke-opacity: 1;"/></g><g class="trace boxes" style="opacity: 1;"><path class="box" d="M735.36,85.74H778.05M735.36,101.85H778.05V73.64H735.36ZM756.7,101.85V135.04M756.7,73.64V58.23M746.03,135.04H767.38M746.03,58.23H767.38" style="vector-effect: none; stroke-width: 2px; stroke: rgb(0, 0, 255); stroke-opacity: 1; fill: rgb(0, 0, 255); fill-opacity: 0.5;"/><g class="points"><path class="point" transform="translate(756.7,159.12)" d="M3,0A3,3 0 1,1 0,-3A3,3 0 0,1 3,0Z" style="opacity: 1; stroke-width: 0px; fill: rgb(173, 216, 230); fill-opacity: 1;"/><path class="point" transform="translate(756.7,148.55)" d="M3,0A3,3 0 1,1 0,-3A3,3 0 0,1 3,0Z" style="opacity: 1; stroke-width: 0px; fill: rgb(173, 216, 230); fill-opacity: 1;"/></g><path class="mean" d="M735.36,88.8H778.05" style="fill: none; vector-effect: non-scaling-stroke; stroke-width: 2; stroke-dasharray: 4px, 2px; stroke: rgb(0, 0, 255); stroke-opacity: 1;"/></g><g class="trace boxes" style="opacity: 1;"><path class="box" d="M909.62,116.6H952.32M909.62,147.33H952.32V99.13H909.62ZM930.97,147.33V216M930.97,99.13V84.69M920.3,216H941.64M920.3,84.69H941.64" style="vector-effect: none; stroke-width: 2px; stroke: rgb(0, 0, 255); stroke-opacity: 1; fill: rgb(0, 0, 255); fill-opacity: 0.5;"/><g class="points"><path class="point" transform="translate(930.97,528.59)" d="M3,0A3,3 0 1,1 0,-3A3,3 0 0,1 3,0Z" style="opacity: 1; stroke-width: 0px; fill: rgb(173, 216, 230); fill-opacity: 1;"/><path class="point" transform="translate(930.97,521.69)" d="M3,0A3,3 0 1,1 0,-3A3,3 0 0,1 3,0Z" style="opacity: 1; stroke-width: 0px; fill: rgb(173, 216, 230); fill-opacity: 1;"/><path class="point" transform="translate(930.97,516.74)" d="M3,0A3,3 0 1,1 0,-3A3,3 0 0,1 3,0Z" style="opacity: 1; stroke-width: 0px; fill: rgb(173, 216, 230); fill-opacity: 1;"/><path class="point" transform="translate(930.97,516.15)" d="M3,0A3,3 0 1,1 0,-3A3,3 0 0,1 3,0Z" style="opacity: 1; stroke-width: 0px; fill: rgb(173, 216, 230); fill-opacity: 1;"/><path class="point" transform="translate(930.97,497.44)" d="M3,0A3,3 0 1,1 0,-3A3,3 0 0,1 3,0Z" style="opacity: 1; stroke-width: 0px; fill: rgb(173, 216, 230); fill-opacity: 1;"/><path class="point" transform="translate(930.97,495.26)" d="M3,0A3,3 0 1,1 0,-3A3,3 0 0,1 3,0Z" style="opacity: 1; stroke-width: 0px; fill: rgb(173, 216, 230); fill-opacity: 1;"/><path class="point" transform="translate(930.97,457.14)" d="M3,0A3,3 0 1,1 0,-3A3,3 0 0,1 3,0Z" style="opacity: 1; stroke-width: 0px; fill: rgb(173, 216, 230); fill-opacity: 1;"/><path class="point" transform="translate(930.97,432.14)" d="M3,0A3,3 0 1,1 0,-3A3,3 0 0,1 3,0Z" style="opacity: 1; stroke-width: 0px; fill: rgb(173, 216, 230); fill-opacity: 1;"/><path class="point" transform="translate(930.97,336)" d="M3,0A3,3 0 1,1 0,-3A3,3 0 0,1 3,0Z" style="opacity: 1; stroke-width: 0px; fill: rgb(173, 216, 230); fill-opacity: 1;"/><path class="point" transform="translate(930.97,319.13)" d="M3,0A3,3 0 1,1 0,-3A3,3 0 0,1 3,0Z" style="opacity: 1; stroke-width: 0px; fill: rgb(173, 216, 230); fill-opacity: 1;"/><path class="point" transform="translate(930.97,317.57)" d="M3,0A3,3 0 1,1 0,-3A3,3 0 0,1 3,0Z" style="opacity: 1; stroke-width: 0px; fill: rgb(173, 216, 230); fill-opacity: 1;"/><path class="point" transform="translate(930.97,300.87)" d="M3,0A3,3 0 1,1 0,-3A3,3 0 0,1 3,0Z" style="opacity: 1; stroke-width: 0px; fill: rgb(173, 216, 230); fill-opacity: 1;"/><path class="point" transform="translate(930.97,287.46)" d="M3,0A3,3 0 1,1 0,-3A3,3 0 0,1 3,0Z" style="opacity: 1; stroke-width: 0px; fill: rgb(173, 216, 230); fill-opacity: 1;"/><path class="point" transform="translate(930.97,283)" d="M3,0A3,3 0 1,1 0,-3A3,3 0 0,1 3,0Z" style="opacity: 1; stroke-width: 0px; fill: rgb(173, 216, 230); fill-opacity: 1;"/><path class="point" transform="translate(930.97,276)" d="M3,0A3,3 0 1,1 0,-3A3,3 0 0,1 3,0Z" style="opacity: 1; stroke-width: 0px; fill: rgb(173, 216, 230); fill-opacity: 1;"/><path class="point" transform="translate(930.97,269.59)" d="M3,0A3,3 0 1,1 0,-3A3,3 0 0,1 3,0Z" style="opacity: 1; stroke-width: 0px; fill: rgb(173, 216, 230); fill-opacity: 1;"/><path class="point" transform="translate(930.97,266)" d="M3,0A3,3 0 1,1 0,-3A3,3 0 0,1 3,0Z" style="opacity: 1; stroke-width: 0px; fill: rgb(173, 216, 230); fill-opacity: 1;"/><path class="point" transform="translate(930.97,265.71)" d="M3,0A3,3 0 1,1 0,-3A3,3 0 0,1 3,0Z" style="opacity: 1; stroke-width: 0px; fill: rgb(173, 216, 230); fill-opacity: 1;"/><path class="point" transform="translate(930.97,258.51)" d="M3,0A3,3 0 1,1 0,-3A3,3 0 0,1 3,0Z" style="opacity: 1; stroke-width: 0px; fill: rgb(173, 216, 230); fill-opacity: 1;"/><path class="point" transform="translate(930.97,254.17)" d="M3,0A3,3 0 1,1 0,-3A3,3 0 0,1 3,0Z" style="opacity: 1; stroke-width: 0px; fill: rgb(173, 216, 230); fill-opacity: 1;"/><path class="point" transform="translate(930.97,253.22)" d="M3,0A3,3 0 1,1 0,-3A3,3 0 0,1 3,0Z" style="opacity: 1; stroke-width: 0px; fill: rgb(173, 216, 230); fill-opacity: 1;"/><path class="point" transform="translate(930.97,252.8)" d="M3,0A3,3 0 1,1 0,-3A3,3 0 0,1 3,0Z" style="opacity: 1; stroke-width: 0px; fill: rgb(173, 216, 230); fill-opacity: 1;"/><path class="point" transform="translate(930.97,251.07)" d="M3,0A3,3 0 1,1 0,-3A3,3 0 0,1 3,0Z" style="opacity: 1; stroke-width: 0px; fill: rgb(173, 216, 230); fill-opacity: 1;"/><path class="point" transform="translate(930.97,248.96)" d="M3,0A3,3 0 1,1 0,-3A3,3 0 0,1 3,0Z" style="opacity: 1; stroke-width: 0px; fill: rgb(173, 216, 230); fill-opacity: 1;"/><path class="point" transform="translate(930.97,248.12)" d="M3,0A3,3 0 1,1 0,-3A3,3 0 0,1 3,0Z" style="opacity: 1; stroke-width: 0px; fill: rgb(173, 216, 230); fill-opacity: 1;"/><path class="point" transform="translate(930.97,247.43)" d="M3,0A3,3 0 1,1 0,-3A3,3 0 0,1 3,0Z" style="opacity: 1; stroke-width: 0px; fill: rgb(173, 216, 230); fill-opacity: 1;"/><path class="point" transform="translate(930.97,245.61)" d="M3,0A3,3 0 1,1 0,-3A3,3 0 0,1 3,0Z" style="opacity: 1; stroke-width: 0px; fill: rgb(173, 216, 230); fill-opacity: 1;"/><path class="point" transform="translate(930.97,242.66)" d="M3,0A3,3 0 1,1 0,-3A3,3 0 0,1 3,0Z" style="opacity: 1; stroke-width: 0px; fill: rgb(173, 216, 230); fill-opacity: 1;"/><path class="point" transform="translate(930.97,239.68)" d="M3,0A3,3 0 1,1 0,-3A3,3 0 0,1 3,0Z" style="opacity: 1; stroke-width: 0px; fill: rgb(173, 216, 230); fill-opacity: 1;"/><path class="point" transform="translate(930.97,238.18)" d="M3,0A3,3 0 1,1 0,-3A3,3 0 0,1 3,0Z" style="opacity: 1; stroke-width: 0px; fill: rgb(173, 216, 230); fill-opacity: 1;"/><path class="point" transform="translate(930.97,237.18)" d="M3,0A3,3 0 1,1 0,-3A3,3 0 0,1 3,0Z" style="opacity: 1; stroke-width: 0px; fill: rgb(173, 216, 230); fill-opacity: 1;"/><path class="point" transform="translate(930.97,233.2)" d="M3,0A3,3 0 1,1 0,-3A3,3 0 0,1 3,0Z" style="opacity: 1; stroke-width: 0px; fill: rgb(173, 216, 230); fill-opacity: 1;"/><path class="point" transform="translate(930.97,227.61)" d="M3,0A3,3 0 1,1 0,-3A3,3 0 0,1 3,0Z" style="opacity: 1; stroke-width: 0px; fill: rgb(173, 216, 230); fill-opacity: 1;"/><path class="point" transform="translate(930.97,226.87)" d="M3,0A3,3 0 1,1 0,-3A3,3 0 0,1 3,0Z" style="opacity: 1; stroke-width: 0px; fill: rgb(173, 216, 230); fill-opacity: 1;"/><path class="point" transform="translate(930.97,226.17)" d="M3,0A3,3 0 1,1 0,-3A3,3 0 0,1 3,0Z" style="opacity: 1; stroke-width: 0px; fill: rgb(173, 216, 230); fill-opacity: 1;"/><path class="point" transform="translate(930.97,222.93)" d="M3,0A3,3 0 1,1 0,-3A3,3 0 0,1 3,0Z" style="opacity: 1; stroke-width: 0px; fill: rgb(173, 216, 230); fill-opacity: 1;"/><path class="point" transform="translate(930.97,222.9)" d="M3,0A3,3 0 1,1 0,-3A3,3 0 0,1 3,0Z" style="opacity: 1; stroke-width: 0px; fill: rgb(173, 216, 230); fill-opacity: 1;"/><path class="point" transform="translate(930.97,219.83)" d="M3,0A3,3 0 1,1 0,-3A3,3 0 0,1 3,0Z" style="opacity: 1; stroke-width: 0px; fill: rgb(173, 216, 230); fill-opacity: 1;"/></g><path class="mean" d="M909.62,136.81H952.32" style="fill: none; vector-effect: non-scaling-stroke; stroke-width: 2; stroke-dasharray: 4px, 2px; stroke: rgb(0, 0, 255); stroke-opacity: 1;"/></g><g class="trace boxes" style="opacity: 1;"><path class="box" d="M1083.89,138.98H1126.58M1083.89,173.41H1126.58V117.5H1083.89ZM1105.24,173.41V256.11M1105.24,117.5V99.48M1094.56,256.11H1115.91M1094.56,99.48H1115.91" style="vector-effect: none; stroke-width: 2px; stroke: rgb(0, 0, 255); stroke-opacity: 1; fill: rgb(0, 0, 255); fill-opacity: 0.5;"/><g class="points"><path class="point" transform="translate(1105.24,544.55)" d="M3,0A3,3 0 1,1 0,-3A3,3 0 0,1 3,0Z" style="opacity: 1; stroke-width: 0px; fill: rgb(173, 216, 230); fill-opacity: 1;"/><path class="point" transform="translate(1105.24,478.92)" d="M3,0A3,3 0 1,1 0,-3A3,3 0 0,1 3,0Z" style="opacity: 1; stroke-width: 0px; fill: rgb(173, 216, 230); fill-opacity: 1;"/><path class="point" transform="translate(1105.24,389.05)" d="M3,0A3,3 0 1,1 0,-3A3,3 0 0,1 3,0Z" style="opacity: 1; stroke-width: 0px; fill: rgb(173, 216, 230); fill-opacity: 1;"/><path class="point" transform="translate(1105.24,387.89)" d="M3,0A3,3 0 1,1 0,-3A3,3 0 0,1 3,0Z" style="opacity: 1; stroke-width: 0px; fill: rgb(173, 216, 230); fill-opacity: 1;"/><path class="point" transform="translate(1105.24,293.29)" d="M3,0A3,3 0 1,1 0,-3A3,3 0 0,1 3,0Z" style="opacity: 1; stroke-width: 0px; fill: rgb(173, 216, 230); fill-opacity: 1;"/><path class="point" transform="translate(1105.24,285.67)" d="M3,0A3,3 0 1,1 0,-3A3,3 0 0,1 3,0Z" style="opacity: 1; stroke-width: 0px; fill: rgb(173, 216, 230); fill-opacity: 1;"/><path class="point" transform="translate(1105.24,285.5)" d="M3,0A3,3 0 1,1 0,-3A3,3 0 0,1 3,0Z" style="opacity: 1; stroke-width: 0px; fill: rgb(173, 216, 230); fill-opacity: 1;"/><path class="point" transform="translate(1105.24,283.29)" d="M3,0A3,3 0 1,1 0,-3A3,3 0 0,1 3,0Z" style="opacity: 1; stroke-width: 0px; fill: rgb(173, 216, 230); fill-opacity: 1;"/><path class="point" transform="translate(1105.24,282.78)" d="M3,0A3,3 0 1,1 0,-3A3,3 0 0,1 3,0Z" style="opacity: 1; stroke-width: 0px; fill: rgb(173, 216, 230); fill-opacity: 1;"/><path class="point" transform="translate(1105.24,279.27)" d="M3,0A3,3 0 1,1 0,-3A3,3 0 0,1 3,0Z" style="opacity: 1; stroke-width: 0px; fill: rgb(173, 216, 230); fill-opacity: 1;"/><path class="point" transform="translate(1105.24,277.69)" d="M3,0A3,3 0 1,1 0,-3A3,3 0 0,1 3,0Z" style="opacity: 1; stroke-width: 0px; fill: rgb(173, 216, 230); fill-opacity: 1;"/><path class="point" transform="translate(1105.24,277.19)" d="M3,0A3,3 0 1,1 0,-3A3,3 0 0,1 3,0Z" style="opacity: 1; stroke-width: 0px; fill: rgb(173, 216, 230); fill-opacity: 1;"/><path class="point" transform="translate(1105.24,274.34)" d="M3,0A3,3 0 1,1 0,-3A3,3 0 0,1 3,0Z" style="opacity: 1; stroke-width: 0px; fill: rgb(173, 216, 230); fill-opacity: 1;"/><path class="point" transform="translate(1105.24,273.85)" d="M3,0A3,3 0 1,1 0,-3A3,3 0 0,1 3,0Z" style="opacity: 1; stroke-width: 0px; fill: rgb(173, 216, 230); fill-opacity: 1;"/><path class="point" transform="translate(1105.24,273.8)" d="M3,0A3,3 0 1,1 0,-3A3,3 0 0,1 3,0Z" style="opacity: 1; stroke-width: 0px; fill: rgb(173, 216, 230); fill-opacity: 1;"/><path class="point" transform="translate(1105.24,272.98)" d="M3,0A3,3 0 1,1 0,-3A3,3 0 0,1 3,0Z" style="opacity: 1; stroke-width: 0px; fill: rgb(173, 216, 230); fill-opacity: 1;"/><path class="point" transform="translate(1105.24,271.11)" d="M3,0A3,3 0 1,1 0,-3A3,3 0 0,1 3,0Z" style="opacity: 1; stroke-width: 0px; fill: rgb(173, 216, 230); fill-opacity: 1;"/><path class="point" transform="translate(1105.24,270.29)" d="M3,0A3,3 0 1,1 0,-3A3,3 0 0,1 3,0Z" style="opacity: 1; stroke-width: 0px; fill: rgb(173, 216, 230); fill-opacity: 1;"/><path class="point" transform="translate(1105.24,270.05)" d="M3,0A3,3 0 1,1 0,-3A3,3 0 0,1 3,0Z" style="opacity: 1; stroke-width: 0px; fill: rgb(173, 216, 230); fill-opacity: 1;"/><path class="point" transform="translate(1105.24,268.88)" d="M3,0A3,3 0 1,1 0,-3A3,3 0 0,1 3,0Z" style="opacity: 1; stroke-width: 0px; fill: rgb(173, 216, 230); fill-opacity: 1;"/><path class="point" transform="translate(1105.24,268.42)" d="M3,0A3,3 0 1,1 0,-3A3,3 0 0,1 3,0Z" style="opacity: 1; stroke-width: 0px; fill: rgb(173, 216, 230); fill-opacity: 1;"/><path class="point" transform="translate(1105.24,268.22)" d="M3,0A3,3 0 1,1 0,-3A3,3 0 0,1 3,0Z" style="opacity: 1; stroke-width: 0px; fill: rgb(173, 216, 230); fill-opacity: 1;"/><path class="point" transform="translate(1105.24,268.04)" d="M3,0A3,3 0 1,1 0,-3A3,3 0 0,1 3,0Z" style="opacity: 1; stroke-width: 0px; fill: rgb(173, 216, 230); fill-opacity: 1;"/><path class="point" transform="translate(1105.24,267.58)" d="M3,0A3,3 0 1,1 0,-3A3,3 0 0,1 3,0Z" style="opacity: 1; stroke-width: 0px; fill: rgb(173, 216, 230); fill-opacity: 1;"/><path class="point" transform="translate(1105.24,267.35)" d="M3,0A3,3 0 1,1 0,-3A3,3 0 0,1 3,0Z" style="opacity: 1; stroke-width: 0px; fill: rgb(173, 216, 230); fill-opacity: 1;"/><path class="point" transform="translate(1105.24,266.77)" d="M3,0A3,3 0 1,1 0,-3A3,3 0 0,1 3,0Z" style="opacity: 1; stroke-width: 0px; fill: rgb(173, 216, 230); fill-opacity: 1;"/><path class="point" transform="translate(1105.24,266.76)" d="M3,0A3,3 0 1,1 0,-3A3,3 0 0,1 3,0Z" style="opacity: 1; stroke-width: 0px; fill: rgb(173, 216, 230); fill-opacity: 1;"/><path class="point" transform="translate(1105.24,266.49)" d="M3,0A3,3 0 1,1 0,-3A3,3 0 0,1 3,0Z" style="opacity: 1; stroke-width: 0px; fill: rgb(173, 216, 230); fill-opacity: 1;"/><path class="point" transform="translate(1105.24,264.27)" d="M3,0A3,3 0 1,1 0,-3A3,3 0 0,1 3,0Z" style="opacity: 1; stroke-width: 0px; fill: rgb(173, 216, 230); fill-opacity: 1;"/><path class="point" transform="translate(1105.24,264.25)" d="M3,0A3,3 0 1,1 0,-3A3,3 0 0,1 3,0Z" style="opacity: 1; stroke-width: 0px; fill: rgb(173, 216, 230); fill-opacity: 1;"/><path class="point" transform="translate(1105.24,264.24)" d="M3,0A3,3 0 1,1 0,-3A3,3 0 0,1 3,0Z" style="opacity: 1; stroke-width: 0px; fill: rgb(173, 216, 230); fill-opacity: 1;"/><path class="point" transform="translate(1105.24,261.57)" d="M3,0A3,3 0 1,1 0,-3A3,3 0 0,1 3,0Z" style="opacity: 1; stroke-width: 0px; fill: rgb(173, 216, 230); fill-opacity: 1;"/><path class="point" transform="translate(1105.24,260.35)" d="M3,0A3,3 0 1,1 0,-3A3,3 0 0,1 3,0Z" style="opacity: 1; stroke-width: 0px; fill: rgb(173, 216, 230); fill-opacity: 1;"/><path class="point" transform="translate(1105.24,259.66)" d="M3,0A3,3 0 1,1 0,-3A3,3 0 0,1 3,0Z" style="opacity: 1; stroke-width: 0px; fill: rgb(173, 216, 230); fill-opacity: 1;"/><path class="point" transform="translate(1105.24,259.42)" d="M3,0A3,3 0 1,1 0,-3A3,3 0 0,1 3,0Z" style="opacity: 1; stroke-width: 0px; fill: rgb(173, 216, 230); fill-opacity: 1;"/><path class="point" transform="translate(1105.24,259.4)" d="M3,0A3,3 0 1,1 0,-3A3,3 0 0,1 3,0Z" style="opacity: 1; stroke-width: 0px; fill: rgb(173, 216, 230); fill-opacity: 1;"/><path class="point" transform="translate(1105.24,258.01)" d="M3,0A3,3 0 1,1 0,-3A3,3 0 0,1 3,0Z" style="opacity: 1; stroke-width: 0px; fill: rgb(173, 216, 230); fill-opacity: 1;"/><path class="point" transform="translate(1105.24,258.01)" d="M3,0A3,3 0 1,1 0,-3A3,3 0 0,1 3,0Z" style="opacity: 1; stroke-width: 0px; fill: rgb(173, 216, 230); fill-opacity: 1;"/><path class="point" transform="translate(1105.24,257.58)" d="M3,0A3,3 0 1,1 0,-3A3,3 0 0,1 3,0Z" style="opacity: 1; stroke-width: 0px; fill: rgb(173, 216, 230); fill-opacity: 1;"/></g><path class="mean" d="M1083.89,154.43H1126.58" style="fill: none; vector-effect: non-scaling-stroke; stroke-width: 2; stroke-dasharray: 4px, 2px; stroke: rgb(0, 0, 255); stroke-opacity: 1;"/></g><g class="trace boxes" style="opacity: 1;"><path class="box" d="M1258.16,148.14H1300.85M1258.16,184.77H1300.85V127.59H1258.16ZM1279.5,184.77V265.62M1279.5,127.59V110.41M1268.83,265.62H1290.18M1268.83,110.41H1290.18" style="vector-effect: none; stroke-width: 2px; stroke: rgb(0, 0, 255); stroke-opacity: 1; fill: rgb(0, 0, 255); fill-opacity: 0.5;"/><g class="points"><path class="point" transform="translate(1279.5,548.55)" d="M3,0A3,3 0 1,1 0,-3A3,3 0 0,1 3,0Z" style="opacity: 1; stroke-width: 0px; fill: rgb(173, 216, 230); fill-opacity: 1;"/><path class="point" transform="translate(1279.5,458.5)" d="M3,0A3,3 0 1,1 0,-3A3,3 0 0,1 3,0Z" style="opacity: 1; stroke-width: 0px; fill: rgb(173, 216, 230); fill-opacity: 1;"/><path class="point" transform="translate(1279.5,450.73)" d="M3,0A3,3 0 1,1 0,-3A3,3 0 0,1 3,0Z" style="opacity: 1; stroke-width: 0px; fill: rgb(173, 216, 230); fill-opacity: 1;"/><path class="point" transform="translate(1279.5,449.85)" d="M3,0A3,3 0 1,1 0,-3A3,3 0 0,1 3,0Z" style="opacity: 1; stroke-width: 0px; fill: rgb(173, 216, 230); fill-opacity: 1;"/><path class="point" transform="translate(1279.5,438.84)" d="M3,0A3,3 0 1,1 0,-3A3,3 0 0,1 3,0Z" style="opacity: 1; stroke-width: 0px; fill: rgb(173, 216, 230); fill-opacity: 1;"/><path class="point" transform="translate(1279.5,428.49)" d="M3,0A3,3 0 1,1 0,-3A3,3 0 0,1 3,0Z" style="opacity: 1; stroke-width: 0px; fill: rgb(173, 216, 230); fill-opacity: 1;"/><path class="point" transform="translate(1279.5,428.38)" d="M3,0A3,3 0 1,1 0,-3A3,3 0 0,1 3,0Z" style="opacity: 1; stroke-width: 0px; fill: rgb(173, 216, 230); fill-opacity: 1;"/><path class="point" transform="translate(1279.5,424.71)" d="M3,0A3,3 0 1,1 0,-3A3,3 0 0,1 3,0Z" style="opacity: 1; stroke-width: 0px; fill: rgb(173, 216, 230); fill-opacity: 1;"/><path class="point" transform="translate(1279.5,418.09)" d="M3,0A3,3 0 1,1 0,-3A3,3 0 0,1 3,0Z" style="opacity: 1; stroke-width: 0px; fill: rgb(173, 216, 230); fill-opacity: 1;"/><path class="point" transform="translate(1279.5,413.1)" d="M3,0A3,3 0 1,1 0,-3A3,3 0 0,1 3,0Z" style="opacity: 1; stroke-width: 0px; fill: rgb(173, 216, 230); fill-opacity: 1;"/><path class="point" transform="translate(1279.5,412.03)" d="M3,0A3,3 0 1,1 0,-3A3,3 0 0,1 3,0Z" style="opacity: 1; stroke-width: 0px; fill: rgb(173, 216, 230); fill-opacity: 1;"/><path class="point" transform="translate(1279.5,407.68)" d="M3,0A3,3 0 1,1 0,-3A3,3 0 0,1 3,0Z" style="opacity: 1; stroke-width: 0px; fill: rgb(173, 216, 230); fill-opacity: 1;"/><path class="point" transform="translate(1279.5,401.36)" d="M3,0A3,3 0 1,1 0,-3A3,3 0 0,1 3,0Z" style="opacity: 1; stroke-width: 0px; fill: rgb(173, 216, 230); fill-opacity: 1;"/><path class="point" transform="translate(1279.5,398.19)" d="M3,0A3,3 0 1,1 0,-3A3,3 0 0,1 3,0Z" style="opacity: 1; stroke-width: 0px; fill: rgb(173, 216, 230); fill-opacity: 1;"/><path class="point" transform="translate(1279.5,336.52)" d="M3,0A3,3 0 1,1 0,-3A3,3 0 0,1 3,0Z" style="opacity: 1; stroke-width: 0px; fill: rgb(173, 216, 230); fill-opacity: 1;"/><path class="point" transform="translate(1279.5,299.21)" d="M3,0A3,3 0 1,1 0,-3A3,3 0 0,1 3,0Z" style="opacity: 1; stroke-width: 0px; fill: rgb(173, 216, 230); fill-opacity: 1;"/><path class="point" transform="translate(1279.5,296.93)" d="M3,0A3,3 0 1,1 0,-3A3,3 0 0,1 3,0Z" style="opacity: 1; stroke-width: 0px; fill: rgb(173, 216, 230); fill-opacity: 1;"/><path class="point" transform="translate(1279.5,296.81)" d="M3,0A3,3 0 1,1 0,-3A3,3 0 0,1 3,0Z" style="opacity: 1; stroke-width: 0px; fill: rgb(173, 216, 230); fill-opacity: 1;"/><path class="point" transform="translate(1279.5,295.65)" d="M3,0A3,3 0 1,1 0,-3A3,3 0 0,1 3,0Z" style="opacity: 1; stroke-width: 0px; fill: rgb(173, 216, 230); fill-opacity: 1;"/><path class="point" transform="translate(1279.5,285.85)" d="M3,0A3,3 0 1,1 0,-3A3,3 0 0,1 3,0Z" style="opacity: 1; stroke-width: 0px; fill: rgb(173, 216, 230); fill-opacity: 1;"/><path class="point" transform="translate(1279.5,279.1)" d="M3,0A3,3 0 1,1 0,-3A3,3 0 0,1 3,0Z" style="opacity: 1; stroke-width: 0px; fill: rgb(173, 216, 230); fill-opacity: 1;"/></g><path class="mean" d="M1258.16,174.15H1300.85" style="fill: none; vector-effect: non-scaling-stroke; stroke-width: 2; stroke-dasharray: 4px, 2px; stroke: rgb(0, 0, 255); stroke-opacity: 1;"/></g><g class="trace boxes" style="opacity: 1;"><path class="box" d="M1432.42,471.46H1475.12M1432.42,506.53H1475.12V448.06H1432.42ZM1453.77,506.53V551.8M1453.77,448.06V446.25M1443.1,551.8H1464.44M1443.1,446.25H1464.44" style="vector-effect: none; stroke-width: 2px; stroke: rgb(0, 0, 255); stroke-opacity: 1; fill: rgb(0, 0, 255); fill-opacity: 0.5;"/><g class="points"/><path class="mean" d="M1432.42,481.27H1475.12" style="fill: none; vector-effect: non-scaling-stroke; stroke-width: 2; stroke-dasharray: 4px, 2px; stroke: rgb(0, 0, 255); stroke-opacity: 1;"/></g></g></g><g class="overplot"><g class="xy2" transform="translate(112.8,211.2)" clip-path="url(#clipe957efxy2plot)"><g class="barlayer mlayer"><g class="trace bars" style="opacity: 0.7;"><g class="points"><g class="point"><path d="M91.98,588.8V23.2H162.35V588.8Z" style="vector-effect: none; opacity: 1; stroke-width: 0.5px; fill: rgb(255, 165, 0); fill-opacity: 1; stroke: rgb(229, 236, 246); stroke-opacity: 1;"/></g><g class="point"><path d="M266.25,588.8V31.83H336.61V588.8Z" style="vector-effect: none; opacity: 1; stroke-width: 0.5px; fill: rgb(255, 165, 0); fill-opacity: 1; stroke: rgb(229, 236, 246); stroke-opacity: 1;"/></g><g class="point"><path d="M440.52,588.8V0H510.88V588.8Z" style="vector-effect: none; opacity: 1; stroke-width: 0.5px; fill: rgb(255, 165, 0); fill-opacity: 1; stroke: rgb(229, 236, 246); stroke-opacity: 1;"/></g><g class="point"><path d="M614.78,588.8V9.8H685.15V588.8Z" style="vector-effect: none; opacity: 1; stroke-width: 0.5px; fill: rgb(255, 165, 0); fill-opacity: 1; stroke: rgb(229, 236, 246); stroke-opacity: 1;"/></g><g class="point"><path d="M789.05,588.8V27.63H859.41V588.8Z" style="vector-effect: none; opacity: 1; stroke-width: 0.5px; fill: rgb(255, 165, 0); fill-opacity: 1; stroke: rgb(229, 236, 246); stroke-opacity: 1;"/></g><g class="point"><path d="M963.32,588.8V42.48H1033.68V588.8Z" style="vector-effect: none; opacity: 1; stroke-width: 0.5px; fill: rgb(255, 165, 0); fill-opacity: 1; stroke: rgb(229, 236, 246); stroke-opacity: 1;"/></g><g class="point"><path d="M1137.58,588.8V3.38H1207.95V588.8Z" style="vector-effect: none; opacity: 1; stroke-width: 0.5px; fill: rgb(255, 165, 0); fill-opacity: 1; stroke: rgb(229, 236, 246); stroke-opacity: 1;"/></g><g class="point"><path d="M1311.85,588.8V62.86H1382.21V588.8Z" style="vector-effect: none; opacity: 1; stroke-width: 0.5px; fill: rgb(255, 165, 0); fill-opacity: 1; stroke: rgb(229, 236, 246); stroke-opacity: 1;"/></g><g class="point"><path d="M1486.12,588.8V220.8H1556.48V588.8Z" style="vector-effect: none; opacity: 1; stroke-width: 0.5px; fill: rgb(255, 165, 0); fill-opacity: 1; stroke: rgb(229, 236, 246); stroke-opacity: 1;"/></g></g></g></g></g></g><path class="xlines-above crisp" d="M0,0" style="fill: none;"/><path class="ylines-above crisp" d="M0,0" style="fill: none;"/><g class="overlines-above"><path class="xy2-x crisp" d="M0,0" style="fill: none;"/><path class="xy2-y crisp" d="M0,0" style="fill: none;"/></g><g class="xaxislayer-above"><g class="xtick"><text text-anchor="end" x="0" y="811" transform="translate(202.93,0) rotate(-45,0,806)" style="font-family: 'Open Sans', verdana, arial, sans-serif; font-size: 10px; fill: rgb(42, 63, 95); fill-opacity: 1; white-space: pre; opacity: 1;">mesenchymal</text></g><g class="xtick"><text text-anchor="end" x="0" y="811" transform="translate(377.2,0) rotate(-45,0,806)" style="font-family: 'Open Sans', verdana, arial, sans-serif; font-size: 10px; fill: rgb(42, 63, 95); fill-opacity: 1; white-space: pre; opacity: 1;">pp</text></g><g class="xtick"><text text-anchor="end" x="0" y="811" transform="translate(551.47,0) rotate(-45,0,806)" style="font-family: 'Open Sans', verdana, arial, sans-serif; font-size: 10px; fill: rgb(42, 63, 95); fill-opacity: 1; white-space: pre; opacity: 1;">endothelial</text></g><g class="xtick"><text text-anchor="end" x="0" y="811" transform="translate(725.7299999999999,0) rotate(-45,0,806)" style="font-family: 'Open Sans', verdana, arial, sans-serif; font-size: 10px; fill: rgb(42, 63, 95); fill-opacity: 1; white-space: pre; opacity: 1;">delta</text></g><g class="xtick"><text text-anchor="end" x="0" y="811" transform="translate(900,0) rotate(-45,0,806)" style="font-family: 'Open Sans', verdana, arial, sans-serif; font-size: 10px; fill: rgb(42, 63, 95); fill-opacity: 1; white-space: pre; opacity: 1;">acinar</text></g><g class="xtick"><text text-anchor="end" x="0" y="811" transform="translate(1074.27,0) rotate(-45,0,806)" style="font-family: 'Open Sans', verdana, arial, sans-serif; font-size: 10px; fill: rgb(42, 63, 95); fill-opacity: 1; white-space: pre; opacity: 1;">beta</text></g><g class="xtick"><text text-anchor="end" x="0" y="811" transform="translate(1248.53,0) rotate(-45,0,806)" style="font-family: 'Open Sans', verdana, arial, sans-serif; font-size: 10px; fill: rgb(42, 63, 95); fill-opacity: 1; white-space: pre; opacity: 1;">alpha</text></g><g class="xtick"><text text-anchor="end" x="0" y="811" transform="translate(1422.8,0) rotate(-45,0,806)" style="font-family: 'Open Sans', verdana, arial, sans-serif; font-size: 10px; fill: rgb(42, 63, 95); fill-opacity: 1; white-space: pre; opacity: 1;">duct</text></g><g class="xtick"><text text-anchor="end" x="0" y="811" transform="translate(1597.07,0) rotate(-45,0,806)" style="font-family: 'Open Sans', verdana, arial, sans-serif; font-size: 10px; fill: rgb(42, 63, 95); fill-opacity: 1; white-space: pre; opacity: 1;">unclear</text></g></g><g class="yaxislayer-above"><g class="ytick"><text text-anchor="end" x="111.8" y="4.199999999999999" transform="translate(0,800)" style="font-family: 'Open Sans', verdana, arial, sans-serif; font-size: 12px; fill: rgb(42, 63, 95); fill-opacity: 1; white-space: pre; opacity: 1;">−1</text></g><g class="ytick"><text text-anchor="end" x="111.8" y="4.199999999999999" style="font-family: 'Open Sans', verdana, arial, sans-serif; font-size: 12px; fill: rgb(42, 63, 95); fill-opacity: 1; white-space: pre; opacity: 1;" transform="translate(0,652.8)">−0.5</text></g><g class="ytick"><text text-anchor="end" x="111.8" y="4.199999999999999" style="font-family: 'Open Sans', verdana, arial, sans-serif; font-size: 12px; fill: rgb(42, 63, 95); fill-opacity: 1; white-space: pre; opacity: 1;" transform="translate(0,505.59999999999997)">0</text></g><g class="ytick"><text text-anchor="end" x="111.8" y="4.199999999999999" style="font-family: 'Open Sans', verdana, arial, sans-serif; font-size: 12px; fill: rgb(42, 63, 95); fill-opacity: 1; white-space: pre; opacity: 1;" transform="translate(0,358.4)">0.5</text></g><g class="ytick"><text text-anchor="end" x="111.8" y="4.199999999999999" style="font-family: 'Open Sans', verdana, arial, sans-serif; font-size: 12px; fill: rgb(42, 63, 95); fill-opacity: 1; white-space: pre; opacity: 1;" transform="translate(0,211.2)">1</text></g></g><g class="overaxes-above"><g class="xy2-x"/><g class="xy2-y"><g class="y2tick"><text text-anchor="start" x="1688.1999999999998" y="4.199999999999999" transform="translate(0,800)" style="font-family: 'Open Sans', verdana, arial, sans-serif; font-size: 12px; fill: rgb(42, 63, 95); fill-opacity: 1; white-space: pre; opacity: 1;">0</text></g><g class="y2tick"><text text-anchor="start" x="1688.1999999999998" y="4.199999999999999" style="font-family: 'Open Sans', verdana, arial, sans-serif; font-size: 12px; fill: rgb(42, 63, 95); fill-opacity: 1; white-space: pre; opacity: 1;" transform="translate(0,682.24)">0.2</text></g><g class="y2tick"><text text-anchor="start" x="1688.1999999999998" y="4.199999999999999" style="font-family: 'Open Sans', verdana, arial, sans-serif; font-size: 12px; fill: rgb(42, 63, 95); fill-opacity: 1; white-space: pre; opacity: 1;" transform="translate(0,564.48)">0.4</text></g><g class="y2tick"><text text-anchor="start" x="1688.1999999999998" y="4.199999999999999" style="font-family: 'Open Sans', verdana, arial, sans-serif; font-size: 12px; fill: rgb(42, 63, 95); fill-opacity: 1; white-space: pre; opacity: 1;" transform="translate(0,446.72)">0.6</text></g><g class="y2tick"><text text-anchor="start" x="1688.1999999999998" y="4.199999999999999" style="font-family: 'Open Sans', verdana, arial, sans-serif; font-size: 12px; fill: rgb(42, 63, 95); fill-opacity: 1; white-space: pre; opacity: 1;" transform="translate(0,328.96)">0.8</text></g><g class="y2tick"><text text-anchor="start" x="1688.1999999999998" y="4.199999999999999" style="font-family: 'Open Sans', verdana, arial, sans-serif; font-size: 12px; fill: rgb(42, 63, 95); fill-opacity: 1; white-space: pre; opacity: 1;" transform="translate(0,211.2)">1</text></g></g></g></g><g class="subplot xy2"/></g><g class="polarlayer"/><g class="smithlayer"/><g class="ternarylayer"/><g class="geolayer"/><g class="funnelarealayer"/><g class="pielayer"/><g class="iciclelayer"/><g class="treemaplayer"/><g class="sunburstlayer"/><g class="glimages"/><defs id="topdefs-e957ef"><g class="clips"/><clipPath id="legende957ef"><rect width="220" height="29" x="0" y="0"/></clipPath></defs><g class="layer-above"><g class="imagelayer"/><g class="shapelayer"/></g><g class="infolayer"><g class="legend" pointer-events="all" transform="translate(1467.2,143.8)"><rect class="bg" shape-rendering="crispEdges" style="stroke: rgb(68, 68, 68); stroke-opacity: 1; fill: rgb(255, 255, 255); fill-opacity: 1; stroke-width: 0px;" width="220" height="29" x="0" y="0"/><g class="scrollbox" transform="" clip-path="url(#legende957ef)"><g class="groups" transform=""><g class="traces" transform="translate(0,14.5)" style="opacity: 1;"><text class="legendtext" text-anchor="start" x="40" y="4.680000000000001" style="font-family: 'Open Sans', verdana, arial, sans-serif; font-size: 12px; fill: rgb(42, 63, 95); fill-opacity: 1; white-space: pre;">Silhouette Score</text><g class="layers" style="opacity: 1;"><g class="legendfill"/><g class="legendlines"/><g class="legendsymbols"><g class="legendpoints"><path class="legendbox" d="M6,6H-6V-6H6Z" transform="translate(20,0)" style="stroke-width: 2px; fill: rgb(0, 0, 255); fill-opacity: 0.5; stroke: rgb(0, 0, 255); stroke-opacity: 1;"/></g></g></g><rect class="legendtoggle" x="0" y="-9.5" width="130.890625" height="19" style="fill: rgb(0, 0, 0); fill-opacity: 0;"/></g></g><g class="groups" transform="translate(133.390625,0)"><g class="traces" transform="translate(0,14.5)" style="opacity: 1;"><text class="legendtext" text-anchor="start" x="40" y="4.680000000000001" style="font-family: 'Open Sans', verdana, arial, sans-serif; font-size: 12px; fill: rgb(42, 63, 95); fill-opacity: 1; white-space: pre;">F-score</text><g class="layers" style="opacity: 0.7;"><g class="legendfill"/><g class="legendlines"/><g class="legendsymbols"><g class="legendpoints"><path class="legendundefined" d="M6,6H-6V-6H6Z" transform="translate(20,0)" style="stroke-width: 0.5px; fill: rgb(255, 165, 0); fill-opacity: 1; stroke: rgb(229, 236, 246); stroke-opacity: 1;"/></g></g></g><rect class="legendtoggle" x="0" y="-9.5" width="83.5" height="19" style="fill: rgb(0, 0, 0); fill-opacity: 0;"/></g></g></g><rect class="scrollbar" rx="20" ry="3" width="0" height="0" style="fill: rgb(128, 139, 164); fill-opacity: 1;" x="0" y="0"/></g><g class="g-gtitle"><text class="gtitle" x="900" y="80" text-anchor="middle" dy="0em" style="font-family: 'Open Sans', verdana, arial, sans-serif; font-size: 14px; fill: rgb(42, 63, 95); opacity: 1; white-space: pre;"><tspan class="line" dy="0em" x="900" y="80">Silhouette Summary with F-score</tspan><tspan class="line" dy="1.3em" x="900" y="80">​<tspan style="font-size:70%" dy="-0.6em">Muraro 2016</tspan><tspan dy="0.42em">​</tspan></tspan><tspan class="line" dy="2.6em" x="900" y="80">​<tspan style="font-size:70%" dy="-0.6em">Anatomical subunit: pancreas</tspan><tspan dy="0.42em">​</tspan></tspan><tspan class="line" dy="3.9000000000000004em" x="900" y="80">​<tspan style="font-size:70%" dy="-0.6em">Cluster header: cellular_classification    Embedding: X_tsne</tspan><tspan dy="0.42em">​</tspan></tspan></text></g><g class="g-xtitle"><text class="xtitle" x="899.9999999999999" y="878.880078125" text-anchor="middle" style="font-family: 'Open Sans', verdana, arial, sans-serif; font-size: 14px; fill: rgb(42, 63, 95); opacity: 1; white-space: pre;">cellular_classification</text></g><g class="g-ytitle"><text class="ytitle" transform="rotate(-90,68.709375,505.6)" x="68.709375" y="505.6" text-anchor="middle" style="font-family: 'Open Sans', verdana, arial, sans-serif; font-size: 14px; fill: rgb(42, 63, 95); opacity: 1; white-space: pre;">Silhouette Score</text></g><g class="g-y2title"><text class="y2title" transform="rotate(-90,1729.51875,505.6)" x="1729.51875" y="505.6" text-anchor="middle" style="font-family: 'Open Sans', verdana, arial, sans-serif; font-size: 14px; fill: rgb(42, 63, 95); opacity: 1; white-space: pre;">F-score</text></g><g class="annotation" data-index="0" style="opacity: 1;"><g class="annotation-text-g" transform="rotate(-90,202.93,199.2)"><g class="cursor-pointer" transform="translate(191,192)"><rect class="bg" x="0.5" y="0.5" width="23" height="13" style="stroke-width: 1px; stroke: rgb(0, 0, 0); stroke-opacity: 0; fill: rgb(0, 0, 0); fill-opacity: 0;"/><text class="annotation-text" text-anchor="middle" x="12.140625" y="10" style="font-family: 'Open Sans', verdana, arial, sans-serif; font-size: 9px; fill: rgb(42, 63, 95); fill-opacity: 1; white-space: pre;">n=78</text></g></g></g><g class="annotation" data-index="1" style="opacity: 1;"><g class="annotation-text-g" transform="rotate(-90,377.2,199.2)"><g class="cursor-pointer" transform="translate(365,192)"><rect class="bg" x="0.5" y="0.5" width="23" height="13" style="stroke-width: 1px; stroke: rgb(0, 0, 0); stroke-opacity: 0; fill: rgb(0, 0, 0); fill-opacity: 0;"/><text class="annotation-text" text-anchor="middle" x="12.140625" y="10" style="font-family: 'Open Sans', verdana, arial, sans-serif; font-size: 9px; fill: rgb(42, 63, 95); fill-opacity: 1; white-space: pre;">n=98</text></g></g></g><g class="annotation" data-index="2" style="opacity: 1;"><g class="annotation-text-g" transform="rotate(-90,551.47,199.2)"><g class="cursor-pointer" transform="translate(539,192)"><rect class="bg" x="0.5" y="0.5" width="23" height="13" style="stroke-width: 1px; stroke: rgb(0, 0, 0); stroke-opacity: 0; fill: rgb(0, 0, 0); fill-opacity: 0;"/><text class="annotation-text" text-anchor="middle" x="12.140625" y="10" style="font-family: 'Open Sans', verdana, arial, sans-serif; font-size: 9px; fill: rgb(42, 63, 95); fill-opacity: 1; white-space: pre;">n=21</text></g></g></g><g class="annotation" data-index="3" style="opacity: 1;"><g class="annotation-text-g" transform="rotate(-90,725.7299999999999,196.7)"><g class="cursor-pointer" transform="translate(711,190)"><rect class="bg" x="0.5" y="0.5" width="28" height="13" style="stroke-width: 1px; stroke: rgb(0, 0, 0); stroke-opacity: 0; fill: rgb(0, 0, 0); fill-opacity: 0;"/><text class="annotation-text" text-anchor="middle" x="14.640625" y="10" style="font-family: 'Open Sans', verdana, arial, sans-serif; font-size: 9px; fill: rgb(42, 63, 95); fill-opacity: 1; white-space: pre;">n=193</text></g></g></g><g class="annotation" data-index="4" style="opacity: 1;"><g class="annotation-text-g" transform="rotate(-90,900,196.7)"><g class="cursor-pointer" transform="translate(886,190)"><rect class="bg" x="0.5" y="0.5" width="28" height="13" style="stroke-width: 1px; stroke: rgb(0, 0, 0); stroke-opacity: 0; fill: rgb(0, 0, 0); fill-opacity: 0;"/><text class="annotation-text" text-anchor="middle" x="14.640625" y="10" style="font-family: 'Open Sans', verdana, arial, sans-serif; font-size: 9px; fill: rgb(42, 63, 95); fill-opacity: 1; white-space: pre;">n=219</text></g></g></g><g class="annotation" data-index="5" style="opacity: 1;"><g class="annotation-text-g" transform="rotate(-90,1074.27,196.7)"><g class="cursor-pointer" transform="translate(1060,190)"><rect class="bg" x="0.5" y="0.5" width="28" height="13" style="stroke-width: 1px; stroke: rgb(0, 0, 0); stroke-opacity: 0; fill: rgb(0, 0, 0); fill-opacity: 0;"/><text class="annotation-text" text-anchor="middle" x="14.640625" y="10" style="font-family: 'Open Sans', verdana, arial, sans-serif; font-size: 9px; fill: rgb(42, 63, 95); fill-opacity: 1; white-space: pre;">n=448</text></g></g></g><g class="annotation" data-index="6" style="opacity: 1;"><g class="annotation-text-g" transform="rotate(-90,1248.53,196.7)"><g class="cursor-pointer" transform="translate(1234,190)"><rect class="bg" x="0.5" y="0.5" width="28" height="13" style="stroke-width: 1px; stroke: rgb(0, 0, 0); stroke-opacity: 0; fill: rgb(0, 0, 0); fill-opacity: 0;"/><text class="annotation-text" text-anchor="middle" x="14.640625" y="10" style="font-family: 'Open Sans', verdana, arial, sans-serif; font-size: 9px; fill: rgb(42, 63, 95); fill-opacity: 1; white-space: pre;">n=812</text></g></g></g><g class="annotation" data-index="7" style="opacity: 1;"><g class="annotation-text-g" transform="rotate(-90,1422.8,196.7)"><g class="cursor-pointer" transform="translate(1408,190)"><rect class="bg" x="0.5" y="0.5" width="28" height="13" style="stroke-width: 1px; stroke: rgb(0, 0, 0); stroke-opacity: 0; fill: rgb(0, 0, 0); fill-opacity: 0;"/><text class="annotation-text" text-anchor="middle" x="14.640625" y="10" style="font-family: 'Open Sans', verdana, arial, sans-serif; font-size: 9px; fill: rgb(42, 63, 95); fill-opacity: 1; white-space: pre;">n=246</text></g></g></g><g class="annotation" data-index="8" style="opacity: 1;"><g class="annotation-text-g" transform="rotate(-90,1597.07,201.7)"><g class="cursor-pointer" transform="translate(1588,195)"><rect class="bg" x="0.5" y="0.5" width="18" height="13" style="stroke-width: 1px; stroke: rgb(0, 0, 0); stroke-opacity: 0; fill: rgb(0, 0, 0); fill-opacity: 0;"/><text class="annotation-text" text-anchor="middle" x="9.640625" y="10" style="font-family: 'Open Sans', verdana, arial, sans-serif; font-size: 9px; fill: rgb(42, 63, 95); fill-opacity: 1; white-space: pre;">n=8</text></g></g></g><g class="annotation" data-index="9" style="opacity: 1;"><g class="annotation-text-g" transform="rotate(0,1592.7,122.79999999999998)"><g class="cursor-pointer" transform="translate(1498,105)"><rect class="bg" x="0.5" y="0.5" width="188" height="35" style="stroke-width: 1px; stroke: rgb(0, 0, 0); stroke-opacity: 1; fill: rgb(255, 255, 255); fill-opacity: 1;"/><text class="annotation-text" text-anchor="middle" x="94.28125" y="15" style="font-family: 'Open Sans', verdana, arial, sans-serif; font-size: 11px; fill: rgb(0, 0, 139); fill-opacity: 1; white-space: pre;"><tspan class="line" dy="0em" x="94.28125" y="15">Median of Silhouette medians: 0.709</tspan><tspan class="line" dy="1.3em" x="94.28125" y="15">Median of F-scores: 0.953</tspan></text></g></g></g></g></svg>