<?xml version="1.0" encoding="utf-8" standalone="no"?>
<!DOCTYPE svg PUBLIC "-//W3C//DTD SVG 1.1//EN"
  "http://www.w3.org/Graphics/SVG/1.1/DTD/svg11.dtd">
<svg xmlns:xlink="http://www.w3.org/1999/xlink" width="460.8pt" height="345.6pt" viewBox="0 0 460.8 345.6" xmlns="http://www.w3.org/2000/svg" version="1.1">
 <metadata>
  <rdf:RDF xmlns:dc="http://purl.org/dc/elements/1.1/" xmlns:cc="http://creativecommons.org/ns#" xmlns:rdf="http://www.w3.org/1999/02/22-rdf-syntax-ns#">
   <cc:Work>
    <dc:type rdf:resource="http://purl.org/dc/dcmitype/StillImage"/>
    <dc:date>2026-05-04T22:26:44.814652</dc:date>
    <dc:format>image/svg+xml</dc:format>
    <dc:creator>
     <cc:Agent>
      <dc:title>Matplotlib v3.8.0, https://matplotlib.org/</dc:title>
     </cc:Agent>
    </dc:creator>
   </cc:Work>
  </rdf:RDF>
 </metadata>
 <defs>
  <style type="text/css">*{stroke-linejoin: round; stroke-linecap: butt}</style>
 </defs>
 <g id="figure_1">
  <g id="patch_1">
   <path d="M 0 345.6 
L 460.8 345.6 
L 460.8 0 
L 0 0 
z
" style="fill: #ffffff"/>
  </g>
  <g id="axes_1">
   <g id="patch_2">
    <path d="M 57.6 307.584 
L 414.72 307.584 
L 414.72 41.472 
L 57.6 41.472 
z
" style="fill: #ffffff"/>
   </g>
   <g id="patch_3">
    <path d="M 73.832727 307.584 
L 77.079273 307.584 
L 77.079273 93.819911 
L 73.832727 93.819911 
z
" clip-path="url(#pbf549facd4)" style="fill: #1f77b4"/>
   </g>
   <g id="patch_4">
    <path d="M 77.079273 307.584 
L 80.325818 307.584 
L 80.325818 102.929176 
L 77.079273 102.929176 
z
" clip-path="url(#pbf549facd4)" style="fill: #1f77b4"/>
   </g>
   <g id="patch_5">
    <path d="M 80.325818 307.584 
L 83.572364 307.584 
L 83.572364 112.038441 
L 80.325818 112.038441 
z
" clip-path="url(#pbf549facd4)" style="fill: #1f77b4"/>
   </g>
   <g id="patch_6">
    <path d="M 83.572364 307.584 
L 86.818909 307.584 
L 86.818909 140.378377 
L 83.572364 140.378377 
z
" clip-path="url(#pbf549facd4)" style="fill: #1f77b4"/>
   </g>
   <g id="patch_7">
    <path d="M 86.818909 307.584 
L 90.065455 307.584 
L 90.065455 164.872179 
L 86.818909 164.872179 
z
" clip-path="url(#pbf549facd4)" style="fill: #1f77b4"/>
   </g>
   <g id="patch_8">
    <path d="M 90.065455 307.584 
L 93.312 307.584 
L 93.312 181.876141 
L 90.065455 181.876141 
z
" clip-path="url(#pbf549facd4)" style="fill: #1f77b4"/>
   </g>
   <g id="patch_9">
    <path d="M 93.312 307.584 
L 96.558545 307.584 
L 96.558545 202.523808 
L 93.312 202.523808 
z
" clip-path="url(#pbf549facd4)" style="fill: #1f77b4"/>
   </g>
   <g id="patch_10">
    <path d="M 96.558545 307.584 
L 99.805091 307.584 
L 99.805091 205.155374 
L 96.558545 205.155374 
z
" clip-path="url(#pbf549facd4)" style="fill: #1f77b4"/>
   </g>
   <g id="patch_11">
    <path d="M 99.805091 307.584 
L 103.051636 307.584 
L 103.051636 208.191796 
L 99.805091 208.191796 
z
" clip-path="url(#pbf549facd4)" style="fill: #1f77b4"/>
   </g>
   <g id="patch_12">
    <path d="M 103.051636 307.584 
L 106.298182 307.584 
L 106.298182 222.76662 
L 103.051636 222.76662 
z
" clip-path="url(#pbf549facd4)" style="fill: #1f77b4"/>
   </g>
   <g id="patch_13">
    <path d="M 106.298182 307.584 
L 109.544727 307.584 
L 109.544727 225.195757 
L 106.298182 225.195757 
z
" clip-path="url(#pbf549facd4)" style="fill: #1f77b4"/>
   </g>
   <g id="patch_14">
    <path d="M 109.544727 307.584 
L 112.791273 307.584 
L 112.791273 228.637035 
L 109.544727 228.637035 
z
" clip-path="url(#pbf549facd4)" style="fill: #1f77b4"/>
   </g>
   <g id="patch_15">
    <path d="M 112.791273 307.584 
L 116.037818 307.584 
L 116.037818 232.483169 
L 112.791273 232.483169 
z
" clip-path="url(#pbf549facd4)" style="fill: #1f77b4"/>
   </g>
   <g id="patch_16">
    <path d="M 116.037818 307.584 
L 119.284364 307.584 
L 119.284364 249.689559 
L 116.037818 249.689559 
z
" clip-path="url(#pbf549facd4)" style="fill: #1f77b4"/>
   </g>
   <g id="patch_17">
    <path d="M 119.284364 307.584 
L 122.530909 307.584 
L 122.530909 232.483169 
L 119.284364 232.483169 
z
" clip-path="url(#pbf549facd4)" style="fill: #1f77b4"/>
   </g>
   <g id="patch_18">
    <path d="M 122.530909 307.584 
L 125.777455 307.584 
L 125.777455 239.97301 
L 122.530909 239.97301 
z
" clip-path="url(#pbf549facd4)" style="fill: #1f77b4"/>
   </g>
   <g id="patch_19">
    <path d="M 125.777455 307.584 
L 129.024 307.584 
L 129.024 242.604575 
L 125.777455 242.604575 
z
" clip-path="url(#pbf549facd4)" style="fill: #1f77b4"/>
   </g>
   <g id="patch_20">
    <path d="M 129.024 307.584 
L 132.270545 307.584 
L 132.270545 243.414288 
L 129.024 243.414288 
z
" clip-path="url(#pbf549facd4)" style="fill: #1f77b4"/>
   </g>
   <g id="patch_21">
    <path d="M 132.270545 307.584 
L 135.517091 307.584 
L 135.517091 252.118696 
L 132.270545 252.118696 
z
" clip-path="url(#pbf549facd4)" style="fill: #1f77b4"/>
   </g>
   <g id="patch_22">
    <path d="M 135.517091 307.584 
L 138.763636 307.584 
L 138.763636 245.438569 
L 135.517091 245.438569 
z
" clip-path="url(#pbf549facd4)" style="fill: #1f77b4"/>
   </g>
   <g id="patch_23">
    <path d="M 138.763636 307.584 
L 142.010182 307.584 
L 142.010182 263.657099 
L 138.763636 263.657099 
z
" clip-path="url(#pbf549facd4)" style="fill: #1f77b4"/>
   </g>
   <g id="patch_24">
    <path d="M 142.010182 307.584 
L 145.256727 307.584 
L 145.256727 261.227962 
L 142.010182 261.227962 
z
" clip-path="url(#pbf549facd4)" style="fill: #1f77b4"/>
   </g>
   <g id="patch_25">
    <path d="M 145.256727 307.584 
L 148.503273 307.584 
L 148.503273 253.94055 
L 145.256727 253.94055 
z
" clip-path="url(#pbf549facd4)" style="fill: #1f77b4"/>
   </g>
   <g id="patch_26">
    <path d="M 148.503273 307.584 
L 151.749818 307.584 
L 151.749818 259.608537 
L 148.503273 259.608537 
z
" clip-path="url(#pbf549facd4)" style="fill: #1f77b4"/>
   </g>
   <g id="patch_27">
    <path d="M 151.749818 307.584 
L 154.996364 307.584 
L 154.996364 260.620677 
L 151.749818 260.620677 
z
" clip-path="url(#pbf549facd4)" style="fill: #1f77b4"/>
   </g>
   <g id="patch_28">
    <path d="M 154.996364 307.584 
L 158.242909 307.584 
L 158.242909 255.155118 
L 154.996364 255.155118 
z
" clip-path="url(#pbf549facd4)" style="fill: #1f77b4"/>
   </g>
   <g id="patch_29">
    <path d="M 158.242909 307.584 
L 161.489455 307.584 
L 161.489455 251.71384 
L 158.242909 251.71384 
z
" clip-path="url(#pbf549facd4)" style="fill: #1f77b4"/>
   </g>
   <g id="patch_30">
    <path d="M 161.489455 307.584 
L 164.736 307.584 
L 164.736 259.608537 
L 161.489455 259.608537 
z
" clip-path="url(#pbf549facd4)" style="fill: #1f77b4"/>
   </g>
   <g id="patch_31">
    <path d="M 164.736 307.584 
L 167.982545 307.584 
L 167.982545 254.95269 
L 164.736 254.95269 
z
" clip-path="url(#pbf549facd4)" style="fill: #1f77b4"/>
   </g>
   <g id="patch_32">
    <path d="M 167.982545 307.584 
L 171.229091 307.584 
L 171.229091 260.823105 
L 167.982545 260.823105 
z
" clip-path="url(#pbf549facd4)" style="fill: #1f77b4"/>
   </g>
   <g id="patch_33">
    <path d="M 171.229091 307.584 
L 174.475636 307.584 
L 174.475636 262.44253 
L 171.229091 262.44253 
z
" clip-path="url(#pbf549facd4)" style="fill: #1f77b4"/>
   </g>
   <g id="patch_34">
    <path d="M 174.475636 307.584 
L 177.722182 307.584 
L 177.722182 263.049815 
L 174.475636 263.049815 
z
" clip-path="url(#pbf549facd4)" style="fill: #1f77b4"/>
   </g>
   <g id="patch_35">
    <path d="M 177.722182 307.584 
L 180.968727 307.584 
L 180.968727 269.122658 
L 177.722182 269.122658 
z
" clip-path="url(#pbf549facd4)" style="fill: #1f77b4"/>
   </g>
   <g id="patch_36">
    <path d="M 180.968727 307.584 
L 184.215273 307.584 
L 184.215273 266.086236 
L 180.968727 266.086236 
z
" clip-path="url(#pbf549facd4)" style="fill: #1f77b4"/>
   </g>
   <g id="patch_37">
    <path d="M 184.215273 307.584 
L 187.461818 307.584 
L 187.461818 269.527514 
L 184.215273 269.527514 
z
" clip-path="url(#pbf549facd4)" style="fill: #1f77b4"/>
   </g>
   <g id="patch_38">
    <path d="M 187.461818 307.584 
L 190.708364 307.584 
L 190.708364 260.620677 
L 187.461818 260.620677 
z
" clip-path="url(#pbf549facd4)" style="fill: #1f77b4"/>
   </g>
   <g id="patch_39">
    <path d="M 190.708364 307.584 
L 193.954909 307.584 
L 193.954909 258.798824 
L 190.708364 258.798824 
z
" clip-path="url(#pbf549facd4)" style="fill: #1f77b4"/>
   </g>
   <g id="patch_40">
    <path d="M 193.954909 307.584 
L 197.201455 307.584 
L 197.201455 262.44253 
L 193.954909 262.44253 
z
" clip-path="url(#pbf549facd4)" style="fill: #1f77b4"/>
   </g>
   <g id="patch_41">
    <path d="M 197.201455 307.584 
L 200.448 307.584 
L 200.448 256.976971 
L 197.201455 256.976971 
z
" clip-path="url(#pbf549facd4)" style="fill: #1f77b4"/>
   </g>
   <g id="patch_42">
    <path d="M 200.448 307.584 
L 203.694545 307.584 
L 203.694545 259.203681 
L 200.448 259.203681 
z
" clip-path="url(#pbf549facd4)" style="fill: #1f77b4"/>
   </g>
   <g id="patch_43">
    <path d="M 203.694545 307.584 
L 206.941091 307.584 
L 206.941091 263.454671 
L 203.694545 263.454671 
z
" clip-path="url(#pbf549facd4)" style="fill: #1f77b4"/>
   </g>
   <g id="patch_44">
    <path d="M 206.941091 307.584 
L 210.187636 307.584 
L 210.187636 258.393968 
L 206.941091 258.393968 
z
" clip-path="url(#pbf549facd4)" style="fill: #1f77b4"/>
   </g>
   <g id="patch_45">
    <path d="M 210.187636 307.584 
L 213.434182 307.584 
L 213.434182 267.908089 
L 210.187636 267.908089 
z
" clip-path="url(#pbf549facd4)" style="fill: #1f77b4"/>
   </g>
   <g id="patch_46">
    <path d="M 213.434182 307.584 
L 216.680727 307.584 
L 216.680727 261.835246 
L 213.434182 261.835246 
z
" clip-path="url(#pbf549facd4)" style="fill: #1f77b4"/>
   </g>
   <g id="patch_47">
    <path d="M 216.680727 307.584 
L 219.927273 307.584 
L 219.927273 270.539655 
L 216.680727 270.539655 
z
" clip-path="url(#pbf549facd4)" style="fill: #1f77b4"/>
   </g>
   <g id="patch_48">
    <path d="M 219.927273 307.584 
L 223.173818 307.584 
L 223.173818 252.928409 
L 219.927273 252.928409 
z
" clip-path="url(#pbf549facd4)" style="fill: #1f77b4"/>
   </g>
   <g id="patch_49">
    <path d="M 223.173818 307.584 
L 226.420364 307.584 
L 226.420364 266.288665 
L 223.173818 266.288665 
z
" clip-path="url(#pbf549facd4)" style="fill: #1f77b4"/>
   </g>
   <g id="patch_50">
    <path d="M 226.420364 307.584 
L 229.666909 307.584 
L 229.666909 261.025534 
L 226.420364 261.025534 
z
" clip-path="url(#pbf549facd4)" style="fill: #1f77b4"/>
   </g>
   <g id="patch_51">
    <path d="M 229.666909 307.584 
L 232.913455 307.584 
L 232.913455 263.657099 
L 229.666909 263.657099 
z
" clip-path="url(#pbf549facd4)" style="fill: #1f77b4"/>
   </g>
   <g id="patch_52">
    <path d="M 232.913455 307.584 
L 236.16 307.584 
L 236.16 265.276524 
L 232.913455 265.276524 
z
" clip-path="url(#pbf549facd4)" style="fill: #1f77b4"/>
   </g>
   <g id="patch_53">
    <path d="M 236.16 307.584 
L 239.406545 307.584 
L 239.406545 264.871668 
L 236.16 264.871668 
z
" clip-path="url(#pbf549facd4)" style="fill: #1f77b4"/>
   </g>
   <g id="patch_54">
    <path d="M 239.406545 307.584 
L 242.653091 307.584 
L 242.653091 264.66924 
L 239.406545 264.66924 
z
" clip-path="url(#pbf549facd4)" style="fill: #1f77b4"/>
   </g>
   <g id="patch_55">
    <path d="M 242.653091 307.584 
L 245.899636 307.584 
L 245.899636 257.584256 
L 242.653091 257.584256 
z
" clip-path="url(#pbf549facd4)" style="fill: #1f77b4"/>
   </g>
   <g id="patch_56">
    <path d="M 245.899636 307.584 
L 249.146182 307.584 
L 249.146182 265.276524 
L 245.899636 265.276524 
z
" clip-path="url(#pbf549facd4)" style="fill: #1f77b4"/>
   </g>
   <g id="patch_57">
    <path d="M 249.146182 307.584 
L 252.392727 307.584 
L 252.392727 259.608537 
L 249.146182 259.608537 
z
" clip-path="url(#pbf549facd4)" style="fill: #1f77b4"/>
   </g>
   <g id="patch_58">
    <path d="M 252.392727 307.584 
L 255.639273 307.584 
L 255.639273 259.608537 
L 252.392727 259.608537 
z
" clip-path="url(#pbf549facd4)" style="fill: #1f77b4"/>
   </g>
   <g id="patch_59">
    <path d="M 255.639273 307.584 
L 258.885818 307.584 
L 258.885818 259.001252 
L 255.639273 259.001252 
z
" clip-path="url(#pbf549facd4)" style="fill: #1f77b4"/>
   </g>
   <g id="patch_60">
    <path d="M 258.885818 307.584 
L 262.132364 307.584 
L 262.132364 257.381827 
L 258.885818 257.381827 
z
" clip-path="url(#pbf549facd4)" style="fill: #1f77b4"/>
   </g>
   <g id="patch_61">
    <path d="M 262.132364 307.584 
L 265.378909 307.584 
L 265.378909 260.823105 
L 262.132364 260.823105 
z
" clip-path="url(#pbf549facd4)" style="fill: #1f77b4"/>
   </g>
   <g id="patch_62">
    <path d="M 265.378909 307.584 
L 268.625455 307.584 
L 268.625455 250.904128 
L 265.378909 250.904128 
z
" clip-path="url(#pbf549facd4)" style="fill: #1f77b4"/>
   </g>
   <g id="patch_63">
    <path d="M 268.625455 307.584 
L 271.872 307.584 
L 271.872 255.964831 
L 268.625455 255.964831 
z
" clip-path="url(#pbf549facd4)" style="fill: #1f77b4"/>
   </g>
   <g id="patch_64">
    <path d="M 271.872 307.584 
L 275.118545 307.584 
L 275.118545 250.296843 
L 271.872 250.296843 
z
" clip-path="url(#pbf549facd4)" style="fill: #1f77b4"/>
   </g>
   <g id="patch_65">
    <path d="M 275.118545 307.584 
L 278.365091 307.584 
L 278.365091 251.511412 
L 275.118545 251.511412 
z
" clip-path="url(#pbf549facd4)" style="fill: #1f77b4"/>
   </g>
   <g id="patch_66">
    <path d="M 278.365091 307.584 
L 281.611636 307.584 
L 281.611636 260.823105 
L 278.365091 260.823105 
z
" clip-path="url(#pbf549facd4)" style="fill: #1f77b4"/>
   </g>
   <g id="patch_67">
    <path d="M 281.611636 307.584 
L 284.858182 307.584 
L 284.858182 247.665278 
L 281.611636 247.665278 
z
" clip-path="url(#pbf549facd4)" style="fill: #1f77b4"/>
   </g>
   <g id="patch_68">
    <path d="M 284.858182 307.584 
L 288.104727 307.584 
L 288.104727 253.738121 
L 284.858182 253.738121 
z
" clip-path="url(#pbf549facd4)" style="fill: #1f77b4"/>
   </g>
   <g id="patch_69">
    <path d="M 288.104727 307.584 
L 291.351273 307.584 
L 291.351273 249.891987 
L 288.104727 249.891987 
z
" clip-path="url(#pbf549facd4)" style="fill: #1f77b4"/>
   </g>
   <g id="patch_70">
    <path d="M 291.351273 307.584 
L 294.597818 307.584 
L 294.597818 254.142978 
L 291.351273 254.142978 
z
" clip-path="url(#pbf549facd4)" style="fill: #1f77b4"/>
   </g>
   <g id="patch_71">
    <path d="M 294.597818 307.584 
L 297.844364 307.584 
L 297.844364 261.632818 
L 294.597818 261.632818 
z
" clip-path="url(#pbf549facd4)" style="fill: #1f77b4"/>
   </g>
   <g id="patch_72">
    <path d="M 297.844364 307.584 
L 301.090909 307.584 
L 301.090909 239.163297 
L 297.844364 239.163297 
z
" clip-path="url(#pbf549facd4)" style="fill: #1f77b4"/>
   </g>
   <g id="patch_73">
    <path d="M 301.090909 307.584 
L 304.337455 307.584 
L 304.337455 259.001252 
L 301.090909 259.001252 
z
" clip-path="url(#pbf549facd4)" style="fill: #1f77b4"/>
   </g>
   <g id="patch_74">
    <path d="M 304.337455 307.584 
L 307.584 307.584 
L 307.584 249.082275 
L 304.337455 249.082275 
z
" clip-path="url(#pbf549facd4)" style="fill: #1f77b4"/>
   </g>
   <g id="patch_75">
    <path d="M 307.584 307.584 
L 310.830545 307.584 
L 310.830545 260.215821 
L 307.584 260.215821 
z
" clip-path="url(#pbf549facd4)" style="fill: #1f77b4"/>
   </g>
   <g id="patch_76">
    <path d="M 310.830545 307.584 
L 314.077091 307.584 
L 314.077091 249.284703 
L 310.830545 249.284703 
z
" clip-path="url(#pbf549facd4)" style="fill: #1f77b4"/>
   </g>
   <g id="patch_77">
    <path d="M 314.077091 307.584 
L 317.323636 307.584 
L 317.323636 248.677419 
L 314.077091 248.677419 
z
" clip-path="url(#pbf549facd4)" style="fill: #1f77b4"/>
   </g>
   <g id="patch_78">
    <path d="M 317.323636 307.584 
L 320.570182 307.584 
L 320.570182 257.179399 
L 317.323636 257.179399 
z
" clip-path="url(#pbf549facd4)" style="fill: #1f77b4"/>
   </g>
   <g id="patch_79">
    <path d="M 320.570182 307.584 
L 323.816727 307.584 
L 323.816727 231.673457 
L 320.570182 231.673457 
z
" clip-path="url(#pbf549facd4)" style="fill: #1f77b4"/>
   </g>
   <g id="patch_80">
    <path d="M 323.816727 307.584 
L 327.063273 307.584 
L 327.063273 253.738121 
L 323.816727 253.738121 
z
" clip-path="url(#pbf549facd4)" style="fill: #1f77b4"/>
   </g>
   <g id="patch_81">
    <path d="M 327.063273 307.584 
L 330.309818 307.584 
L 330.309818 243.819144 
L 327.063273 243.819144 
z
" clip-path="url(#pbf549facd4)" style="fill: #1f77b4"/>
   </g>
   <g id="patch_82">
    <path d="M 330.309818 307.584 
L 333.556364 307.584 
L 333.556364 247.057994 
L 330.309818 247.057994 
z
" clip-path="url(#pbf549facd4)" style="fill: #1f77b4"/>
   </g>
   <g id="patch_83">
    <path d="M 333.556364 307.584 
L 336.802909 307.584 
L 336.802909 244.628856 
L 333.556364 244.628856 
z
" clip-path="url(#pbf549facd4)" style="fill: #1f77b4"/>
   </g>
   <g id="patch_84">
    <path d="M 336.802909 307.584 
L 340.049455 307.584 
L 340.049455 233.090454 
L 336.802909 233.090454 
z
" clip-path="url(#pbf549facd4)" style="fill: #1f77b4"/>
   </g>
   <g id="patch_85">
    <path d="M 340.049455 307.584 
L 343.296 307.584 
L 343.296 250.7017 
L 340.049455 250.7017 
z
" clip-path="url(#pbf549facd4)" style="fill: #1f77b4"/>
   </g>
   <g id="patch_86">
    <path d="M 343.296 307.584 
L 346.542545 307.584 
L 346.542545 221.754479 
L 343.296 221.754479 
z
" clip-path="url(#pbf549facd4)" style="fill: #1f77b4"/>
   </g>
   <g id="patch_87">
    <path d="M 346.542545 307.584 
L 349.789091 307.584 
L 349.789091 241.794863 
L 346.542545 241.794863 
z
" clip-path="url(#pbf549facd4)" style="fill: #1f77b4"/>
   </g>
   <g id="patch_88">
    <path d="M 349.789091 307.584 
L 353.035636 307.584 
L 353.035636 226.815182 
L 349.789091 226.815182 
z
" clip-path="url(#pbf549facd4)" style="fill: #1f77b4"/>
   </g>
   <g id="patch_89">
    <path d="M 353.035636 307.584 
L 356.282182 307.584 
L 356.282182 235.519591 
L 353.035636 235.519591 
z
" clip-path="url(#pbf549facd4)" style="fill: #1f77b4"/>
   </g>
   <g id="patch_90">
    <path d="M 356.282182 307.584 
L 359.528727 307.584 
L 359.528727 251.916268 
L 356.282182 251.916268 
z
" clip-path="url(#pbf549facd4)" style="fill: #1f77b4"/>
   </g>
   <g id="patch_91">
    <path d="M 359.528727 307.584 
L 362.775273 307.584 
L 362.775273 197.058249 
L 359.528727 197.058249 
z
" clip-path="url(#pbf549facd4)" style="fill: #1f77b4"/>
   </g>
   <g id="patch_92">
    <path d="M 362.775273 307.584 
L 366.021818 307.584 
L 366.021818 250.094415 
L 362.775273 250.094415 
z
" clip-path="url(#pbf549facd4)" style="fill: #1f77b4"/>
   </g>
   <g id="patch_93">
    <path d="M 366.021818 307.584 
L 369.268364 307.584 
L 369.268364 203.738377 
L 366.021818 203.738377 
z
" clip-path="url(#pbf549facd4)" style="fill: #1f77b4"/>
   </g>
   <g id="patch_94">
    <path d="M 369.268364 307.584 
L 372.514909 307.584 
L 372.514909 237.948728 
L 369.268364 237.948728 
z
" clip-path="url(#pbf549facd4)" style="fill: #1f77b4"/>
   </g>
   <g id="patch_95">
    <path d="M 372.514909 307.584 
L 375.761455 307.584 
L 375.761455 219.52777 
L 372.514909 219.52777 
z
" clip-path="url(#pbf549facd4)" style="fill: #1f77b4"/>
   </g>
   <g id="patch_96">
    <path d="M 375.761455 307.584 
L 379.008 307.584 
L 379.008 224.588473 
L 375.761455 224.588473 
z
" clip-path="url(#pbf549facd4)" style="fill: #1f77b4"/>
   </g>
   <g id="patch_97">
    <path d="M 379.008 307.584 
L 382.254545 307.584 
L 382.254545 263.859527 
L 379.008 263.859527 
z
" clip-path="url(#pbf549facd4)" style="fill: #1f77b4"/>
   </g>
   <g id="patch_98">
    <path d="M 382.254545 307.584 
L 385.501091 307.584 
L 385.501091 179.042147 
L 382.254545 179.042147 
z
" clip-path="url(#pbf549facd4)" style="fill: #1f77b4"/>
   </g>
   <g id="patch_99">
    <path d="M 385.501091 307.584 
L 388.747636 307.584 
L 388.747636 256.167259 
L 385.501091 256.167259 
z
" clip-path="url(#pbf549facd4)" style="fill: #1f77b4"/>
   </g>
   <g id="patch_100">
    <path d="M 388.747636 307.584 
L 391.994182 307.584 
L 391.994182 127.625406 
L 388.747636 127.625406 
z
" clip-path="url(#pbf549facd4)" style="fill: #1f77b4"/>
   </g>
   <g id="patch_101">
    <path d="M 391.994182 307.584 
L 395.240727 307.584 
L 395.240727 230.458888 
L 391.994182 230.458888 
z
" clip-path="url(#pbf549facd4)" style="fill: #1f77b4"/>
   </g>
   <g id="patch_102">
    <path d="M 395.240727 307.584 
L 398.487273 307.584 
L 398.487273 54.144 
L 395.240727 54.144 
z
" clip-path="url(#pbf549facd4)" style="fill: #1f77b4"/>
   </g>
   <g id="matplotlib.axis_1">
    <g id="xtick_1">
     <g id="line2d_1">
      <defs>
       <path id="m9e978d5fa9" d="M 0 0 
L 0 3.5 
" style="stroke: #000000; stroke-width: 0.8"/>
      </defs>
      <g>
       <use xlink:href="#m9e978d5fa9" x="73.823805" y="307.584" style="stroke: #000000; stroke-width: 0.8"/>
      </g>
     </g>
     <g id="text_1">
      <!-- 0.0 -->
      <g transform="translate(65.872242 322.182437) scale(0.1 -0.1)">
       <defs>
        <path id="DejaVuSans-30" d="M 2034 4250 
Q 1547 4250 1301 3770 
Q 1056 3291 1056 2328 
Q 1056 1369 1301 889 
Q 1547 409 2034 409 
Q 2525 409 2770 889 
Q 3016 1369 3016 2328 
Q 3016 3291 2770 3770 
Q 2525 4250 2034 4250 
z
M 2034 4750 
Q 2819 4750 3233 4129 
Q 3647 3509 3647 2328 
Q 3647 1150 3233 529 
Q 2819 -91 2034 -91 
Q 1250 -91 836 529 
Q 422 1150 422 2328 
Q 422 3509 836 4129 
Q 1250 4750 2034 4750 
z
" transform="scale(0.015625)"/>
        <path id="DejaVuSans-2e" d="M 684 794 
L 1344 794 
L 1344 0 
L 684 0 
L 684 794 
z
" transform="scale(0.015625)"/>
       </defs>
       <use xlink:href="#DejaVuSans-30"/>
       <use xlink:href="#DejaVuSans-2e" x="63.623047"/>
       <use xlink:href="#DejaVuSans-30" x="95.410156"/>
      </g>
     </g>
    </g>
    <g id="xtick_2">
     <g id="line2d_2">
      <g>
       <use xlink:href="#m9e978d5fa9" x="138.756498" y="307.584" style="stroke: #000000; stroke-width: 0.8"/>
      </g>
     </g>
     <g id="text_2">
      <!-- 0.2 -->
      <g transform="translate(130.804936 322.182437) scale(0.1 -0.1)">
       <defs>
        <path id="DejaVuSans-32" d="M 1228 531 
L 3431 531 
L 3431 0 
L 469 0 
L 469 531 
Q 828 903 1448 1529 
Q 2069 2156 2228 2338 
Q 2531 2678 2651 2914 
Q 2772 3150 2772 3378 
Q 2772 3750 2511 3984 
Q 2250 4219 1831 4219 
Q 1534 4219 1204 4116 
Q 875 4013 500 3803 
L 500 4441 
Q 881 4594 1212 4672 
Q 1544 4750 1819 4750 
Q 2544 4750 2975 4387 
Q 3406 4025 3406 3419 
Q 3406 3131 3298 2873 
Q 3191 2616 2906 2266 
Q 2828 2175 2409 1742 
Q 1991 1309 1228 531 
z
" transform="scale(0.015625)"/>
       </defs>
       <use xlink:href="#DejaVuSans-30"/>
       <use xlink:href="#DejaVuSans-2e" x="63.623047"/>
       <use xlink:href="#DejaVuSans-32" x="95.410156"/>
      </g>
     </g>
    </g>
    <g id="xtick_3">
     <g id="line2d_3">
      <g>
       <use xlink:href="#m9e978d5fa9" x="203.689192" y="307.584" style="stroke: #000000; stroke-width: 0.8"/>
      </g>
     </g>
     <g id="text_3">
      <!-- 0.4 -->
      <g transform="translate(195.737629 322.182437) scale(0.1 -0.1)">
       <defs>
        <path id="DejaVuSans-34" d="M 2419 4116 
L 825 1625 
L 2419 1625 
L 2419 4116 
z
M 2253 4666 
L 3047 4666 
L 3047 1625 
L 3713 1625 
L 3713 1100 
L 3047 1100 
L 3047 0 
L 2419 0 
L 2419 1100 
L 313 1100 
L 313 1709 
L 2253 4666 
z
" transform="scale(0.015625)"/>
       </defs>
       <use xlink:href="#DejaVuSans-30"/>
       <use xlink:href="#DejaVuSans-2e" x="63.623047"/>
       <use xlink:href="#DejaVuSans-34" x="95.410156"/>
      </g>
     </g>
    </g>
    <g id="xtick_4">
     <g id="line2d_4">
      <g>
       <use xlink:href="#m9e978d5fa9" x="268.621885" y="307.584" style="stroke: #000000; stroke-width: 0.8"/>
      </g>
     </g>
     <g id="text_4">
      <!-- 0.6 -->
      <g transform="translate(260.670323 322.182437) scale(0.1 -0.1)">
       <defs>
        <path id="DejaVuSans-36" d="M 2113 2584 
Q 1688 2584 1439 2293 
Q 1191 2003 1191 1497 
Q 1191 994 1439 701 
Q 1688 409 2113 409 
Q 2538 409 2786 701 
Q 3034 994 3034 1497 
Q 3034 2003 2786 2293 
Q 2538 2584 2113 2584 
z
M 3366 4563 
L 3366 3988 
Q 3128 4100 2886 4159 
Q 2644 4219 2406 4219 
Q 1781 4219 1451 3797 
Q 1122 3375 1075 2522 
Q 1259 2794 1537 2939 
Q 1816 3084 2150 3084 
Q 2853 3084 3261 2657 
Q 3669 2231 3669 1497 
Q 3669 778 3244 343 
Q 2819 -91 2113 -91 
Q 1303 -91 875 529 
Q 447 1150 447 2328 
Q 447 3434 972 4092 
Q 1497 4750 2381 4750 
Q 2619 4750 2861 4703 
Q 3103 4656 3366 4563 
z
" transform="scale(0.015625)"/>
       </defs>
       <use xlink:href="#DejaVuSans-30"/>
       <use xlink:href="#DejaVuSans-2e" x="63.623047"/>
       <use xlink:href="#DejaVuSans-36" x="95.410156"/>
      </g>
     </g>
    </g>
    <g id="xtick_5">
     <g id="line2d_5">
      <g>
       <use xlink:href="#m9e978d5fa9" x="333.554579" y="307.584" style="stroke: #000000; stroke-width: 0.8"/>
      </g>
     </g>
     <g id="text_5">
      <!-- 0.8 -->
      <g transform="translate(325.603017 322.182437) scale(0.1 -0.1)">
       <defs>
        <path id="DejaVuSans-38" d="M 2034 2216 
Q 1584 2216 1326 1975 
Q 1069 1734 1069 1313 
Q 1069 891 1326 650 
Q 1584 409 2034 409 
Q 2484 409 2743 651 
Q 3003 894 3003 1313 
Q 3003 1734 2745 1975 
Q 2488 2216 2034 2216 
z
M 1403 2484 
Q 997 2584 770 2862 
Q 544 3141 544 3541 
Q 544 4100 942 4425 
Q 1341 4750 2034 4750 
Q 2731 4750 3128 4425 
Q 3525 4100 3525 3541 
Q 3525 3141 3298 2862 
Q 3072 2584 2669 2484 
Q 3125 2378 3379 2068 
Q 3634 1759 3634 1313 
Q 3634 634 3220 271 
Q 2806 -91 2034 -91 
Q 1263 -91 848 271 
Q 434 634 434 1313 
Q 434 1759 690 2068 
Q 947 2378 1403 2484 
z
M 1172 3481 
Q 1172 3119 1398 2916 
Q 1625 2713 2034 2713 
Q 2441 2713 2670 2916 
Q 2900 3119 2900 3481 
Q 2900 3844 2670 4047 
Q 2441 4250 2034 4250 
Q 1625 4250 1398 4047 
Q 1172 3844 1172 3481 
z
" transform="scale(0.015625)"/>
       </defs>
       <use xlink:href="#DejaVuSans-30"/>
       <use xlink:href="#DejaVuSans-2e" x="63.623047"/>
       <use xlink:href="#DejaVuSans-38" x="95.410156"/>
      </g>
     </g>
    </g>
    <g id="xtick_6">
     <g id="line2d_6">
      <g>
       <use xlink:href="#m9e978d5fa9" x="398.487273" y="307.584" style="stroke: #000000; stroke-width: 0.8"/>
      </g>
     </g>
     <g id="text_6">
      <!-- 1.0 -->
      <g transform="translate(390.53571 322.182437) scale(0.1 -0.1)">
       <defs>
        <path id="DejaVuSans-31" d="M 794 531 
L 1825 531 
L 1825 4091 
L 703 3866 
L 703 4441 
L 1819 4666 
L 2450 4666 
L 2450 531 
L 3481 531 
L 3481 0 
L 794 0 
L 794 531 
z
" transform="scale(0.015625)"/>
       </defs>
       <use xlink:href="#DejaVuSans-31"/>
       <use xlink:href="#DejaVuSans-2e" x="63.623047"/>
       <use xlink:href="#DejaVuSans-30" x="95.410156"/>
      </g>
     </g>
    </g>
   </g>
   <g id="matplotlib.axis_2">
    <g id="ytick_1">
     <g id="line2d_7">
      <defs>
       <path id="m95efef6d14" d="M 0 0 
L -3.5 0 
" style="stroke: #000000; stroke-width: 0.8"/>
      </defs>
      <g>
       <use xlink:href="#m95efef6d14" x="57.6" y="307.584" style="stroke: #000000; stroke-width: 0.8"/>
      </g>
     </g>
     <g id="text_7">
      <!-- 0 -->
      <g transform="translate(44.2375 311.383219) scale(0.1 -0.1)">
       <use xlink:href="#DejaVuSans-30"/>
      </g>
     </g>
    </g>
    <g id="ytick_2">
     <g id="line2d_8">
      <g>
       <use xlink:href="#m95efef6d14" x="57.6" y="267.098377" style="stroke: #000000; stroke-width: 0.8"/>
      </g>
     </g>
     <g id="text_8">
      <!-- 200 -->
      <g transform="translate(31.5125 270.897596) scale(0.1 -0.1)">
       <use xlink:href="#DejaVuSans-32"/>
       <use xlink:href="#DejaVuSans-30" x="63.623047"/>
       <use xlink:href="#DejaVuSans-30" x="127.246094"/>
      </g>
     </g>
    </g>
    <g id="ytick_3">
     <g id="line2d_9">
      <g>
       <use xlink:href="#m95efef6d14" x="57.6" y="226.612754" style="stroke: #000000; stroke-width: 0.8"/>
      </g>
     </g>
     <g id="text_9">
      <!-- 400 -->
      <g transform="translate(31.5125 230.411973) scale(0.1 -0.1)">
       <use xlink:href="#DejaVuSans-34"/>
       <use xlink:href="#DejaVuSans-30" x="63.623047"/>
       <use xlink:href="#DejaVuSans-30" x="127.246094"/>
      </g>
     </g>
    </g>
    <g id="ytick_4">
     <g id="line2d_10">
      <g>
       <use xlink:href="#m95efef6d14" x="57.6" y="186.127131" style="stroke: #000000; stroke-width: 0.8"/>
      </g>
     </g>
     <g id="text_10">
      <!-- 600 -->
      <g transform="translate(31.5125 189.92635) scale(0.1 -0.1)">
       <use xlink:href="#DejaVuSans-36"/>
       <use xlink:href="#DejaVuSans-30" x="63.623047"/>
       <use xlink:href="#DejaVuSans-30" x="127.246094"/>
      </g>
     </g>
    </g>
    <g id="ytick_5">
     <g id="line2d_11">
      <g>
       <use xlink:href="#m95efef6d14" x="57.6" y="145.641508" style="stroke: #000000; stroke-width: 0.8"/>
      </g>
     </g>
     <g id="text_11">
      <!-- 800 -->
      <g transform="translate(31.5125 149.440727) scale(0.1 -0.1)">
       <use xlink:href="#DejaVuSans-38"/>
       <use xlink:href="#DejaVuSans-30" x="63.623047"/>
       <use xlink:href="#DejaVuSans-30" x="127.246094"/>
      </g>
     </g>
    </g>
    <g id="ytick_6">
     <g id="line2d_12">
      <g>
       <use xlink:href="#m95efef6d14" x="57.6" y="105.155885" style="stroke: #000000; stroke-width: 0.8"/>
      </g>
     </g>
     <g id="text_12">
      <!-- 1000 -->
      <g transform="translate(25.15 108.955104) scale(0.1 -0.1)">
       <use xlink:href="#DejaVuSans-31"/>
       <use xlink:href="#DejaVuSans-30" x="63.623047"/>
       <use xlink:href="#DejaVuSans-30" x="127.246094"/>
       <use xlink:href="#DejaVuSans-30" x="190.869141"/>
      </g>
     </g>
    </g>
    <g id="ytick_7">
     <g id="line2d_13">
      <g>
       <use xlink:href="#m95efef6d14" x="57.6" y="64.670262" style="stroke: #000000; stroke-width: 0.8"/>
      </g>
     </g>
     <g id="text_13">
      <!-- 1200 -->
      <g transform="translate(25.15 68.469481) scale(0.1 -0.1)">
       <use xlink:href="#DejaVuSans-31"/>
       <use xlink:href="#DejaVuSans-32" x="63.623047"/>
       <use xlink:href="#DejaVuSans-30" x="127.246094"/>
       <use xlink:href="#DejaVuSans-30" x="190.869141"/>
      </g>
     </g>
    </g>
   </g>
   <g id="patch_103">
    <path d="M 57.6 307.584 
L 57.6 41.472 
" style="fill: none; stroke: #000000; stroke-width: 0.8; stroke-linejoin: miter; stroke-linecap: square"/>
   </g>
   <g id="patch_104">
    <path d="M 414.72 307.584 
L 414.72 41.472 
" style="fill: none; stroke: #000000; stroke-width: 0.8; stroke-linejoin: miter; stroke-linecap: square"/>
   </g>
   <g id="patch_105">
    <path d="M 57.6 307.584 
L 414.72 307.584 
" style="fill: none; stroke: #000000; stroke-width: 0.8; stroke-linejoin: miter; stroke-linecap: square"/>
   </g>
   <g id="patch_106">
    <path d="M 57.6 41.472 
L 414.72 41.472 
" style="fill: none; stroke: #000000; stroke-width: 0.8; stroke-linejoin: miter; stroke-linecap: square"/>
   </g>
   <g id="text_14">
    <!-- Non-zero binary scores -->
    <g transform="translate(167.157187 35.472) scale(0.12 -0.12)">
     <defs>
      <path id="DejaVuSans-4e" d="M 628 4666 
L 1478 4666 
L 3547 763 
L 3547 4666 
L 4159 4666 
L 4159 0 
L 3309 0 
L 1241 3903 
L 1241 0 
L 628 0 
L 628 4666 
z
" transform="scale(0.015625)"/>
      <path id="DejaVuSans-6f" d="M 1959 3097 
Q 1497 3097 1228 2736 
Q 959 2375 959 1747 
Q 959 1119 1226 758 
Q 1494 397 1959 397 
Q 2419 397 2687 759 
Q 2956 1122 2956 1747 
Q 2956 2369 2687 2733 
Q 2419 3097 1959 3097 
z
M 1959 3584 
Q 2709 3584 3137 3096 
Q 3566 2609 3566 1747 
Q 3566 888 3137 398 
Q 2709 -91 1959 -91 
Q 1206 -91 779 398 
Q 353 888 353 1747 
Q 353 2609 779 3096 
Q 1206 3584 1959 3584 
z
" transform="scale(0.015625)"/>
      <path id="DejaVuSans-6e" d="M 3513 2113 
L 3513 0 
L 2938 0 
L 2938 2094 
Q 2938 2591 2744 2837 
Q 2550 3084 2163 3084 
Q 1697 3084 1428 2787 
Q 1159 2491 1159 1978 
L 1159 0 
L 581 0 
L 581 3500 
L 1159 3500 
L 1159 2956 
Q 1366 3272 1645 3428 
Q 1925 3584 2291 3584 
Q 2894 3584 3203 3211 
Q 3513 2838 3513 2113 
z
" transform="scale(0.015625)"/>
      <path id="DejaVuSans-2d" d="M 313 2009 
L 1997 2009 
L 1997 1497 
L 313 1497 
L 313 2009 
z
" transform="scale(0.015625)"/>
      <path id="DejaVuSans-7a" d="M 353 3500 
L 3084 3500 
L 3084 2975 
L 922 459 
L 3084 459 
L 3084 0 
L 275 0 
L 275 525 
L 2438 3041 
L 353 3041 
L 353 3500 
z
" transform="scale(0.015625)"/>
      <path id="DejaVuSans-65" d="M 3597 1894 
L 3597 1613 
L 953 1613 
Q 991 1019 1311 708 
Q 1631 397 2203 397 
Q 2534 397 2845 478 
Q 3156 559 3463 722 
L 3463 178 
Q 3153 47 2828 -22 
Q 2503 -91 2169 -91 
Q 1331 -91 842 396 
Q 353 884 353 1716 
Q 353 2575 817 3079 
Q 1281 3584 2069 3584 
Q 2775 3584 3186 3129 
Q 3597 2675 3597 1894 
z
M 3022 2063 
Q 3016 2534 2758 2815 
Q 2500 3097 2075 3097 
Q 1594 3097 1305 2825 
Q 1016 2553 972 2059 
L 3022 2063 
z
" transform="scale(0.015625)"/>
      <path id="DejaVuSans-72" d="M 2631 2963 
Q 2534 3019 2420 3045 
Q 2306 3072 2169 3072 
Q 1681 3072 1420 2755 
Q 1159 2438 1159 1844 
L 1159 0 
L 581 0 
L 581 3500 
L 1159 3500 
L 1159 2956 
Q 1341 3275 1631 3429 
Q 1922 3584 2338 3584 
Q 2397 3584 2469 3576 
Q 2541 3569 2628 3553 
L 2631 2963 
z
" transform="scale(0.015625)"/>
      <path id="DejaVuSans-20" transform="scale(0.015625)"/>
      <path id="DejaVuSans-62" d="M 3116 1747 
Q 3116 2381 2855 2742 
Q 2594 3103 2138 3103 
Q 1681 3103 1420 2742 
Q 1159 2381 1159 1747 
Q 1159 1113 1420 752 
Q 1681 391 2138 391 
Q 2594 391 2855 752 
Q 3116 1113 3116 1747 
z
M 1159 2969 
Q 1341 3281 1617 3432 
Q 1894 3584 2278 3584 
Q 2916 3584 3314 3078 
Q 3713 2572 3713 1747 
Q 3713 922 3314 415 
Q 2916 -91 2278 -91 
Q 1894 -91 1617 61 
Q 1341 213 1159 525 
L 1159 0 
L 581 0 
L 581 4863 
L 1159 4863 
L 1159 2969 
z
" transform="scale(0.015625)"/>
      <path id="DejaVuSans-69" d="M 603 3500 
L 1178 3500 
L 1178 0 
L 603 0 
L 603 3500 
z
M 603 4863 
L 1178 4863 
L 1178 4134 
L 603 4134 
L 603 4863 
z
" transform="scale(0.015625)"/>
      <path id="DejaVuSans-61" d="M 2194 1759 
Q 1497 1759 1228 1600 
Q 959 1441 959 1056 
Q 959 750 1161 570 
Q 1363 391 1709 391 
Q 2188 391 2477 730 
Q 2766 1069 2766 1631 
L 2766 1759 
L 2194 1759 
z
M 3341 1997 
L 3341 0 
L 2766 0 
L 2766 531 
Q 2569 213 2275 61 
Q 1981 -91 1556 -91 
Q 1019 -91 701 211 
Q 384 513 384 1019 
Q 384 1609 779 1909 
Q 1175 2209 1959 2209 
L 2766 2209 
L 2766 2266 
Q 2766 2663 2505 2880 
Q 2244 3097 1772 3097 
Q 1472 3097 1187 3025 
Q 903 2953 641 2809 
L 641 3341 
Q 956 3463 1253 3523 
Q 1550 3584 1831 3584 
Q 2591 3584 2966 3190 
Q 3341 2797 3341 1997 
z
" transform="scale(0.015625)"/>
      <path id="DejaVuSans-79" d="M 2059 -325 
Q 1816 -950 1584 -1140 
Q 1353 -1331 966 -1331 
L 506 -1331 
L 506 -850 
L 844 -850 
Q 1081 -850 1212 -737 
Q 1344 -625 1503 -206 
L 1606 56 
L 191 3500 
L 800 3500 
L 1894 763 
L 2988 3500 
L 3597 3500 
L 2059 -325 
z
" transform="scale(0.015625)"/>
      <path id="DejaVuSans-73" d="M 2834 3397 
L 2834 2853 
Q 2591 2978 2328 3040 
Q 2066 3103 1784 3103 
Q 1356 3103 1142 2972 
Q 928 2841 928 2578 
Q 928 2378 1081 2264 
Q 1234 2150 1697 2047 
L 1894 2003 
Q 2506 1872 2764 1633 
Q 3022 1394 3022 966 
Q 3022 478 2636 193 
Q 2250 -91 1575 -91 
Q 1294 -91 989 -36 
Q 684 19 347 128 
L 347 722 
Q 666 556 975 473 
Q 1284 391 1588 391 
Q 1994 391 2212 530 
Q 2431 669 2431 922 
Q 2431 1156 2273 1281 
Q 2116 1406 1581 1522 
L 1381 1569 
Q 847 1681 609 1914 
Q 372 2147 372 2553 
Q 372 3047 722 3315 
Q 1072 3584 1716 3584 
Q 2034 3584 2315 3537 
Q 2597 3491 2834 3397 
z
" transform="scale(0.015625)"/>
      <path id="DejaVuSans-63" d="M 3122 3366 
L 3122 2828 
Q 2878 2963 2633 3030 
Q 2388 3097 2138 3097 
Q 1578 3097 1268 2742 
Q 959 2388 959 1747 
Q 959 1106 1268 751 
Q 1578 397 2138 397 
Q 2388 397 2633 464 
Q 2878 531 3122 666 
L 3122 134 
Q 2881 22 2623 -34 
Q 2366 -91 2075 -91 
Q 1284 -91 818 406 
Q 353 903 353 1747 
Q 353 2603 823 3093 
Q 1294 3584 2113 3584 
Q 2378 3584 2631 3529 
Q 2884 3475 3122 3366 
z
" transform="scale(0.015625)"/>
     </defs>
     <use xlink:href="#DejaVuSans-4e"/>
     <use xlink:href="#DejaVuSans-6f" x="74.804688"/>
     <use xlink:href="#DejaVuSans-6e" x="135.986328"/>
     <use xlink:href="#DejaVuSans-2d" x="199.365234"/>
     <use xlink:href="#DejaVuSans-7a" x="235.449219"/>
     <use xlink:href="#DejaVuSans-65" x="287.939453"/>
     <use xlink:href="#DejaVuSans-72" x="349.462891"/>
     <use xlink:href="#DejaVuSans-6f" x="388.326172"/>
     <use xlink:href="#DejaVuSans-20" x="449.507812"/>
     <use xlink:href="#DejaVuSans-62" x="481.294922"/>
     <use xlink:href="#DejaVuSans-69" x="544.771484"/>
     <use xlink:href="#DejaVuSans-6e" x="572.554688"/>
     <use xlink:href="#DejaVuSans-61" x="635.933594"/>
     <use xlink:href="#DejaVuSans-72" x="697.212891"/>
     <use xlink:href="#DejaVuSans-79" x="738.326172"/>
     <use xlink:href="#DejaVuSans-20" x="797.505859"/>
     <use xlink:href="#DejaVuSans-73" x="829.292969"/>
     <use xlink:href="#DejaVuSans-63" x="881.392578"/>
     <use xlink:href="#DejaVuSans-6f" x="936.373047"/>
     <use xlink:href="#DejaVuSans-72" x="997.554688"/>
     <use xlink:href="#DejaVuSans-65" x="1036.417969"/>
     <use xlink:href="#DejaVuSans-73" x="1097.941406"/>
    </g>
   </g>
  </g>
 </g>
 <defs>
  <clipPath id="pbf549facd4">
   <rect x="57.6" y="41.472" width="357.12" height="266.112"/>
  </clipPath>
 </defs>
</svg>
