<?xml version="1.0" encoding="utf-8" standalone="no"?>
<!DOCTYPE svg PUBLIC "-//W3C//DTD SVG 1.1//EN"
  "http://www.w3.org/Graphics/SVG/1.1/DTD/svg11.dtd">
<svg xmlns:xlink="http://www.w3.org/1999/xlink" width="371.52pt" height="293.232728pt" viewBox="0 0 371.52 293.232728" xmlns="http://www.w3.org/2000/svg" version="1.1">
 <metadata>
  <rdf:RDF xmlns:dc="http://purl.org/dc/elements/1.1/" xmlns:cc="http://creativecommons.org/ns#" xmlns:rdf="http://www.w3.org/1999/02/22-rdf-syntax-ns#">
   <cc:Work>
    <dc:type rdf:resource="http://purl.org/dc/dcmitype/StillImage"/>
    <dc:date>2026-05-04T16:54:28.480225</dc:date>
    <dc:format>image/svg+xml</dc:format>
    <dc:creator>
     <cc:Agent>
      <dc:title>Matplotlib v3.8.0, https://matplotlib.org/</dc:title>
     </cc:Agent>
    </dc:creator>
   </cc:Work>
  </rdf:RDF>
 </metadata>
 <defs>
  <style type="text/css">*{stroke-linejoin: round; stroke-linecap: butt}</style>
 </defs>
 <g id="figure_1">
  <g id="patch_1">
   <path d="M 0 293.232728 
L 371.52 293.232728 
L 371.52 0 
L 0 0 
z
" style="fill: #ffffff"/>
  </g>
  <g id="axes_1">
   <g id="patch_2">
    <path d="M 7.2 127.32 
L 364.32 127.32 
L 364.32 7.2 
L 7.2 7.2 
z
" style="fill: #ffffff"/>
   </g>
   <g id="matplotlib.axis_1">
    <g id="xtick_1">
     <g id="text_1">
      <!-- Platelets -->
      <g transform="translate(25.731287 170.19757) rotate(-90) scale(0.0833 -0.0833)">
       <defs>
        <path id="DejaVuSans-50" d="M 1259 4147 
L 1259 2394 
L 2053 2394 
Q 2494 2394 2734 2622 
Q 2975 2850 2975 3272 
Q 2975 3691 2734 3919 
Q 2494 4147 2053 4147 
L 1259 4147 
z
M 628 4666 
L 2053 4666 
Q 2838 4666 3239 4311 
Q 3641 3956 3641 3272 
Q 3641 2581 3239 2228 
Q 2838 1875 2053 1875 
L 1259 1875 
L 1259 0 
L 628 0 
L 628 4666 
z
" transform="scale(0.015625)"/>
        <path id="DejaVuSans-6c" d="M 603 4863 
L 1178 4863 
L 1178 0 
L 603 0 
L 603 4863 
z
" transform="scale(0.015625)"/>
        <path id="DejaVuSans-61" d="M 2194 1759 
Q 1497 1759 1228 1600 
Q 959 1441 959 1056 
Q 959 750 1161 570 
Q 1363 391 1709 391 
Q 2188 391 2477 730 
Q 2766 1069 2766 1631 
L 2766 1759 
L 2194 1759 
z
M 3341 1997 
L 3341 0 
L 2766 0 
L 2766 531 
Q 2569 213 2275 61 
Q 1981 -91 1556 -91 
Q 1019 -91 701 211 
Q 384 513 384 1019 
Q 384 1609 779 1909 
Q 1175 2209 1959 2209 
L 2766 2209 
L 2766 2266 
Q 2766 2663 2505 2880 
Q 2244 3097 1772 3097 
Q 1472 3097 1187 3025 
Q 903 2953 641 2809 
L 641 3341 
Q 956 3463 1253 3523 
Q 1550 3584 1831 3584 
Q 2591 3584 2966 3190 
Q 3341 2797 3341 1997 
z
" transform="scale(0.015625)"/>
        <path id="DejaVuSans-74" d="M 1172 4494 
L 1172 3500 
L 2356 3500 
L 2356 3053 
L 1172 3053 
L 1172 1153 
Q 1172 725 1289 603 
Q 1406 481 1766 481 
L 2356 481 
L 2356 0 
L 1766 0 
Q 1100 0 847 248 
Q 594 497 594 1153 
L 594 3053 
L 172 3053 
L 172 3500 
L 594 3500 
L 594 4494 
L 1172 4494 
z
" transform="scale(0.015625)"/>
        <path id="DejaVuSans-65" d="M 3597 1894 
L 3597 1613 
L 953 1613 
Q 991 1019 1311 708 
Q 1631 397 2203 397 
Q 2534 397 2845 478 
Q 3156 559 3463 722 
L 3463 178 
Q 3153 47 2828 -22 
Q 2503 -91 2169 -91 
Q 1331 -91 842 396 
Q 353 884 353 1716 
Q 353 2575 817 3079 
Q 1281 3584 2069 3584 
Q 2775 3584 3186 3129 
Q 3597 2675 3597 1894 
z
M 3022 2063 
Q 3016 2534 2758 2815 
Q 2500 3097 2075 3097 
Q 1594 3097 1305 2825 
Q 1016 2553 972 2059 
L 3022 2063 
z
" transform="scale(0.015625)"/>
        <path id="DejaVuSans-73" d="M 2834 3397 
L 2834 2853 
Q 2591 2978 2328 3040 
Q 2066 3103 1784 3103 
Q 1356 3103 1142 2972 
Q 928 2841 928 2578 
Q 928 2378 1081 2264 
Q 1234 2150 1697 2047 
L 1894 2003 
Q 2506 1872 2764 1633 
Q 3022 1394 3022 966 
Q 3022 478 2636 193 
Q 2250 -91 1575 -91 
Q 1294 -91 989 -36 
Q 684 19 347 128 
L 347 722 
Q 666 556 975 473 
Q 1284 391 1588 391 
Q 1994 391 2212 530 
Q 2431 669 2431 922 
Q 2431 1156 2273 1281 
Q 2116 1406 1581 1522 
L 1381 1569 
Q 847 1681 609 1914 
Q 372 2147 372 2553 
Q 372 3047 722 3315 
Q 1072 3584 1716 3584 
Q 2034 3584 2315 3537 
Q 2597 3491 2834 3397 
z
" transform="scale(0.015625)"/>
       </defs>
       <use xlink:href="#DejaVuSans-50"/>
       <use xlink:href="#DejaVuSans-6c" x="60.302734"/>
       <use xlink:href="#DejaVuSans-61" x="88.085938"/>
       <use xlink:href="#DejaVuSans-74" x="149.365234"/>
       <use xlink:href="#DejaVuSans-65" x="188.574219"/>
       <use xlink:href="#DejaVuSans-6c" x="250.097656"/>
       <use xlink:href="#DejaVuSans-65" x="277.880859"/>
       <use xlink:href="#DejaVuSans-74" x="339.404297"/>
       <use xlink:href="#DejaVuSans-73" x="378.613281"/>
      </g>
     </g>
    </g>
    <g id="xtick_2">
     <g id="text_2">
      <!-- Doublet -->
      <g transform="translate(42.818368 167.103756) rotate(-90) scale(0.0833 -0.0833)">
       <defs>
        <path id="DejaVuSans-44" d="M 1259 4147 
L 1259 519 
L 2022 519 
Q 2988 519 3436 956 
Q 3884 1394 3884 2338 
Q 3884 3275 3436 3711 
Q 2988 4147 2022 4147 
L 1259 4147 
z
M 628 4666 
L 1925 4666 
Q 3281 4666 3915 4102 
Q 4550 3538 4550 2338 
Q 4550 1131 3912 565 
Q 3275 0 1925 0 
L 628 0 
L 628 4666 
z
" transform="scale(0.015625)"/>
        <path id="DejaVuSans-6f" d="M 1959 3097 
Q 1497 3097 1228 2736 
Q 959 2375 959 1747 
Q 959 1119 1226 758 
Q 1494 397 1959 397 
Q 2419 397 2687 759 
Q 2956 1122 2956 1747 
Q 2956 2369 2687 2733 
Q 2419 3097 1959 3097 
z
M 1959 3584 
Q 2709 3584 3137 3096 
Q 3566 2609 3566 1747 
Q 3566 888 3137 398 
Q 2709 -91 1959 -91 
Q 1206 -91 779 398 
Q 353 888 353 1747 
Q 353 2609 779 3096 
Q 1206 3584 1959 3584 
z
" transform="scale(0.015625)"/>
        <path id="DejaVuSans-75" d="M 544 1381 
L 544 3500 
L 1119 3500 
L 1119 1403 
Q 1119 906 1312 657 
Q 1506 409 1894 409 
Q 2359 409 2629 706 
Q 2900 1003 2900 1516 
L 2900 3500 
L 3475 3500 
L 3475 0 
L 2900 0 
L 2900 538 
Q 2691 219 2414 64 
Q 2138 -91 1772 -91 
Q 1169 -91 856 284 
Q 544 659 544 1381 
z
M 1991 3584 
L 1991 3584 
z
" transform="scale(0.015625)"/>
        <path id="DejaVuSans-62" d="M 3116 1747 
Q 3116 2381 2855 2742 
Q 2594 3103 2138 3103 
Q 1681 3103 1420 2742 
Q 1159 2381 1159 1747 
Q 1159 1113 1420 752 
Q 1681 391 2138 391 
Q 2594 391 2855 752 
Q 3116 1113 3116 1747 
z
M 1159 2969 
Q 1341 3281 1617 3432 
Q 1894 3584 2278 3584 
Q 2916 3584 3314 3078 
Q 3713 2572 3713 1747 
Q 3713 922 3314 415 
Q 2916 -91 2278 -91 
Q 1894 -91 1617 61 
Q 1341 213 1159 525 
L 1159 0 
L 581 0 
L 581 4863 
L 1159 4863 
L 1159 2969 
z
" transform="scale(0.015625)"/>
       </defs>
       <use xlink:href="#DejaVuSans-44"/>
       <use xlink:href="#DejaVuSans-6f" x="77.001953"/>
       <use xlink:href="#DejaVuSans-75" x="138.183594"/>
       <use xlink:href="#DejaVuSans-62" x="201.5625"/>
       <use xlink:href="#DejaVuSans-6c" x="265.039062"/>
       <use xlink:href="#DejaVuSans-65" x="292.822266"/>
       <use xlink:href="#DejaVuSans-74" x="354.345703"/>
      </g>
     </g>
    </g>
    <g id="xtick_3">
     <g id="text_3">
      <!-- LSEC -->
      <g transform="translate(59.905449 155.329822) rotate(-90) scale(0.0833 -0.0833)">
       <defs>
        <path id="DejaVuSans-4c" d="M 628 4666 
L 1259 4666 
L 1259 531 
L 3531 531 
L 3531 0 
L 628 0 
L 628 4666 
z
" transform="scale(0.015625)"/>
        <path id="DejaVuSans-53" d="M 3425 4513 
L 3425 3897 
Q 3066 4069 2747 4153 
Q 2428 4238 2131 4238 
Q 1616 4238 1336 4038 
Q 1056 3838 1056 3469 
Q 1056 3159 1242 3001 
Q 1428 2844 1947 2747 
L 2328 2669 
Q 3034 2534 3370 2195 
Q 3706 1856 3706 1288 
Q 3706 609 3251 259 
Q 2797 -91 1919 -91 
Q 1588 -91 1214 -16 
Q 841 59 441 206 
L 441 856 
Q 825 641 1194 531 
Q 1563 422 1919 422 
Q 2459 422 2753 634 
Q 3047 847 3047 1241 
Q 3047 1584 2836 1778 
Q 2625 1972 2144 2069 
L 1759 2144 
Q 1053 2284 737 2584 
Q 422 2884 422 3419 
Q 422 4038 858 4394 
Q 1294 4750 2059 4750 
Q 2388 4750 2728 4690 
Q 3069 4631 3425 4513 
z
" transform="scale(0.015625)"/>
        <path id="DejaVuSans-45" d="M 628 4666 
L 3578 4666 
L 3578 4134 
L 1259 4134 
L 1259 2753 
L 3481 2753 
L 3481 2222 
L 1259 2222 
L 1259 531 
L 3634 531 
L 3634 0 
L 628 0 
L 628 4666 
z
" transform="scale(0.015625)"/>
        <path id="DejaVuSans-43" d="M 4122 4306 
L 4122 3641 
Q 3803 3938 3442 4084 
Q 3081 4231 2675 4231 
Q 1875 4231 1450 3742 
Q 1025 3253 1025 2328 
Q 1025 1406 1450 917 
Q 1875 428 2675 428 
Q 3081 428 3442 575 
Q 3803 722 4122 1019 
L 4122 359 
Q 3791 134 3420 21 
Q 3050 -91 2638 -91 
Q 1578 -91 968 557 
Q 359 1206 359 2328 
Q 359 3453 968 4101 
Q 1578 4750 2638 4750 
Q 3056 4750 3426 4639 
Q 3797 4528 4122 4306 
z
" transform="scale(0.015625)"/>
       </defs>
       <use xlink:href="#DejaVuSans-4c"/>
       <use xlink:href="#DejaVuSans-53" x="55.712891"/>
       <use xlink:href="#DejaVuSans-45" x="119.189453"/>
       <use xlink:href="#DejaVuSans-43" x="182.373047"/>
      </g>
     </g>
    </g>
    <g id="xtick_4">
     <g id="text_4">
      <!-- HSC -->
      <g transform="translate(76.992531 151.689352) rotate(-90) scale(0.0833 -0.0833)">
       <defs>
        <path id="DejaVuSans-48" d="M 628 4666 
L 1259 4666 
L 1259 2753 
L 3553 2753 
L 3553 4666 
L 4184 4666 
L 4184 0 
L 3553 0 
L 3553 2222 
L 1259 2222 
L 1259 0 
L 628 0 
L 628 4666 
z
" transform="scale(0.015625)"/>
       </defs>
       <use xlink:href="#DejaVuSans-48"/>
       <use xlink:href="#DejaVuSans-53" x="75.195312"/>
       <use xlink:href="#DejaVuSans-43" x="138.671875"/>
      </g>
     </g>
    </g>
    <g id="xtick_5">
     <g id="text_5">
      <!-- Cholangiocytes -->
      <g transform="translate(94.079612 198.151228) rotate(-90) scale(0.0833 -0.0833)">
       <defs>
        <path id="DejaVuSans-68" d="M 3513 2113 
L 3513 0 
L 2938 0 
L 2938 2094 
Q 2938 2591 2744 2837 
Q 2550 3084 2163 3084 
Q 1697 3084 1428 2787 
Q 1159 2491 1159 1978 
L 1159 0 
L 581 0 
L 581 4863 
L 1159 4863 
L 1159 2956 
Q 1366 3272 1645 3428 
Q 1925 3584 2291 3584 
Q 2894 3584 3203 3211 
Q 3513 2838 3513 2113 
z
" transform="scale(0.015625)"/>
        <path id="DejaVuSans-6e" d="M 3513 2113 
L 3513 0 
L 2938 0 
L 2938 2094 
Q 2938 2591 2744 2837 
Q 2550 3084 2163 3084 
Q 1697 3084 1428 2787 
Q 1159 2491 1159 1978 
L 1159 0 
L 581 0 
L 581 3500 
L 1159 3500 
L 1159 2956 
Q 1366 3272 1645 3428 
Q 1925 3584 2291 3584 
Q 2894 3584 3203 3211 
Q 3513 2838 3513 2113 
z
" transform="scale(0.015625)"/>
        <path id="DejaVuSans-67" d="M 2906 1791 
Q 2906 2416 2648 2759 
Q 2391 3103 1925 3103 
Q 1463 3103 1205 2759 
Q 947 2416 947 1791 
Q 947 1169 1205 825 
Q 1463 481 1925 481 
Q 2391 481 2648 825 
Q 2906 1169 2906 1791 
z
M 3481 434 
Q 3481 -459 3084 -895 
Q 2688 -1331 1869 -1331 
Q 1566 -1331 1297 -1286 
Q 1028 -1241 775 -1147 
L 775 -588 
Q 1028 -725 1275 -790 
Q 1522 -856 1778 -856 
Q 2344 -856 2625 -561 
Q 2906 -266 2906 331 
L 2906 616 
Q 2728 306 2450 153 
Q 2172 0 1784 0 
Q 1141 0 747 490 
Q 353 981 353 1791 
Q 353 2603 747 3093 
Q 1141 3584 1784 3584 
Q 2172 3584 2450 3431 
Q 2728 3278 2906 2969 
L 2906 3500 
L 3481 3500 
L 3481 434 
z
" transform="scale(0.015625)"/>
        <path id="DejaVuSans-69" d="M 603 3500 
L 1178 3500 
L 1178 0 
L 603 0 
L 603 3500 
z
M 603 4863 
L 1178 4863 
L 1178 4134 
L 603 4134 
L 603 4863 
z
" transform="scale(0.015625)"/>
        <path id="DejaVuSans-63" d="M 3122 3366 
L 3122 2828 
Q 2878 2963 2633 3030 
Q 2388 3097 2138 3097 
Q 1578 3097 1268 2742 
Q 959 2388 959 1747 
Q 959 1106 1268 751 
Q 1578 397 2138 397 
Q 2388 397 2633 464 
Q 2878 531 3122 666 
L 3122 134 
Q 2881 22 2623 -34 
Q 2366 -91 2075 -91 
Q 1284 -91 818 406 
Q 353 903 353 1747 
Q 353 2603 823 3093 
Q 1294 3584 2113 3584 
Q 2378 3584 2631 3529 
Q 2884 3475 3122 3366 
z
" transform="scale(0.015625)"/>
        <path id="DejaVuSans-79" d="M 2059 -325 
Q 1816 -950 1584 -1140 
Q 1353 -1331 966 -1331 
L 506 -1331 
L 506 -850 
L 844 -850 
Q 1081 -850 1212 -737 
Q 1344 -625 1503 -206 
L 1606 56 
L 191 3500 
L 800 3500 
L 1894 763 
L 2988 3500 
L 3597 3500 
L 2059 -325 
z
" transform="scale(0.015625)"/>
       </defs>
       <use xlink:href="#DejaVuSans-43"/>
       <use xlink:href="#DejaVuSans-68" x="69.824219"/>
       <use xlink:href="#DejaVuSans-6f" x="133.203125"/>
       <use xlink:href="#DejaVuSans-6c" x="194.384766"/>
       <use xlink:href="#DejaVuSans-61" x="222.167969"/>
       <use xlink:href="#DejaVuSans-6e" x="283.447266"/>
       <use xlink:href="#DejaVuSans-67" x="346.826172"/>
       <use xlink:href="#DejaVuSans-69" x="410.302734"/>
       <use xlink:href="#DejaVuSans-6f" x="438.085938"/>
       <use xlink:href="#DejaVuSans-63" x="499.267578"/>
       <use xlink:href="#DejaVuSans-79" x="554.248047"/>
       <use xlink:href="#DejaVuSans-74" x="613.427734"/>
       <use xlink:href="#DejaVuSans-65" x="652.636719"/>
       <use xlink:href="#DejaVuSans-73" x="714.160156"/>
      </g>
     </g>
    </g>
    <g id="xtick_6">
     <g id="text_6">
      <!-- Hepatocytes -->
      <g transform="translate(111.166693 186.706589) rotate(-90) scale(0.0833 -0.0833)">
       <defs>
        <path id="DejaVuSans-70" d="M 1159 525 
L 1159 -1331 
L 581 -1331 
L 581 3500 
L 1159 3500 
L 1159 2969 
Q 1341 3281 1617 3432 
Q 1894 3584 2278 3584 
Q 2916 3584 3314 3078 
Q 3713 2572 3713 1747 
Q 3713 922 3314 415 
Q 2916 -91 2278 -91 
Q 1894 -91 1617 61 
Q 1341 213 1159 525 
z
M 3116 1747 
Q 3116 2381 2855 2742 
Q 2594 3103 2138 3103 
Q 1681 3103 1420 2742 
Q 1159 2381 1159 1747 
Q 1159 1113 1420 752 
Q 1681 391 2138 391 
Q 2594 391 2855 752 
Q 3116 1113 3116 1747 
z
" transform="scale(0.015625)"/>
       </defs>
       <use xlink:href="#DejaVuSans-48"/>
       <use xlink:href="#DejaVuSans-65" x="75.195312"/>
       <use xlink:href="#DejaVuSans-70" x="136.71875"/>
       <use xlink:href="#DejaVuSans-61" x="200.195312"/>
       <use xlink:href="#DejaVuSans-74" x="261.474609"/>
       <use xlink:href="#DejaVuSans-6f" x="300.683594"/>
       <use xlink:href="#DejaVuSans-63" x="361.865234"/>
       <use xlink:href="#DejaVuSans-79" x="416.845703"/>
       <use xlink:href="#DejaVuSans-74" x="476.025391"/>
       <use xlink:href="#DejaVuSans-65" x="515.234375"/>
       <use xlink:href="#DejaVuSans-73" x="576.757812"/>
      </g>
     </g>
    </g>
    <g id="xtick_7">
     <g id="text_7">
      <!-- Neutrophil -->
      <g transform="translate(128.253775 177.751839) rotate(-90) scale(0.0833 -0.0833)">
       <defs>
        <path id="DejaVuSans-4e" d="M 628 4666 
L 1478 4666 
L 3547 763 
L 3547 4666 
L 4159 4666 
L 4159 0 
L 3309 0 
L 1241 3903 
L 1241 0 
L 628 0 
L 628 4666 
z
" transform="scale(0.015625)"/>
        <path id="DejaVuSans-72" d="M 2631 2963 
Q 2534 3019 2420 3045 
Q 2306 3072 2169 3072 
Q 1681 3072 1420 2755 
Q 1159 2438 1159 1844 
L 1159 0 
L 581 0 
L 581 3500 
L 1159 3500 
L 1159 2956 
Q 1341 3275 1631 3429 
Q 1922 3584 2338 3584 
Q 2397 3584 2469 3576 
Q 2541 3569 2628 3553 
L 2631 2963 
z
" transform="scale(0.015625)"/>
       </defs>
       <use xlink:href="#DejaVuSans-4e"/>
       <use xlink:href="#DejaVuSans-65" x="74.804688"/>
       <use xlink:href="#DejaVuSans-75" x="136.328125"/>
       <use xlink:href="#DejaVuSans-74" x="199.707031"/>
       <use xlink:href="#DejaVuSans-72" x="238.916016"/>
       <use xlink:href="#DejaVuSans-6f" x="277.779297"/>
       <use xlink:href="#DejaVuSans-70" x="338.960938"/>
       <use xlink:href="#DejaVuSans-68" x="402.4375"/>
       <use xlink:href="#DejaVuSans-69" x="465.816406"/>
       <use xlink:href="#DejaVuSans-6c" x="493.599609"/>
      </g>
     </g>
    </g>
    <g id="xtick_8">
     <g id="text_8">
      <!-- Mono-Mac -->
      <g transform="translate(145.340856 177.013853) rotate(-90) scale(0.0833 -0.0833)">
       <defs>
        <path id="DejaVuSans-4d" d="M 628 4666 
L 1569 4666 
L 2759 1491 
L 3956 4666 
L 4897 4666 
L 4897 0 
L 4281 0 
L 4281 4097 
L 3078 897 
L 2444 897 
L 1241 4097 
L 1241 0 
L 628 0 
L 628 4666 
z
" transform="scale(0.015625)"/>
        <path id="DejaVuSans-2d" d="M 313 2009 
L 1997 2009 
L 1997 1497 
L 313 1497 
L 313 2009 
z
" transform="scale(0.015625)"/>
       </defs>
       <use xlink:href="#DejaVuSans-4d"/>
       <use xlink:href="#DejaVuSans-6f" x="86.279297"/>
       <use xlink:href="#DejaVuSans-6e" x="147.460938"/>
       <use xlink:href="#DejaVuSans-6f" x="210.839844"/>
       <use xlink:href="#DejaVuSans-2d" x="273.896484"/>
       <use xlink:href="#DejaVuSans-4d" x="309.980469"/>
       <use xlink:href="#DejaVuSans-61" x="396.259766"/>
       <use xlink:href="#DejaVuSans-63" x="457.539062"/>
      </g>
     </g>
    </g>
    <g id="xtick_9">
     <g id="text_9">
      <!-- Macrophage (MHCII high) -->
      <g transform="translate(162.427937 239.750467) rotate(-90) scale(0.0833 -0.0833)">
       <defs>
        <path id="DejaVuSans-20" transform="scale(0.015625)"/>
        <path id="DejaVuSans-28" d="M 1984 4856 
Q 1566 4138 1362 3434 
Q 1159 2731 1159 2009 
Q 1159 1288 1364 580 
Q 1569 -128 1984 -844 
L 1484 -844 
Q 1016 -109 783 600 
Q 550 1309 550 2009 
Q 550 2706 781 3412 
Q 1013 4119 1484 4856 
L 1984 4856 
z
" transform="scale(0.015625)"/>
        <path id="DejaVuSans-49" d="M 628 4666 
L 1259 4666 
L 1259 0 
L 628 0 
L 628 4666 
z
" transform="scale(0.015625)"/>
        <path id="DejaVuSans-29" d="M 513 4856 
L 1013 4856 
Q 1481 4119 1714 3412 
Q 1947 2706 1947 2009 
Q 1947 1309 1714 600 
Q 1481 -109 1013 -844 
L 513 -844 
Q 928 -128 1133 580 
Q 1338 1288 1338 2009 
Q 1338 2731 1133 3434 
Q 928 4138 513 4856 
z
" transform="scale(0.015625)"/>
       </defs>
       <use xlink:href="#DejaVuSans-4d"/>
       <use xlink:href="#DejaVuSans-61" x="86.279297"/>
       <use xlink:href="#DejaVuSans-63" x="147.558594"/>
       <use xlink:href="#DejaVuSans-72" x="202.539062"/>
       <use xlink:href="#DejaVuSans-6f" x="241.402344"/>
       <use xlink:href="#DejaVuSans-70" x="302.583984"/>
       <use xlink:href="#DejaVuSans-68" x="366.060547"/>
       <use xlink:href="#DejaVuSans-61" x="429.439453"/>
       <use xlink:href="#DejaVuSans-67" x="490.71875"/>
       <use xlink:href="#DejaVuSans-65" x="554.195312"/>
       <use xlink:href="#DejaVuSans-20" x="615.71875"/>
       <use xlink:href="#DejaVuSans-28" x="647.505859"/>
       <use xlink:href="#DejaVuSans-4d" x="686.519531"/>
       <use xlink:href="#DejaVuSans-48" x="772.798828"/>
       <use xlink:href="#DejaVuSans-43" x="847.994141"/>
       <use xlink:href="#DejaVuSans-49" x="917.818359"/>
       <use xlink:href="#DejaVuSans-49" x="947.310547"/>
       <use xlink:href="#DejaVuSans-20" x="976.802734"/>
       <use xlink:href="#DejaVuSans-68" x="1008.589844"/>
       <use xlink:href="#DejaVuSans-69" x="1071.96875"/>
       <use xlink:href="#DejaVuSans-67" x="1099.751953"/>
       <use xlink:href="#DejaVuSans-68" x="1163.228516"/>
       <use xlink:href="#DejaVuSans-29" x="1226.607422"/>
      </g>
     </g>
    </g>
    <g id="xtick_10">
     <g id="text_10">
      <!-- CDC1 -->
      <g transform="translate(179.515019 157.667428) rotate(-90) scale(0.0833 -0.0833)">
       <defs>
        <path id="DejaVuSans-31" d="M 794 531 
L 1825 531 
L 1825 4091 
L 703 3866 
L 703 4441 
L 1819 4666 
L 2450 4666 
L 2450 531 
L 3481 531 
L 3481 0 
L 794 0 
L 794 531 
z
" transform="scale(0.015625)"/>
       </defs>
       <use xlink:href="#DejaVuSans-43"/>
       <use xlink:href="#DejaVuSans-44" x="69.824219"/>
       <use xlink:href="#DejaVuSans-43" x="146.826172"/>
       <use xlink:href="#DejaVuSans-31" x="216.650391"/>
      </g>
     </g>
    </g>
    <g id="xtick_11">
     <g id="text_11">
      <!-- KC Like -->
      <g transform="translate(196.6021 164.3913) rotate(-90) scale(0.0833 -0.0833)">
       <defs>
        <path id="DejaVuSans-4b" d="M 628 4666 
L 1259 4666 
L 1259 2694 
L 3353 4666 
L 4166 4666 
L 1850 2491 
L 4331 0 
L 3500 0 
L 1259 2247 
L 1259 0 
L 628 0 
L 628 4666 
z
" transform="scale(0.015625)"/>
        <path id="DejaVuSans-6b" d="M 581 4863 
L 1159 4863 
L 1159 1991 
L 2875 3500 
L 3609 3500 
L 1753 1863 
L 3688 0 
L 2938 0 
L 1159 1709 
L 1159 0 
L 581 0 
L 581 4863 
z
" transform="scale(0.015625)"/>
       </defs>
       <use xlink:href="#DejaVuSans-4b"/>
       <use xlink:href="#DejaVuSans-43" x="60.076172"/>
       <use xlink:href="#DejaVuSans-20" x="129.900391"/>
       <use xlink:href="#DejaVuSans-4c" x="161.6875"/>
       <use xlink:href="#DejaVuSans-69" x="217.400391"/>
       <use xlink:href="#DejaVuSans-6b" x="245.183594"/>
       <use xlink:href="#DejaVuSans-65" x="299.46875"/>
      </g>
     </g>
    </g>
    <g id="xtick_12">
     <g id="text_12">
      <!-- Myeloid Erythrocytes (phagocytosis) -->
      <g transform="translate(213.689181 286.032728) rotate(-90) scale(0.0833 -0.0833)">
       <defs>
        <path id="DejaVuSans-64" d="M 2906 2969 
L 2906 4863 
L 3481 4863 
L 3481 0 
L 2906 0 
L 2906 525 
Q 2725 213 2448 61 
Q 2172 -91 1784 -91 
Q 1150 -91 751 415 
Q 353 922 353 1747 
Q 353 2572 751 3078 
Q 1150 3584 1784 3584 
Q 2172 3584 2448 3432 
Q 2725 3281 2906 2969 
z
M 947 1747 
Q 947 1113 1208 752 
Q 1469 391 1925 391 
Q 2381 391 2643 752 
Q 2906 1113 2906 1747 
Q 2906 2381 2643 2742 
Q 2381 3103 1925 3103 
Q 1469 3103 1208 2742 
Q 947 2381 947 1747 
z
" transform="scale(0.015625)"/>
       </defs>
       <use xlink:href="#DejaVuSans-4d"/>
       <use xlink:href="#DejaVuSans-79" x="86.279297"/>
       <use xlink:href="#DejaVuSans-65" x="145.458984"/>
       <use xlink:href="#DejaVuSans-6c" x="206.982422"/>
       <use xlink:href="#DejaVuSans-6f" x="234.765625"/>
       <use xlink:href="#DejaVuSans-69" x="295.947266"/>
       <use xlink:href="#DejaVuSans-64" x="323.730469"/>
       <use xlink:href="#DejaVuSans-20" x="387.207031"/>
       <use xlink:href="#DejaVuSans-45" x="418.994141"/>
       <use xlink:href="#DejaVuSans-72" x="482.177734"/>
       <use xlink:href="#DejaVuSans-79" x="523.291016"/>
       <use xlink:href="#DejaVuSans-74" x="582.470703"/>
       <use xlink:href="#DejaVuSans-68" x="621.679688"/>
       <use xlink:href="#DejaVuSans-72" x="685.058594"/>
       <use xlink:href="#DejaVuSans-6f" x="723.921875"/>
       <use xlink:href="#DejaVuSans-63" x="785.103516"/>
       <use xlink:href="#DejaVuSans-79" x="840.083984"/>
       <use xlink:href="#DejaVuSans-74" x="899.263672"/>
       <use xlink:href="#DejaVuSans-65" x="938.472656"/>
       <use xlink:href="#DejaVuSans-73" x="999.996094"/>
       <use xlink:href="#DejaVuSans-20" x="1052.095703"/>
       <use xlink:href="#DejaVuSans-28" x="1083.882812"/>
       <use xlink:href="#DejaVuSans-70" x="1122.896484"/>
       <use xlink:href="#DejaVuSans-68" x="1186.373047"/>
       <use xlink:href="#DejaVuSans-61" x="1249.751953"/>
       <use xlink:href="#DejaVuSans-67" x="1311.03125"/>
       <use xlink:href="#DejaVuSans-6f" x="1374.507812"/>
       <use xlink:href="#DejaVuSans-63" x="1435.689453"/>
       <use xlink:href="#DejaVuSans-79" x="1490.669922"/>
       <use xlink:href="#DejaVuSans-74" x="1549.849609"/>
       <use xlink:href="#DejaVuSans-6f" x="1589.058594"/>
       <use xlink:href="#DejaVuSans-73" x="1650.240234"/>
       <use xlink:href="#DejaVuSans-69" x="1702.339844"/>
       <use xlink:href="#DejaVuSans-73" x="1730.123047"/>
       <use xlink:href="#DejaVuSans-29" x="1782.222656"/>
      </g>
     </g>
    </g>
    <g id="xtick_13">
     <g id="text_13">
      <!-- Erythrocytes -->
      <g transform="translate(230.776263 187.058011) rotate(-90) scale(0.0833 -0.0833)">
       <use xlink:href="#DejaVuSans-45"/>
       <use xlink:href="#DejaVuSans-72" x="63.183594"/>
       <use xlink:href="#DejaVuSans-79" x="104.296875"/>
       <use xlink:href="#DejaVuSans-74" x="163.476562"/>
       <use xlink:href="#DejaVuSans-68" x="202.685547"/>
       <use xlink:href="#DejaVuSans-72" x="266.064453"/>
       <use xlink:href="#DejaVuSans-6f" x="304.927734"/>
       <use xlink:href="#DejaVuSans-63" x="366.109375"/>
       <use xlink:href="#DejaVuSans-79" x="421.089844"/>
       <use xlink:href="#DejaVuSans-74" x="480.269531"/>
       <use xlink:href="#DejaVuSans-65" x="519.478516"/>
       <use xlink:href="#DejaVuSans-73" x="581.001953"/>
      </g>
     </g>
    </g>
    <g id="xtick_14">
     <g id="text_14">
      <!-- Cycling Myeloid -->
      <g transform="translate(247.863344 199.746944) rotate(-90) scale(0.0833 -0.0833)">
       <use xlink:href="#DejaVuSans-43"/>
       <use xlink:href="#DejaVuSans-79" x="69.824219"/>
       <use xlink:href="#DejaVuSans-63" x="129.003906"/>
       <use xlink:href="#DejaVuSans-6c" x="183.984375"/>
       <use xlink:href="#DejaVuSans-69" x="211.767578"/>
       <use xlink:href="#DejaVuSans-6e" x="239.550781"/>
       <use xlink:href="#DejaVuSans-67" x="302.929688"/>
       <use xlink:href="#DejaVuSans-20" x="366.40625"/>
       <use xlink:href="#DejaVuSans-4d" x="398.193359"/>
       <use xlink:href="#DejaVuSans-79" x="484.472656"/>
       <use xlink:href="#DejaVuSans-65" x="543.652344"/>
       <use xlink:href="#DejaVuSans-6c" x="605.175781"/>
       <use xlink:href="#DejaVuSans-6f" x="632.958984"/>
       <use xlink:href="#DejaVuSans-69" x="694.140625"/>
       <use xlink:href="#DejaVuSans-64" x="721.923828"/>
      </g>
     </g>
    </g>
    <g id="xtick_15">
     <g id="text_15">
      <!-- Cycling Plasma -->
      <g transform="translate(264.950425 197.490034) rotate(-90) scale(0.0833 -0.0833)">
       <defs>
        <path id="DejaVuSans-6d" d="M 3328 2828 
Q 3544 3216 3844 3400 
Q 4144 3584 4550 3584 
Q 5097 3584 5394 3201 
Q 5691 2819 5691 2113 
L 5691 0 
L 5113 0 
L 5113 2094 
Q 5113 2597 4934 2840 
Q 4756 3084 4391 3084 
Q 3944 3084 3684 2787 
Q 3425 2491 3425 1978 
L 3425 0 
L 2847 0 
L 2847 2094 
Q 2847 2600 2669 2842 
Q 2491 3084 2119 3084 
Q 1678 3084 1418 2786 
Q 1159 2488 1159 1978 
L 1159 0 
L 581 0 
L 581 3500 
L 1159 3500 
L 1159 2956 
Q 1356 3278 1631 3431 
Q 1906 3584 2284 3584 
Q 2666 3584 2933 3390 
Q 3200 3197 3328 2828 
z
" transform="scale(0.015625)"/>
       </defs>
       <use xlink:href="#DejaVuSans-43"/>
       <use xlink:href="#DejaVuSans-79" x="69.824219"/>
       <use xlink:href="#DejaVuSans-63" x="129.003906"/>
       <use xlink:href="#DejaVuSans-6c" x="183.984375"/>
       <use xlink:href="#DejaVuSans-69" x="211.767578"/>
       <use xlink:href="#DejaVuSans-6e" x="239.550781"/>
       <use xlink:href="#DejaVuSans-67" x="302.929688"/>
       <use xlink:href="#DejaVuSans-20" x="366.40625"/>
       <use xlink:href="#DejaVuSans-50" x="398.193359"/>
       <use xlink:href="#DejaVuSans-6c" x="458.496094"/>
       <use xlink:href="#DejaVuSans-61" x="486.279297"/>
       <use xlink:href="#DejaVuSans-73" x="547.558594"/>
       <use xlink:href="#DejaVuSans-6d" x="599.658203"/>
       <use xlink:href="#DejaVuSans-61" x="697.070312"/>
      </g>
     </g>
    </g>
    <g id="xtick_16">
     <g id="text_16">
      <!-- Plasma cells -->
      <g transform="translate(282.037507 185.640609) rotate(-90) scale(0.0833 -0.0833)">
       <use xlink:href="#DejaVuSans-50"/>
       <use xlink:href="#DejaVuSans-6c" x="60.302734"/>
       <use xlink:href="#DejaVuSans-61" x="88.085938"/>
       <use xlink:href="#DejaVuSans-73" x="149.365234"/>
       <use xlink:href="#DejaVuSans-6d" x="201.464844"/>
       <use xlink:href="#DejaVuSans-61" x="298.876953"/>
       <use xlink:href="#DejaVuSans-20" x="360.15625"/>
       <use xlink:href="#DejaVuSans-63" x="391.943359"/>
       <use xlink:href="#DejaVuSans-65" x="446.923828"/>
       <use xlink:href="#DejaVuSans-6c" x="508.447266"/>
       <use xlink:href="#DejaVuSans-6c" x="536.230469"/>
       <use xlink:href="#DejaVuSans-73" x="564.013672"/>
      </g>
     </g>
    </g>
    <g id="xtick_17">
     <g id="text_17">
      <!-- Mature B-cells -->
      <g transform="translate(299.124588 193.560617) rotate(-90) scale(0.0833 -0.0833)">
       <defs>
        <path id="DejaVuSans-42" d="M 1259 2228 
L 1259 519 
L 2272 519 
Q 2781 519 3026 730 
Q 3272 941 3272 1375 
Q 3272 1813 3026 2020 
Q 2781 2228 2272 2228 
L 1259 2228 
z
M 1259 4147 
L 1259 2741 
L 2194 2741 
Q 2656 2741 2882 2914 
Q 3109 3088 3109 3444 
Q 3109 3797 2882 3972 
Q 2656 4147 2194 4147 
L 1259 4147 
z
M 628 4666 
L 2241 4666 
Q 2963 4666 3353 4366 
Q 3744 4066 3744 3513 
Q 3744 3084 3544 2831 
Q 3344 2578 2956 2516 
Q 3422 2416 3680 2098 
Q 3938 1781 3938 1306 
Q 3938 681 3513 340 
Q 3088 0 2303 0 
L 628 0 
L 628 4666 
z
" transform="scale(0.015625)"/>
       </defs>
       <use xlink:href="#DejaVuSans-4d"/>
       <use xlink:href="#DejaVuSans-61" x="86.279297"/>
       <use xlink:href="#DejaVuSans-74" x="147.558594"/>
       <use xlink:href="#DejaVuSans-75" x="186.767578"/>
       <use xlink:href="#DejaVuSans-72" x="250.146484"/>
       <use xlink:href="#DejaVuSans-65" x="289.009766"/>
       <use xlink:href="#DejaVuSans-20" x="350.533203"/>
       <use xlink:href="#DejaVuSans-42" x="382.320312"/>
       <use xlink:href="#DejaVuSans-2d" x="450.923828"/>
       <use xlink:href="#DejaVuSans-63" x="487.007812"/>
       <use xlink:href="#DejaVuSans-65" x="541.988281"/>
       <use xlink:href="#DejaVuSans-6c" x="603.511719"/>
       <use xlink:href="#DejaVuSans-6c" x="631.294922"/>
       <use xlink:href="#DejaVuSans-73" x="659.078125"/>
      </g>
     </g>
    </g>
    <g id="xtick_18">
     <g id="text_18">
      <!-- CD3+ T-cells -->
      <g transform="translate(316.211669 187.484923) rotate(-90) scale(0.0833 -0.0833)">
       <defs>
        <path id="DejaVuSans-33" d="M 2597 2516 
Q 3050 2419 3304 2112 
Q 3559 1806 3559 1356 
Q 3559 666 3084 287 
Q 2609 -91 1734 -91 
Q 1441 -91 1130 -33 
Q 819 25 488 141 
L 488 750 
Q 750 597 1062 519 
Q 1375 441 1716 441 
Q 2309 441 2620 675 
Q 2931 909 2931 1356 
Q 2931 1769 2642 2001 
Q 2353 2234 1838 2234 
L 1294 2234 
L 1294 2753 
L 1863 2753 
Q 2328 2753 2575 2939 
Q 2822 3125 2822 3475 
Q 2822 3834 2567 4026 
Q 2313 4219 1838 4219 
Q 1578 4219 1281 4162 
Q 984 4106 628 3988 
L 628 4550 
Q 988 4650 1302 4700 
Q 1616 4750 1894 4750 
Q 2613 4750 3031 4423 
Q 3450 4097 3450 3541 
Q 3450 3153 3228 2886 
Q 3006 2619 2597 2516 
z
" transform="scale(0.015625)"/>
        <path id="DejaVuSans-2b" d="M 2944 4013 
L 2944 2272 
L 4684 2272 
L 4684 1741 
L 2944 1741 
L 2944 0 
L 2419 0 
L 2419 1741 
L 678 1741 
L 678 2272 
L 2419 2272 
L 2419 4013 
L 2944 4013 
z
" transform="scale(0.015625)"/>
        <path id="DejaVuSans-54" d="M -19 4666 
L 3928 4666 
L 3928 4134 
L 2272 4134 
L 2272 0 
L 1638 0 
L 1638 4134 
L -19 4134 
L -19 4666 
z
" transform="scale(0.015625)"/>
       </defs>
       <use xlink:href="#DejaVuSans-43"/>
       <use xlink:href="#DejaVuSans-44" x="69.824219"/>
       <use xlink:href="#DejaVuSans-33" x="146.826172"/>
       <use xlink:href="#DejaVuSans-2b" x="210.449219"/>
       <use xlink:href="#DejaVuSans-20" x="294.238281"/>
       <use xlink:href="#DejaVuSans-54" x="326.025391"/>
       <use xlink:href="#DejaVuSans-2d" x="377.984375"/>
       <use xlink:href="#DejaVuSans-63" x="414.068359"/>
       <use xlink:href="#DejaVuSans-65" x="469.048828"/>
       <use xlink:href="#DejaVuSans-6c" x="530.572266"/>
       <use xlink:href="#DejaVuSans-6c" x="558.355469"/>
       <use xlink:href="#DejaVuSans-73" x="586.138672"/>
      </g>
     </g>
    </g>
    <g id="xtick_19">
     <g id="text_19">
      <!-- NK-like cells -->
      <g transform="translate(333.298751 183.74163) rotate(-90) scale(0.0833 -0.0833)">
       <use xlink:href="#DejaVuSans-4e"/>
       <use xlink:href="#DejaVuSans-4b" x="74.804688"/>
       <use xlink:href="#DejaVuSans-2d" x="129.880859"/>
       <use xlink:href="#DejaVuSans-6c" x="165.964844"/>
       <use xlink:href="#DejaVuSans-69" x="193.748047"/>
       <use xlink:href="#DejaVuSans-6b" x="221.53125"/>
       <use xlink:href="#DejaVuSans-65" x="275.816406"/>
       <use xlink:href="#DejaVuSans-20" x="337.339844"/>
       <use xlink:href="#DejaVuSans-63" x="369.126953"/>
       <use xlink:href="#DejaVuSans-65" x="424.107422"/>
       <use xlink:href="#DejaVuSans-6c" x="485.630859"/>
       <use xlink:href="#DejaVuSans-6c" x="513.414062"/>
       <use xlink:href="#DejaVuSans-73" x="541.197266"/>
      </g>
     </g>
    </g>
    <g id="xtick_20">
     <g id="text_20">
      <!-- gd T-cells -->
      <g transform="translate(350.385832 173.550395) rotate(-90) scale(0.0833 -0.0833)">
       <use xlink:href="#DejaVuSans-67"/>
       <use xlink:href="#DejaVuSans-64" x="63.476562"/>
       <use xlink:href="#DejaVuSans-20" x="126.953125"/>
       <use xlink:href="#DejaVuSans-54" x="158.740234"/>
       <use xlink:href="#DejaVuSans-2d" x="210.699219"/>
       <use xlink:href="#DejaVuSans-63" x="246.783203"/>
       <use xlink:href="#DejaVuSans-65" x="301.763672"/>
       <use xlink:href="#DejaVuSans-6c" x="363.287109"/>
       <use xlink:href="#DejaVuSans-6c" x="391.070312"/>
       <use xlink:href="#DejaVuSans-73" x="418.853516"/>
      </g>
     </g>
    </g>
   </g>
   <g id="matplotlib.axis_2">
    <g id="ytick_1"/>
    <g id="ytick_2"/>
    <g id="ytick_3"/>
    <g id="ytick_4"/>
   </g>
   <g id="line2d_1">
    <path d="M 40.519809 121.86 
L 40.519809 102.162133 
L 57.60689 102.162133 
L 57.60689 121.86 
" clip-path="url(#p80345ac50b)" style="fill: none; stroke: #555555; stroke-width: 1.5; stroke-linecap: square"/>
   </g>
   <g id="line2d_2">
    <path d="M 23.432727 121.86 
L 23.432727 57.514783 
L 49.063349 57.514783 
L 49.063349 102.162133 
" clip-path="url(#p80345ac50b)" style="fill: none; stroke: #555555; stroke-width: 1.5; stroke-linecap: square"/>
   </g>
   <g id="line2d_3">
    <path d="M 91.781053 121.86 
L 91.781053 63.486772 
L 108.868134 63.486772 
L 108.868134 121.86 
" clip-path="url(#p80345ac50b)" style="fill: none; stroke: #555555; stroke-width: 1.5; stroke-linecap: square"/>
   </g>
   <g id="line2d_4">
    <path d="M 74.693971 121.86 
L 74.693971 47.656 
L 100.324593 47.656 
L 100.324593 63.486772 
" clip-path="url(#p80345ac50b)" style="fill: none; stroke: #555555; stroke-width: 1.5; stroke-linecap: square"/>
   </g>
   <g id="line2d_5">
    <path d="M 160.129378 121.86 
L 160.129378 113.434947 
L 177.216459 113.434947 
L 177.216459 121.86 
" clip-path="url(#p80345ac50b)" style="fill: none; stroke: #555555; stroke-width: 1.5; stroke-linecap: square"/>
   </g>
   <g id="line2d_6">
    <path d="M 143.042297 121.86 
L 143.042297 93.51656 
L 168.672919 93.51656 
L 168.672919 113.434947 
" clip-path="url(#p80345ac50b)" style="fill: none; stroke: #555555; stroke-width: 1.5; stroke-linecap: square"/>
   </g>
   <g id="line2d_7">
    <path d="M 194.303541 121.86 
L 194.303541 100.236939 
L 211.390622 100.236939 
L 211.390622 121.86 
" clip-path="url(#p80345ac50b)" style="fill: none; stroke: #555555; stroke-width: 1.5; stroke-linecap: square"/>
   </g>
   <g id="line2d_8">
    <path d="M 155.857608 93.51656 
L 155.857608 67.235931 
L 202.847081 67.235931 
L 202.847081 100.236939 
" clip-path="url(#p80345ac50b)" style="fill: none; stroke: #555555; stroke-width: 1.5; stroke-linecap: square"/>
   </g>
   <g id="line2d_9">
    <path d="M 125.955215 121.86 
L 125.955215 45.79592 
L 179.352344 45.79592 
L 179.352344 67.235931 
" clip-path="url(#p80345ac50b)" style="fill: none; stroke: #555555; stroke-width: 1.5; stroke-linecap: square"/>
   </g>
   <g id="line2d_10">
    <path d="M 245.564785 121.86 
L 245.564785 110.845852 
L 262.651866 110.845852 
L 262.651866 121.86 
" clip-path="url(#p80345ac50b)" style="fill: none; stroke: #555555; stroke-width: 1.5; stroke-linecap: square"/>
   </g>
   <g id="line2d_11">
    <path d="M 228.477703 121.86 
L 228.477703 62.042486 
L 254.108325 62.042486 
L 254.108325 110.845852 
" clip-path="url(#p80345ac50b)" style="fill: none; stroke: #555555; stroke-width: 1.5; stroke-linecap: square"/>
   </g>
   <g id="line2d_12">
    <path d="M 279.738947 121.86 
L 279.738947 74.095698 
L 296.826029 74.095698 
L 296.826029 121.86 
" clip-path="url(#p80345ac50b)" style="fill: none; stroke: #555555; stroke-width: 1.5; stroke-linecap: square"/>
   </g>
   <g id="line2d_13">
    <path d="M 331.000191 121.86 
L 331.000191 99.822375 
L 348.087273 99.822375 
L 348.087273 121.86 
" clip-path="url(#p80345ac50b)" style="fill: none; stroke: #555555; stroke-width: 1.5; stroke-linecap: square"/>
   </g>
   <g id="line2d_14">
    <path d="M 313.91311 121.86 
L 313.91311 89.135815 
L 339.543732 89.135815 
L 339.543732 99.822375 
" clip-path="url(#p80345ac50b)" style="fill: none; stroke: #555555; stroke-width: 1.5; stroke-linecap: square"/>
   </g>
   <g id="line2d_15">
    <path d="M 288.282488 74.095698 
L 288.282488 59.788409 
L 326.728421 59.788409 
L 326.728421 89.135815 
" clip-path="url(#p80345ac50b)" style="fill: none; stroke: #555555; stroke-width: 1.5; stroke-linecap: square"/>
   </g>
   <g id="line2d_16">
    <path d="M 241.293014 62.042486 
L 241.293014 49.484462 
L 307.505455 49.484462 
L 307.505455 59.788409 
" clip-path="url(#p80345ac50b)" style="fill: none; stroke: #555555; stroke-width: 1.5; stroke-linecap: square"/>
   </g>
   <g id="line2d_17">
    <path d="M 152.65378 45.79592 
L 152.65378 31.960286 
L 274.399234 31.960286 
L 274.399234 49.484462 
" clip-path="url(#p80345ac50b)" style="fill: none; stroke: #555555; stroke-width: 1.5; stroke-linecap: square"/>
   </g>
   <g id="line2d_18">
    <path d="M 87.509282 47.656 
L 87.509282 20.344126 
L 213.526507 20.344126 
L 213.526507 31.960286 
" clip-path="url(#p80345ac50b)" style="fill: none; stroke: #555555; stroke-width: 1.5; stroke-linecap: square"/>
   </g>
   <g id="line2d_19">
    <path d="M 36.248038 57.514783 
L 36.248038 12.66 
L 150.517895 12.66 
L 150.517895 20.344126 
" clip-path="url(#p80345ac50b)" style="fill: none; stroke: #555555; stroke-width: 1.5; stroke-linecap: square"/>
   </g>
  </g>
 </g>
 <defs>
  <clipPath id="p80345ac50b">
   <rect x="7.2" y="7.2" width="357.12" height="120.12"/>
  </clipPath>
 </defs>
</svg>
