<?xml version="1.0" encoding="utf-8" standalone="no"?>
<!DOCTYPE svg PUBLIC "-//W3C//DTD SVG 1.1//EN"
  "http://www.w3.org/Graphics/SVG/1.1/DTD/svg11.dtd">
<svg xmlns:xlink="http://www.w3.org/1999/xlink" width="460.8pt" height="345.6pt" viewBox="0 0 460.8 345.6" xmlns="http://www.w3.org/2000/svg" version="1.1">
 <metadata>
  <rdf:RDF xmlns:dc="http://purl.org/dc/elements/1.1/" xmlns:cc="http://creativecommons.org/ns#" xmlns:rdf="http://www.w3.org/1999/02/22-rdf-syntax-ns#">
   <cc:Work>
    <dc:type rdf:resource="http://purl.org/dc/dcmitype/StillImage"/>
    <dc:date>2026-03-16T12:47:46.605153</dc:date>
    <dc:format>image/svg+xml</dc:format>
    <dc:creator>
     <cc:Agent>
      <dc:title>Matplotlib v3.8.0, https://matplotlib.org/</dc:title>
     </cc:Agent>
    </dc:creator>
   </cc:Work>
  </rdf:RDF>
 </metadata>
 <defs>
  <style type="text/css">*{stroke-linejoin: round; stroke-linecap: butt}</style>
 </defs>
 <g id="figure_1">
  <g id="patch_1">
   <path d="M 0 345.6 
L 460.8 345.6 
L 460.8 0 
L 0 0 
z
" style="fill: #ffffff"/>
  </g>
  <g id="axes_1">
   <g id="patch_2">
    <path d="M 57.6 307.584 
L 414.72 307.584 
L 414.72 41.472 
L 57.6 41.472 
z
" style="fill: #ffffff"/>
   </g>
   <g id="patch_3">
    <path d="M 73.832727 307.584 
L 77.079273 307.584 
L 77.079273 299.252462 
L 73.832727 299.252462 
z
" clip-path="url(#pc6e27b1bfe)" style="fill: #1f77b4"/>
   </g>
   <g id="patch_4">
    <path d="M 77.079273 307.584 
L 80.325818 307.584 
L 80.325818 293.070999 
L 77.079273 293.070999 
z
" clip-path="url(#pc6e27b1bfe)" style="fill: #1f77b4"/>
   </g>
   <g id="patch_5">
    <path d="M 80.325818 307.584 
L 83.572364 307.584 
L 83.572364 295.489832 
L 80.325818 295.489832 
z
" clip-path="url(#pc6e27b1bfe)" style="fill: #1f77b4"/>
   </g>
   <g id="patch_6">
    <path d="M 83.572364 307.584 
L 86.818909 307.584 
L 86.818909 271.301497 
L 83.572364 271.301497 
z
" clip-path="url(#pc6e27b1bfe)" style="fill: #1f77b4"/>
   </g>
   <g id="patch_7">
    <path d="M 86.818909 307.584 
L 90.065455 307.584 
L 90.065455 266.73259 
L 86.818909 266.73259 
z
" clip-path="url(#pc6e27b1bfe)" style="fill: #1f77b4"/>
   </g>
   <g id="patch_8">
    <path d="M 90.065455 307.584 
L 93.312 307.584 
L 93.312 256.788496 
L 90.065455 256.788496 
z
" clip-path="url(#pc6e27b1bfe)" style="fill: #1f77b4"/>
   </g>
   <g id="patch_9">
    <path d="M 93.312 307.584 
L 96.558545 307.584 
L 96.558545 246.038125 
L 93.312 246.038125 
z
" clip-path="url(#pc6e27b1bfe)" style="fill: #1f77b4"/>
   </g>
   <g id="patch_10">
    <path d="M 96.558545 307.584 
L 99.805091 307.584 
L 99.805091 256.519737 
L 96.558545 256.519737 
z
" clip-path="url(#pc6e27b1bfe)" style="fill: #1f77b4"/>
   </g>
   <g id="patch_11">
    <path d="M 99.805091 307.584 
L 103.051636 307.584 
L 103.051636 256.788496 
L 99.805091 256.788496 
z
" clip-path="url(#pc6e27b1bfe)" style="fill: #1f77b4"/>
   </g>
   <g id="patch_12">
    <path d="M 103.051636 307.584 
L 106.298182 307.584 
L 106.298182 256.788496 
L 103.051636 256.788496 
z
" clip-path="url(#pc6e27b1bfe)" style="fill: #1f77b4"/>
   </g>
   <g id="patch_13">
    <path d="M 106.298182 307.584 
L 109.544727 307.584 
L 109.544727 253.563385 
L 106.298182 253.563385 
z
" clip-path="url(#pc6e27b1bfe)" style="fill: #1f77b4"/>
   </g>
   <g id="patch_14">
    <path d="M 109.544727 307.584 
L 112.791273 307.584 
L 112.791273 250.069514 
L 109.544727 250.069514 
z
" clip-path="url(#pc6e27b1bfe)" style="fill: #1f77b4"/>
   </g>
   <g id="patch_15">
    <path d="M 112.791273 307.584 
L 116.037818 307.584 
L 116.037818 251.68207 
L 112.791273 251.68207 
z
" clip-path="url(#pc6e27b1bfe)" style="fill: #1f77b4"/>
   </g>
   <g id="patch_16">
    <path d="M 116.037818 307.584 
L 119.284364 307.584 
L 119.284364 253.832144 
L 116.037818 253.832144 
z
" clip-path="url(#pc6e27b1bfe)" style="fill: #1f77b4"/>
   </g>
   <g id="patch_17">
    <path d="M 119.284364 307.584 
L 122.530909 307.584 
L 122.530909 258.938571 
L 119.284364 258.938571 
z
" clip-path="url(#pc6e27b1bfe)" style="fill: #1f77b4"/>
   </g>
   <g id="patch_18">
    <path d="M 122.530909 307.584 
L 125.777455 307.584 
L 125.777455 261.088645 
L 122.530909 261.088645 
z
" clip-path="url(#pc6e27b1bfe)" style="fill: #1f77b4"/>
   </g>
   <g id="patch_19">
    <path d="M 125.777455 307.584 
L 129.024 307.584 
L 129.024 262.163682 
L 125.777455 262.163682 
z
" clip-path="url(#pc6e27b1bfe)" style="fill: #1f77b4"/>
   </g>
   <g id="patch_20">
    <path d="M 129.024 307.584 
L 132.270545 307.584 
L 132.270545 261.626163 
L 129.024 261.626163 
z
" clip-path="url(#pc6e27b1bfe)" style="fill: #1f77b4"/>
   </g>
   <g id="patch_21">
    <path d="M 132.270545 307.584 
L 135.517091 307.584 
L 135.517091 265.388793 
L 132.270545 265.388793 
z
" clip-path="url(#pc6e27b1bfe)" style="fill: #1f77b4"/>
   </g>
   <g id="patch_22">
    <path d="M 135.517091 307.584 
L 138.763636 307.584 
L 138.763636 258.938571 
L 135.517091 258.938571 
z
" clip-path="url(#pc6e27b1bfe)" style="fill: #1f77b4"/>
   </g>
   <g id="patch_23">
    <path d="M 138.763636 307.584 
L 142.010182 307.584 
L 142.010182 264.582515 
L 138.763636 264.582515 
z
" clip-path="url(#pc6e27b1bfe)" style="fill: #1f77b4"/>
   </g>
   <g id="patch_24">
    <path d="M 142.010182 307.584 
L 145.256727 307.584 
L 145.256727 271.301497 
L 142.010182 271.301497 
z
" clip-path="url(#pc6e27b1bfe)" style="fill: #1f77b4"/>
   </g>
   <g id="patch_25">
    <path d="M 145.256727 307.584 
L 148.503273 307.584 
L 148.503273 264.313756 
L 145.256727 264.313756 
z
" clip-path="url(#pc6e27b1bfe)" style="fill: #1f77b4"/>
   </g>
   <g id="patch_26">
    <path d="M 148.503273 307.584 
L 151.749818 307.584 
L 151.749818 269.957701 
L 148.503273 269.957701 
z
" clip-path="url(#pc6e27b1bfe)" style="fill: #1f77b4"/>
   </g>
   <g id="patch_27">
    <path d="M 151.749818 307.584 
L 154.996364 307.584 
L 154.996364 275.601646 
L 151.749818 275.601646 
z
" clip-path="url(#pc6e27b1bfe)" style="fill: #1f77b4"/>
   </g>
   <g id="patch_28">
    <path d="M 154.996364 307.584 
L 158.242909 307.584 
L 158.242909 277.214201 
L 154.996364 277.214201 
z
" clip-path="url(#pc6e27b1bfe)" style="fill: #1f77b4"/>
   </g>
   <g id="patch_29">
    <path d="M 158.242909 307.584 
L 161.489455 307.584 
L 161.489455 271.839016 
L 158.242909 271.839016 
z
" clip-path="url(#pc6e27b1bfe)" style="fill: #1f77b4"/>
   </g>
   <g id="patch_30">
    <path d="M 161.489455 307.584 
L 164.736 307.584 
L 164.736 271.570257 
L 161.489455 271.570257 
z
" clip-path="url(#pc6e27b1bfe)" style="fill: #1f77b4"/>
   </g>
   <g id="patch_31">
    <path d="M 164.736 307.584 
L 167.982545 307.584 
L 167.982545 278.020479 
L 164.736 278.020479 
z
" clip-path="url(#pc6e27b1bfe)" style="fill: #1f77b4"/>
   </g>
   <g id="patch_32">
    <path d="M 167.982545 307.584 
L 171.229091 307.584 
L 171.229091 265.657552 
L 167.982545 265.657552 
z
" clip-path="url(#pc6e27b1bfe)" style="fill: #1f77b4"/>
   </g>
   <g id="patch_33">
    <path d="M 171.229091 307.584 
L 174.475636 307.584 
L 174.475636 275.332887 
L 171.229091 275.332887 
z
" clip-path="url(#pc6e27b1bfe)" style="fill: #1f77b4"/>
   </g>
   <g id="patch_34">
    <path d="M 174.475636 307.584 
L 177.722182 307.584 
L 177.722182 279.901794 
L 174.475636 279.901794 
z
" clip-path="url(#pc6e27b1bfe)" style="fill: #1f77b4"/>
   </g>
   <g id="patch_35">
    <path d="M 177.722182 307.584 
L 180.968727 307.584 
L 180.968727 269.957701 
L 177.722182 269.957701 
z
" clip-path="url(#pc6e27b1bfe)" style="fill: #1f77b4"/>
   </g>
   <g id="patch_36">
    <path d="M 180.968727 307.584 
L 184.215273 307.584 
L 184.215273 272.914053 
L 180.968727 272.914053 
z
" clip-path="url(#pc6e27b1bfe)" style="fill: #1f77b4"/>
   </g>
   <g id="patch_37">
    <path d="M 184.215273 307.584 
L 187.461818 307.584 
L 187.461818 277.214201 
L 184.215273 277.214201 
z
" clip-path="url(#pc6e27b1bfe)" style="fill: #1f77b4"/>
   </g>
   <g id="patch_38">
    <path d="M 187.461818 307.584 
L 190.708364 307.584 
L 190.708364 275.870405 
L 187.461818 275.870405 
z
" clip-path="url(#pc6e27b1bfe)" style="fill: #1f77b4"/>
   </g>
   <g id="patch_39">
    <path d="M 190.708364 307.584 
L 193.954909 307.584 
L 193.954909 276.945442 
L 190.708364 276.945442 
z
" clip-path="url(#pc6e27b1bfe)" style="fill: #1f77b4"/>
   </g>
   <g id="patch_40">
    <path d="M 193.954909 307.584 
L 197.201455 307.584 
L 197.201455 273.98909 
L 193.954909 273.98909 
z
" clip-path="url(#pc6e27b1bfe)" style="fill: #1f77b4"/>
   </g>
   <g id="patch_41">
    <path d="M 197.201455 307.584 
L 200.448 307.584 
L 200.448 273.451572 
L 197.201455 273.451572 
z
" clip-path="url(#pc6e27b1bfe)" style="fill: #1f77b4"/>
   </g>
   <g id="patch_42">
    <path d="M 200.448 307.584 
L 203.694545 307.584 
L 203.694545 272.376534 
L 200.448 272.376534 
z
" clip-path="url(#pc6e27b1bfe)" style="fill: #1f77b4"/>
   </g>
   <g id="patch_43">
    <path d="M 203.694545 307.584 
L 206.941091 307.584 
L 206.941091 275.601646 
L 203.694545 275.601646 
z
" clip-path="url(#pc6e27b1bfe)" style="fill: #1f77b4"/>
   </g>
   <g id="patch_44">
    <path d="M 206.941091 307.584 
L 210.187636 307.584 
L 210.187636 274.257849 
L 206.941091 274.257849 
z
" clip-path="url(#pc6e27b1bfe)" style="fill: #1f77b4"/>
   </g>
   <g id="patch_45">
    <path d="M 210.187636 307.584 
L 213.434182 307.584 
L 213.434182 266.195071 
L 210.187636 266.195071 
z
" clip-path="url(#pc6e27b1bfe)" style="fill: #1f77b4"/>
   </g>
   <g id="patch_46">
    <path d="M 213.434182 307.584 
L 216.680727 307.584 
L 216.680727 271.839016 
L 213.434182 271.839016 
z
" clip-path="url(#pc6e27b1bfe)" style="fill: #1f77b4"/>
   </g>
   <g id="patch_47">
    <path d="M 216.680727 307.584 
L 219.927273 307.584 
L 219.927273 274.795368 
L 216.680727 274.795368 
z
" clip-path="url(#pc6e27b1bfe)" style="fill: #1f77b4"/>
   </g>
   <g id="patch_48">
    <path d="M 219.927273 307.584 
L 223.173818 307.584 
L 223.173818 268.882664 
L 219.927273 268.882664 
z
" clip-path="url(#pc6e27b1bfe)" style="fill: #1f77b4"/>
   </g>
   <g id="patch_49">
    <path d="M 223.173818 307.584 
L 226.420364 307.584 
L 226.420364 276.407924 
L 223.173818 276.407924 
z
" clip-path="url(#pc6e27b1bfe)" style="fill: #1f77b4"/>
   </g>
   <g id="patch_50">
    <path d="M 226.420364 307.584 
L 229.666909 307.584 
L 229.666909 275.601646 
L 226.420364 275.601646 
z
" clip-path="url(#pc6e27b1bfe)" style="fill: #1f77b4"/>
   </g>
   <g id="patch_51">
    <path d="M 229.666909 307.584 
L 232.913455 307.584 
L 232.913455 261.626163 
L 229.666909 261.626163 
z
" clip-path="url(#pc6e27b1bfe)" style="fill: #1f77b4"/>
   </g>
   <g id="patch_52">
    <path d="M 232.913455 307.584 
L 236.16 307.584 
L 236.16 268.345145 
L 232.913455 268.345145 
z
" clip-path="url(#pc6e27b1bfe)" style="fill: #1f77b4"/>
   </g>
   <g id="patch_53">
    <path d="M 236.16 307.584 
L 239.406545 307.584 
L 239.406545 273.182812 
L 236.16 273.182812 
z
" clip-path="url(#pc6e27b1bfe)" style="fill: #1f77b4"/>
   </g>
   <g id="patch_54">
    <path d="M 239.406545 307.584 
L 242.653091 307.584 
L 242.653091 269.420182 
L 239.406545 269.420182 
z
" clip-path="url(#pc6e27b1bfe)" style="fill: #1f77b4"/>
   </g>
   <g id="patch_55">
    <path d="M 242.653091 307.584 
L 245.899636 307.584 
L 245.899636 271.301497 
L 242.653091 271.301497 
z
" clip-path="url(#pc6e27b1bfe)" style="fill: #1f77b4"/>
   </g>
   <g id="patch_56">
    <path d="M 245.899636 307.584 
L 249.146182 307.584 
L 249.146182 270.763979 
L 245.899636 270.763979 
z
" clip-path="url(#pc6e27b1bfe)" style="fill: #1f77b4"/>
   </g>
   <g id="patch_57">
    <path d="M 249.146182 307.584 
L 252.392727 307.584 
L 252.392727 267.001349 
L 249.146182 267.001349 
z
" clip-path="url(#pc6e27b1bfe)" style="fill: #1f77b4"/>
   </g>
   <g id="patch_58">
    <path d="M 252.392727 307.584 
L 255.639273 307.584 
L 255.639273 271.570257 
L 252.392727 271.570257 
z
" clip-path="url(#pc6e27b1bfe)" style="fill: #1f77b4"/>
   </g>
   <g id="patch_59">
    <path d="M 255.639273 307.584 
L 258.885818 307.584 
L 258.885818 271.570257 
L 255.639273 271.570257 
z
" clip-path="url(#pc6e27b1bfe)" style="fill: #1f77b4"/>
   </g>
   <g id="patch_60">
    <path d="M 258.885818 307.584 
L 262.132364 307.584 
L 262.132364 272.107775 
L 258.885818 272.107775 
z
" clip-path="url(#pc6e27b1bfe)" style="fill: #1f77b4"/>
   </g>
   <g id="patch_61">
    <path d="M 262.132364 307.584 
L 265.378909 307.584 
L 265.378909 253.563385 
L 262.132364 253.563385 
z
" clip-path="url(#pc6e27b1bfe)" style="fill: #1f77b4"/>
   </g>
   <g id="patch_62">
    <path d="M 265.378909 307.584 
L 268.625455 307.584 
L 268.625455 265.926312 
L 265.378909 265.926312 
z
" clip-path="url(#pc6e27b1bfe)" style="fill: #1f77b4"/>
   </g>
   <g id="patch_63">
    <path d="M 268.625455 307.584 
L 271.872 307.584 
L 271.872 268.345145 
L 268.625455 268.345145 
z
" clip-path="url(#pc6e27b1bfe)" style="fill: #1f77b4"/>
   </g>
   <g id="patch_64">
    <path d="M 271.872 307.584 
L 275.118545 307.584 
L 275.118545 257.326015 
L 271.872 257.326015 
z
" clip-path="url(#pc6e27b1bfe)" style="fill: #1f77b4"/>
   </g>
   <g id="patch_65">
    <path d="M 275.118545 307.584 
L 278.365091 307.584 
L 278.365091 269.151423 
L 275.118545 269.151423 
z
" clip-path="url(#pc6e27b1bfe)" style="fill: #1f77b4"/>
   </g>
   <g id="patch_66">
    <path d="M 278.365091 307.584 
L 281.611636 307.584 
L 281.611636 270.49522 
L 278.365091 270.49522 
z
" clip-path="url(#pc6e27b1bfe)" style="fill: #1f77b4"/>
   </g>
   <g id="patch_67">
    <path d="M 281.611636 307.584 
L 284.858182 307.584 
L 284.858182 265.388793 
L 281.611636 265.388793 
z
" clip-path="url(#pc6e27b1bfe)" style="fill: #1f77b4"/>
   </g>
   <g id="patch_68">
    <path d="M 284.858182 307.584 
L 288.104727 307.584 
L 288.104727 264.582515 
L 284.858182 264.582515 
z
" clip-path="url(#pc6e27b1bfe)" style="fill: #1f77b4"/>
   </g>
   <g id="patch_69">
    <path d="M 288.104727 307.584 
L 291.351273 307.584 
L 291.351273 275.064127 
L 288.104727 275.064127 
z
" clip-path="url(#pc6e27b1bfe)" style="fill: #1f77b4"/>
   </g>
   <g id="patch_70">
    <path d="M 291.351273 307.584 
L 294.597818 307.584 
L 294.597818 268.882664 
L 291.351273 268.882664 
z
" clip-path="url(#pc6e27b1bfe)" style="fill: #1f77b4"/>
   </g>
   <g id="patch_71">
    <path d="M 294.597818 307.584 
L 297.844364 307.584 
L 297.844364 268.882664 
L 294.597818 268.882664 
z
" clip-path="url(#pc6e27b1bfe)" style="fill: #1f77b4"/>
   </g>
   <g id="patch_72">
    <path d="M 297.844364 307.584 
L 301.090909 307.584 
L 301.090909 274.795368 
L 297.844364 274.795368 
z
" clip-path="url(#pc6e27b1bfe)" style="fill: #1f77b4"/>
   </g>
   <g id="patch_73">
    <path d="M 301.090909 307.584 
L 304.337455 307.584 
L 304.337455 261.088645 
L 301.090909 261.088645 
z
" clip-path="url(#pc6e27b1bfe)" style="fill: #1f77b4"/>
   </g>
   <g id="patch_74">
    <path d="M 304.337455 307.584 
L 307.584 307.584 
L 307.584 264.313756 
L 304.337455 264.313756 
z
" clip-path="url(#pc6e27b1bfe)" style="fill: #1f77b4"/>
   </g>
   <g id="patch_75">
    <path d="M 307.584 307.584 
L 310.830545 307.584 
L 310.830545 271.032738 
L 307.584 271.032738 
z
" clip-path="url(#pc6e27b1bfe)" style="fill: #1f77b4"/>
   </g>
   <g id="patch_76">
    <path d="M 310.830545 307.584 
L 314.077091 307.584 
L 314.077091 271.570257 
L 310.830545 271.570257 
z
" clip-path="url(#pc6e27b1bfe)" style="fill: #1f77b4"/>
   </g>
   <g id="patch_77">
    <path d="M 314.077091 307.584 
L 317.323636 307.584 
L 317.323636 248.456959 
L 314.077091 248.456959 
z
" clip-path="url(#pc6e27b1bfe)" style="fill: #1f77b4"/>
   </g>
   <g id="patch_78">
    <path d="M 317.323636 307.584 
L 320.570182 307.584 
L 320.570182 267.001349 
L 317.323636 267.001349 
z
" clip-path="url(#pc6e27b1bfe)" style="fill: #1f77b4"/>
   </g>
   <g id="patch_79">
    <path d="M 320.570182 307.584 
L 323.816727 307.584 
L 323.816727 266.46383 
L 320.570182 266.46383 
z
" clip-path="url(#pc6e27b1bfe)" style="fill: #1f77b4"/>
   </g>
   <g id="patch_80">
    <path d="M 323.816727 307.584 
L 327.063273 307.584 
L 327.063273 249.531996 
L 323.816727 249.531996 
z
" clip-path="url(#pc6e27b1bfe)" style="fill: #1f77b4"/>
   </g>
   <g id="patch_81">
    <path d="M 327.063273 307.584 
L 330.309818 307.584 
L 330.309818 269.420182 
L 327.063273 269.420182 
z
" clip-path="url(#pc6e27b1bfe)" style="fill: #1f77b4"/>
   </g>
   <g id="patch_82">
    <path d="M 330.309818 307.584 
L 333.556364 307.584 
L 333.556364 265.657552 
L 330.309818 265.657552 
z
" clip-path="url(#pc6e27b1bfe)" style="fill: #1f77b4"/>
   </g>
   <g id="patch_83">
    <path d="M 333.556364 307.584 
L 336.802909 307.584 
L 336.802909 248.456959 
L 333.556364 248.456959 
z
" clip-path="url(#pc6e27b1bfe)" style="fill: #1f77b4"/>
   </g>
   <g id="patch_84">
    <path d="M 336.802909 307.584 
L 340.049455 307.584 
L 340.049455 260.013608 
L 336.802909 260.013608 
z
" clip-path="url(#pc6e27b1bfe)" style="fill: #1f77b4"/>
   </g>
   <g id="patch_85">
    <path d="M 340.049455 307.584 
L 343.296 307.584 
L 343.296 266.73259 
L 340.049455 266.73259 
z
" clip-path="url(#pc6e27b1bfe)" style="fill: #1f77b4"/>
   </g>
   <g id="patch_86">
    <path d="M 343.296 307.584 
L 346.542545 307.584 
L 346.542545 248.994477 
L 343.296 248.994477 
z
" clip-path="url(#pc6e27b1bfe)" style="fill: #1f77b4"/>
   </g>
   <g id="patch_87">
    <path d="M 346.542545 307.584 
L 349.789091 307.584 
L 349.789091 258.132293 
L 346.542545 258.132293 
z
" clip-path="url(#pc6e27b1bfe)" style="fill: #1f77b4"/>
   </g>
   <g id="patch_88">
    <path d="M 349.789091 307.584 
L 353.035636 307.584 
L 353.035636 273.451572 
L 349.789091 273.451572 
z
" clip-path="url(#pc6e27b1bfe)" style="fill: #1f77b4"/>
   </g>
   <g id="patch_89">
    <path d="M 353.035636 307.584 
L 356.282182 307.584 
L 356.282182 277.482961 
L 353.035636 277.482961 
z
" clip-path="url(#pc6e27b1bfe)" style="fill: #1f77b4"/>
   </g>
   <g id="patch_90">
    <path d="M 356.282182 307.584 
L 359.528727 307.584 
L 359.528727 225.61242 
L 356.282182 225.61242 
z
" clip-path="url(#pc6e27b1bfe)" style="fill: #1f77b4"/>
   </g>
   <g id="patch_91">
    <path d="M 359.528727 307.584 
L 362.775273 307.584 
L 362.775273 264.044997 
L 359.528727 264.044997 
z
" clip-path="url(#pc6e27b1bfe)" style="fill: #1f77b4"/>
   </g>
   <g id="patch_92">
    <path d="M 362.775273 307.584 
L 366.021818 307.584 
L 366.021818 266.195071 
L 362.775273 266.195071 
z
" clip-path="url(#pc6e27b1bfe)" style="fill: #1f77b4"/>
   </g>
   <g id="patch_93">
    <path d="M 366.021818 307.584 
L 369.268364 307.584 
L 369.268364 229.106291 
L 366.021818 229.106291 
z
" clip-path="url(#pc6e27b1bfe)" style="fill: #1f77b4"/>
   </g>
   <g id="patch_94">
    <path d="M 369.268364 307.584 
L 372.514909 307.584 
L 372.514909 262.7012 
L 369.268364 262.7012 
z
" clip-path="url(#pc6e27b1bfe)" style="fill: #1f77b4"/>
   </g>
   <g id="patch_95">
    <path d="M 372.514909 307.584 
L 375.761455 307.584 
L 375.761455 270.49522 
L 372.514909 270.49522 
z
" clip-path="url(#pc6e27b1bfe)" style="fill: #1f77b4"/>
   </g>
   <g id="patch_96">
    <path d="M 375.761455 307.584 
L 379.008 307.584 
L 379.008 223.193586 
L 375.761455 223.193586 
z
" clip-path="url(#pc6e27b1bfe)" style="fill: #1f77b4"/>
   </g>
   <g id="patch_97">
    <path d="M 379.008 307.584 
L 382.254545 307.584 
L 382.254545 258.401052 
L 379.008 258.401052 
z
" clip-path="url(#pc6e27b1bfe)" style="fill: #1f77b4"/>
   </g>
   <g id="patch_98">
    <path d="M 382.254545 307.584 
L 385.501091 307.584 
L 385.501091 271.032738 
L 382.254545 271.032738 
z
" clip-path="url(#pc6e27b1bfe)" style="fill: #1f77b4"/>
   </g>
   <g id="patch_99">
    <path d="M 385.501091 307.584 
L 388.747636 307.584 
L 388.747636 156.810045 
L 385.501091 156.810045 
z
" clip-path="url(#pc6e27b1bfe)" style="fill: #1f77b4"/>
   </g>
   <g id="patch_100">
    <path d="M 388.747636 307.584 
L 391.994182 307.584 
L 391.994182 244.425569 
L 388.747636 244.425569 
z
" clip-path="url(#pc6e27b1bfe)" style="fill: #1f77b4"/>
   </g>
   <g id="patch_101">
    <path d="M 391.994182 307.584 
L 395.240727 307.584 
L 395.240727 264.044997 
L 391.994182 264.044997 
z
" clip-path="url(#pc6e27b1bfe)" style="fill: #1f77b4"/>
   </g>
   <g id="patch_102">
    <path d="M 395.240727 307.584 
L 398.487273 307.584 
L 398.487273 54.144 
L 395.240727 54.144 
z
" clip-path="url(#pc6e27b1bfe)" style="fill: #1f77b4"/>
   </g>
   <g id="matplotlib.axis_1">
    <g id="xtick_1">
     <g id="line2d_1">
      <defs>
       <path id="ma29547c80e" d="M 0 0 
L 0 3.5 
" style="stroke: #000000; stroke-width: 0.8"/>
      </defs>
      <g>
       <use xlink:href="#ma29547c80e" x="73.755301" y="307.584" style="stroke: #000000; stroke-width: 0.8"/>
      </g>
     </g>
     <g id="text_1">
      <!-- 0.0 -->
      <g transform="translate(65.803738 322.182437) scale(0.1 -0.1)">
       <defs>
        <path id="DejaVuSans-30" d="M 2034 4250 
Q 1547 4250 1301 3770 
Q 1056 3291 1056 2328 
Q 1056 1369 1301 889 
Q 1547 409 2034 409 
Q 2525 409 2770 889 
Q 3016 1369 3016 2328 
Q 3016 3291 2770 3770 
Q 2525 4250 2034 4250 
z
M 2034 4750 
Q 2819 4750 3233 4129 
Q 3647 3509 3647 2328 
Q 3647 1150 3233 529 
Q 2819 -91 2034 -91 
Q 1250 -91 836 529 
Q 422 1150 422 2328 
Q 422 3509 836 4129 
Q 1250 4750 2034 4750 
z
" transform="scale(0.015625)"/>
        <path id="DejaVuSans-2e" d="M 684 794 
L 1344 794 
L 1344 0 
L 684 0 
L 684 794 
z
" transform="scale(0.015625)"/>
       </defs>
       <use xlink:href="#DejaVuSans-30"/>
       <use xlink:href="#DejaVuSans-2e" x="63.623047"/>
       <use xlink:href="#DejaVuSans-30" x="95.410156"/>
      </g>
     </g>
    </g>
    <g id="xtick_2">
     <g id="line2d_2">
      <g>
       <use xlink:href="#ma29547c80e" x="138.701695" y="307.584" style="stroke: #000000; stroke-width: 0.8"/>
      </g>
     </g>
     <g id="text_2">
      <!-- 0.2 -->
      <g transform="translate(130.750133 322.182437) scale(0.1 -0.1)">
       <defs>
        <path id="DejaVuSans-32" d="M 1228 531 
L 3431 531 
L 3431 0 
L 469 0 
L 469 531 
Q 828 903 1448 1529 
Q 2069 2156 2228 2338 
Q 2531 2678 2651 2914 
Q 2772 3150 2772 3378 
Q 2772 3750 2511 3984 
Q 2250 4219 1831 4219 
Q 1534 4219 1204 4116 
Q 875 4013 500 3803 
L 500 4441 
Q 881 4594 1212 4672 
Q 1544 4750 1819 4750 
Q 2544 4750 2975 4387 
Q 3406 4025 3406 3419 
Q 3406 3131 3298 2873 
Q 3191 2616 2906 2266 
Q 2828 2175 2409 1742 
Q 1991 1309 1228 531 
z
" transform="scale(0.015625)"/>
       </defs>
       <use xlink:href="#DejaVuSans-30"/>
       <use xlink:href="#DejaVuSans-2e" x="63.623047"/>
       <use xlink:href="#DejaVuSans-32" x="95.410156"/>
      </g>
     </g>
    </g>
    <g id="xtick_3">
     <g id="line2d_3">
      <g>
       <use xlink:href="#ma29547c80e" x="203.64809" y="307.584" style="stroke: #000000; stroke-width: 0.8"/>
      </g>
     </g>
     <g id="text_3">
      <!-- 0.4 -->
      <g transform="translate(195.696527 322.182437) scale(0.1 -0.1)">
       <defs>
        <path id="DejaVuSans-34" d="M 2419 4116 
L 825 1625 
L 2419 1625 
L 2419 4116 
z
M 2253 4666 
L 3047 4666 
L 3047 1625 
L 3713 1625 
L 3713 1100 
L 3047 1100 
L 3047 0 
L 2419 0 
L 2419 1100 
L 313 1100 
L 313 1709 
L 2253 4666 
z
" transform="scale(0.015625)"/>
       </defs>
       <use xlink:href="#DejaVuSans-30"/>
       <use xlink:href="#DejaVuSans-2e" x="63.623047"/>
       <use xlink:href="#DejaVuSans-34" x="95.410156"/>
      </g>
     </g>
    </g>
    <g id="xtick_4">
     <g id="line2d_4">
      <g>
       <use xlink:href="#ma29547c80e" x="268.594484" y="307.584" style="stroke: #000000; stroke-width: 0.8"/>
      </g>
     </g>
     <g id="text_4">
      <!-- 0.6 -->
      <g transform="translate(260.642921 322.182437) scale(0.1 -0.1)">
       <defs>
        <path id="DejaVuSans-36" d="M 2113 2584 
Q 1688 2584 1439 2293 
Q 1191 2003 1191 1497 
Q 1191 994 1439 701 
Q 1688 409 2113 409 
Q 2538 409 2786 701 
Q 3034 994 3034 1497 
Q 3034 2003 2786 2293 
Q 2538 2584 2113 2584 
z
M 3366 4563 
L 3366 3988 
Q 3128 4100 2886 4159 
Q 2644 4219 2406 4219 
Q 1781 4219 1451 3797 
Q 1122 3375 1075 2522 
Q 1259 2794 1537 2939 
Q 1816 3084 2150 3084 
Q 2853 3084 3261 2657 
Q 3669 2231 3669 1497 
Q 3669 778 3244 343 
Q 2819 -91 2113 -91 
Q 1303 -91 875 529 
Q 447 1150 447 2328 
Q 447 3434 972 4092 
Q 1497 4750 2381 4750 
Q 2619 4750 2861 4703 
Q 3103 4656 3366 4563 
z
" transform="scale(0.015625)"/>
       </defs>
       <use xlink:href="#DejaVuSans-30"/>
       <use xlink:href="#DejaVuSans-2e" x="63.623047"/>
       <use xlink:href="#DejaVuSans-36" x="95.410156"/>
      </g>
     </g>
    </g>
    <g id="xtick_5">
     <g id="line2d_5">
      <g>
       <use xlink:href="#ma29547c80e" x="333.540878" y="307.584" style="stroke: #000000; stroke-width: 0.8"/>
      </g>
     </g>
     <g id="text_5">
      <!-- 0.8 -->
      <g transform="translate(325.589316 322.182437) scale(0.1 -0.1)">
       <defs>
        <path id="DejaVuSans-38" d="M 2034 2216 
Q 1584 2216 1326 1975 
Q 1069 1734 1069 1313 
Q 1069 891 1326 650 
Q 1584 409 2034 409 
Q 2484 409 2743 651 
Q 3003 894 3003 1313 
Q 3003 1734 2745 1975 
Q 2488 2216 2034 2216 
z
M 1403 2484 
Q 997 2584 770 2862 
Q 544 3141 544 3541 
Q 544 4100 942 4425 
Q 1341 4750 2034 4750 
Q 2731 4750 3128 4425 
Q 3525 4100 3525 3541 
Q 3525 3141 3298 2862 
Q 3072 2584 2669 2484 
Q 3125 2378 3379 2068 
Q 3634 1759 3634 1313 
Q 3634 634 3220 271 
Q 2806 -91 2034 -91 
Q 1263 -91 848 271 
Q 434 634 434 1313 
Q 434 1759 690 2068 
Q 947 2378 1403 2484 
z
M 1172 3481 
Q 1172 3119 1398 2916 
Q 1625 2713 2034 2713 
Q 2441 2713 2670 2916 
Q 2900 3119 2900 3481 
Q 2900 3844 2670 4047 
Q 2441 4250 2034 4250 
Q 1625 4250 1398 4047 
Q 1172 3844 1172 3481 
z
" transform="scale(0.015625)"/>
       </defs>
       <use xlink:href="#DejaVuSans-30"/>
       <use xlink:href="#DejaVuSans-2e" x="63.623047"/>
       <use xlink:href="#DejaVuSans-38" x="95.410156"/>
      </g>
     </g>
    </g>
    <g id="xtick_6">
     <g id="line2d_6">
      <g>
       <use xlink:href="#ma29547c80e" x="398.487273" y="307.584" style="stroke: #000000; stroke-width: 0.8"/>
      </g>
     </g>
     <g id="text_6">
      <!-- 1.0 -->
      <g transform="translate(390.53571 322.182437) scale(0.1 -0.1)">
       <defs>
        <path id="DejaVuSans-31" d="M 794 531 
L 1825 531 
L 1825 4091 
L 703 3866 
L 703 4441 
L 1819 4666 
L 2450 4666 
L 2450 531 
L 3481 531 
L 3481 0 
L 794 0 
L 794 531 
z
" transform="scale(0.015625)"/>
       </defs>
       <use xlink:href="#DejaVuSans-31"/>
       <use xlink:href="#DejaVuSans-2e" x="63.623047"/>
       <use xlink:href="#DejaVuSans-30" x="95.410156"/>
      </g>
     </g>
    </g>
   </g>
   <g id="matplotlib.axis_2">
    <g id="ytick_1">
     <g id="line2d_7">
      <defs>
       <path id="m1f693cf693" d="M 0 0 
L -3.5 0 
" style="stroke: #000000; stroke-width: 0.8"/>
      </defs>
      <g>
       <use xlink:href="#m1f693cf693" x="57.6" y="307.584" style="stroke: #000000; stroke-width: 0.8"/>
      </g>
     </g>
     <g id="text_7">
      <!-- 0 -->
      <g transform="translate(44.2375 311.383219) scale(0.1 -0.1)">
       <use xlink:href="#DejaVuSans-30"/>
      </g>
     </g>
    </g>
    <g id="ytick_2">
     <g id="line2d_8">
      <g>
       <use xlink:href="#m1f693cf693" x="57.6" y="253.832144" style="stroke: #000000; stroke-width: 0.8"/>
      </g>
     </g>
     <g id="text_8">
      <!-- 200 -->
      <g transform="translate(31.5125 257.631363) scale(0.1 -0.1)">
       <use xlink:href="#DejaVuSans-32"/>
       <use xlink:href="#DejaVuSans-30" x="63.623047"/>
       <use xlink:href="#DejaVuSans-30" x="127.246094"/>
      </g>
     </g>
    </g>
    <g id="ytick_3">
     <g id="line2d_9">
      <g>
       <use xlink:href="#m1f693cf693" x="57.6" y="200.080288" style="stroke: #000000; stroke-width: 0.8"/>
      </g>
     </g>
     <g id="text_9">
      <!-- 400 -->
      <g transform="translate(31.5125 203.879507) scale(0.1 -0.1)">
       <use xlink:href="#DejaVuSans-34"/>
       <use xlink:href="#DejaVuSans-30" x="63.623047"/>
       <use xlink:href="#DejaVuSans-30" x="127.246094"/>
      </g>
     </g>
    </g>
    <g id="ytick_4">
     <g id="line2d_10">
      <g>
       <use xlink:href="#m1f693cf693" x="57.6" y="146.328433" style="stroke: #000000; stroke-width: 0.8"/>
      </g>
     </g>
     <g id="text_10">
      <!-- 600 -->
      <g transform="translate(31.5125 150.127651) scale(0.1 -0.1)">
       <use xlink:href="#DejaVuSans-36"/>
       <use xlink:href="#DejaVuSans-30" x="63.623047"/>
       <use xlink:href="#DejaVuSans-30" x="127.246094"/>
      </g>
     </g>
    </g>
    <g id="ytick_5">
     <g id="line2d_11">
      <g>
       <use xlink:href="#m1f693cf693" x="57.6" y="92.576577" style="stroke: #000000; stroke-width: 0.8"/>
      </g>
     </g>
     <g id="text_11">
      <!-- 800 -->
      <g transform="translate(31.5125 96.375796) scale(0.1 -0.1)">
       <use xlink:href="#DejaVuSans-38"/>
       <use xlink:href="#DejaVuSans-30" x="63.623047"/>
       <use xlink:href="#DejaVuSans-30" x="127.246094"/>
      </g>
     </g>
    </g>
   </g>
   <g id="patch_103">
    <path d="M 57.6 307.584 
L 57.6 41.472 
" style="fill: none; stroke: #000000; stroke-width: 0.8; stroke-linejoin: miter; stroke-linecap: square"/>
   </g>
   <g id="patch_104">
    <path d="M 414.72 307.584 
L 414.72 41.472 
" style="fill: none; stroke: #000000; stroke-width: 0.8; stroke-linejoin: miter; stroke-linecap: square"/>
   </g>
   <g id="patch_105">
    <path d="M 57.6 307.584 
L 414.72 307.584 
" style="fill: none; stroke: #000000; stroke-width: 0.8; stroke-linejoin: miter; stroke-linecap: square"/>
   </g>
   <g id="patch_106">
    <path d="M 57.6 41.472 
L 414.72 41.472 
" style="fill: none; stroke: #000000; stroke-width: 0.8; stroke-linejoin: miter; stroke-linecap: square"/>
   </g>
   <g id="text_12">
    <!-- Non-zero binary scores -->
    <g transform="translate(167.157187 35.472) scale(0.12 -0.12)">
     <defs>
      <path id="DejaVuSans-4e" d="M 628 4666 
L 1478 4666 
L 3547 763 
L 3547 4666 
L 4159 4666 
L 4159 0 
L 3309 0 
L 1241 3903 
L 1241 0 
L 628 0 
L 628 4666 
z
" transform="scale(0.015625)"/>
      <path id="DejaVuSans-6f" d="M 1959 3097 
Q 1497 3097 1228 2736 
Q 959 2375 959 1747 
Q 959 1119 1226 758 
Q 1494 397 1959 397 
Q 2419 397 2687 759 
Q 2956 1122 2956 1747 
Q 2956 2369 2687 2733 
Q 2419 3097 1959 3097 
z
M 1959 3584 
Q 2709 3584 3137 3096 
Q 3566 2609 3566 1747 
Q 3566 888 3137 398 
Q 2709 -91 1959 -91 
Q 1206 -91 779 398 
Q 353 888 353 1747 
Q 353 2609 779 3096 
Q 1206 3584 1959 3584 
z
" transform="scale(0.015625)"/>
      <path id="DejaVuSans-6e" d="M 3513 2113 
L 3513 0 
L 2938 0 
L 2938 2094 
Q 2938 2591 2744 2837 
Q 2550 3084 2163 3084 
Q 1697 3084 1428 2787 
Q 1159 2491 1159 1978 
L 1159 0 
L 581 0 
L 581 3500 
L 1159 3500 
L 1159 2956 
Q 1366 3272 1645 3428 
Q 1925 3584 2291 3584 
Q 2894 3584 3203 3211 
Q 3513 2838 3513 2113 
z
" transform="scale(0.015625)"/>
      <path id="DejaVuSans-2d" d="M 313 2009 
L 1997 2009 
L 1997 1497 
L 313 1497 
L 313 2009 
z
" transform="scale(0.015625)"/>
      <path id="DejaVuSans-7a" d="M 353 3500 
L 3084 3500 
L 3084 2975 
L 922 459 
L 3084 459 
L 3084 0 
L 275 0 
L 275 525 
L 2438 3041 
L 353 3041 
L 353 3500 
z
" transform="scale(0.015625)"/>
      <path id="DejaVuSans-65" d="M 3597 1894 
L 3597 1613 
L 953 1613 
Q 991 1019 1311 708 
Q 1631 397 2203 397 
Q 2534 397 2845 478 
Q 3156 559 3463 722 
L 3463 178 
Q 3153 47 2828 -22 
Q 2503 -91 2169 -91 
Q 1331 -91 842 396 
Q 353 884 353 1716 
Q 353 2575 817 3079 
Q 1281 3584 2069 3584 
Q 2775 3584 3186 3129 
Q 3597 2675 3597 1894 
z
M 3022 2063 
Q 3016 2534 2758 2815 
Q 2500 3097 2075 3097 
Q 1594 3097 1305 2825 
Q 1016 2553 972 2059 
L 3022 2063 
z
" transform="scale(0.015625)"/>
      <path id="DejaVuSans-72" d="M 2631 2963 
Q 2534 3019 2420 3045 
Q 2306 3072 2169 3072 
Q 1681 3072 1420 2755 
Q 1159 2438 1159 1844 
L 1159 0 
L 581 0 
L 581 3500 
L 1159 3500 
L 1159 2956 
Q 1341 3275 1631 3429 
Q 1922 3584 2338 3584 
Q 2397 3584 2469 3576 
Q 2541 3569 2628 3553 
L 2631 2963 
z
" transform="scale(0.015625)"/>
      <path id="DejaVuSans-20" transform="scale(0.015625)"/>
      <path id="DejaVuSans-62" d="M 3116 1747 
Q 3116 2381 2855 2742 
Q 2594 3103 2138 3103 
Q 1681 3103 1420 2742 
Q 1159 2381 1159 1747 
Q 1159 1113 1420 752 
Q 1681 391 2138 391 
Q 2594 391 2855 752 
Q 3116 1113 3116 1747 
z
M 1159 2969 
Q 1341 3281 1617 3432 
Q 1894 3584 2278 3584 
Q 2916 3584 3314 3078 
Q 3713 2572 3713 1747 
Q 3713 922 3314 415 
Q 2916 -91 2278 -91 
Q 1894 -91 1617 61 
Q 1341 213 1159 525 
L 1159 0 
L 581 0 
L 581 4863 
L 1159 4863 
L 1159 2969 
z
" transform="scale(0.015625)"/>
      <path id="DejaVuSans-69" d="M 603 3500 
L 1178 3500 
L 1178 0 
L 603 0 
L 603 3500 
z
M 603 4863 
L 1178 4863 
L 1178 4134 
L 603 4134 
L 603 4863 
z
" transform="scale(0.015625)"/>
      <path id="DejaVuSans-61" d="M 2194 1759 
Q 1497 1759 1228 1600 
Q 959 1441 959 1056 
Q 959 750 1161 570 
Q 1363 391 1709 391 
Q 2188 391 2477 730 
Q 2766 1069 2766 1631 
L 2766 1759 
L 2194 1759 
z
M 3341 1997 
L 3341 0 
L 2766 0 
L 2766 531 
Q 2569 213 2275 61 
Q 1981 -91 1556 -91 
Q 1019 -91 701 211 
Q 384 513 384 1019 
Q 384 1609 779 1909 
Q 1175 2209 1959 2209 
L 2766 2209 
L 2766 2266 
Q 2766 2663 2505 2880 
Q 2244 3097 1772 3097 
Q 1472 3097 1187 3025 
Q 903 2953 641 2809 
L 641 3341 
Q 956 3463 1253 3523 
Q 1550 3584 1831 3584 
Q 2591 3584 2966 3190 
Q 3341 2797 3341 1997 
z
" transform="scale(0.015625)"/>
      <path id="DejaVuSans-79" d="M 2059 -325 
Q 1816 -950 1584 -1140 
Q 1353 -1331 966 -1331 
L 506 -1331 
L 506 -850 
L 844 -850 
Q 1081 -850 1212 -737 
Q 1344 -625 1503 -206 
L 1606 56 
L 191 3500 
L 800 3500 
L 1894 763 
L 2988 3500 
L 3597 3500 
L 2059 -325 
z
" transform="scale(0.015625)"/>
      <path id="DejaVuSans-73" d="M 2834 3397 
L 2834 2853 
Q 2591 2978 2328 3040 
Q 2066 3103 1784 3103 
Q 1356 3103 1142 2972 
Q 928 2841 928 2578 
Q 928 2378 1081 2264 
Q 1234 2150 1697 2047 
L 1894 2003 
Q 2506 1872 2764 1633 
Q 3022 1394 3022 966 
Q 3022 478 2636 193 
Q 2250 -91 1575 -91 
Q 1294 -91 989 -36 
Q 684 19 347 128 
L 347 722 
Q 666 556 975 473 
Q 1284 391 1588 391 
Q 1994 391 2212 530 
Q 2431 669 2431 922 
Q 2431 1156 2273 1281 
Q 2116 1406 1581 1522 
L 1381 1569 
Q 847 1681 609 1914 
Q 372 2147 372 2553 
Q 372 3047 722 3315 
Q 1072 3584 1716 3584 
Q 2034 3584 2315 3537 
Q 2597 3491 2834 3397 
z
" transform="scale(0.015625)"/>
      <path id="DejaVuSans-63" d="M 3122 3366 
L 3122 2828 
Q 2878 2963 2633 3030 
Q 2388 3097 2138 3097 
Q 1578 3097 1268 2742 
Q 959 2388 959 1747 
Q 959 1106 1268 751 
Q 1578 397 2138 397 
Q 2388 397 2633 464 
Q 2878 531 3122 666 
L 3122 134 
Q 2881 22 2623 -34 
Q 2366 -91 2075 -91 
Q 1284 -91 818 406 
Q 353 903 353 1747 
Q 353 2603 823 3093 
Q 1294 3584 2113 3584 
Q 2378 3584 2631 3529 
Q 2884 3475 3122 3366 
z
" transform="scale(0.015625)"/>
     </defs>
     <use xlink:href="#DejaVuSans-4e"/>
     <use xlink:href="#DejaVuSans-6f" x="74.804688"/>
     <use xlink:href="#DejaVuSans-6e" x="135.986328"/>
     <use xlink:href="#DejaVuSans-2d" x="199.365234"/>
     <use xlink:href="#DejaVuSans-7a" x="235.449219"/>
     <use xlink:href="#DejaVuSans-65" x="287.939453"/>
     <use xlink:href="#DejaVuSans-72" x="349.462891"/>
     <use xlink:href="#DejaVuSans-6f" x="388.326172"/>
     <use xlink:href="#DejaVuSans-20" x="449.507812"/>
     <use xlink:href="#DejaVuSans-62" x="481.294922"/>
     <use xlink:href="#DejaVuSans-69" x="544.771484"/>
     <use xlink:href="#DejaVuSans-6e" x="572.554688"/>
     <use xlink:href="#DejaVuSans-61" x="635.933594"/>
     <use xlink:href="#DejaVuSans-72" x="697.212891"/>
     <use xlink:href="#DejaVuSans-79" x="738.326172"/>
     <use xlink:href="#DejaVuSans-20" x="797.505859"/>
     <use xlink:href="#DejaVuSans-73" x="829.292969"/>
     <use xlink:href="#DejaVuSans-63" x="881.392578"/>
     <use xlink:href="#DejaVuSans-6f" x="936.373047"/>
     <use xlink:href="#DejaVuSans-72" x="997.554688"/>
     <use xlink:href="#DejaVuSans-65" x="1036.417969"/>
     <use xlink:href="#DejaVuSans-73" x="1097.941406"/>
    </g>
   </g>
  </g>
 </g>
 <defs>
  <clipPath id="pc6e27b1bfe">
   <rect x="57.6" y="41.472" width="357.12" height="266.112"/>
  </clipPath>
 </defs>
</svg>
