<svg class="main-svg" xmlns="http://www.w3.org/2000/svg" xmlns:xlink="http://www.w3.org/1999/xlink" width="1800" height="900" style="" viewBox="0 0 1800 900"><rect x="0" y="0" width="1800" height="900" style="fill: rgb(255, 255, 255); fill-opacity: 1;"/><defs id="defs-32d97c"><g class="clips"><clipPath id="clip32d97cxyplot" class="plotclip"><rect width="1445.72" height="632"/></clipPath><clipPath id="clip32d97cxy2plot" class="plotclip"><rect width="1445.72" height="632"/></clipPath><clipPath class="axesclip" id="clip32d97cx"><rect x="80" y="0" width="1445.72" height="900"/></clipPath><clipPath class="axesclip" id="clip32d97cy"><rect x="0" y="80" width="1800" height="632"/></clipPath><clipPath class="axesclip" id="clip32d97cxy"><rect x="80" y="80" width="1445.72" height="632"/></clipPath><clipPath class="axesclip" id="clip32d97cy2"><rect x="0" y="80" width="1800" height="632"/></clipPath><clipPath class="axesclip" id="clip32d97cxy2"><rect x="80" y="80" width="1445.72" height="632"/></clipPath></g><g class="gradients"/><g class="patterns"/></defs><g class="bglayer"><rect class="bg" x="80" y="80" width="1445.72" height="632" style="fill: rgb(229, 236, 246); fill-opacity: 1; stroke-width: 0;"/></g><g class="layer-below"><g class="imagelayer"/><g class="shapelayer"/></g><g class="cartesianlayer"><g class="subplot xy"><g class="layer-subplot"><g class="shapelayer"/><g class="imagelayer"/></g><g class="minor-gridlayer"><g class="x"/><g class="y"/><g class="y2"/></g><g class="gridlayer"><g class="x"/><g class="y"><path class="ygrid crisp" transform="translate(0,617.03)" d="M80,0h1445.72" style="stroke: rgb(255, 255, 255); stroke-opacity: 1; stroke-width: 1px;"/><path class="ygrid crisp" transform="translate(0,522.06)" d="M80,0h1445.72" style="stroke: rgb(255, 255, 255); stroke-opacity: 1; stroke-width: 1px;"/><path class="ygrid crisp" transform="translate(0,427.1)" d="M80,0h1445.72" style="stroke: rgb(255, 255, 255); stroke-opacity: 1; stroke-width: 1px;"/><path class="ygrid crisp" transform="translate(0,332.13)" d="M80,0h1445.72" style="stroke: rgb(255, 255, 255); stroke-opacity: 1; stroke-width: 1px;"/><path class="ygrid crisp" transform="translate(0,237.16)" d="M80,0h1445.72" style="stroke: rgb(255, 255, 255); stroke-opacity: 1; stroke-width: 1px;"/><path class="ygrid crisp" transform="translate(0,142.19)" d="M80,0h1445.72" style="stroke: rgb(255, 255, 255); stroke-opacity: 1; stroke-width: 1px;"/></g><g class="y2"><path class="y2grid crisp" transform="translate(0,696.87)" d="M80,0h1445.72" style="stroke: rgb(255, 255, 255); stroke-opacity: 1; stroke-width: 1px;"/><path class="y2grid crisp" transform="translate(0,631.61)" d="M80,0h1445.72" style="stroke: rgb(255, 255, 255); stroke-opacity: 1; stroke-width: 1px;"/><path class="y2grid crisp" transform="translate(0,566.36)" d="M80,0h1445.72" style="stroke: rgb(255, 255, 255); stroke-opacity: 1; stroke-width: 1px;"/><path class="y2grid crisp" transform="translate(0,501.11)" d="M80,0h1445.72" style="stroke: rgb(255, 255, 255); stroke-opacity: 1; stroke-width: 1px;"/><path class="y2grid crisp" transform="translate(0,370.6)" d="M80,0h1445.72" style="stroke: rgb(255, 255, 255); stroke-opacity: 1; stroke-width: 1px;"/><path class="y2grid crisp" transform="translate(0,305.34000000000003)" d="M80,0h1445.72" style="stroke: rgb(255, 255, 255); stroke-opacity: 1; stroke-width: 1px;"/><path class="y2grid crisp" transform="translate(0,240.09)" d="M80,0h1445.72" style="stroke: rgb(255, 255, 255); stroke-opacity: 1; stroke-width: 1px;"/><path class="y2grid crisp" transform="translate(0,174.82999999999998)" d="M80,0h1445.72" style="stroke: rgb(255, 255, 255); stroke-opacity: 1; stroke-width: 1px;"/><path class="y2grid crisp" transform="translate(0,109.58)" d="M80,0h1445.72" style="stroke: rgb(255, 255, 255); stroke-opacity: 1; stroke-width: 1px;"/></g></g><g class="zerolinelayer"><path class="yzl zl crisp" transform="translate(0,712)" d="M80,0h1445.72" style="stroke: rgb(255, 255, 255); stroke-opacity: 1; stroke-width: 2px;"/><path class="y2zl zl crisp" transform="translate(0,435.85)" d="M80,0h1445.72" style="stroke: rgb(255, 255, 255); stroke-opacity: 1; stroke-width: 2px;"/></g><g class="layer-between"><g class="shapelayer"/><g class="imagelayer"/></g><path class="xlines-below"/><path class="ylines-below"/><g class="overlines-below"><path class="xy2-x"/><path class="xy2-y"/></g><g class="xaxislayer-below"/><g class="yaxislayer-below"/><g class="overaxes-below"><g class="xy2-x"/><g class="xy2-y"/></g><g class="plot" transform="translate(80,80)" clip-path="url(#clip32d97cxyplot)"><g class="barlayer mlayer"><g class="trace bars" style="opacity: 1;"><g class="points"><g class="point"><path d="M58.79,632V31.6H93.28V632Z" style="vector-effect: none; opacity: 1; stroke-width: 0.5px; fill: rgb(70, 130, 180); fill-opacity: 1; stroke: rgb(229, 236, 246); stroke-opacity: 1;"/></g><g class="point"><path d="M101.91,632V45.72H136.41V632Z" style="vector-effect: none; opacity: 1; stroke-width: 0.5px; fill: rgb(70, 130, 180); fill-opacity: 1; stroke: rgb(229, 236, 246); stroke-opacity: 1;"/></g><g class="point"><path d="M145.03,632V58.01H179.53V632Z" style="vector-effect: none; opacity: 1; stroke-width: 0.5px; fill: rgb(70, 130, 180); fill-opacity: 1; stroke: rgb(229, 236, 246); stroke-opacity: 1;"/></g><g class="point"><path d="M188.15,632V67.82H222.65V632Z" style="vector-effect: none; opacity: 1; stroke-width: 0.5px; fill: rgb(70, 130, 180); fill-opacity: 1; stroke: rgb(229, 236, 246); stroke-opacity: 1;"/></g><g class="point"><path d="M231.27,632V69.79H265.77V632Z" style="vector-effect: none; opacity: 1; stroke-width: 0.5px; fill: rgb(70, 130, 180); fill-opacity: 1; stroke: rgb(229, 236, 246); stroke-opacity: 1;"/></g><g class="point"><path d="M274.4,632V100.57H308.89V632Z" style="vector-effect: none; opacity: 1; stroke-width: 0.5px; fill: rgb(70, 130, 180); fill-opacity: 1; stroke: rgb(229, 236, 246); stroke-opacity: 1;"/></g><g class="point"><path d="M317.52,632V106.28H352.01V632Z" style="vector-effect: none; opacity: 1; stroke-width: 0.5px; fill: rgb(70, 130, 180); fill-opacity: 1; stroke: rgb(229, 236, 246); stroke-opacity: 1;"/></g><g class="point"><path d="M360.64,632V159.87H395.14V632Z" style="vector-effect: none; opacity: 1; stroke-width: 0.5px; fill: rgb(70, 130, 180); fill-opacity: 1; stroke: rgb(229, 236, 246); stroke-opacity: 1;"/></g><g class="point"><path d="M403.76,632V161.23H438.26V632Z" style="vector-effect: none; opacity: 1; stroke-width: 0.5px; fill: rgb(70, 130, 180); fill-opacity: 1; stroke: rgb(229, 236, 246); stroke-opacity: 1;"/></g><g class="point"><path d="M446.88,632V167.79H481.38V632Z" style="vector-effect: none; opacity: 1; stroke-width: 0.5px; fill: rgb(70, 130, 180); fill-opacity: 1; stroke: rgb(229, 236, 246); stroke-opacity: 1;"/></g><g class="point"><path d="M490,632V172.36H524.5V632Z" style="vector-effect: none; opacity: 1; stroke-width: 0.5px; fill: rgb(70, 130, 180); fill-opacity: 1; stroke: rgb(229, 236, 246); stroke-opacity: 1;"/></g><g class="point"><path d="M533.12,632V223.79H567.62V632Z" style="vector-effect: none; opacity: 1; stroke-width: 0.5px; fill: rgb(70, 130, 180); fill-opacity: 1; stroke: rgb(229, 236, 246); stroke-opacity: 1;"/></g><g class="point"><path d="M576.25,632V248.89H610.74V632Z" style="vector-effect: none; opacity: 1; stroke-width: 0.5px; fill: rgb(70, 130, 180); fill-opacity: 1; stroke: rgb(229, 236, 246); stroke-opacity: 1;"/></g><g class="point"><path d="M619.37,632V251.31H653.87V632Z" style="vector-effect: none; opacity: 1; stroke-width: 0.5px; fill: rgb(70, 130, 180); fill-opacity: 1; stroke: rgb(229, 236, 246); stroke-opacity: 1;"/></g><g class="point"><path d="M662.49,632V259.01H696.99V632Z" style="vector-effect: none; opacity: 1; stroke-width: 0.5px; fill: rgb(70, 130, 180); fill-opacity: 1; stroke: rgb(229, 236, 246); stroke-opacity: 1;"/></g><g class="point"><path d="M705.61,632V279.23H740.11V632Z" style="vector-effect: none; opacity: 1; stroke-width: 0.5px; fill: rgb(70, 130, 180); fill-opacity: 1; stroke: rgb(229, 236, 246); stroke-opacity: 1;"/></g><g class="point"><path d="M748.73,632V291.56H783.23V632Z" style="vector-effect: none; opacity: 1; stroke-width: 0.5px; fill: rgb(70, 130, 180); fill-opacity: 1; stroke: rgb(229, 236, 246); stroke-opacity: 1;"/></g><g class="point"><path d="M791.85,632V309.3H826.35V632Z" style="vector-effect: none; opacity: 1; stroke-width: 0.5px; fill: rgb(70, 130, 180); fill-opacity: 1; stroke: rgb(229, 236, 246); stroke-opacity: 1;"/></g><g class="point"><path d="M834.98,632V314.41H869.47V632Z" style="vector-effect: none; opacity: 1; stroke-width: 0.5px; fill: rgb(70, 130, 180); fill-opacity: 1; stroke: rgb(229, 236, 246); stroke-opacity: 1;"/></g><g class="point"><path d="M878.1,632V321.75H912.6V632Z" style="vector-effect: none; opacity: 1; stroke-width: 0.5px; fill: rgb(70, 130, 180); fill-opacity: 1; stroke: rgb(229, 236, 246); stroke-opacity: 1;"/></g><g class="point"><path d="M921.22,632V323.69H955.72V632Z" style="vector-effect: none; opacity: 1; stroke-width: 0.5px; fill: rgb(70, 130, 180); fill-opacity: 1; stroke: rgb(229, 236, 246); stroke-opacity: 1;"/></g><g class="point"><path d="M964.34,632V338.73H998.84V632Z" style="vector-effect: none; opacity: 1; stroke-width: 0.5px; fill: rgb(70, 130, 180); fill-opacity: 1; stroke: rgb(229, 236, 246); stroke-opacity: 1;"/></g><g class="point"><path d="M1007.46,632V348.74H1041.96V632Z" style="vector-effect: none; opacity: 1; stroke-width: 0.5px; fill: rgb(70, 130, 180); fill-opacity: 1; stroke: rgb(229, 236, 246); stroke-opacity: 1;"/></g><g class="point"><path d="M1050.58,632V363.25H1085.08V632Z" style="vector-effect: none; opacity: 1; stroke-width: 0.5px; fill: rgb(70, 130, 180); fill-opacity: 1; stroke: rgb(229, 236, 246); stroke-opacity: 1;"/></g><g class="point"><path d="M1093.71,632V377.03H1128.2V632Z" style="vector-effect: none; opacity: 1; stroke-width: 0.5px; fill: rgb(70, 130, 180); fill-opacity: 1; stroke: rgb(229, 236, 246); stroke-opacity: 1;"/></g><g class="point"><path d="M1136.83,632V384.89H1171.32V632Z" style="vector-effect: none; opacity: 1; stroke-width: 0.5px; fill: rgb(70, 130, 180); fill-opacity: 1; stroke: rgb(229, 236, 246); stroke-opacity: 1;"/></g><g class="point"><path d="M1179.95,632V414.31H1214.45V632Z" style="vector-effect: none; opacity: 1; stroke-width: 0.5px; fill: rgb(70, 130, 180); fill-opacity: 1; stroke: rgb(229, 236, 246); stroke-opacity: 1;"/></g><g class="point"><path d="M1223.07,632V427.02H1257.57V632Z" style="vector-effect: none; opacity: 1; stroke-width: 0.5px; fill: rgb(70, 130, 180); fill-opacity: 1; stroke: rgb(229, 236, 246); stroke-opacity: 1;"/></g><g class="point"><path d="M1266.19,632V442.06H1300.69V632Z" style="vector-effect: none; opacity: 1; stroke-width: 0.5px; fill: rgb(70, 130, 180); fill-opacity: 1; stroke: rgb(229, 236, 246); stroke-opacity: 1;"/></g><g class="point"><path d="M1309.31,632V471.49H1343.81V632Z" style="vector-effect: none; opacity: 1; stroke-width: 0.5px; fill: rgb(70, 130, 180); fill-opacity: 1; stroke: rgb(229, 236, 246); stroke-opacity: 1;"/></g><g class="point"><path d="M1352.44,632V484.2H1386.93V632Z" style="vector-effect: none; opacity: 1; stroke-width: 0.5px; fill: rgb(70, 130, 180); fill-opacity: 1; stroke: rgb(229, 236, 246); stroke-opacity: 1;"/></g></g></g></g></g><g class="overplot"><g class="xy2" transform="translate(80,80)" clip-path="url(#clip32d97cxy2plot)"><g class="scatterlayer mlayer"><g class="trace scatter trace1802f4" style="stroke-miterlimit: 2; opacity: 1;"><g class="fills"/><g class="errorbars"/><g class="lines"><path class="js-line" d="M76.04,436.89L119.16,224.12L162.28,365.66L205.4,185.35L248.52,280.06L291.64,345.24L334.77,168.23L377.89,395.72L421.01,426.6L464.13,592L507.25,268.46L550.37,452.2L593.5,473.38L636.62,317.85L679.74,64.53L722.86,271.94L765.98,542.43L809.1,201.53L852.22,296.22L895.35,417.99L938.47,339.55L981.59,346.55L1024.71,439.93L1067.83,384.44L1110.95,478.48L1154.08,416.33L1197.2,171.76L1240.32,514.08L1283.44,35.57L1326.56,438.86L1369.68,346.66" style="vector-effect: none; fill: none; stroke: rgb(0, 0, 255); stroke-opacity: 1; stroke-width: 2px; opacity: 1;"/></g><g class="points"><path class="point" transform="translate(76.04,436.89)" d="M3,0A3,3 0 1,1 0,-3A3,3 0 0,1 3,0Z" style="opacity: 1; stroke-width: 0px; fill: rgb(0, 0, 255); fill-opacity: 1;"/><path class="point" transform="translate(119.16,224.12)" d="M3,0A3,3 0 1,1 0,-3A3,3 0 0,1 3,0Z" style="opacity: 1; stroke-width: 0px; fill: rgb(0, 0, 255); fill-opacity: 1;"/><path class="point" transform="translate(162.28,365.66)" d="M3,0A3,3 0 1,1 0,-3A3,3 0 0,1 3,0Z" style="opacity: 1; stroke-width: 0px; fill: rgb(0, 0, 255); fill-opacity: 1;"/><path class="point" transform="translate(205.4,185.35)" d="M3,0A3,3 0 1,1 0,-3A3,3 0 0,1 3,0Z" style="opacity: 1; stroke-width: 0px; fill: rgb(0, 0, 255); fill-opacity: 1;"/><path class="point" transform="translate(248.52,280.06)" d="M3,0A3,3 0 1,1 0,-3A3,3 0 0,1 3,0Z" style="opacity: 1; stroke-width: 0px; fill: rgb(0, 0, 255); fill-opacity: 1;"/><path class="point" transform="translate(291.64,345.24)" d="M3,0A3,3 0 1,1 0,-3A3,3 0 0,1 3,0Z" style="opacity: 1; stroke-width: 0px; fill: rgb(0, 0, 255); fill-opacity: 1;"/><path class="point" transform="translate(334.77,168.23)" d="M3,0A3,3 0 1,1 0,-3A3,3 0 0,1 3,0Z" style="opacity: 1; stroke-width: 0px; fill: rgb(0, 0, 255); fill-opacity: 1;"/><path class="point" transform="translate(377.89,395.72)" d="M3,0A3,3 0 1,1 0,-3A3,3 0 0,1 3,0Z" style="opacity: 1; stroke-width: 0px; fill: rgb(0, 0, 255); fill-opacity: 1;"/><path class="point" transform="translate(421.01,426.6)" d="M3,0A3,3 0 1,1 0,-3A3,3 0 0,1 3,0Z" style="opacity: 1; stroke-width: 0px; fill: rgb(0, 0, 255); fill-opacity: 1;"/><path class="point" transform="translate(464.13,592)" d="M3,0A3,3 0 1,1 0,-3A3,3 0 0,1 3,0Z" style="opacity: 1; stroke-width: 0px; fill: rgb(0, 0, 255); fill-opacity: 1;"/><path class="point" transform="translate(507.25,268.46)" d="M3,0A3,3 0 1,1 0,-3A3,3 0 0,1 3,0Z" style="opacity: 1; stroke-width: 0px; fill: rgb(0, 0, 255); fill-opacity: 1;"/><path class="point" transform="translate(550.37,452.2)" d="M3,0A3,3 0 1,1 0,-3A3,3 0 0,1 3,0Z" style="opacity: 1; stroke-width: 0px; fill: rgb(0, 0, 255); fill-opacity: 1;"/><path class="point" transform="translate(593.5,473.38)" d="M3,0A3,3 0 1,1 0,-3A3,3 0 0,1 3,0Z" style="opacity: 1; stroke-width: 0px; fill: rgb(0, 0, 255); fill-opacity: 1;"/><path class="point" transform="translate(636.62,317.85)" d="M3,0A3,3 0 1,1 0,-3A3,3 0 0,1 3,0Z" style="opacity: 1; stroke-width: 0px; fill: rgb(0, 0, 255); fill-opacity: 1;"/><path class="point" transform="translate(679.74,64.53)" d="M3,0A3,3 0 1,1 0,-3A3,3 0 0,1 3,0Z" style="opacity: 1; stroke-width: 0px; fill: rgb(0, 0, 255); fill-opacity: 1;"/><path class="point" transform="translate(722.86,271.94)" d="M3,0A3,3 0 1,1 0,-3A3,3 0 0,1 3,0Z" style="opacity: 1; stroke-width: 0px; fill: rgb(0, 0, 255); fill-opacity: 1;"/><path class="point" transform="translate(765.98,542.43)" d="M3,0A3,3 0 1,1 0,-3A3,3 0 0,1 3,0Z" style="opacity: 1; stroke-width: 0px; fill: rgb(0, 0, 255); fill-opacity: 1;"/><path class="point" transform="translate(809.1,201.53)" d="M3,0A3,3 0 1,1 0,-3A3,3 0 0,1 3,0Z" style="opacity: 1; stroke-width: 0px; fill: rgb(0, 0, 255); fill-opacity: 1;"/><path class="point" transform="translate(852.22,296.22)" d="M3,0A3,3 0 1,1 0,-3A3,3 0 0,1 3,0Z" style="opacity: 1; stroke-width: 0px; fill: rgb(0, 0, 255); fill-opacity: 1;"/><path class="point" transform="translate(895.35,417.99)" d="M3,0A3,3 0 1,1 0,-3A3,3 0 0,1 3,0Z" style="opacity: 1; stroke-width: 0px; fill: rgb(0, 0, 255); fill-opacity: 1;"/><path class="point" transform="translate(938.47,339.55)" d="M3,0A3,3 0 1,1 0,-3A3,3 0 0,1 3,0Z" style="opacity: 1; stroke-width: 0px; fill: rgb(0, 0, 255); fill-opacity: 1;"/><path class="point" transform="translate(981.59,346.55)" d="M3,0A3,3 0 1,1 0,-3A3,3 0 0,1 3,0Z" style="opacity: 1; stroke-width: 0px; fill: rgb(0, 0, 255); fill-opacity: 1;"/><path class="point" transform="translate(1024.71,439.93)" d="M3,0A3,3 0 1,1 0,-3A3,3 0 0,1 3,0Z" style="opacity: 1; stroke-width: 0px; fill: rgb(0, 0, 255); fill-opacity: 1;"/><path class="point" transform="translate(1067.83,384.44)" d="M3,0A3,3 0 1,1 0,-3A3,3 0 0,1 3,0Z" style="opacity: 1; stroke-width: 0px; fill: rgb(0, 0, 255); fill-opacity: 1;"/><path class="point" transform="translate(1110.95,478.48)" d="M3,0A3,3 0 1,1 0,-3A3,3 0 0,1 3,0Z" style="opacity: 1; stroke-width: 0px; fill: rgb(0, 0, 255); fill-opacity: 1;"/><path class="point" transform="translate(1154.08,416.33)" d="M3,0A3,3 0 1,1 0,-3A3,3 0 0,1 3,0Z" style="opacity: 1; stroke-width: 0px; fill: rgb(0, 0, 255); fill-opacity: 1;"/><path class="point" transform="translate(1197.2,171.76)" d="M3,0A3,3 0 1,1 0,-3A3,3 0 0,1 3,0Z" style="opacity: 1; stroke-width: 0px; fill: rgb(0, 0, 255); fill-opacity: 1;"/><path class="point" transform="translate(1240.32,514.08)" d="M3,0A3,3 0 1,1 0,-3A3,3 0 0,1 3,0Z" style="opacity: 1; stroke-width: 0px; fill: rgb(0, 0, 255); fill-opacity: 1;"/><path class="point" transform="translate(1283.44,35.57)" d="M3,0A3,3 0 1,1 0,-3A3,3 0 0,1 3,0Z" style="opacity: 1; stroke-width: 0px; fill: rgb(0, 0, 255); fill-opacity: 1;"/><path class="point" transform="translate(1326.56,438.86)" d="M3,0A3,3 0 1,1 0,-3A3,3 0 0,1 3,0Z" style="opacity: 1; stroke-width: 0px; fill: rgb(0, 0, 255); fill-opacity: 1;"/><path class="point" transform="translate(1369.68,346.66)" d="M3,0A3,3 0 1,1 0,-3A3,3 0 0,1 3,0Z" style="opacity: 1; stroke-width: 0px; fill: rgb(0, 0, 255); fill-opacity: 1;"/></g><g class="text"/></g><g class="trace scatter traced3a0ea" style="stroke-miterlimit: 2; opacity: 1;"><g class="fills"/><g class="errorbars"/><g class="lines"><path class="js-line" d="M76.04,425.84L119.16,187.59L162.28,310.18L205.4,150.43L248.52,259.15L291.64,269.24L334.77,120.21L377.89,372.51L421.01,403.98L464.13,596.65L507.25,242.1L550.37,445.43L593.5,453.19L636.62,299.15L679.74,55.35L722.86,195.57L765.98,545.68L809.1,167.29L852.22,298.16L895.35,392.28L938.47,230.79L981.59,276.08L1024.71,470.17L1067.83,384.74L1110.95,502.62L1154.08,413.92L1197.2,124.03L1240.32,487.21L1283.44,35.35L1326.56,396.4L1369.68,346.75" style="vector-effect: none; fill: none; stroke: rgb(255, 0, 0); stroke-opacity: 1; stroke-width: 2px; opacity: 1;"/></g><g class="points"><path class="point" transform="translate(76.04,425.84)" d="M3,0A3,3 0 1,1 0,-3A3,3 0 0,1 3,0Z" style="opacity: 1; stroke-width: 0px; fill: rgb(255, 0, 0); fill-opacity: 1;"/><path class="point" transform="translate(119.16,187.59)" d="M3,0A3,3 0 1,1 0,-3A3,3 0 0,1 3,0Z" style="opacity: 1; stroke-width: 0px; fill: rgb(255, 0, 0); fill-opacity: 1;"/><path class="point" transform="translate(162.28,310.18)" d="M3,0A3,3 0 1,1 0,-3A3,3 0 0,1 3,0Z" style="opacity: 1; stroke-width: 0px; fill: rgb(255, 0, 0); fill-opacity: 1;"/><path class="point" transform="translate(205.4,150.43)" d="M3,0A3,3 0 1,1 0,-3A3,3 0 0,1 3,0Z" style="opacity: 1; stroke-width: 0px; fill: rgb(255, 0, 0); fill-opacity: 1;"/><path class="point" transform="translate(248.52,259.15)" d="M3,0A3,3 0 1,1 0,-3A3,3 0 0,1 3,0Z" style="opacity: 1; stroke-width: 0px; fill: rgb(255, 0, 0); fill-opacity: 1;"/><path class="point" transform="translate(291.64,269.24)" d="M3,0A3,3 0 1,1 0,-3A3,3 0 0,1 3,0Z" style="opacity: 1; stroke-width: 0px; fill: rgb(255, 0, 0); fill-opacity: 1;"/><path class="point" transform="translate(334.77,120.21)" d="M3,0A3,3 0 1,1 0,-3A3,3 0 0,1 3,0Z" style="opacity: 1; stroke-width: 0px; fill: rgb(255, 0, 0); fill-opacity: 1;"/><path class="point" transform="translate(377.89,372.51)" d="M3,0A3,3 0 1,1 0,-3A3,3 0 0,1 3,0Z" style="opacity: 1; stroke-width: 0px; fill: rgb(255, 0, 0); fill-opacity: 1;"/><path class="point" transform="translate(421.01,403.98)" d="M3,0A3,3 0 1,1 0,-3A3,3 0 0,1 3,0Z" style="opacity: 1; stroke-width: 0px; fill: rgb(255, 0, 0); fill-opacity: 1;"/><path class="point" transform="translate(464.13,596.65)" d="M3,0A3,3 0 1,1 0,-3A3,3 0 0,1 3,0Z" style="opacity: 1; stroke-width: 0px; fill: rgb(255, 0, 0); fill-opacity: 1;"/><path class="point" transform="translate(507.25,242.1)" d="M3,0A3,3 0 1,1 0,-3A3,3 0 0,1 3,0Z" style="opacity: 1; stroke-width: 0px; fill: rgb(255, 0, 0); fill-opacity: 1;"/><path class="point" transform="translate(550.37,445.43)" d="M3,0A3,3 0 1,1 0,-3A3,3 0 0,1 3,0Z" style="opacity: 1; stroke-width: 0px; fill: rgb(255, 0, 0); fill-opacity: 1;"/><path class="point" transform="translate(593.5,453.19)" d="M3,0A3,3 0 1,1 0,-3A3,3 0 0,1 3,0Z" style="opacity: 1; stroke-width: 0px; fill: rgb(255, 0, 0); fill-opacity: 1;"/><path class="point" transform="translate(636.62,299.15)" d="M3,0A3,3 0 1,1 0,-3A3,3 0 0,1 3,0Z" style="opacity: 1; stroke-width: 0px; fill: rgb(255, 0, 0); fill-opacity: 1;"/><path class="point" transform="translate(679.74,55.35)" d="M3,0A3,3 0 1,1 0,-3A3,3 0 0,1 3,0Z" style="opacity: 1; stroke-width: 0px; fill: rgb(255, 0, 0); fill-opacity: 1;"/><path class="point" transform="translate(722.86,195.57)" d="M3,0A3,3 0 1,1 0,-3A3,3 0 0,1 3,0Z" style="opacity: 1; stroke-width: 0px; fill: rgb(255, 0, 0); fill-opacity: 1;"/><path class="point" transform="translate(765.98,545.68)" d="M3,0A3,3 0 1,1 0,-3A3,3 0 0,1 3,0Z" style="opacity: 1; stroke-width: 0px; fill: rgb(255, 0, 0); fill-opacity: 1;"/><path class="point" transform="translate(809.1,167.29)" d="M3,0A3,3 0 1,1 0,-3A3,3 0 0,1 3,0Z" style="opacity: 1; stroke-width: 0px; fill: rgb(255, 0, 0); fill-opacity: 1;"/><path class="point" transform="translate(852.22,298.16)" d="M3,0A3,3 0 1,1 0,-3A3,3 0 0,1 3,0Z" style="opacity: 1; stroke-width: 0px; fill: rgb(255, 0, 0); fill-opacity: 1;"/><path class="point" transform="translate(895.35,392.28)" d="M3,0A3,3 0 1,1 0,-3A3,3 0 0,1 3,0Z" style="opacity: 1; stroke-width: 0px; fill: rgb(255, 0, 0); fill-opacity: 1;"/><path class="point" transform="translate(938.47,230.79)" d="M3,0A3,3 0 1,1 0,-3A3,3 0 0,1 3,0Z" style="opacity: 1; stroke-width: 0px; fill: rgb(255, 0, 0); fill-opacity: 1;"/><path class="point" transform="translate(981.59,276.08)" d="M3,0A3,3 0 1,1 0,-3A3,3 0 0,1 3,0Z" style="opacity: 1; stroke-width: 0px; fill: rgb(255, 0, 0); fill-opacity: 1;"/><path class="point" transform="translate(1024.71,470.17)" d="M3,0A3,3 0 1,1 0,-3A3,3 0 0,1 3,0Z" style="opacity: 1; stroke-width: 0px; fill: rgb(255, 0, 0); fill-opacity: 1;"/><path class="point" transform="translate(1067.83,384.74)" d="M3,0A3,3 0 1,1 0,-3A3,3 0 0,1 3,0Z" style="opacity: 1; stroke-width: 0px; fill: rgb(255, 0, 0); fill-opacity: 1;"/><path class="point" transform="translate(1110.95,502.62)" d="M3,0A3,3 0 1,1 0,-3A3,3 0 0,1 3,0Z" style="opacity: 1; stroke-width: 0px; fill: rgb(255, 0, 0); fill-opacity: 1;"/><path class="point" transform="translate(1154.08,413.92)" d="M3,0A3,3 0 1,1 0,-3A3,3 0 0,1 3,0Z" style="opacity: 1; stroke-width: 0px; fill: rgb(255, 0, 0); fill-opacity: 1;"/><path class="point" transform="translate(1197.2,124.03)" d="M3,0A3,3 0 1,1 0,-3A3,3 0 0,1 3,0Z" style="opacity: 1; stroke-width: 0px; fill: rgb(255, 0, 0); fill-opacity: 1;"/><path class="point" transform="translate(1240.32,487.21)" d="M3,0A3,3 0 1,1 0,-3A3,3 0 0,1 3,0Z" style="opacity: 1; stroke-width: 0px; fill: rgb(255, 0, 0); fill-opacity: 1;"/><path class="point" transform="translate(1283.44,35.35)" d="M3,0A3,3 0 1,1 0,-3A3,3 0 0,1 3,0Z" style="opacity: 1; stroke-width: 0px; fill: rgb(255, 0, 0); fill-opacity: 1;"/><path class="point" transform="translate(1326.56,396.4)" d="M3,0A3,3 0 1,1 0,-3A3,3 0 0,1 3,0Z" style="opacity: 1; stroke-width: 0px; fill: rgb(255, 0, 0); fill-opacity: 1;"/><path class="point" transform="translate(1369.68,346.75)" d="M3,0A3,3 0 1,1 0,-3A3,3 0 0,1 3,0Z" style="opacity: 1; stroke-width: 0px; fill: rgb(255, 0, 0); fill-opacity: 1;"/></g><g class="text"/></g></g></g></g><path class="xlines-above crisp" d="M0,0" style="fill: none;"/><path class="ylines-above crisp" d="M0,0" style="fill: none;"/><g class="overlines-above"><path class="xy2-x crisp" d="M0,0" style="fill: none;"/><path class="xy2-y crisp" d="M0,0" style="fill: none;"/></g><g class="xaxislayer-above"><g class="xtick"><text text-anchor="end" x="0" y="723" transform="translate(156.04000000000002,0) rotate(-45,0,718)" style="font-family: 'Open Sans', verdana, arial, sans-serif; font-size: 10px; fill: rgb(42, 63, 95); fill-opacity: 1; white-space: pre; opacity: 1;">FOXJ1 high Ciliated Cells</text></g><g class="xtick"><text text-anchor="end" x="0" y="723" transform="translate(199.16,0) rotate(-45,0,718)" style="font-family: 'Open Sans', verdana, arial, sans-serif; font-size: 10px; fill: rgb(42, 63, 95); fill-opacity: 1; white-space: pre; opacity: 1;">BEST4 high Cilia high Ciliated Cells</text></g><g class="xtick"><text text-anchor="end" x="0" y="723" transform="translate(242.28,0) rotate(-45,0,718)" style="font-family: 'Open Sans', verdana, arial, sans-serif; font-size: 10px; fill: rgb(42, 63, 95); fill-opacity: 1; white-space: pre; opacity: 1;">Cilia high Ciliated Cells</text></g><g class="xtick"><text text-anchor="end" x="0" y="723" transform="translate(285.4,0) rotate(-45,0,718)" style="font-family: 'Open Sans', verdana, arial, sans-serif; font-size: 10px; fill: rgb(42, 63, 95); fill-opacity: 1; white-space: pre; opacity: 1;">Developing Ciliated Cells</text></g><g class="xtick"><text text-anchor="end" x="0" y="723" transform="translate(328.52,0) rotate(-45,0,718)" style="font-family: 'Open Sans', verdana, arial, sans-serif; font-size: 10px; fill: rgb(42, 63, 95); fill-opacity: 1; white-space: pre; opacity: 1;">Basal Cells</text></g><g class="xtick"><text text-anchor="end" x="0" y="723" transform="translate(371.64,0) rotate(-45,0,718)" style="font-family: 'Open Sans', verdana, arial, sans-serif; font-size: 10px; fill: rgb(42, 63, 95); fill-opacity: 1; white-space: pre; opacity: 1;">Early Response FOXJ1 high Ciliated Cells</text></g><g class="xtick"><text text-anchor="end" x="0" y="723" transform="translate(414.77,0) rotate(-45,0,718)" style="font-family: 'Open Sans', verdana, arial, sans-serif; font-size: 10px; fill: rgb(42, 63, 95); fill-opacity: 1; white-space: pre; opacity: 1;">Erythroblasts</text></g><g class="xtick"><text text-anchor="end" x="0" y="723" transform="translate(457.89,0) rotate(-45,0,718)" style="font-family: 'Open Sans', verdana, arial, sans-serif; font-size: 10px; fill: rgb(42, 63, 95); fill-opacity: 1; white-space: pre; opacity: 1;">MUC5AC high Goblet Cells</text></g><g class="xtick"><text text-anchor="end" x="0" y="723" transform="translate(501.01,0) rotate(-45,0,718)" style="font-family: 'Open Sans', verdana, arial, sans-serif; font-size: 10px; fill: rgb(42, 63, 95); fill-opacity: 1; white-space: pre; opacity: 1;">CD8 T Cells</text></g><g class="xtick"><text text-anchor="end" x="0" y="723" transform="translate(544.13,0) rotate(-45,0,718)" style="font-family: 'Open Sans', verdana, arial, sans-serif; font-size: 10px; fill: rgb(42, 63, 95); fill-opacity: 1; white-space: pre; opacity: 1;">CCL5 high Squamous Cells</text></g><g class="xtick"><text text-anchor="end" x="0" y="723" transform="translate(587.25,0) rotate(-45,0,718)" style="font-family: 'Open Sans', verdana, arial, sans-serif; font-size: 10px; fill: rgb(42, 63, 95); fill-opacity: 1; white-space: pre; opacity: 1;">Developing Secretory and Goblet Cells</text></g><g class="xtick"><text text-anchor="end" x="0" y="723" transform="translate(630.37,0) rotate(-45,0,718)" style="font-family: 'Open Sans', verdana, arial, sans-serif; font-size: 10px; fill: rgb(42, 63, 95); fill-opacity: 1; white-space: pre; opacity: 1;">Mitotic Basal Cells</text></g><g class="xtick"><text text-anchor="end" x="0" y="723" transform="translate(673.5,0) rotate(-45,0,718)" style="font-family: 'Open Sans', verdana, arial, sans-serif; font-size: 10px; fill: rgb(42, 63, 95); fill-opacity: 1; white-space: pre; opacity: 1;">SCGB1A1 high Goblet Cells</text></g><g class="xtick"><text text-anchor="end" x="0" y="723" transform="translate(716.62,0) rotate(-45,0,718)" style="font-family: 'Open Sans', verdana, arial, sans-serif; font-size: 10px; fill: rgb(42, 63, 95); fill-opacity: 1; white-space: pre; opacity: 1;">VEGFA high Squamous Cells</text></g><g class="xtick"><text text-anchor="end" x="0" y="723" transform="translate(759.74,0) rotate(-45,0,718)" style="font-family: 'Open Sans', verdana, arial, sans-serif; font-size: 10px; fill: rgb(42, 63, 95); fill-opacity: 1; white-space: pre; opacity: 1;">Ionocytes</text></g><g class="xtick"><text text-anchor="end" x="0" y="723" transform="translate(802.86,0) rotate(-45,0,718)" style="font-family: 'Open Sans', verdana, arial, sans-serif; font-size: 10px; fill: rgb(42, 63, 95); fill-opacity: 1; white-space: pre; opacity: 1;">SPRR2D high Squamous Cells</text></g><g class="xtick"><text text-anchor="end" x="0" y="723" transform="translate(845.98,0) rotate(-45,0,718)" style="font-family: 'Open Sans', verdana, arial, sans-serif; font-size: 10px; fill: rgb(42, 63, 95); fill-opacity: 1; white-space: pre; opacity: 1;">Interferon Responsive Ciliated Cells</text></g><g class="xtick"><text text-anchor="end" x="0" y="723" transform="translate(889.1,0) rotate(-45,0,718)" style="font-family: 'Open Sans', verdana, arial, sans-serif; font-size: 10px; fill: rgb(42, 63, 95); fill-opacity: 1; white-space: pre; opacity: 1;">Early Response T Cells</text></g><g class="xtick"><text text-anchor="end" x="0" y="723" transform="translate(932.22,0) rotate(-45,0,718)" style="font-family: 'Open Sans', verdana, arial, sans-serif; font-size: 10px; fill: rgb(42, 63, 95); fill-opacity: 1; white-space: pre; opacity: 1;">AZGP1 high Goblet Cells</text></g><g class="xtick"><text text-anchor="end" x="0" y="723" transform="translate(975.35,0) rotate(-45,0,718)" style="font-family: 'Open Sans', verdana, arial, sans-serif; font-size: 10px; fill: rgb(42, 63, 95); fill-opacity: 1; white-space: pre; opacity: 1;">AZGP1 SCGB3A1 LTF high Goblet Cells</text></g><g class="xtick"><text text-anchor="end" x="0" y="723" transform="translate(1018.47,0) rotate(-45,0,718)" style="font-family: 'Open Sans', verdana, arial, sans-serif; font-size: 10px; fill: rgb(42, 63, 95); fill-opacity: 1; white-space: pre; opacity: 1;">ITGAX high Macrophages</text></g><g class="xtick"><text text-anchor="end" x="0" y="723" transform="translate(1061.5900000000001,0) rotate(-45,0,718)" style="font-family: 'Open Sans', verdana, arial, sans-serif; font-size: 10px; fill: rgb(42, 63, 95); fill-opacity: 1; white-space: pre; opacity: 1;">Deuterosomal Cells</text></g><g class="xtick"><text text-anchor="end" x="0" y="723" transform="translate(1104.71,0) rotate(-45,0,718)" style="font-family: 'Open Sans', verdana, arial, sans-serif; font-size: 10px; fill: rgb(42, 63, 95); fill-opacity: 1; white-space: pre; opacity: 1;">SERPINB11 high Secretory Cells</text></g><g class="xtick"><text text-anchor="end" x="0" y="723" transform="translate(1147.83,0) rotate(-45,0,718)" style="font-family: 'Open Sans', verdana, arial, sans-serif; font-size: 10px; fill: rgb(42, 63, 95); fill-opacity: 1; white-space: pre; opacity: 1;">KRT24 KRT13 high Secretory Cells</text></g><g class="xtick"><text text-anchor="end" x="0" y="723" transform="translate(1190.95,0) rotate(-45,0,718)" style="font-family: 'Open Sans', verdana, arial, sans-serif; font-size: 10px; fill: rgb(42, 63, 95); fill-opacity: 1; white-space: pre; opacity: 1;">BPIFA1 high Secretory Cells</text></g><g class="xtick"><text text-anchor="end" x="0" y="723" transform="translate(1234.08,0) rotate(-45,0,718)" style="font-family: 'Open Sans', verdana, arial, sans-serif; font-size: 10px; fill: rgb(42, 63, 95); fill-opacity: 1; white-space: pre; opacity: 1;">Early Response Secretory Cells</text></g><g class="xtick"><text text-anchor="end" x="0" y="723" transform="translate(1277.2,0) rotate(-45,0,718)" style="font-family: 'Open Sans', verdana, arial, sans-serif; font-size: 10px; fill: rgb(42, 63, 95); fill-opacity: 1; white-space: pre; opacity: 1;">Dendritic Cells</text></g><g class="xtick"><text text-anchor="end" x="0" y="723" transform="translate(1320.32,0) rotate(-45,0,718)" style="font-family: 'Open Sans', verdana, arial, sans-serif; font-size: 10px; fill: rgb(42, 63, 95); fill-opacity: 1; white-space: pre; opacity: 1;">B Cells</text></g><g class="xtick"><text text-anchor="end" x="0" y="723" transform="translate(1363.44,0) rotate(-45,0,718)" style="font-family: 'Open Sans', verdana, arial, sans-serif; font-size: 10px; fill: rgb(42, 63, 95); fill-opacity: 1; white-space: pre; opacity: 1;">Enteroendocrine Cells</text></g><g class="xtick"><text text-anchor="end" x="0" y="723" transform="translate(1406.56,0) rotate(-45,0,718)" style="font-family: 'Open Sans', verdana, arial, sans-serif; font-size: 10px; fill: rgb(42, 63, 95); fill-opacity: 1; white-space: pre; opacity: 1;">Interferon Responsive Cytotoxic CD8 T Cells</text></g><g class="xtick"><text text-anchor="end" x="0" y="723" transform="translate(1449.68,0) rotate(-45,0,718)" style="font-family: 'Open Sans', verdana, arial, sans-serif; font-size: 10px; fill: rgb(42, 63, 95); fill-opacity: 1; white-space: pre; opacity: 1;">HOPX high Squamous Cells</text></g></g><g class="yaxislayer-above"><g class="ytick"><text text-anchor="end" x="79" y="4.199999999999999" transform="translate(0,712)" style="font-family: 'Open Sans', verdana, arial, sans-serif; font-size: 12px; fill: rgb(42, 63, 95); fill-opacity: 1; white-space: pre; opacity: 1;">0</text></g><g class="ytick"><text text-anchor="end" x="79" y="4.199999999999999" style="font-family: 'Open Sans', verdana, arial, sans-serif; font-size: 12px; fill: rgb(42, 63, 95); fill-opacity: 1; white-space: pre; opacity: 1;" transform="translate(0,617.03)">0.5</text></g><g class="ytick"><text text-anchor="end" x="79" y="4.199999999999999" style="font-family: 'Open Sans', verdana, arial, sans-serif; font-size: 12px; fill: rgb(42, 63, 95); fill-opacity: 1; white-space: pre; opacity: 1;" transform="translate(0,522.06)">1</text></g><g class="ytick"><text text-anchor="end" x="79" y="4.199999999999999" style="font-family: 'Open Sans', verdana, arial, sans-serif; font-size: 12px; fill: rgb(42, 63, 95); fill-opacity: 1; white-space: pre; opacity: 1;" transform="translate(0,427.1)">1.5</text></g><g class="ytick"><text text-anchor="end" x="79" y="4.199999999999999" style="font-family: 'Open Sans', verdana, arial, sans-serif; font-size: 12px; fill: rgb(42, 63, 95); fill-opacity: 1; white-space: pre; opacity: 1;" transform="translate(0,332.13)">2</text></g><g class="ytick"><text text-anchor="end" x="79" y="4.199999999999999" style="font-family: 'Open Sans', verdana, arial, sans-serif; font-size: 12px; fill: rgb(42, 63, 95); fill-opacity: 1; white-space: pre; opacity: 1;" transform="translate(0,237.16)">2.5</text></g><g class="ytick"><text text-anchor="end" x="79" y="4.199999999999999" style="font-family: 'Open Sans', verdana, arial, sans-serif; font-size: 12px; fill: rgb(42, 63, 95); fill-opacity: 1; white-space: pre; opacity: 1;" transform="translate(0,142.19)">3</text></g></g><g class="overaxes-above"><g class="xy2-x"/><g class="xy2-y"><g class="y2tick"><text text-anchor="start" x="1526.72" y="4.199999999999999" transform="translate(0,696.87)" style="font-family: 'Open Sans', verdana, arial, sans-serif; font-size: 12px; fill: rgb(42, 63, 95); fill-opacity: 1; white-space: pre; opacity: 1;">−0.8</text></g><g class="y2tick"><text text-anchor="start" x="1526.72" y="4.199999999999999" style="font-family: 'Open Sans', verdana, arial, sans-serif; font-size: 12px; fill: rgb(42, 63, 95); fill-opacity: 1; white-space: pre; opacity: 1;" transform="translate(0,631.61)">−0.6</text></g><g class="y2tick"><text text-anchor="start" x="1526.72" y="4.199999999999999" style="font-family: 'Open Sans', verdana, arial, sans-serif; font-size: 12px; fill: rgb(42, 63, 95); fill-opacity: 1; white-space: pre; opacity: 1;" transform="translate(0,566.36)">−0.4</text></g><g class="y2tick"><text text-anchor="start" x="1526.72" y="4.199999999999999" style="font-family: 'Open Sans', verdana, arial, sans-serif; font-size: 12px; fill: rgb(42, 63, 95); fill-opacity: 1; white-space: pre; opacity: 1;" transform="translate(0,501.11)">−0.2</text></g><g class="y2tick"><text text-anchor="start" x="1526.72" y="4.199999999999999" style="font-family: 'Open Sans', verdana, arial, sans-serif; font-size: 12px; fill: rgb(42, 63, 95); fill-opacity: 1; white-space: pre; opacity: 1;" transform="translate(0,435.85)">0</text></g><g class="y2tick"><text text-anchor="start" x="1526.72" y="4.199999999999999" style="font-family: 'Open Sans', verdana, arial, sans-serif; font-size: 12px; fill: rgb(42, 63, 95); fill-opacity: 1; white-space: pre; opacity: 1;" transform="translate(0,370.6)">0.2</text></g><g class="y2tick"><text text-anchor="start" x="1526.72" y="4.199999999999999" style="font-family: 'Open Sans', verdana, arial, sans-serif; font-size: 12px; fill: rgb(42, 63, 95); fill-opacity: 1; white-space: pre; opacity: 1;" transform="translate(0,305.34000000000003)">0.4</text></g><g class="y2tick"><text text-anchor="start" x="1526.72" y="4.199999999999999" style="font-family: 'Open Sans', verdana, arial, sans-serif; font-size: 12px; fill: rgb(42, 63, 95); fill-opacity: 1; white-space: pre; opacity: 1;" transform="translate(0,240.09)">0.6</text></g><g class="y2tick"><text text-anchor="start" x="1526.72" y="4.199999999999999" style="font-family: 'Open Sans', verdana, arial, sans-serif; font-size: 12px; fill: rgb(42, 63, 95); fill-opacity: 1; white-space: pre; opacity: 1;" transform="translate(0,174.82999999999998)">0.8</text></g><g class="y2tick"><text text-anchor="start" x="1526.72" y="4.199999999999999" style="font-family: 'Open Sans', verdana, arial, sans-serif; font-size: 12px; fill: rgb(42, 63, 95); fill-opacity: 1; white-space: pre; opacity: 1;" transform="translate(0,109.58)">1</text></g></g></g></g><g class="subplot xy2"/></g><g class="polarlayer"/><g class="smithlayer"/><g class="ternarylayer"/><g class="geolayer"/><g class="funnelarealayer"/><g class="pielayer"/><g class="iciclelayer"/><g class="treemaplayer"/><g class="sunburstlayer"/><g class="glimages"/><defs id="topdefs-32d97c"><g class="clips"/><clipPath id="legend32d97c"><rect width="139" height="67" x="0" y="0"/></clipPath></defs><g class="layer-above"><g class="imagelayer"/><g class="shapelayer"/></g><g class="infolayer"><g class="legend" pointer-events="all" transform="translate(1648.76,80)"><rect class="bg" shape-rendering="crispEdges" style="stroke: rgb(68, 68, 68); stroke-opacity: 1; fill: rgb(255, 255, 255); fill-opacity: 1; stroke-width: 0px;" width="139" height="67" x="0" y="0"/><g class="scrollbox" transform="" clip-path="url(#legend32d97c)"><g class="groups"><g class="traces" transform="translate(0,14.5)" style="opacity: 1;"><text class="legendtext" text-anchor="start" x="40" y="4.680000000000001" style="font-family: 'Open Sans', verdana, arial, sans-serif; font-size: 12px; fill: rgb(42, 63, 95); fill-opacity: 1; white-space: pre;">log10(Cell Count)</text><g class="layers" style="opacity: 1;"><g class="legendfill"/><g class="legendlines"/><g class="legendsymbols"><g class="legendpoints"><path class="legendundefined" d="M6,6H-6V-6H6Z" transform="translate(20,0)" style="stroke-width: 0.5px; fill: rgb(70, 130, 180); fill-opacity: 1; stroke: rgb(229, 236, 246); stroke-opacity: 1;"/></g></g></g><rect class="legendtoggle" x="0" y="-9.5" width="133.390625" height="19" style="fill: rgb(0, 0, 0); fill-opacity: 0;"/></g><g class="traces" transform="translate(0,33.5)" style="opacity: 1;"><text class="legendtext" text-anchor="start" x="40" y="4.680000000000001" style="font-family: 'Open Sans', verdana, arial, sans-serif; font-size: 12px; fill: rgb(42, 63, 95); fill-opacity: 1; white-space: pre;">Mean</text><g class="layers" style="opacity: 1;"><g class="legendfill"/><g class="legendlines"><path class="js-line" d="M5,0h30" style="fill: none; stroke: rgb(0, 0, 255); stroke-opacity: 1; stroke-width: 2px;"/></g><g class="legendsymbols"><g class="legendpoints"><path class="scatterpts" transform="translate(20,0)" d="M3,0A3,3 0 1,1 0,-3A3,3 0 0,1 3,0Z" style="opacity: 1; stroke-width: 0px; fill: rgb(0, 0, 255); fill-opacity: 1;"/></g></g></g><rect class="legendtoggle" x="0" y="-9.5" width="133.390625" height="19" style="fill: rgb(0, 0, 0); fill-opacity: 0;"/></g><g class="traces" transform="translate(0,52.5)" style="opacity: 1;"><text class="legendtext" text-anchor="start" x="40" y="4.680000000000001" style="font-family: 'Open Sans', verdana, arial, sans-serif; font-size: 12px; fill: rgb(42, 63, 95); fill-opacity: 1; white-space: pre;">Median</text><g class="layers" style="opacity: 1;"><g class="legendfill"/><g class="legendlines"><path class="js-line" d="M5,0h30" style="fill: none; stroke: rgb(255, 0, 0); stroke-opacity: 1; stroke-width: 2px;"/></g><g class="legendsymbols"><g class="legendpoints"><path class="scatterpts" transform="translate(20,0)" d="M3,0A3,3 0 1,1 0,-3A3,3 0 0,1 3,0Z" style="opacity: 1; stroke-width: 0px; fill: rgb(255, 0, 0); fill-opacity: 1;"/></g></g></g><rect class="legendtoggle" x="0" y="-9.5" width="133.390625" height="19" style="fill: rgb(0, 0, 0); fill-opacity: 0;"/></g></g></g><rect class="scrollbar" rx="20" ry="3" width="0" height="0" style="fill: rgb(128, 139, 164); fill-opacity: 1;" x="0" y="0"/></g><g class="g-gtitle"><text class="gtitle" x="90" y="40" text-anchor="start" dy="0em" style="font-family: 'Open Sans', verdana, arial, sans-serif; font-size: 17px; fill: rgb(42, 63, 95); opacity: 1; white-space: pre;">Cluster Cell Count (log10) vs Silhouette</text></g><g class="g-xtitle"><text class="xtitle" x="802.86" y="887.5548828125" text-anchor="middle" style="font-family: 'Open Sans', verdana, arial, sans-serif; font-size: 14px; fill: rgb(42, 63, 95); opacity: 1; white-space: pre;">Detailed_Cell_Annotations</text></g><g class="g-ytitle"><text class="ytitle" transform="rotate(-90,42.9125,396)" x="42.9125" y="396" text-anchor="middle" style="font-family: 'Open Sans', verdana, arial, sans-serif; font-size: 14px; fill: rgb(42, 63, 95); opacity: 1; white-space: pre;">log10(Cell Count)</text></g><g class="g-y2title"><text class="y2title" transform="rotate(-90,1575.05,396)" x="1575.05" y="396" text-anchor="middle" style="font-family: 'Open Sans', verdana, arial, sans-serif; font-size: 14px; fill: rgb(42, 63, 95); opacity: 1; white-space: pre;">Silhouette Score</text></g></g></svg>