<?xml version="1.0" encoding="utf-8" standalone="no"?>
<!DOCTYPE svg PUBLIC "-//W3C//DTD SVG 1.1//EN"
  "http://www.w3.org/Graphics/SVG/1.1/DTD/svg11.dtd">
<svg xmlns:xlink="http://www.w3.org/1999/xlink" width="371.52pt" height="217.881173pt" viewBox="0 0 371.52 217.881173" xmlns="http://www.w3.org/2000/svg" version="1.1">
 <metadata>
  <rdf:RDF xmlns:dc="http://purl.org/dc/elements/1.1/" xmlns:cc="http://creativecommons.org/ns#" xmlns:rdf="http://www.w3.org/1999/02/22-rdf-syntax-ns#">
   <cc:Work>
    <dc:type rdf:resource="http://purl.org/dc/dcmitype/StillImage"/>
    <dc:date>2026-05-04T17:04:15.455024</dc:date>
    <dc:format>image/svg+xml</dc:format>
    <dc:creator>
     <cc:Agent>
      <dc:title>Matplotlib v3.8.0, https://matplotlib.org/</dc:title>
     </cc:Agent>
    </dc:creator>
   </cc:Work>
  </rdf:RDF>
 </metadata>
 <defs>
  <style type="text/css">*{stroke-linejoin: round; stroke-linecap: butt}</style>
 </defs>
 <g id="figure_1">
  <g id="patch_1">
   <path d="M 0 217.881173 
L 371.52 217.881173 
L 371.52 0 
L 0 0 
z
" style="fill: #ffffff"/>
  </g>
  <g id="axes_1">
   <g id="patch_2">
    <path d="M 7.2 106.992 
L 364.32 106.992 
L 364.32 7.2 
L 7.2 7.2 
z
" style="fill: #ffffff"/>
   </g>
   <g id="matplotlib.axis_1">
    <g id="xtick_1">
     <g id="text_1">
      <!-- Stressed beta cells -->
      <g transform="translate(25.731287 192.753452) rotate(-90) scale(0.0833 -0.0833)">
       <defs>
        <path id="DejaVuSans-53" d="M 3425 4513 
L 3425 3897 
Q 3066 4069 2747 4153 
Q 2428 4238 2131 4238 
Q 1616 4238 1336 4038 
Q 1056 3838 1056 3469 
Q 1056 3159 1242 3001 
Q 1428 2844 1947 2747 
L 2328 2669 
Q 3034 2534 3370 2195 
Q 3706 1856 3706 1288 
Q 3706 609 3251 259 
Q 2797 -91 1919 -91 
Q 1588 -91 1214 -16 
Q 841 59 441 206 
L 441 856 
Q 825 641 1194 531 
Q 1563 422 1919 422 
Q 2459 422 2753 634 
Q 3047 847 3047 1241 
Q 3047 1584 2836 1778 
Q 2625 1972 2144 2069 
L 1759 2144 
Q 1053 2284 737 2584 
Q 422 2884 422 3419 
Q 422 4038 858 4394 
Q 1294 4750 2059 4750 
Q 2388 4750 2728 4690 
Q 3069 4631 3425 4513 
z
" transform="scale(0.015625)"/>
        <path id="DejaVuSans-74" d="M 1172 4494 
L 1172 3500 
L 2356 3500 
L 2356 3053 
L 1172 3053 
L 1172 1153 
Q 1172 725 1289 603 
Q 1406 481 1766 481 
L 2356 481 
L 2356 0 
L 1766 0 
Q 1100 0 847 248 
Q 594 497 594 1153 
L 594 3053 
L 172 3053 
L 172 3500 
L 594 3500 
L 594 4494 
L 1172 4494 
z
" transform="scale(0.015625)"/>
        <path id="DejaVuSans-72" d="M 2631 2963 
Q 2534 3019 2420 3045 
Q 2306 3072 2169 3072 
Q 1681 3072 1420 2755 
Q 1159 2438 1159 1844 
L 1159 0 
L 581 0 
L 581 3500 
L 1159 3500 
L 1159 2956 
Q 1341 3275 1631 3429 
Q 1922 3584 2338 3584 
Q 2397 3584 2469 3576 
Q 2541 3569 2628 3553 
L 2631 2963 
z
" transform="scale(0.015625)"/>
        <path id="DejaVuSans-65" d="M 3597 1894 
L 3597 1613 
L 953 1613 
Q 991 1019 1311 708 
Q 1631 397 2203 397 
Q 2534 397 2845 478 
Q 3156 559 3463 722 
L 3463 178 
Q 3153 47 2828 -22 
Q 2503 -91 2169 -91 
Q 1331 -91 842 396 
Q 353 884 353 1716 
Q 353 2575 817 3079 
Q 1281 3584 2069 3584 
Q 2775 3584 3186 3129 
Q 3597 2675 3597 1894 
z
M 3022 2063 
Q 3016 2534 2758 2815 
Q 2500 3097 2075 3097 
Q 1594 3097 1305 2825 
Q 1016 2553 972 2059 
L 3022 2063 
z
" transform="scale(0.015625)"/>
        <path id="DejaVuSans-73" d="M 2834 3397 
L 2834 2853 
Q 2591 2978 2328 3040 
Q 2066 3103 1784 3103 
Q 1356 3103 1142 2972 
Q 928 2841 928 2578 
Q 928 2378 1081 2264 
Q 1234 2150 1697 2047 
L 1894 2003 
Q 2506 1872 2764 1633 
Q 3022 1394 3022 966 
Q 3022 478 2636 193 
Q 2250 -91 1575 -91 
Q 1294 -91 989 -36 
Q 684 19 347 128 
L 347 722 
Q 666 556 975 473 
Q 1284 391 1588 391 
Q 1994 391 2212 530 
Q 2431 669 2431 922 
Q 2431 1156 2273 1281 
Q 2116 1406 1581 1522 
L 1381 1569 
Q 847 1681 609 1914 
Q 372 2147 372 2553 
Q 372 3047 722 3315 
Q 1072 3584 1716 3584 
Q 2034 3584 2315 3537 
Q 2597 3491 2834 3397 
z
" transform="scale(0.015625)"/>
        <path id="DejaVuSans-64" d="M 2906 2969 
L 2906 4863 
L 3481 4863 
L 3481 0 
L 2906 0 
L 2906 525 
Q 2725 213 2448 61 
Q 2172 -91 1784 -91 
Q 1150 -91 751 415 
Q 353 922 353 1747 
Q 353 2572 751 3078 
Q 1150 3584 1784 3584 
Q 2172 3584 2448 3432 
Q 2725 3281 2906 2969 
z
M 947 1747 
Q 947 1113 1208 752 
Q 1469 391 1925 391 
Q 2381 391 2643 752 
Q 2906 1113 2906 1747 
Q 2906 2381 2643 2742 
Q 2381 3103 1925 3103 
Q 1469 3103 1208 2742 
Q 947 2381 947 1747 
z
" transform="scale(0.015625)"/>
        <path id="DejaVuSans-20" transform="scale(0.015625)"/>
        <path id="DejaVuSans-62" d="M 3116 1747 
Q 3116 2381 2855 2742 
Q 2594 3103 2138 3103 
Q 1681 3103 1420 2742 
Q 1159 2381 1159 1747 
Q 1159 1113 1420 752 
Q 1681 391 2138 391 
Q 2594 391 2855 752 
Q 3116 1113 3116 1747 
z
M 1159 2969 
Q 1341 3281 1617 3432 
Q 1894 3584 2278 3584 
Q 2916 3584 3314 3078 
Q 3713 2572 3713 1747 
Q 3713 922 3314 415 
Q 2916 -91 2278 -91 
Q 1894 -91 1617 61 
Q 1341 213 1159 525 
L 1159 0 
L 581 0 
L 581 4863 
L 1159 4863 
L 1159 2969 
z
" transform="scale(0.015625)"/>
        <path id="DejaVuSans-61" d="M 2194 1759 
Q 1497 1759 1228 1600 
Q 959 1441 959 1056 
Q 959 750 1161 570 
Q 1363 391 1709 391 
Q 2188 391 2477 730 
Q 2766 1069 2766 1631 
L 2766 1759 
L 2194 1759 
z
M 3341 1997 
L 3341 0 
L 2766 0 
L 2766 531 
Q 2569 213 2275 61 
Q 1981 -91 1556 -91 
Q 1019 -91 701 211 
Q 384 513 384 1019 
Q 384 1609 779 1909 
Q 1175 2209 1959 2209 
L 2766 2209 
L 2766 2266 
Q 2766 2663 2505 2880 
Q 2244 3097 1772 3097 
Q 1472 3097 1187 3025 
Q 903 2953 641 2809 
L 641 3341 
Q 956 3463 1253 3523 
Q 1550 3584 1831 3584 
Q 2591 3584 2966 3190 
Q 3341 2797 3341 1997 
z
" transform="scale(0.015625)"/>
        <path id="DejaVuSans-63" d="M 3122 3366 
L 3122 2828 
Q 2878 2963 2633 3030 
Q 2388 3097 2138 3097 
Q 1578 3097 1268 2742 
Q 959 2388 959 1747 
Q 959 1106 1268 751 
Q 1578 397 2138 397 
Q 2388 397 2633 464 
Q 2878 531 3122 666 
L 3122 134 
Q 2881 22 2623 -34 
Q 2366 -91 2075 -91 
Q 1284 -91 818 406 
Q 353 903 353 1747 
Q 353 2603 823 3093 
Q 1294 3584 2113 3584 
Q 2378 3584 2631 3529 
Q 2884 3475 3122 3366 
z
" transform="scale(0.015625)"/>
        <path id="DejaVuSans-6c" d="M 603 4863 
L 1178 4863 
L 1178 0 
L 603 0 
L 603 4863 
z
" transform="scale(0.015625)"/>
       </defs>
       <use xlink:href="#DejaVuSans-53"/>
       <use xlink:href="#DejaVuSans-74" x="63.476562"/>
       <use xlink:href="#DejaVuSans-72" x="102.685547"/>
       <use xlink:href="#DejaVuSans-65" x="141.548828"/>
       <use xlink:href="#DejaVuSans-73" x="203.072266"/>
       <use xlink:href="#DejaVuSans-73" x="255.171875"/>
       <use xlink:href="#DejaVuSans-65" x="307.271484"/>
       <use xlink:href="#DejaVuSans-64" x="368.794922"/>
       <use xlink:href="#DejaVuSans-20" x="432.271484"/>
       <use xlink:href="#DejaVuSans-62" x="464.058594"/>
       <use xlink:href="#DejaVuSans-65" x="527.535156"/>
       <use xlink:href="#DejaVuSans-74" x="589.058594"/>
       <use xlink:href="#DejaVuSans-61" x="628.267578"/>
       <use xlink:href="#DejaVuSans-20" x="689.546875"/>
       <use xlink:href="#DejaVuSans-63" x="721.333984"/>
       <use xlink:href="#DejaVuSans-65" x="776.314453"/>
       <use xlink:href="#DejaVuSans-6c" x="837.837891"/>
       <use xlink:href="#DejaVuSans-6c" x="865.621094"/>
       <use xlink:href="#DejaVuSans-73" x="893.404297"/>
      </g>
     </g>
    </g>
    <g id="xtick_2">
     <g id="text_2">
      <!-- Beta cells -->
      <g transform="translate(50.704713 154.523958) rotate(-90) scale(0.0833 -0.0833)">
       <defs>
        <path id="DejaVuSans-42" d="M 1259 2228 
L 1259 519 
L 2272 519 
Q 2781 519 3026 730 
Q 3272 941 3272 1375 
Q 3272 1813 3026 2020 
Q 2781 2228 2272 2228 
L 1259 2228 
z
M 1259 4147 
L 1259 2741 
L 2194 2741 
Q 2656 2741 2882 2914 
Q 3109 3088 3109 3444 
Q 3109 3797 2882 3972 
Q 2656 4147 2194 4147 
L 1259 4147 
z
M 628 4666 
L 2241 4666 
Q 2963 4666 3353 4366 
Q 3744 4066 3744 3513 
Q 3744 3084 3544 2831 
Q 3344 2578 2956 2516 
Q 3422 2416 3680 2098 
Q 3938 1781 3938 1306 
Q 3938 681 3513 340 
Q 3088 0 2303 0 
L 628 0 
L 628 4666 
z
" transform="scale(0.015625)"/>
       </defs>
       <use xlink:href="#DejaVuSans-42"/>
       <use xlink:href="#DejaVuSans-65" x="68.603516"/>
       <use xlink:href="#DejaVuSans-74" x="130.126953"/>
       <use xlink:href="#DejaVuSans-61" x="169.335938"/>
       <use xlink:href="#DejaVuSans-20" x="230.615234"/>
       <use xlink:href="#DejaVuSans-63" x="262.402344"/>
       <use xlink:href="#DejaVuSans-65" x="317.382812"/>
       <use xlink:href="#DejaVuSans-6c" x="378.90625"/>
       <use xlink:href="#DejaVuSans-6c" x="406.689453"/>
       <use xlink:href="#DejaVuSans-73" x="434.472656"/>
      </g>
     </g>
    </g>
    <g id="xtick_3">
     <g id="text_3">
      <!-- Delta cells -->
      <g transform="translate(75.67814 157.537075) rotate(-90) scale(0.0833 -0.0833)">
       <defs>
        <path id="DejaVuSans-44" d="M 1259 4147 
L 1259 519 
L 2022 519 
Q 2988 519 3436 956 
Q 3884 1394 3884 2338 
Q 3884 3275 3436 3711 
Q 2988 4147 2022 4147 
L 1259 4147 
z
M 628 4666 
L 1925 4666 
Q 3281 4666 3915 4102 
Q 4550 3538 4550 2338 
Q 4550 1131 3912 565 
Q 3275 0 1925 0 
L 628 0 
L 628 4666 
z
" transform="scale(0.015625)"/>
       </defs>
       <use xlink:href="#DejaVuSans-44"/>
       <use xlink:href="#DejaVuSans-65" x="77.001953"/>
       <use xlink:href="#DejaVuSans-6c" x="138.525391"/>
       <use xlink:href="#DejaVuSans-74" x="166.308594"/>
       <use xlink:href="#DejaVuSans-61" x="205.517578"/>
       <use xlink:href="#DejaVuSans-20" x="266.796875"/>
       <use xlink:href="#DejaVuSans-63" x="298.583984"/>
       <use xlink:href="#DejaVuSans-65" x="353.564453"/>
       <use xlink:href="#DejaVuSans-6c" x="415.087891"/>
       <use xlink:href="#DejaVuSans-6c" x="442.871094"/>
       <use xlink:href="#DejaVuSans-73" x="470.654297"/>
      </g>
     </g>
    </g>
    <g id="xtick_4">
     <g id="text_4">
      <!-- Alpha cells -->
      <g transform="translate(100.651566 158.997428) rotate(-90) scale(0.0833 -0.0833)">
       <defs>
        <path id="DejaVuSans-41" d="M 2188 4044 
L 1331 1722 
L 3047 1722 
L 2188 4044 
z
M 1831 4666 
L 2547 4666 
L 4325 0 
L 3669 0 
L 3244 1197 
L 1141 1197 
L 716 0 
L 50 0 
L 1831 4666 
z
" transform="scale(0.015625)"/>
        <path id="DejaVuSans-70" d="M 1159 525 
L 1159 -1331 
L 581 -1331 
L 581 3500 
L 1159 3500 
L 1159 2969 
Q 1341 3281 1617 3432 
Q 1894 3584 2278 3584 
Q 2916 3584 3314 3078 
Q 3713 2572 3713 1747 
Q 3713 922 3314 415 
Q 2916 -91 2278 -91 
Q 1894 -91 1617 61 
Q 1341 213 1159 525 
z
M 3116 1747 
Q 3116 2381 2855 2742 
Q 2594 3103 2138 3103 
Q 1681 3103 1420 2742 
Q 1159 2381 1159 1747 
Q 1159 1113 1420 752 
Q 1681 391 2138 391 
Q 2594 391 2855 752 
Q 3116 1113 3116 1747 
z
" transform="scale(0.015625)"/>
        <path id="DejaVuSans-68" d="M 3513 2113 
L 3513 0 
L 2938 0 
L 2938 2094 
Q 2938 2591 2744 2837 
Q 2550 3084 2163 3084 
Q 1697 3084 1428 2787 
Q 1159 2491 1159 1978 
L 1159 0 
L 581 0 
L 581 4863 
L 1159 4863 
L 1159 2956 
Q 1366 3272 1645 3428 
Q 1925 3584 2291 3584 
Q 2894 3584 3203 3211 
Q 3513 2838 3513 2113 
z
" transform="scale(0.015625)"/>
       </defs>
       <use xlink:href="#DejaVuSans-41"/>
       <use xlink:href="#DejaVuSans-6c" x="68.408203"/>
       <use xlink:href="#DejaVuSans-70" x="96.191406"/>
       <use xlink:href="#DejaVuSans-68" x="159.667969"/>
       <use xlink:href="#DejaVuSans-61" x="223.046875"/>
       <use xlink:href="#DejaVuSans-20" x="284.326172"/>
       <use xlink:href="#DejaVuSans-63" x="316.113281"/>
       <use xlink:href="#DejaVuSans-65" x="371.09375"/>
       <use xlink:href="#DejaVuSans-6c" x="432.617188"/>
       <use xlink:href="#DejaVuSans-6c" x="460.400391"/>
       <use xlink:href="#DejaVuSans-73" x="488.183594"/>
      </g>
     </g>
    </g>
    <g id="xtick_5">
     <g id="text_5">
      <!-- Gamma cells -->
      <g transform="translate(125.624993 168.204681) rotate(-90) scale(0.0833 -0.0833)">
       <defs>
        <path id="DejaVuSans-47" d="M 3809 666 
L 3809 1919 
L 2778 1919 
L 2778 2438 
L 4434 2438 
L 4434 434 
Q 4069 175 3628 42 
Q 3188 -91 2688 -91 
Q 1594 -91 976 548 
Q 359 1188 359 2328 
Q 359 3472 976 4111 
Q 1594 4750 2688 4750 
Q 3144 4750 3555 4637 
Q 3966 4525 4313 4306 
L 4313 3634 
Q 3963 3931 3569 4081 
Q 3175 4231 2741 4231 
Q 1884 4231 1454 3753 
Q 1025 3275 1025 2328 
Q 1025 1384 1454 906 
Q 1884 428 2741 428 
Q 3075 428 3337 486 
Q 3600 544 3809 666 
z
" transform="scale(0.015625)"/>
        <path id="DejaVuSans-6d" d="M 3328 2828 
Q 3544 3216 3844 3400 
Q 4144 3584 4550 3584 
Q 5097 3584 5394 3201 
Q 5691 2819 5691 2113 
L 5691 0 
L 5113 0 
L 5113 2094 
Q 5113 2597 4934 2840 
Q 4756 3084 4391 3084 
Q 3944 3084 3684 2787 
Q 3425 2491 3425 1978 
L 3425 0 
L 2847 0 
L 2847 2094 
Q 2847 2600 2669 2842 
Q 2491 3084 2119 3084 
Q 1678 3084 1418 2786 
Q 1159 2488 1159 1978 
L 1159 0 
L 581 0 
L 581 3500 
L 1159 3500 
L 1159 2956 
Q 1356 3278 1631 3431 
Q 1906 3584 2284 3584 
Q 2666 3584 2933 3390 
Q 3200 3197 3328 2828 
z
" transform="scale(0.015625)"/>
       </defs>
       <use xlink:href="#DejaVuSans-47"/>
       <use xlink:href="#DejaVuSans-61" x="77.490234"/>
       <use xlink:href="#DejaVuSans-6d" x="138.769531"/>
       <use xlink:href="#DejaVuSans-6d" x="236.181641"/>
       <use xlink:href="#DejaVuSans-61" x="333.59375"/>
       <use xlink:href="#DejaVuSans-20" x="394.873047"/>
       <use xlink:href="#DejaVuSans-63" x="426.660156"/>
       <use xlink:href="#DejaVuSans-65" x="481.640625"/>
       <use xlink:href="#DejaVuSans-6c" x="543.164062"/>
       <use xlink:href="#DejaVuSans-6c" x="570.947266"/>
       <use xlink:href="#DejaVuSans-73" x="598.730469"/>
      </g>
     </g>
    </g>
    <g id="xtick_6">
     <g id="text_6">
      <!-- Endothelial cells -->
      <g transform="translate(150.59842 181.958292) rotate(-90) scale(0.0833 -0.0833)">
       <defs>
        <path id="DejaVuSans-45" d="M 628 4666 
L 3578 4666 
L 3578 4134 
L 1259 4134 
L 1259 2753 
L 3481 2753 
L 3481 2222 
L 1259 2222 
L 1259 531 
L 3634 531 
L 3634 0 
L 628 0 
L 628 4666 
z
" transform="scale(0.015625)"/>
        <path id="DejaVuSans-6e" d="M 3513 2113 
L 3513 0 
L 2938 0 
L 2938 2094 
Q 2938 2591 2744 2837 
Q 2550 3084 2163 3084 
Q 1697 3084 1428 2787 
Q 1159 2491 1159 1978 
L 1159 0 
L 581 0 
L 581 3500 
L 1159 3500 
L 1159 2956 
Q 1366 3272 1645 3428 
Q 1925 3584 2291 3584 
Q 2894 3584 3203 3211 
Q 3513 2838 3513 2113 
z
" transform="scale(0.015625)"/>
        <path id="DejaVuSans-6f" d="M 1959 3097 
Q 1497 3097 1228 2736 
Q 959 2375 959 1747 
Q 959 1119 1226 758 
Q 1494 397 1959 397 
Q 2419 397 2687 759 
Q 2956 1122 2956 1747 
Q 2956 2369 2687 2733 
Q 2419 3097 1959 3097 
z
M 1959 3584 
Q 2709 3584 3137 3096 
Q 3566 2609 3566 1747 
Q 3566 888 3137 398 
Q 2709 -91 1959 -91 
Q 1206 -91 779 398 
Q 353 888 353 1747 
Q 353 2609 779 3096 
Q 1206 3584 1959 3584 
z
" transform="scale(0.015625)"/>
        <path id="DejaVuSans-69" d="M 603 3500 
L 1178 3500 
L 1178 0 
L 603 0 
L 603 3500 
z
M 603 4863 
L 1178 4863 
L 1178 4134 
L 603 4134 
L 603 4863 
z
" transform="scale(0.015625)"/>
       </defs>
       <use xlink:href="#DejaVuSans-45"/>
       <use xlink:href="#DejaVuSans-6e" x="63.183594"/>
       <use xlink:href="#DejaVuSans-64" x="126.5625"/>
       <use xlink:href="#DejaVuSans-6f" x="190.039062"/>
       <use xlink:href="#DejaVuSans-74" x="251.220703"/>
       <use xlink:href="#DejaVuSans-68" x="290.429688"/>
       <use xlink:href="#DejaVuSans-65" x="353.808594"/>
       <use xlink:href="#DejaVuSans-6c" x="415.332031"/>
       <use xlink:href="#DejaVuSans-69" x="443.115234"/>
       <use xlink:href="#DejaVuSans-61" x="470.898438"/>
       <use xlink:href="#DejaVuSans-6c" x="532.177734"/>
       <use xlink:href="#DejaVuSans-20" x="559.960938"/>
       <use xlink:href="#DejaVuSans-63" x="591.748047"/>
       <use xlink:href="#DejaVuSans-65" x="646.728516"/>
       <use xlink:href="#DejaVuSans-6c" x="708.251953"/>
       <use xlink:href="#DejaVuSans-6c" x="736.035156"/>
       <use xlink:href="#DejaVuSans-73" x="763.818359"/>
      </g>
     </g>
    </g>
    <g id="xtick_7">
     <g id="text_7">
      <!-- Quiescent stellate cells -->
      <g transform="translate(175.571846 210.681173) rotate(-90) scale(0.0833 -0.0833)">
       <defs>
        <path id="DejaVuSans-51" d="M 2522 4238 
Q 1834 4238 1429 3725 
Q 1025 3213 1025 2328 
Q 1025 1447 1429 934 
Q 1834 422 2522 422 
Q 3209 422 3611 934 
Q 4013 1447 4013 2328 
Q 4013 3213 3611 3725 
Q 3209 4238 2522 4238 
z
M 3406 84 
L 4238 -825 
L 3475 -825 
L 2784 -78 
Q 2681 -84 2626 -87 
Q 2572 -91 2522 -91 
Q 1538 -91 948 567 
Q 359 1225 359 2328 
Q 359 3434 948 4092 
Q 1538 4750 2522 4750 
Q 3503 4750 4090 4092 
Q 4678 3434 4678 2328 
Q 4678 1516 4351 937 
Q 4025 359 3406 84 
z
" transform="scale(0.015625)"/>
        <path id="DejaVuSans-75" d="M 544 1381 
L 544 3500 
L 1119 3500 
L 1119 1403 
Q 1119 906 1312 657 
Q 1506 409 1894 409 
Q 2359 409 2629 706 
Q 2900 1003 2900 1516 
L 2900 3500 
L 3475 3500 
L 3475 0 
L 2900 0 
L 2900 538 
Q 2691 219 2414 64 
Q 2138 -91 1772 -91 
Q 1169 -91 856 284 
Q 544 659 544 1381 
z
M 1991 3584 
L 1991 3584 
z
" transform="scale(0.015625)"/>
       </defs>
       <use xlink:href="#DejaVuSans-51"/>
       <use xlink:href="#DejaVuSans-75" x="78.710938"/>
       <use xlink:href="#DejaVuSans-69" x="142.089844"/>
       <use xlink:href="#DejaVuSans-65" x="169.873047"/>
       <use xlink:href="#DejaVuSans-73" x="231.396484"/>
       <use xlink:href="#DejaVuSans-63" x="283.496094"/>
       <use xlink:href="#DejaVuSans-65" x="338.476562"/>
       <use xlink:href="#DejaVuSans-6e" x="400"/>
       <use xlink:href="#DejaVuSans-74" x="463.378906"/>
       <use xlink:href="#DejaVuSans-20" x="502.587891"/>
       <use xlink:href="#DejaVuSans-73" x="534.375"/>
       <use xlink:href="#DejaVuSans-74" x="586.474609"/>
       <use xlink:href="#DejaVuSans-65" x="625.683594"/>
       <use xlink:href="#DejaVuSans-6c" x="687.207031"/>
       <use xlink:href="#DejaVuSans-6c" x="714.990234"/>
       <use xlink:href="#DejaVuSans-61" x="742.773438"/>
       <use xlink:href="#DejaVuSans-74" x="804.052734"/>
       <use xlink:href="#DejaVuSans-65" x="843.261719"/>
       <use xlink:href="#DejaVuSans-20" x="904.785156"/>
       <use xlink:href="#DejaVuSans-63" x="936.572266"/>
       <use xlink:href="#DejaVuSans-65" x="991.552734"/>
       <use xlink:href="#DejaVuSans-6c" x="1053.076172"/>
       <use xlink:href="#DejaVuSans-6c" x="1080.859375"/>
       <use xlink:href="#DejaVuSans-73" x="1108.642578"/>
      </g>
     </g>
    </g>
    <g id="xtick_8">
     <g id="text_8">
      <!-- Activated stellate cells -->
      <g transform="translate(200.545273 208.242045) rotate(-90) scale(0.0833 -0.0833)">
       <defs>
        <path id="DejaVuSans-76" d="M 191 3500 
L 800 3500 
L 1894 563 
L 2988 3500 
L 3597 3500 
L 2284 0 
L 1503 0 
L 191 3500 
z
" transform="scale(0.015625)"/>
       </defs>
       <use xlink:href="#DejaVuSans-41"/>
       <use xlink:href="#DejaVuSans-63" x="66.658203"/>
       <use xlink:href="#DejaVuSans-74" x="121.638672"/>
       <use xlink:href="#DejaVuSans-69" x="160.847656"/>
       <use xlink:href="#DejaVuSans-76" x="188.630859"/>
       <use xlink:href="#DejaVuSans-61" x="247.810547"/>
       <use xlink:href="#DejaVuSans-74" x="309.089844"/>
       <use xlink:href="#DejaVuSans-65" x="348.298828"/>
       <use xlink:href="#DejaVuSans-64" x="409.822266"/>
       <use xlink:href="#DejaVuSans-20" x="473.298828"/>
       <use xlink:href="#DejaVuSans-73" x="505.085938"/>
       <use xlink:href="#DejaVuSans-74" x="557.185547"/>
       <use xlink:href="#DejaVuSans-65" x="596.394531"/>
       <use xlink:href="#DejaVuSans-6c" x="657.917969"/>
       <use xlink:href="#DejaVuSans-6c" x="685.701172"/>
       <use xlink:href="#DejaVuSans-61" x="713.484375"/>
       <use xlink:href="#DejaVuSans-74" x="774.763672"/>
       <use xlink:href="#DejaVuSans-65" x="813.972656"/>
       <use xlink:href="#DejaVuSans-20" x="875.496094"/>
       <use xlink:href="#DejaVuSans-63" x="907.283203"/>
       <use xlink:href="#DejaVuSans-65" x="962.263672"/>
       <use xlink:href="#DejaVuSans-6c" x="1023.787109"/>
       <use xlink:href="#DejaVuSans-6c" x="1051.570312"/>
       <use xlink:href="#DejaVuSans-73" x="1079.353516"/>
      </g>
     </g>
    </g>
    <g id="xtick_9">
     <g id="text_9">
      <!-- Idling acinar cells -->
      <g transform="translate(225.518699 186.708995) rotate(-90) scale(0.0833 -0.0833)">
       <defs>
        <path id="DejaVuSans-49" d="M 628 4666 
L 1259 4666 
L 1259 0 
L 628 0 
L 628 4666 
z
" transform="scale(0.015625)"/>
        <path id="DejaVuSans-67" d="M 2906 1791 
Q 2906 2416 2648 2759 
Q 2391 3103 1925 3103 
Q 1463 3103 1205 2759 
Q 947 2416 947 1791 
Q 947 1169 1205 825 
Q 1463 481 1925 481 
Q 2391 481 2648 825 
Q 2906 1169 2906 1791 
z
M 3481 434 
Q 3481 -459 3084 -895 
Q 2688 -1331 1869 -1331 
Q 1566 -1331 1297 -1286 
Q 1028 -1241 775 -1147 
L 775 -588 
Q 1028 -725 1275 -790 
Q 1522 -856 1778 -856 
Q 2344 -856 2625 -561 
Q 2906 -266 2906 331 
L 2906 616 
Q 2728 306 2450 153 
Q 2172 0 1784 0 
Q 1141 0 747 490 
Q 353 981 353 1791 
Q 353 2603 747 3093 
Q 1141 3584 1784 3584 
Q 2172 3584 2450 3431 
Q 2728 3278 2906 2969 
L 2906 3500 
L 3481 3500 
L 3481 434 
z
" transform="scale(0.015625)"/>
       </defs>
       <use xlink:href="#DejaVuSans-49"/>
       <use xlink:href="#DejaVuSans-64" x="29.492188"/>
       <use xlink:href="#DejaVuSans-6c" x="92.96875"/>
       <use xlink:href="#DejaVuSans-69" x="120.751953"/>
       <use xlink:href="#DejaVuSans-6e" x="148.535156"/>
       <use xlink:href="#DejaVuSans-67" x="211.914062"/>
       <use xlink:href="#DejaVuSans-20" x="275.390625"/>
       <use xlink:href="#DejaVuSans-61" x="307.177734"/>
       <use xlink:href="#DejaVuSans-63" x="368.457031"/>
       <use xlink:href="#DejaVuSans-69" x="423.4375"/>
       <use xlink:href="#DejaVuSans-6e" x="451.220703"/>
       <use xlink:href="#DejaVuSans-61" x="514.599609"/>
       <use xlink:href="#DejaVuSans-72" x="575.878906"/>
       <use xlink:href="#DejaVuSans-20" x="616.992188"/>
       <use xlink:href="#DejaVuSans-63" x="648.779297"/>
       <use xlink:href="#DejaVuSans-65" x="703.759766"/>
       <use xlink:href="#DejaVuSans-6c" x="765.283203"/>
       <use xlink:href="#DejaVuSans-6c" x="793.066406"/>
       <use xlink:href="#DejaVuSans-73" x="820.849609"/>
      </g>
     </g>
    </g>
    <g id="xtick_10">
     <g id="text_10">
      <!-- Macrophages -->
      <g transform="translate(250.492126 169.623384) rotate(-90) scale(0.0833 -0.0833)">
       <defs>
        <path id="DejaVuSans-4d" d="M 628 4666 
L 1569 4666 
L 2759 1491 
L 3956 4666 
L 4897 4666 
L 4897 0 
L 4281 0 
L 4281 4097 
L 3078 897 
L 2444 897 
L 1241 4097 
L 1241 0 
L 628 0 
L 628 4666 
z
" transform="scale(0.015625)"/>
       </defs>
       <use xlink:href="#DejaVuSans-4d"/>
       <use xlink:href="#DejaVuSans-61" x="86.279297"/>
       <use xlink:href="#DejaVuSans-63" x="147.558594"/>
       <use xlink:href="#DejaVuSans-72" x="202.539062"/>
       <use xlink:href="#DejaVuSans-6f" x="241.402344"/>
       <use xlink:href="#DejaVuSans-70" x="302.583984"/>
       <use xlink:href="#DejaVuSans-68" x="366.060547"/>
       <use xlink:href="#DejaVuSans-61" x="429.439453"/>
       <use xlink:href="#DejaVuSans-67" x="490.71875"/>
       <use xlink:href="#DejaVuSans-65" x="554.195312"/>
       <use xlink:href="#DejaVuSans-73" x="615.71875"/>
      </g>
     </g>
    </g>
    <g id="xtick_11">
     <g id="text_11">
      <!-- MUC5B+ ductal cells -->
      <g transform="translate(275.465552 200.888217) rotate(-90) scale(0.0833 -0.0833)">
       <defs>
        <path id="DejaVuSans-55" d="M 556 4666 
L 1191 4666 
L 1191 1831 
Q 1191 1081 1462 751 
Q 1734 422 2344 422 
Q 2950 422 3222 751 
Q 3494 1081 3494 1831 
L 3494 4666 
L 4128 4666 
L 4128 1753 
Q 4128 841 3676 375 
Q 3225 -91 2344 -91 
Q 1459 -91 1007 375 
Q 556 841 556 1753 
L 556 4666 
z
" transform="scale(0.015625)"/>
        <path id="DejaVuSans-43" d="M 4122 4306 
L 4122 3641 
Q 3803 3938 3442 4084 
Q 3081 4231 2675 4231 
Q 1875 4231 1450 3742 
Q 1025 3253 1025 2328 
Q 1025 1406 1450 917 
Q 1875 428 2675 428 
Q 3081 428 3442 575 
Q 3803 722 4122 1019 
L 4122 359 
Q 3791 134 3420 21 
Q 3050 -91 2638 -91 
Q 1578 -91 968 557 
Q 359 1206 359 2328 
Q 359 3453 968 4101 
Q 1578 4750 2638 4750 
Q 3056 4750 3426 4639 
Q 3797 4528 4122 4306 
z
" transform="scale(0.015625)"/>
        <path id="DejaVuSans-35" d="M 691 4666 
L 3169 4666 
L 3169 4134 
L 1269 4134 
L 1269 2991 
Q 1406 3038 1543 3061 
Q 1681 3084 1819 3084 
Q 2600 3084 3056 2656 
Q 3513 2228 3513 1497 
Q 3513 744 3044 326 
Q 2575 -91 1722 -91 
Q 1428 -91 1123 -41 
Q 819 9 494 109 
L 494 744 
Q 775 591 1075 516 
Q 1375 441 1709 441 
Q 2250 441 2565 725 
Q 2881 1009 2881 1497 
Q 2881 1984 2565 2268 
Q 2250 2553 1709 2553 
Q 1456 2553 1204 2497 
Q 953 2441 691 2322 
L 691 4666 
z
" transform="scale(0.015625)"/>
        <path id="DejaVuSans-2b" d="M 2944 4013 
L 2944 2272 
L 4684 2272 
L 4684 1741 
L 2944 1741 
L 2944 0 
L 2419 0 
L 2419 1741 
L 678 1741 
L 678 2272 
L 2419 2272 
L 2419 4013 
L 2944 4013 
z
" transform="scale(0.015625)"/>
       </defs>
       <use xlink:href="#DejaVuSans-4d"/>
       <use xlink:href="#DejaVuSans-55" x="86.279297"/>
       <use xlink:href="#DejaVuSans-43" x="159.472656"/>
       <use xlink:href="#DejaVuSans-35" x="229.296875"/>
       <use xlink:href="#DejaVuSans-42" x="292.919922"/>
       <use xlink:href="#DejaVuSans-2b" x="361.523438"/>
       <use xlink:href="#DejaVuSans-20" x="445.3125"/>
       <use xlink:href="#DejaVuSans-64" x="477.099609"/>
       <use xlink:href="#DejaVuSans-75" x="540.576172"/>
       <use xlink:href="#DejaVuSans-63" x="603.955078"/>
       <use xlink:href="#DejaVuSans-74" x="658.935547"/>
       <use xlink:href="#DejaVuSans-61" x="698.144531"/>
       <use xlink:href="#DejaVuSans-6c" x="759.423828"/>
       <use xlink:href="#DejaVuSans-20" x="787.207031"/>
       <use xlink:href="#DejaVuSans-63" x="818.994141"/>
       <use xlink:href="#DejaVuSans-65" x="873.974609"/>
       <use xlink:href="#DejaVuSans-6c" x="935.498047"/>
       <use xlink:href="#DejaVuSans-6c" x="963.28125"/>
       <use xlink:href="#DejaVuSans-73" x="991.064453"/>
      </g>
     </g>
    </g>
    <g id="xtick_12">
     <g id="text_12">
      <!-- Ductal cells -->
      <g transform="translate(300.438979 162.270858) rotate(-90) scale(0.0833 -0.0833)">
       <use xlink:href="#DejaVuSans-44"/>
       <use xlink:href="#DejaVuSans-75" x="77.001953"/>
       <use xlink:href="#DejaVuSans-63" x="140.380859"/>
       <use xlink:href="#DejaVuSans-74" x="195.361328"/>
       <use xlink:href="#DejaVuSans-61" x="234.570312"/>
       <use xlink:href="#DejaVuSans-6c" x="295.849609"/>
       <use xlink:href="#DejaVuSans-20" x="323.632812"/>
       <use xlink:href="#DejaVuSans-63" x="355.419922"/>
       <use xlink:href="#DejaVuSans-65" x="410.400391"/>
       <use xlink:href="#DejaVuSans-6c" x="471.923828"/>
       <use xlink:href="#DejaVuSans-6c" x="499.707031"/>
       <use xlink:href="#DejaVuSans-73" x="527.490234"/>
      </g>
     </g>
    </g>
    <g id="xtick_13">
     <g id="text_13">
      <!-- Acinar-mix -->
      <g transform="translate(325.412406 158.079827) rotate(-90) scale(0.0833 -0.0833)">
       <defs>
        <path id="DejaVuSans-2d" d="M 313 2009 
L 1997 2009 
L 1997 1497 
L 313 1497 
L 313 2009 
z
" transform="scale(0.015625)"/>
        <path id="DejaVuSans-78" d="M 3513 3500 
L 2247 1797 
L 3578 0 
L 2900 0 
L 1881 1375 
L 863 0 
L 184 0 
L 1544 1831 
L 300 3500 
L 978 3500 
L 1906 2253 
L 2834 3500 
L 3513 3500 
z
" transform="scale(0.015625)"/>
       </defs>
       <use xlink:href="#DejaVuSans-41"/>
       <use xlink:href="#DejaVuSans-63" x="66.658203"/>
       <use xlink:href="#DejaVuSans-69" x="121.638672"/>
       <use xlink:href="#DejaVuSans-6e" x="149.421875"/>
       <use xlink:href="#DejaVuSans-61" x="212.800781"/>
       <use xlink:href="#DejaVuSans-72" x="274.080078"/>
       <use xlink:href="#DejaVuSans-2d" x="308.818359"/>
       <use xlink:href="#DejaVuSans-6d" x="344.902344"/>
       <use xlink:href="#DejaVuSans-69" x="442.314453"/>
       <use xlink:href="#DejaVuSans-78" x="470.097656"/>
      </g>
     </g>
    </g>
    <g id="xtick_14">
     <g id="text_14">
      <!-- Secretory acinar cells -->
      <g transform="translate(350.385832 203.841462) rotate(-90) scale(0.0833 -0.0833)">
       <defs>
        <path id="DejaVuSans-79" d="M 2059 -325 
Q 1816 -950 1584 -1140 
Q 1353 -1331 966 -1331 
L 506 -1331 
L 506 -850 
L 844 -850 
Q 1081 -850 1212 -737 
Q 1344 -625 1503 -206 
L 1606 56 
L 191 3500 
L 800 3500 
L 1894 763 
L 2988 3500 
L 3597 3500 
L 2059 -325 
z
" transform="scale(0.015625)"/>
       </defs>
       <use xlink:href="#DejaVuSans-53"/>
       <use xlink:href="#DejaVuSans-65" x="63.476562"/>
       <use xlink:href="#DejaVuSans-63" x="125"/>
       <use xlink:href="#DejaVuSans-72" x="179.980469"/>
       <use xlink:href="#DejaVuSans-65" x="218.84375"/>
       <use xlink:href="#DejaVuSans-74" x="280.367188"/>
       <use xlink:href="#DejaVuSans-6f" x="319.576172"/>
       <use xlink:href="#DejaVuSans-72" x="380.757812"/>
       <use xlink:href="#DejaVuSans-79" x="421.871094"/>
       <use xlink:href="#DejaVuSans-20" x="481.050781"/>
       <use xlink:href="#DejaVuSans-61" x="512.837891"/>
       <use xlink:href="#DejaVuSans-63" x="574.117188"/>
       <use xlink:href="#DejaVuSans-69" x="629.097656"/>
       <use xlink:href="#DejaVuSans-6e" x="656.880859"/>
       <use xlink:href="#DejaVuSans-61" x="720.259766"/>
       <use xlink:href="#DejaVuSans-72" x="781.539062"/>
       <use xlink:href="#DejaVuSans-20" x="822.652344"/>
       <use xlink:href="#DejaVuSans-63" x="854.439453"/>
       <use xlink:href="#DejaVuSans-65" x="909.419922"/>
       <use xlink:href="#DejaVuSans-6c" x="970.943359"/>
       <use xlink:href="#DejaVuSans-6c" x="998.726562"/>
       <use xlink:href="#DejaVuSans-73" x="1026.509766"/>
      </g>
     </g>
    </g>
   </g>
   <g id="matplotlib.axis_2">
    <g id="ytick_1"/>
    <g id="ytick_2"/>
   </g>
   <g id="line2d_1">
    <path d="M 23.432727 102.456 
L 23.432727 99.137496 
L 48.406154 99.137496 
L 48.406154 102.456 
" clip-path="url(#pd3d17e4761)" style="fill: none; stroke: #555555; stroke-width: 1.5; stroke-linecap: square"/>
   </g>
   <g id="line2d_2">
    <path d="M 73.37958 102.456 
L 73.37958 97.990749 
L 98.353007 97.990749 
L 98.353007 102.456 
" clip-path="url(#pd3d17e4761)" style="fill: none; stroke: #555555; stroke-width: 1.5; stroke-linecap: square"/>
   </g>
   <g id="line2d_3">
    <path d="M 35.919441 99.137496 
L 35.919441 93.143956 
L 85.866294 93.143956 
L 85.866294 97.990749 
" clip-path="url(#pd3d17e4761)" style="fill: none; stroke: #555555; stroke-width: 1.5; stroke-linecap: square"/>
   </g>
   <g id="line2d_4">
    <path d="M 60.892867 93.143956 
L 60.892867 83.69955 
L 123.326434 83.69955 
L 123.326434 102.456 
" clip-path="url(#pd3d17e4761)" style="fill: none; stroke: #555555; stroke-width: 1.5; stroke-linecap: square"/>
   </g>
   <g id="line2d_5">
    <path d="M 173.273287 102.456 
L 173.273287 94.61801 
L 198.246713 94.61801 
L 198.246713 102.456 
" clip-path="url(#pd3d17e4761)" style="fill: none; stroke: #555555; stroke-width: 1.5; stroke-linecap: square"/>
   </g>
   <g id="line2d_6">
    <path d="M 148.29986 102.456 
L 148.29986 80.839076 
L 185.76 80.839076 
L 185.76 94.61801 
" clip-path="url(#pd3d17e4761)" style="fill: none; stroke: #555555; stroke-width: 1.5; stroke-linecap: square"/>
   </g>
   <g id="line2d_7">
    <path d="M 223.22014 102.456 
L 223.22014 87.178537 
L 248.193566 87.178537 
L 248.193566 102.456 
" clip-path="url(#pd3d17e4761)" style="fill: none; stroke: #555555; stroke-width: 1.5; stroke-linecap: square"/>
   </g>
   <g id="line2d_8">
    <path d="M 273.166993 102.456 
L 273.166993 94.430366 
L 298.14042 94.430366 
L 298.14042 102.456 
" clip-path="url(#pd3d17e4761)" style="fill: none; stroke: #555555; stroke-width: 1.5; stroke-linecap: square"/>
   </g>
   <g id="line2d_9">
    <path d="M 235.706853 87.178537 
L 235.706853 81.196647 
L 285.653706 81.196647 
L 285.653706 94.430366 
" clip-path="url(#pd3d17e4761)" style="fill: none; stroke: #555555; stroke-width: 1.5; stroke-linecap: square"/>
   </g>
   <g id="line2d_10">
    <path d="M 167.02993 80.839076 
L 167.02993 69.681216 
L 260.68028 69.681216 
L 260.68028 81.196647 
" clip-path="url(#pd3d17e4761)" style="fill: none; stroke: #555555; stroke-width: 1.5; stroke-linecap: square"/>
   </g>
   <g id="line2d_11">
    <path d="M 323.113846 102.456 
L 323.113846 85.071305 
L 348.087273 85.071305 
L 348.087273 102.456 
" clip-path="url(#pd3d17e4761)" style="fill: none; stroke: #555555; stroke-width: 1.5; stroke-linecap: square"/>
   </g>
   <g id="line2d_12">
    <path d="M 213.855105 69.681216 
L 213.855105 54.869203 
L 335.600559 54.869203 
L 335.600559 85.071305 
" clip-path="url(#pd3d17e4761)" style="fill: none; stroke: #555555; stroke-width: 1.5; stroke-linecap: square"/>
   </g>
   <g id="line2d_13">
    <path d="M 92.10965 83.69955 
L 92.10965 11.736 
L 274.727832 11.736 
L 274.727832 54.869203 
" clip-path="url(#pd3d17e4761)" style="fill: none; stroke: #555555; stroke-width: 1.5; stroke-linecap: square"/>
   </g>
  </g>
 </g>
 <defs>
  <clipPath id="pd3d17e4761">
   <rect x="7.2" y="7.2" width="357.12" height="99.792"/>
  </clipPath>
 </defs>
</svg>
