<?xml version="1.0" encoding="utf-8" standalone="no"?>
<!DOCTYPE svg PUBLIC "-//W3C//DTD SVG 1.1//EN"
  "http://www.w3.org/Graphics/SVG/1.1/DTD/svg11.dtd">
<svg xmlns:xlink="http://www.w3.org/1999/xlink" width="615.6pt" height="724.105656pt" viewBox="0 0 615.6 724.105656" xmlns="http://www.w3.org/2000/svg" version="1.1">
 <metadata>
  <rdf:RDF xmlns:dc="http://purl.org/dc/elements/1.1/" xmlns:cc="http://creativecommons.org/ns#" xmlns:rdf="http://www.w3.org/1999/02/22-rdf-syntax-ns#">
   <cc:Work>
    <dc:type rdf:resource="http://purl.org/dc/dcmitype/StillImage"/>
    <dc:date>2026-05-04T18:54:56.153245</dc:date>
    <dc:format>image/svg+xml</dc:format>
    <dc:creator>
     <cc:Agent>
      <dc:title>Matplotlib v3.8.0, https://matplotlib.org/</dc:title>
     </cc:Agent>
    </dc:creator>
   </cc:Work>
  </rdf:RDF>
 </metadata>
 <defs>
  <style type="text/css">*{stroke-linejoin: round; stroke-linecap: butt}</style>
 </defs>
 <g id="figure_1">
  <g id="patch_1">
   <path d="M 0 724.105656 
L 615.6 724.105656 
L 615.6 0 
L 0 0 
z
" style="fill: #ffffff"/>
  </g>
  <g id="axes_1">
   <g id="patch_2">
    <path d="M 28.8 523.3248 
L 586.8 523.3248 
L 586.8 28.8 
L 28.8 28.8 
z
" style="fill: #ffffff"/>
   </g>
   <g id="matplotlib.axis_1">
    <g id="xtick_1">
     <g id="text_1">
      <!-- Immune (DC/macrophage) -->
      <g transform="translate(56.462196 641.09688) rotate(-90) scale(0.0833 -0.0833)">
       <defs>
        <path id="DejaVuSans-49" d="M 628 4666 
L 1259 4666 
L 1259 0 
L 628 0 
L 628 4666 
z
" transform="scale(0.015625)"/>
        <path id="DejaVuSans-6d" d="M 3328 2828 
Q 3544 3216 3844 3400 
Q 4144 3584 4550 3584 
Q 5097 3584 5394 3201 
Q 5691 2819 5691 2113 
L 5691 0 
L 5113 0 
L 5113 2094 
Q 5113 2597 4934 2840 
Q 4756 3084 4391 3084 
Q 3944 3084 3684 2787 
Q 3425 2491 3425 1978 
L 3425 0 
L 2847 0 
L 2847 2094 
Q 2847 2600 2669 2842 
Q 2491 3084 2119 3084 
Q 1678 3084 1418 2786 
Q 1159 2488 1159 1978 
L 1159 0 
L 581 0 
L 581 3500 
L 1159 3500 
L 1159 2956 
Q 1356 3278 1631 3431 
Q 1906 3584 2284 3584 
Q 2666 3584 2933 3390 
Q 3200 3197 3328 2828 
z
" transform="scale(0.015625)"/>
        <path id="DejaVuSans-75" d="M 544 1381 
L 544 3500 
L 1119 3500 
L 1119 1403 
Q 1119 906 1312 657 
Q 1506 409 1894 409 
Q 2359 409 2629 706 
Q 2900 1003 2900 1516 
L 2900 3500 
L 3475 3500 
L 3475 0 
L 2900 0 
L 2900 538 
Q 2691 219 2414 64 
Q 2138 -91 1772 -91 
Q 1169 -91 856 284 
Q 544 659 544 1381 
z
M 1991 3584 
L 1991 3584 
z
" transform="scale(0.015625)"/>
        <path id="DejaVuSans-6e" d="M 3513 2113 
L 3513 0 
L 2938 0 
L 2938 2094 
Q 2938 2591 2744 2837 
Q 2550 3084 2163 3084 
Q 1697 3084 1428 2787 
Q 1159 2491 1159 1978 
L 1159 0 
L 581 0 
L 581 3500 
L 1159 3500 
L 1159 2956 
Q 1366 3272 1645 3428 
Q 1925 3584 2291 3584 
Q 2894 3584 3203 3211 
Q 3513 2838 3513 2113 
z
" transform="scale(0.015625)"/>
        <path id="DejaVuSans-65" d="M 3597 1894 
L 3597 1613 
L 953 1613 
Q 991 1019 1311 708 
Q 1631 397 2203 397 
Q 2534 397 2845 478 
Q 3156 559 3463 722 
L 3463 178 
Q 3153 47 2828 -22 
Q 2503 -91 2169 -91 
Q 1331 -91 842 396 
Q 353 884 353 1716 
Q 353 2575 817 3079 
Q 1281 3584 2069 3584 
Q 2775 3584 3186 3129 
Q 3597 2675 3597 1894 
z
M 3022 2063 
Q 3016 2534 2758 2815 
Q 2500 3097 2075 3097 
Q 1594 3097 1305 2825 
Q 1016 2553 972 2059 
L 3022 2063 
z
" transform="scale(0.015625)"/>
        <path id="DejaVuSans-20" transform="scale(0.015625)"/>
        <path id="DejaVuSans-28" d="M 1984 4856 
Q 1566 4138 1362 3434 
Q 1159 2731 1159 2009 
Q 1159 1288 1364 580 
Q 1569 -128 1984 -844 
L 1484 -844 
Q 1016 -109 783 600 
Q 550 1309 550 2009 
Q 550 2706 781 3412 
Q 1013 4119 1484 4856 
L 1984 4856 
z
" transform="scale(0.015625)"/>
        <path id="DejaVuSans-44" d="M 1259 4147 
L 1259 519 
L 2022 519 
Q 2988 519 3436 956 
Q 3884 1394 3884 2338 
Q 3884 3275 3436 3711 
Q 2988 4147 2022 4147 
L 1259 4147 
z
M 628 4666 
L 1925 4666 
Q 3281 4666 3915 4102 
Q 4550 3538 4550 2338 
Q 4550 1131 3912 565 
Q 3275 0 1925 0 
L 628 0 
L 628 4666 
z
" transform="scale(0.015625)"/>
        <path id="DejaVuSans-43" d="M 4122 4306 
L 4122 3641 
Q 3803 3938 3442 4084 
Q 3081 4231 2675 4231 
Q 1875 4231 1450 3742 
Q 1025 3253 1025 2328 
Q 1025 1406 1450 917 
Q 1875 428 2675 428 
Q 3081 428 3442 575 
Q 3803 722 4122 1019 
L 4122 359 
Q 3791 134 3420 21 
Q 3050 -91 2638 -91 
Q 1578 -91 968 557 
Q 359 1206 359 2328 
Q 359 3453 968 4101 
Q 1578 4750 2638 4750 
Q 3056 4750 3426 4639 
Q 3797 4528 4122 4306 
z
" transform="scale(0.015625)"/>
        <path id="DejaVuSans-2f" d="M 1625 4666 
L 2156 4666 
L 531 -594 
L 0 -594 
L 1625 4666 
z
" transform="scale(0.015625)"/>
        <path id="DejaVuSans-61" d="M 2194 1759 
Q 1497 1759 1228 1600 
Q 959 1441 959 1056 
Q 959 750 1161 570 
Q 1363 391 1709 391 
Q 2188 391 2477 730 
Q 2766 1069 2766 1631 
L 2766 1759 
L 2194 1759 
z
M 3341 1997 
L 3341 0 
L 2766 0 
L 2766 531 
Q 2569 213 2275 61 
Q 1981 -91 1556 -91 
Q 1019 -91 701 211 
Q 384 513 384 1019 
Q 384 1609 779 1909 
Q 1175 2209 1959 2209 
L 2766 2209 
L 2766 2266 
Q 2766 2663 2505 2880 
Q 2244 3097 1772 3097 
Q 1472 3097 1187 3025 
Q 903 2953 641 2809 
L 641 3341 
Q 956 3463 1253 3523 
Q 1550 3584 1831 3584 
Q 2591 3584 2966 3190 
Q 3341 2797 3341 1997 
z
" transform="scale(0.015625)"/>
        <path id="DejaVuSans-63" d="M 3122 3366 
L 3122 2828 
Q 2878 2963 2633 3030 
Q 2388 3097 2138 3097 
Q 1578 3097 1268 2742 
Q 959 2388 959 1747 
Q 959 1106 1268 751 
Q 1578 397 2138 397 
Q 2388 397 2633 464 
Q 2878 531 3122 666 
L 3122 134 
Q 2881 22 2623 -34 
Q 2366 -91 2075 -91 
Q 1284 -91 818 406 
Q 353 903 353 1747 
Q 353 2603 823 3093 
Q 1294 3584 2113 3584 
Q 2378 3584 2631 3529 
Q 2884 3475 3122 3366 
z
" transform="scale(0.015625)"/>
        <path id="DejaVuSans-72" d="M 2631 2963 
Q 2534 3019 2420 3045 
Q 2306 3072 2169 3072 
Q 1681 3072 1420 2755 
Q 1159 2438 1159 1844 
L 1159 0 
L 581 0 
L 581 3500 
L 1159 3500 
L 1159 2956 
Q 1341 3275 1631 3429 
Q 1922 3584 2338 3584 
Q 2397 3584 2469 3576 
Q 2541 3569 2628 3553 
L 2631 2963 
z
" transform="scale(0.015625)"/>
        <path id="DejaVuSans-6f" d="M 1959 3097 
Q 1497 3097 1228 2736 
Q 959 2375 959 1747 
Q 959 1119 1226 758 
Q 1494 397 1959 397 
Q 2419 397 2687 759 
Q 2956 1122 2956 1747 
Q 2956 2369 2687 2733 
Q 2419 3097 1959 3097 
z
M 1959 3584 
Q 2709 3584 3137 3096 
Q 3566 2609 3566 1747 
Q 3566 888 3137 398 
Q 2709 -91 1959 -91 
Q 1206 -91 779 398 
Q 353 888 353 1747 
Q 353 2609 779 3096 
Q 1206 3584 1959 3584 
z
" transform="scale(0.015625)"/>
        <path id="DejaVuSans-70" d="M 1159 525 
L 1159 -1331 
L 581 -1331 
L 581 3500 
L 1159 3500 
L 1159 2969 
Q 1341 3281 1617 3432 
Q 1894 3584 2278 3584 
Q 2916 3584 3314 3078 
Q 3713 2572 3713 1747 
Q 3713 922 3314 415 
Q 2916 -91 2278 -91 
Q 1894 -91 1617 61 
Q 1341 213 1159 525 
z
M 3116 1747 
Q 3116 2381 2855 2742 
Q 2594 3103 2138 3103 
Q 1681 3103 1420 2742 
Q 1159 2381 1159 1747 
Q 1159 1113 1420 752 
Q 1681 391 2138 391 
Q 2594 391 2855 752 
Q 3116 1113 3116 1747 
z
" transform="scale(0.015625)"/>
        <path id="DejaVuSans-68" d="M 3513 2113 
L 3513 0 
L 2938 0 
L 2938 2094 
Q 2938 2591 2744 2837 
Q 2550 3084 2163 3084 
Q 1697 3084 1428 2787 
Q 1159 2491 1159 1978 
L 1159 0 
L 581 0 
L 581 4863 
L 1159 4863 
L 1159 2956 
Q 1366 3272 1645 3428 
Q 1925 3584 2291 3584 
Q 2894 3584 3203 3211 
Q 3513 2838 3513 2113 
z
" transform="scale(0.015625)"/>
        <path id="DejaVuSans-67" d="M 2906 1791 
Q 2906 2416 2648 2759 
Q 2391 3103 1925 3103 
Q 1463 3103 1205 2759 
Q 947 2416 947 1791 
Q 947 1169 1205 825 
Q 1463 481 1925 481 
Q 2391 481 2648 825 
Q 2906 1169 2906 1791 
z
M 3481 434 
Q 3481 -459 3084 -895 
Q 2688 -1331 1869 -1331 
Q 1566 -1331 1297 -1286 
Q 1028 -1241 775 -1147 
L 775 -588 
Q 1028 -725 1275 -790 
Q 1522 -856 1778 -856 
Q 2344 -856 2625 -561 
Q 2906 -266 2906 331 
L 2906 616 
Q 2728 306 2450 153 
Q 2172 0 1784 0 
Q 1141 0 747 490 
Q 353 981 353 1791 
Q 353 2603 747 3093 
Q 1141 3584 1784 3584 
Q 2172 3584 2450 3431 
Q 2728 3278 2906 2969 
L 2906 3500 
L 3481 3500 
L 3481 434 
z
" transform="scale(0.015625)"/>
        <path id="DejaVuSans-29" d="M 513 4856 
L 1013 4856 
Q 1481 4119 1714 3412 
Q 1947 2706 1947 2009 
Q 1947 1309 1714 600 
Q 1481 -109 1013 -844 
L 513 -844 
Q 928 -128 1133 580 
Q 1338 1288 1338 2009 
Q 1338 2731 1133 3434 
Q 928 4138 513 4856 
z
" transform="scale(0.015625)"/>
       </defs>
       <use xlink:href="#DejaVuSans-49"/>
       <use xlink:href="#DejaVuSans-6d" x="29.492188"/>
       <use xlink:href="#DejaVuSans-6d" x="126.904297"/>
       <use xlink:href="#DejaVuSans-75" x="224.316406"/>
       <use xlink:href="#DejaVuSans-6e" x="287.695312"/>
       <use xlink:href="#DejaVuSans-65" x="351.074219"/>
       <use xlink:href="#DejaVuSans-20" x="412.597656"/>
       <use xlink:href="#DejaVuSans-28" x="444.384766"/>
       <use xlink:href="#DejaVuSans-44" x="483.398438"/>
       <use xlink:href="#DejaVuSans-43" x="560.400391"/>
       <use xlink:href="#DejaVuSans-2f" x="630.224609"/>
       <use xlink:href="#DejaVuSans-6d" x="663.916016"/>
       <use xlink:href="#DejaVuSans-61" x="761.328125"/>
       <use xlink:href="#DejaVuSans-63" x="822.607422"/>
       <use xlink:href="#DejaVuSans-72" x="877.587891"/>
       <use xlink:href="#DejaVuSans-6f" x="916.451172"/>
       <use xlink:href="#DejaVuSans-70" x="977.632812"/>
       <use xlink:href="#DejaVuSans-68" x="1041.109375"/>
       <use xlink:href="#DejaVuSans-61" x="1104.488281"/>
       <use xlink:href="#DejaVuSans-67" x="1165.767578"/>
       <use xlink:href="#DejaVuSans-65" x="1229.244141"/>
       <use xlink:href="#DejaVuSans-29" x="1290.767578"/>
      </g>
     </g>
    </g>
    <g id="xtick_2">
     <g id="text_2">
      <!-- Immune (Langerhans) -->
      <g transform="translate(88.166741 622.561328) rotate(-90) scale(0.0833 -0.0833)">
       <defs>
        <path id="DejaVuSans-4c" d="M 628 4666 
L 1259 4666 
L 1259 531 
L 3531 531 
L 3531 0 
L 628 0 
L 628 4666 
z
" transform="scale(0.015625)"/>
        <path id="DejaVuSans-73" d="M 2834 3397 
L 2834 2853 
Q 2591 2978 2328 3040 
Q 2066 3103 1784 3103 
Q 1356 3103 1142 2972 
Q 928 2841 928 2578 
Q 928 2378 1081 2264 
Q 1234 2150 1697 2047 
L 1894 2003 
Q 2506 1872 2764 1633 
Q 3022 1394 3022 966 
Q 3022 478 2636 193 
Q 2250 -91 1575 -91 
Q 1294 -91 989 -36 
Q 684 19 347 128 
L 347 722 
Q 666 556 975 473 
Q 1284 391 1588 391 
Q 1994 391 2212 530 
Q 2431 669 2431 922 
Q 2431 1156 2273 1281 
Q 2116 1406 1581 1522 
L 1381 1569 
Q 847 1681 609 1914 
Q 372 2147 372 2553 
Q 372 3047 722 3315 
Q 1072 3584 1716 3584 
Q 2034 3584 2315 3537 
Q 2597 3491 2834 3397 
z
" transform="scale(0.015625)"/>
       </defs>
       <use xlink:href="#DejaVuSans-49"/>
       <use xlink:href="#DejaVuSans-6d" x="29.492188"/>
       <use xlink:href="#DejaVuSans-6d" x="126.904297"/>
       <use xlink:href="#DejaVuSans-75" x="224.316406"/>
       <use xlink:href="#DejaVuSans-6e" x="287.695312"/>
       <use xlink:href="#DejaVuSans-65" x="351.074219"/>
       <use xlink:href="#DejaVuSans-20" x="412.597656"/>
       <use xlink:href="#DejaVuSans-28" x="444.384766"/>
       <use xlink:href="#DejaVuSans-4c" x="483.398438"/>
       <use xlink:href="#DejaVuSans-61" x="539.111328"/>
       <use xlink:href="#DejaVuSans-6e" x="600.390625"/>
       <use xlink:href="#DejaVuSans-67" x="663.769531"/>
       <use xlink:href="#DejaVuSans-65" x="727.246094"/>
       <use xlink:href="#DejaVuSans-72" x="788.769531"/>
       <use xlink:href="#DejaVuSans-68" x="828.132812"/>
       <use xlink:href="#DejaVuSans-61" x="891.511719"/>
       <use xlink:href="#DejaVuSans-6e" x="952.791016"/>
       <use xlink:href="#DejaVuSans-73" x="1016.169922"/>
       <use xlink:href="#DejaVuSans-29" x="1068.269531"/>
      </g>
     </g>
    </g>
    <g id="xtick_3">
     <g id="text_3">
      <!-- Immune (mast cell) -->
      <g transform="translate(119.871287 611.646425) rotate(-90) scale(0.0833 -0.0833)">
       <defs>
        <path id="DejaVuSans-74" d="M 1172 4494 
L 1172 3500 
L 2356 3500 
L 2356 3053 
L 1172 3053 
L 1172 1153 
Q 1172 725 1289 603 
Q 1406 481 1766 481 
L 2356 481 
L 2356 0 
L 1766 0 
Q 1100 0 847 248 
Q 594 497 594 1153 
L 594 3053 
L 172 3053 
L 172 3500 
L 594 3500 
L 594 4494 
L 1172 4494 
z
" transform="scale(0.015625)"/>
        <path id="DejaVuSans-6c" d="M 603 4863 
L 1178 4863 
L 1178 0 
L 603 0 
L 603 4863 
z
" transform="scale(0.015625)"/>
       </defs>
       <use xlink:href="#DejaVuSans-49"/>
       <use xlink:href="#DejaVuSans-6d" x="29.492188"/>
       <use xlink:href="#DejaVuSans-6d" x="126.904297"/>
       <use xlink:href="#DejaVuSans-75" x="224.316406"/>
       <use xlink:href="#DejaVuSans-6e" x="287.695312"/>
       <use xlink:href="#DejaVuSans-65" x="351.074219"/>
       <use xlink:href="#DejaVuSans-20" x="412.597656"/>
       <use xlink:href="#DejaVuSans-28" x="444.384766"/>
       <use xlink:href="#DejaVuSans-6d" x="483.398438"/>
       <use xlink:href="#DejaVuSans-61" x="580.810547"/>
       <use xlink:href="#DejaVuSans-73" x="642.089844"/>
       <use xlink:href="#DejaVuSans-74" x="694.189453"/>
       <use xlink:href="#DejaVuSans-20" x="733.398438"/>
       <use xlink:href="#DejaVuSans-63" x="765.185547"/>
       <use xlink:href="#DejaVuSans-65" x="820.166016"/>
       <use xlink:href="#DejaVuSans-6c" x="881.689453"/>
       <use xlink:href="#DejaVuSans-6c" x="909.472656"/>
       <use xlink:href="#DejaVuSans-29" x="937.255859"/>
      </g>
     </g>
    </g>
    <g id="xtick_4">
     <g id="text_4">
      <!-- Immune (T cell) -->
      <g transform="translate(151.575832 595.910534) rotate(-90) scale(0.0833 -0.0833)">
       <defs>
        <path id="DejaVuSans-54" d="M -19 4666 
L 3928 4666 
L 3928 4134 
L 2272 4134 
L 2272 0 
L 1638 0 
L 1638 4134 
L -19 4134 
L -19 4666 
z
" transform="scale(0.015625)"/>
       </defs>
       <use xlink:href="#DejaVuSans-49"/>
       <use xlink:href="#DejaVuSans-6d" x="29.492188"/>
       <use xlink:href="#DejaVuSans-6d" x="126.904297"/>
       <use xlink:href="#DejaVuSans-75" x="224.316406"/>
       <use xlink:href="#DejaVuSans-6e" x="287.695312"/>
       <use xlink:href="#DejaVuSans-65" x="351.074219"/>
       <use xlink:href="#DejaVuSans-20" x="412.597656"/>
       <use xlink:href="#DejaVuSans-28" x="444.384766"/>
       <use xlink:href="#DejaVuSans-54" x="483.398438"/>
       <use xlink:href="#DejaVuSans-20" x="544.482422"/>
       <use xlink:href="#DejaVuSans-63" x="576.269531"/>
       <use xlink:href="#DejaVuSans-65" x="631.25"/>
       <use xlink:href="#DejaVuSans-6c" x="692.773438"/>
       <use xlink:href="#DejaVuSans-6c" x="720.556641"/>
       <use xlink:href="#DejaVuSans-29" x="748.339844"/>
      </g>
     </g>
    </g>
    <g id="xtick_5">
     <g id="text_5">
      <!-- Melanocyte -->
      <g transform="translate(183.280378 578.334234) rotate(-90) scale(0.0833 -0.0833)">
       <defs>
        <path id="DejaVuSans-4d" d="M 628 4666 
L 1569 4666 
L 2759 1491 
L 3956 4666 
L 4897 4666 
L 4897 0 
L 4281 0 
L 4281 4097 
L 3078 897 
L 2444 897 
L 1241 4097 
L 1241 0 
L 628 0 
L 628 4666 
z
" transform="scale(0.015625)"/>
        <path id="DejaVuSans-79" d="M 2059 -325 
Q 1816 -950 1584 -1140 
Q 1353 -1331 966 -1331 
L 506 -1331 
L 506 -850 
L 844 -850 
Q 1081 -850 1212 -737 
Q 1344 -625 1503 -206 
L 1606 56 
L 191 3500 
L 800 3500 
L 1894 763 
L 2988 3500 
L 3597 3500 
L 2059 -325 
z
" transform="scale(0.015625)"/>
       </defs>
       <use xlink:href="#DejaVuSans-4d"/>
       <use xlink:href="#DejaVuSans-65" x="86.279297"/>
       <use xlink:href="#DejaVuSans-6c" x="147.802734"/>
       <use xlink:href="#DejaVuSans-61" x="175.585938"/>
       <use xlink:href="#DejaVuSans-6e" x="236.865234"/>
       <use xlink:href="#DejaVuSans-6f" x="300.244141"/>
       <use xlink:href="#DejaVuSans-63" x="361.425781"/>
       <use xlink:href="#DejaVuSans-79" x="416.40625"/>
       <use xlink:href="#DejaVuSans-74" x="475.585938"/>
       <use xlink:href="#DejaVuSans-65" x="514.794922"/>
      </g>
     </g>
    </g>
    <g id="xtick_6">
     <g id="text_6">
      <!-- Epithelial cell (basal keratinocyte) -->
      <g transform="translate(214.984923 671.869722) rotate(-90) scale(0.0833 -0.0833)">
       <defs>
        <path id="DejaVuSans-45" d="M 628 4666 
L 3578 4666 
L 3578 4134 
L 1259 4134 
L 1259 2753 
L 3481 2753 
L 3481 2222 
L 1259 2222 
L 1259 531 
L 3634 531 
L 3634 0 
L 628 0 
L 628 4666 
z
" transform="scale(0.015625)"/>
        <path id="DejaVuSans-69" d="M 603 3500 
L 1178 3500 
L 1178 0 
L 603 0 
L 603 3500 
z
M 603 4863 
L 1178 4863 
L 1178 4134 
L 603 4134 
L 603 4863 
z
" transform="scale(0.015625)"/>
        <path id="DejaVuSans-62" d="M 3116 1747 
Q 3116 2381 2855 2742 
Q 2594 3103 2138 3103 
Q 1681 3103 1420 2742 
Q 1159 2381 1159 1747 
Q 1159 1113 1420 752 
Q 1681 391 2138 391 
Q 2594 391 2855 752 
Q 3116 1113 3116 1747 
z
M 1159 2969 
Q 1341 3281 1617 3432 
Q 1894 3584 2278 3584 
Q 2916 3584 3314 3078 
Q 3713 2572 3713 1747 
Q 3713 922 3314 415 
Q 2916 -91 2278 -91 
Q 1894 -91 1617 61 
Q 1341 213 1159 525 
L 1159 0 
L 581 0 
L 581 4863 
L 1159 4863 
L 1159 2969 
z
" transform="scale(0.015625)"/>
        <path id="DejaVuSans-6b" d="M 581 4863 
L 1159 4863 
L 1159 1991 
L 2875 3500 
L 3609 3500 
L 1753 1863 
L 3688 0 
L 2938 0 
L 1159 1709 
L 1159 0 
L 581 0 
L 581 4863 
z
" transform="scale(0.015625)"/>
       </defs>
       <use xlink:href="#DejaVuSans-45"/>
       <use xlink:href="#DejaVuSans-70" x="63.183594"/>
       <use xlink:href="#DejaVuSans-69" x="126.660156"/>
       <use xlink:href="#DejaVuSans-74" x="154.443359"/>
       <use xlink:href="#DejaVuSans-68" x="193.652344"/>
       <use xlink:href="#DejaVuSans-65" x="257.03125"/>
       <use xlink:href="#DejaVuSans-6c" x="318.554688"/>
       <use xlink:href="#DejaVuSans-69" x="346.337891"/>
       <use xlink:href="#DejaVuSans-61" x="374.121094"/>
       <use xlink:href="#DejaVuSans-6c" x="435.400391"/>
       <use xlink:href="#DejaVuSans-20" x="463.183594"/>
       <use xlink:href="#DejaVuSans-63" x="494.970703"/>
       <use xlink:href="#DejaVuSans-65" x="549.951172"/>
       <use xlink:href="#DejaVuSans-6c" x="611.474609"/>
       <use xlink:href="#DejaVuSans-6c" x="639.257812"/>
       <use xlink:href="#DejaVuSans-20" x="667.041016"/>
       <use xlink:href="#DejaVuSans-28" x="698.828125"/>
       <use xlink:href="#DejaVuSans-62" x="737.841797"/>
       <use xlink:href="#DejaVuSans-61" x="801.318359"/>
       <use xlink:href="#DejaVuSans-73" x="862.597656"/>
       <use xlink:href="#DejaVuSans-61" x="914.697266"/>
       <use xlink:href="#DejaVuSans-6c" x="975.976562"/>
       <use xlink:href="#DejaVuSans-20" x="1003.759766"/>
       <use xlink:href="#DejaVuSans-6b" x="1035.546875"/>
       <use xlink:href="#DejaVuSans-65" x="1089.832031"/>
       <use xlink:href="#DejaVuSans-72" x="1151.355469"/>
       <use xlink:href="#DejaVuSans-61" x="1192.46875"/>
       <use xlink:href="#DejaVuSans-74" x="1253.748047"/>
       <use xlink:href="#DejaVuSans-69" x="1292.957031"/>
       <use xlink:href="#DejaVuSans-6e" x="1320.740234"/>
       <use xlink:href="#DejaVuSans-6f" x="1384.119141"/>
       <use xlink:href="#DejaVuSans-63" x="1445.300781"/>
       <use xlink:href="#DejaVuSans-79" x="1500.28125"/>
       <use xlink:href="#DejaVuSans-74" x="1559.460938"/>
       <use xlink:href="#DejaVuSans-65" x="1598.669922"/>
       <use xlink:href="#DejaVuSans-29" x="1660.193359"/>
      </g>
     </g>
    </g>
    <g id="xtick_7">
     <g id="text_7">
      <!-- Epithelial cell (suprabasal keratinocyte) -->
      <g transform="translate(246.689468 695.305656) rotate(-90) scale(0.0833 -0.0833)">
       <use xlink:href="#DejaVuSans-45"/>
       <use xlink:href="#DejaVuSans-70" x="63.183594"/>
       <use xlink:href="#DejaVuSans-69" x="126.660156"/>
       <use xlink:href="#DejaVuSans-74" x="154.443359"/>
       <use xlink:href="#DejaVuSans-68" x="193.652344"/>
       <use xlink:href="#DejaVuSans-65" x="257.03125"/>
       <use xlink:href="#DejaVuSans-6c" x="318.554688"/>
       <use xlink:href="#DejaVuSans-69" x="346.337891"/>
       <use xlink:href="#DejaVuSans-61" x="374.121094"/>
       <use xlink:href="#DejaVuSans-6c" x="435.400391"/>
       <use xlink:href="#DejaVuSans-20" x="463.183594"/>
       <use xlink:href="#DejaVuSans-63" x="494.970703"/>
       <use xlink:href="#DejaVuSans-65" x="549.951172"/>
       <use xlink:href="#DejaVuSans-6c" x="611.474609"/>
       <use xlink:href="#DejaVuSans-6c" x="639.257812"/>
       <use xlink:href="#DejaVuSans-20" x="667.041016"/>
       <use xlink:href="#DejaVuSans-28" x="698.828125"/>
       <use xlink:href="#DejaVuSans-73" x="737.841797"/>
       <use xlink:href="#DejaVuSans-75" x="789.941406"/>
       <use xlink:href="#DejaVuSans-70" x="853.320312"/>
       <use xlink:href="#DejaVuSans-72" x="916.796875"/>
       <use xlink:href="#DejaVuSans-61" x="957.910156"/>
       <use xlink:href="#DejaVuSans-62" x="1019.189453"/>
       <use xlink:href="#DejaVuSans-61" x="1082.666016"/>
       <use xlink:href="#DejaVuSans-73" x="1143.945312"/>
       <use xlink:href="#DejaVuSans-61" x="1196.044922"/>
       <use xlink:href="#DejaVuSans-6c" x="1257.324219"/>
       <use xlink:href="#DejaVuSans-20" x="1285.107422"/>
       <use xlink:href="#DejaVuSans-6b" x="1316.894531"/>
       <use xlink:href="#DejaVuSans-65" x="1371.179688"/>
       <use xlink:href="#DejaVuSans-72" x="1432.703125"/>
       <use xlink:href="#DejaVuSans-61" x="1473.816406"/>
       <use xlink:href="#DejaVuSans-74" x="1535.095703"/>
       <use xlink:href="#DejaVuSans-69" x="1574.304688"/>
       <use xlink:href="#DejaVuSans-6e" x="1602.087891"/>
       <use xlink:href="#DejaVuSans-6f" x="1665.466797"/>
       <use xlink:href="#DejaVuSans-63" x="1726.648438"/>
       <use xlink:href="#DejaVuSans-79" x="1781.628906"/>
       <use xlink:href="#DejaVuSans-74" x="1840.808594"/>
       <use xlink:href="#DejaVuSans-65" x="1880.017578"/>
       <use xlink:href="#DejaVuSans-29" x="1941.541016"/>
      </g>
     </g>
    </g>
    <g id="xtick_8">
     <g id="text_8">
      <!-- Epithelial cell (mature keratinocyte) -->
      <g transform="translate(278.394014 679.844395) rotate(-90) scale(0.0833 -0.0833)">
       <use xlink:href="#DejaVuSans-45"/>
       <use xlink:href="#DejaVuSans-70" x="63.183594"/>
       <use xlink:href="#DejaVuSans-69" x="126.660156"/>
       <use xlink:href="#DejaVuSans-74" x="154.443359"/>
       <use xlink:href="#DejaVuSans-68" x="193.652344"/>
       <use xlink:href="#DejaVuSans-65" x="257.03125"/>
       <use xlink:href="#DejaVuSans-6c" x="318.554688"/>
       <use xlink:href="#DejaVuSans-69" x="346.337891"/>
       <use xlink:href="#DejaVuSans-61" x="374.121094"/>
       <use xlink:href="#DejaVuSans-6c" x="435.400391"/>
       <use xlink:href="#DejaVuSans-20" x="463.183594"/>
       <use xlink:href="#DejaVuSans-63" x="494.970703"/>
       <use xlink:href="#DejaVuSans-65" x="549.951172"/>
       <use xlink:href="#DejaVuSans-6c" x="611.474609"/>
       <use xlink:href="#DejaVuSans-6c" x="639.257812"/>
       <use xlink:href="#DejaVuSans-20" x="667.041016"/>
       <use xlink:href="#DejaVuSans-28" x="698.828125"/>
       <use xlink:href="#DejaVuSans-6d" x="737.841797"/>
       <use xlink:href="#DejaVuSans-61" x="835.253906"/>
       <use xlink:href="#DejaVuSans-74" x="896.533203"/>
       <use xlink:href="#DejaVuSans-75" x="935.742188"/>
       <use xlink:href="#DejaVuSans-72" x="999.121094"/>
       <use xlink:href="#DejaVuSans-65" x="1037.984375"/>
       <use xlink:href="#DejaVuSans-20" x="1099.507812"/>
       <use xlink:href="#DejaVuSans-6b" x="1131.294922"/>
       <use xlink:href="#DejaVuSans-65" x="1185.580078"/>
       <use xlink:href="#DejaVuSans-72" x="1247.103516"/>
       <use xlink:href="#DejaVuSans-61" x="1288.216797"/>
       <use xlink:href="#DejaVuSans-74" x="1349.496094"/>
       <use xlink:href="#DejaVuSans-69" x="1388.705078"/>
       <use xlink:href="#DejaVuSans-6e" x="1416.488281"/>
       <use xlink:href="#DejaVuSans-6f" x="1479.867188"/>
       <use xlink:href="#DejaVuSans-63" x="1541.048828"/>
       <use xlink:href="#DejaVuSans-79" x="1596.029297"/>
       <use xlink:href="#DejaVuSans-74" x="1655.208984"/>
       <use xlink:href="#DejaVuSans-65" x="1694.417969"/>
       <use xlink:href="#DejaVuSans-29" x="1755.941406"/>
      </g>
     </g>
    </g>
    <g id="xtick_9">
     <g id="text_9">
      <!-- Epithelial cell (cornified keratinocyte) -->
      <g transform="translate(310.098559 685.927898) rotate(-90) scale(0.0833 -0.0833)">
       <defs>
        <path id="DejaVuSans-66" d="M 2375 4863 
L 2375 4384 
L 1825 4384 
Q 1516 4384 1395 4259 
Q 1275 4134 1275 3809 
L 1275 3500 
L 2222 3500 
L 2222 3053 
L 1275 3053 
L 1275 0 
L 697 0 
L 697 3053 
L 147 3053 
L 147 3500 
L 697 3500 
L 697 3744 
Q 697 4328 969 4595 
Q 1241 4863 1831 4863 
L 2375 4863 
z
" transform="scale(0.015625)"/>
        <path id="DejaVuSans-64" d="M 2906 2969 
L 2906 4863 
L 3481 4863 
L 3481 0 
L 2906 0 
L 2906 525 
Q 2725 213 2448 61 
Q 2172 -91 1784 -91 
Q 1150 -91 751 415 
Q 353 922 353 1747 
Q 353 2572 751 3078 
Q 1150 3584 1784 3584 
Q 2172 3584 2448 3432 
Q 2725 3281 2906 2969 
z
M 947 1747 
Q 947 1113 1208 752 
Q 1469 391 1925 391 
Q 2381 391 2643 752 
Q 2906 1113 2906 1747 
Q 2906 2381 2643 2742 
Q 2381 3103 1925 3103 
Q 1469 3103 1208 2742 
Q 947 2381 947 1747 
z
" transform="scale(0.015625)"/>
       </defs>
       <use xlink:href="#DejaVuSans-45"/>
       <use xlink:href="#DejaVuSans-70" x="63.183594"/>
       <use xlink:href="#DejaVuSans-69" x="126.660156"/>
       <use xlink:href="#DejaVuSans-74" x="154.443359"/>
       <use xlink:href="#DejaVuSans-68" x="193.652344"/>
       <use xlink:href="#DejaVuSans-65" x="257.03125"/>
       <use xlink:href="#DejaVuSans-6c" x="318.554688"/>
       <use xlink:href="#DejaVuSans-69" x="346.337891"/>
       <use xlink:href="#DejaVuSans-61" x="374.121094"/>
       <use xlink:href="#DejaVuSans-6c" x="435.400391"/>
       <use xlink:href="#DejaVuSans-20" x="463.183594"/>
       <use xlink:href="#DejaVuSans-63" x="494.970703"/>
       <use xlink:href="#DejaVuSans-65" x="549.951172"/>
       <use xlink:href="#DejaVuSans-6c" x="611.474609"/>
       <use xlink:href="#DejaVuSans-6c" x="639.257812"/>
       <use xlink:href="#DejaVuSans-20" x="667.041016"/>
       <use xlink:href="#DejaVuSans-28" x="698.828125"/>
       <use xlink:href="#DejaVuSans-63" x="737.841797"/>
       <use xlink:href="#DejaVuSans-6f" x="792.822266"/>
       <use xlink:href="#DejaVuSans-72" x="854.003906"/>
       <use xlink:href="#DejaVuSans-6e" x="893.367188"/>
       <use xlink:href="#DejaVuSans-69" x="956.746094"/>
       <use xlink:href="#DejaVuSans-66" x="984.529297"/>
       <use xlink:href="#DejaVuSans-69" x="1019.734375"/>
       <use xlink:href="#DejaVuSans-65" x="1047.517578"/>
       <use xlink:href="#DejaVuSans-64" x="1109.041016"/>
       <use xlink:href="#DejaVuSans-20" x="1172.517578"/>
       <use xlink:href="#DejaVuSans-6b" x="1204.304688"/>
       <use xlink:href="#DejaVuSans-65" x="1258.589844"/>
       <use xlink:href="#DejaVuSans-72" x="1320.113281"/>
       <use xlink:href="#DejaVuSans-61" x="1361.226562"/>
       <use xlink:href="#DejaVuSans-74" x="1422.505859"/>
       <use xlink:href="#DejaVuSans-69" x="1461.714844"/>
       <use xlink:href="#DejaVuSans-6e" x="1489.498047"/>
       <use xlink:href="#DejaVuSans-6f" x="1552.876953"/>
       <use xlink:href="#DejaVuSans-63" x="1614.058594"/>
       <use xlink:href="#DejaVuSans-79" x="1669.039062"/>
       <use xlink:href="#DejaVuSans-74" x="1728.21875"/>
       <use xlink:href="#DejaVuSans-65" x="1767.427734"/>
       <use xlink:href="#DejaVuSans-29" x="1828.951172"/>
      </g>
     </g>
    </g>
    <g id="xtick_10">
     <g id="text_10">
      <!-- Unknown -->
      <g transform="translate(341.803105 568.991619) rotate(-90) scale(0.0833 -0.0833)">
       <defs>
        <path id="DejaVuSans-55" d="M 556 4666 
L 1191 4666 
L 1191 1831 
Q 1191 1081 1462 751 
Q 1734 422 2344 422 
Q 2950 422 3222 751 
Q 3494 1081 3494 1831 
L 3494 4666 
L 4128 4666 
L 4128 1753 
Q 4128 841 3676 375 
Q 3225 -91 2344 -91 
Q 1459 -91 1007 375 
Q 556 841 556 1753 
L 556 4666 
z
" transform="scale(0.015625)"/>
        <path id="DejaVuSans-77" d="M 269 3500 
L 844 3500 
L 1563 769 
L 2278 3500 
L 2956 3500 
L 3675 769 
L 4391 3500 
L 4966 3500 
L 4050 0 
L 3372 0 
L 2619 2869 
L 1863 0 
L 1184 0 
L 269 3500 
z
" transform="scale(0.015625)"/>
       </defs>
       <use xlink:href="#DejaVuSans-55"/>
       <use xlink:href="#DejaVuSans-6e" x="73.193359"/>
       <use xlink:href="#DejaVuSans-6b" x="136.572266"/>
       <use xlink:href="#DejaVuSans-6e" x="194.482422"/>
       <use xlink:href="#DejaVuSans-6f" x="257.861328"/>
       <use xlink:href="#DejaVuSans-77" x="319.042969"/>
       <use xlink:href="#DejaVuSans-6e" x="400.830078"/>
      </g>
     </g>
    </g>
    <g id="xtick_11">
     <g id="text_11">
      <!-- Sebaceous gland cell -->
      <g transform="translate(373.50765 618.4562) rotate(-90) scale(0.0833 -0.0833)">
       <defs>
        <path id="DejaVuSans-53" d="M 3425 4513 
L 3425 3897 
Q 3066 4069 2747 4153 
Q 2428 4238 2131 4238 
Q 1616 4238 1336 4038 
Q 1056 3838 1056 3469 
Q 1056 3159 1242 3001 
Q 1428 2844 1947 2747 
L 2328 2669 
Q 3034 2534 3370 2195 
Q 3706 1856 3706 1288 
Q 3706 609 3251 259 
Q 2797 -91 1919 -91 
Q 1588 -91 1214 -16 
Q 841 59 441 206 
L 441 856 
Q 825 641 1194 531 
Q 1563 422 1919 422 
Q 2459 422 2753 634 
Q 3047 847 3047 1241 
Q 3047 1584 2836 1778 
Q 2625 1972 2144 2069 
L 1759 2144 
Q 1053 2284 737 2584 
Q 422 2884 422 3419 
Q 422 4038 858 4394 
Q 1294 4750 2059 4750 
Q 2388 4750 2728 4690 
Q 3069 4631 3425 4513 
z
" transform="scale(0.015625)"/>
       </defs>
       <use xlink:href="#DejaVuSans-53"/>
       <use xlink:href="#DejaVuSans-65" x="63.476562"/>
       <use xlink:href="#DejaVuSans-62" x="125"/>
       <use xlink:href="#DejaVuSans-61" x="188.476562"/>
       <use xlink:href="#DejaVuSans-63" x="249.755859"/>
       <use xlink:href="#DejaVuSans-65" x="304.736328"/>
       <use xlink:href="#DejaVuSans-6f" x="366.259766"/>
       <use xlink:href="#DejaVuSans-75" x="427.441406"/>
       <use xlink:href="#DejaVuSans-73" x="490.820312"/>
       <use xlink:href="#DejaVuSans-20" x="542.919922"/>
       <use xlink:href="#DejaVuSans-67" x="574.707031"/>
       <use xlink:href="#DejaVuSans-6c" x="638.183594"/>
       <use xlink:href="#DejaVuSans-61" x="665.966797"/>
       <use xlink:href="#DejaVuSans-6e" x="727.246094"/>
       <use xlink:href="#DejaVuSans-64" x="790.625"/>
       <use xlink:href="#DejaVuSans-20" x="854.101562"/>
       <use xlink:href="#DejaVuSans-63" x="885.888672"/>
       <use xlink:href="#DejaVuSans-65" x="940.869141"/>
       <use xlink:href="#DejaVuSans-6c" x="1002.392578"/>
       <use xlink:href="#DejaVuSans-6c" x="1030.175781"/>
      </g>
     </g>
    </g>
    <g id="xtick_12">
     <g id="text_12">
      <!-- Sweat gland cell -->
      <g transform="translate(405.212196 598.824733) rotate(-90) scale(0.0833 -0.0833)">
       <use xlink:href="#DejaVuSans-53"/>
       <use xlink:href="#DejaVuSans-77" x="63.476562"/>
       <use xlink:href="#DejaVuSans-65" x="145.263672"/>
       <use xlink:href="#DejaVuSans-61" x="206.787109"/>
       <use xlink:href="#DejaVuSans-74" x="268.066406"/>
       <use xlink:href="#DejaVuSans-20" x="307.275391"/>
       <use xlink:href="#DejaVuSans-67" x="339.0625"/>
       <use xlink:href="#DejaVuSans-6c" x="402.539062"/>
       <use xlink:href="#DejaVuSans-61" x="430.322266"/>
       <use xlink:href="#DejaVuSans-6e" x="491.601562"/>
       <use xlink:href="#DejaVuSans-64" x="554.980469"/>
       <use xlink:href="#DejaVuSans-20" x="618.457031"/>
       <use xlink:href="#DejaVuSans-63" x="650.244141"/>
       <use xlink:href="#DejaVuSans-65" x="705.224609"/>
       <use xlink:href="#DejaVuSans-6c" x="766.748047"/>
       <use xlink:href="#DejaVuSans-6c" x="794.53125"/>
      </g>
     </g>
    </g>
    <g id="xtick_13">
     <g id="text_13">
      <!-- Adipocyte -->
      <g transform="translate(436.916741 571.76655) rotate(-90) scale(0.0833 -0.0833)">
       <defs>
        <path id="DejaVuSans-41" d="M 2188 4044 
L 1331 1722 
L 3047 1722 
L 2188 4044 
z
M 1831 4666 
L 2547 4666 
L 4325 0 
L 3669 0 
L 3244 1197 
L 1141 1197 
L 716 0 
L 50 0 
L 1831 4666 
z
" transform="scale(0.015625)"/>
       </defs>
       <use xlink:href="#DejaVuSans-41"/>
       <use xlink:href="#DejaVuSans-64" x="66.658203"/>
       <use xlink:href="#DejaVuSans-69" x="130.134766"/>
       <use xlink:href="#DejaVuSans-70" x="157.917969"/>
       <use xlink:href="#DejaVuSans-6f" x="221.394531"/>
       <use xlink:href="#DejaVuSans-63" x="282.576172"/>
       <use xlink:href="#DejaVuSans-79" x="337.556641"/>
       <use xlink:href="#DejaVuSans-74" x="396.736328"/>
       <use xlink:href="#DejaVuSans-65" x="435.945312"/>
      </g>
     </g>
    </g>
    <g id="xtick_14">
     <g id="text_14">
      <!-- Fibroblast -->
      <g transform="translate(468.621287 570.760442) rotate(-90) scale(0.0833 -0.0833)">
       <defs>
        <path id="DejaVuSans-46" d="M 628 4666 
L 3309 4666 
L 3309 4134 
L 1259 4134 
L 1259 2759 
L 3109 2759 
L 3109 2228 
L 1259 2228 
L 1259 0 
L 628 0 
L 628 4666 
z
" transform="scale(0.015625)"/>
       </defs>
       <use xlink:href="#DejaVuSans-46"/>
       <use xlink:href="#DejaVuSans-69" x="50.269531"/>
       <use xlink:href="#DejaVuSans-62" x="78.052734"/>
       <use xlink:href="#DejaVuSans-72" x="141.529297"/>
       <use xlink:href="#DejaVuSans-6f" x="180.392578"/>
       <use xlink:href="#DejaVuSans-62" x="241.574219"/>
       <use xlink:href="#DejaVuSans-6c" x="305.050781"/>
       <use xlink:href="#DejaVuSans-61" x="332.833984"/>
       <use xlink:href="#DejaVuSans-73" x="394.113281"/>
       <use xlink:href="#DejaVuSans-74" x="446.212891"/>
      </g>
     </g>
    </g>
    <g id="xtick_15">
     <g id="text_15">
      <!-- Pericyte/SMC -->
      <g transform="translate(500.325832 584.909728) rotate(-90) scale(0.0833 -0.0833)">
       <defs>
        <path id="DejaVuSans-50" d="M 1259 4147 
L 1259 2394 
L 2053 2394 
Q 2494 2394 2734 2622 
Q 2975 2850 2975 3272 
Q 2975 3691 2734 3919 
Q 2494 4147 2053 4147 
L 1259 4147 
z
M 628 4666 
L 2053 4666 
Q 2838 4666 3239 4311 
Q 3641 3956 3641 3272 
Q 3641 2581 3239 2228 
Q 2838 1875 2053 1875 
L 1259 1875 
L 1259 0 
L 628 0 
L 628 4666 
z
" transform="scale(0.015625)"/>
       </defs>
       <use xlink:href="#DejaVuSans-50"/>
       <use xlink:href="#DejaVuSans-65" x="56.677734"/>
       <use xlink:href="#DejaVuSans-72" x="118.201172"/>
       <use xlink:href="#DejaVuSans-69" x="159.314453"/>
       <use xlink:href="#DejaVuSans-63" x="187.097656"/>
       <use xlink:href="#DejaVuSans-79" x="242.078125"/>
       <use xlink:href="#DejaVuSans-74" x="301.257812"/>
       <use xlink:href="#DejaVuSans-65" x="340.466797"/>
       <use xlink:href="#DejaVuSans-2f" x="401.990234"/>
       <use xlink:href="#DejaVuSans-53" x="435.681641"/>
       <use xlink:href="#DejaVuSans-4d" x="499.158203"/>
       <use xlink:href="#DejaVuSans-43" x="585.4375"/>
      </g>
     </g>
    </g>
    <g id="xtick_16">
     <g id="text_16">
      <!-- Endothelial cell (vascular) -->
      <g transform="translate(532.030378 638.176173) rotate(-90) scale(0.0833 -0.0833)">
       <defs>
        <path id="DejaVuSans-76" d="M 191 3500 
L 800 3500 
L 1894 563 
L 2988 3500 
L 3597 3500 
L 2284 0 
L 1503 0 
L 191 3500 
z
" transform="scale(0.015625)"/>
       </defs>
       <use xlink:href="#DejaVuSans-45"/>
       <use xlink:href="#DejaVuSans-6e" x="63.183594"/>
       <use xlink:href="#DejaVuSans-64" x="126.5625"/>
       <use xlink:href="#DejaVuSans-6f" x="190.039062"/>
       <use xlink:href="#DejaVuSans-74" x="251.220703"/>
       <use xlink:href="#DejaVuSans-68" x="290.429688"/>
       <use xlink:href="#DejaVuSans-65" x="353.808594"/>
       <use xlink:href="#DejaVuSans-6c" x="415.332031"/>
       <use xlink:href="#DejaVuSans-69" x="443.115234"/>
       <use xlink:href="#DejaVuSans-61" x="470.898438"/>
       <use xlink:href="#DejaVuSans-6c" x="532.177734"/>
       <use xlink:href="#DejaVuSans-20" x="559.960938"/>
       <use xlink:href="#DejaVuSans-63" x="591.748047"/>
       <use xlink:href="#DejaVuSans-65" x="646.728516"/>
       <use xlink:href="#DejaVuSans-6c" x="708.251953"/>
       <use xlink:href="#DejaVuSans-6c" x="736.035156"/>
       <use xlink:href="#DejaVuSans-20" x="763.818359"/>
       <use xlink:href="#DejaVuSans-28" x="795.605469"/>
       <use xlink:href="#DejaVuSans-76" x="834.619141"/>
       <use xlink:href="#DejaVuSans-61" x="893.798828"/>
       <use xlink:href="#DejaVuSans-73" x="955.078125"/>
       <use xlink:href="#DejaVuSans-63" x="1007.177734"/>
       <use xlink:href="#DejaVuSans-75" x="1062.158203"/>
       <use xlink:href="#DejaVuSans-6c" x="1125.537109"/>
       <use xlink:href="#DejaVuSans-61" x="1153.320312"/>
       <use xlink:href="#DejaVuSans-72" x="1214.599609"/>
       <use xlink:href="#DejaVuSans-29" x="1255.712891"/>
      </g>
     </g>
    </g>
    <g id="xtick_17">
     <g id="text_17">
      <!-- Endothelial cell (lymphatic) -->
      <g transform="translate(563.734923 644.289612) rotate(-90) scale(0.0833 -0.0833)">
       <use xlink:href="#DejaVuSans-45"/>
       <use xlink:href="#DejaVuSans-6e" x="63.183594"/>
       <use xlink:href="#DejaVuSans-64" x="126.5625"/>
       <use xlink:href="#DejaVuSans-6f" x="190.039062"/>
       <use xlink:href="#DejaVuSans-74" x="251.220703"/>
       <use xlink:href="#DejaVuSans-68" x="290.429688"/>
       <use xlink:href="#DejaVuSans-65" x="353.808594"/>
       <use xlink:href="#DejaVuSans-6c" x="415.332031"/>
       <use xlink:href="#DejaVuSans-69" x="443.115234"/>
       <use xlink:href="#DejaVuSans-61" x="470.898438"/>
       <use xlink:href="#DejaVuSans-6c" x="532.177734"/>
       <use xlink:href="#DejaVuSans-20" x="559.960938"/>
       <use xlink:href="#DejaVuSans-63" x="591.748047"/>
       <use xlink:href="#DejaVuSans-65" x="646.728516"/>
       <use xlink:href="#DejaVuSans-6c" x="708.251953"/>
       <use xlink:href="#DejaVuSans-6c" x="736.035156"/>
       <use xlink:href="#DejaVuSans-20" x="763.818359"/>
       <use xlink:href="#DejaVuSans-28" x="795.605469"/>
       <use xlink:href="#DejaVuSans-6c" x="834.619141"/>
       <use xlink:href="#DejaVuSans-79" x="862.402344"/>
       <use xlink:href="#DejaVuSans-6d" x="921.582031"/>
       <use xlink:href="#DejaVuSans-70" x="1018.994141"/>
       <use xlink:href="#DejaVuSans-68" x="1082.470703"/>
       <use xlink:href="#DejaVuSans-61" x="1145.849609"/>
       <use xlink:href="#DejaVuSans-74" x="1207.128906"/>
       <use xlink:href="#DejaVuSans-69" x="1246.337891"/>
       <use xlink:href="#DejaVuSans-63" x="1274.121094"/>
       <use xlink:href="#DejaVuSans-29" x="1329.101562"/>
      </g>
     </g>
    </g>
   </g>
   <g id="matplotlib.axis_2">
    <g id="ytick_1"/>
    <g id="ytick_2"/>
    <g id="ytick_3"/>
    <g id="ytick_4"/>
    <g id="ytick_5"/>
    <g id="ytick_6"/>
    <g id="ytick_7"/>
   </g>
   <g id="line2d_1">
    <path d="M 54.163636 500.8464 
L 54.163636 446.374989 
L 85.868182 446.374989 
L 85.868182 500.8464 
" clip-path="url(#p980bfa876a)" style="fill: none; stroke: #555555; stroke-width: 1.5; stroke-linecap: square"/>
   </g>
   <g id="line2d_2">
    <path d="M 117.572727 500.8464 
L 117.572727 405.482719 
L 149.277273 405.482719 
L 149.277273 500.8464 
" clip-path="url(#p980bfa876a)" style="fill: none; stroke: #555555; stroke-width: 1.5; stroke-linecap: square"/>
   </g>
   <g id="line2d_3">
    <path d="M 70.015909 446.374989 
L 70.015909 313.215207 
L 133.425 313.215207 
L 133.425 405.482719 
" clip-path="url(#p980bfa876a)" style="fill: none; stroke: #555555; stroke-width: 1.5; stroke-linecap: square"/>
   </g>
   <g id="line2d_4">
    <path d="M 212.686364 500.8464 
L 212.686364 469.759939 
L 244.390909 469.759939 
L 244.390909 500.8464 
" clip-path="url(#p980bfa876a)" style="fill: none; stroke: #555555; stroke-width: 1.5; stroke-linecap: square"/>
   </g>
   <g id="line2d_5">
    <path d="M 276.095455 500.8464 
L 276.095455 459.839702 
L 307.8 459.839702 
L 307.8 500.8464 
" clip-path="url(#p980bfa876a)" style="fill: none; stroke: #555555; stroke-width: 1.5; stroke-linecap: square"/>
   </g>
   <g id="line2d_6">
    <path d="M 291.947727 459.839702 
L 291.947727 391.164458 
L 339.504545 391.164458 
L 339.504545 500.8464 
" clip-path="url(#p980bfa876a)" style="fill: none; stroke: #555555; stroke-width: 1.5; stroke-linecap: square"/>
   </g>
   <g id="line2d_7">
    <path d="M 228.538636 469.759939 
L 228.538636 387.201952 
L 315.726136 387.201952 
L 315.726136 391.164458 
" clip-path="url(#p980bfa876a)" style="fill: none; stroke: #555555; stroke-width: 1.5; stroke-linecap: square"/>
   </g>
   <g id="line2d_8">
    <path d="M 180.981818 500.8464 
L 180.981818 308.488045 
L 272.132386 308.488045 
L 272.132386 387.201952 
" clip-path="url(#p980bfa876a)" style="fill: none; stroke: #555555; stroke-width: 1.5; stroke-linecap: square"/>
   </g>
   <g id="line2d_9">
    <path d="M 371.209091 500.8464 
L 371.209091 382.19745 
L 402.913636 382.19745 
L 402.913636 500.8464 
" clip-path="url(#p980bfa876a)" style="fill: none; stroke: #555555; stroke-width: 1.5; stroke-linecap: square"/>
   </g>
   <g id="line2d_10">
    <path d="M 226.557102 308.488045 
L 226.557102 251.787472 
L 387.061364 251.787472 
L 387.061364 382.19745 
" clip-path="url(#p980bfa876a)" style="fill: none; stroke: #555555; stroke-width: 1.5; stroke-linecap: square"/>
   </g>
   <g id="line2d_11">
    <path d="M 101.720455 313.215207 
L 101.720455 170.849829 
L 306.809233 170.849829 
L 306.809233 251.787472 
" clip-path="url(#p980bfa876a)" style="fill: none; stroke: #555555; stroke-width: 1.5; stroke-linecap: square"/>
   </g>
   <g id="line2d_12">
    <path d="M 466.322727 500.8464 
L 466.322727 297.169273 
L 498.027273 297.169273 
L 498.027273 500.8464 
" clip-path="url(#p980bfa876a)" style="fill: none; stroke: #555555; stroke-width: 1.5; stroke-linecap: square"/>
   </g>
   <g id="line2d_13">
    <path d="M 434.618182 500.8464 
L 434.618182 249.30928 
L 482.175 249.30928 
L 482.175 297.169273 
" clip-path="url(#p980bfa876a)" style="fill: none; stroke: #555555; stroke-width: 1.5; stroke-linecap: square"/>
   </g>
   <g id="line2d_14">
    <path d="M 529.731818 500.8464 
L 529.731818 311.964672 
L 561.436364 311.964672 
L 561.436364 500.8464 
" clip-path="url(#p980bfa876a)" style="fill: none; stroke: #555555; stroke-width: 1.5; stroke-linecap: square"/>
   </g>
   <g id="line2d_15">
    <path d="M 458.396591 249.30928 
L 458.396591 100.529427 
L 545.584091 100.529427 
L 545.584091 311.964672 
" clip-path="url(#p980bfa876a)" style="fill: none; stroke: #555555; stroke-width: 1.5; stroke-linecap: square"/>
   </g>
   <g id="line2d_16">
    <path d="M 204.264844 170.849829 
L 204.264844 51.2784 
L 501.990341 51.2784 
L 501.990341 100.529427 
" clip-path="url(#p980bfa876a)" style="fill: none; stroke: #555555; stroke-width: 1.5; stroke-linecap: square"/>
   </g>
  </g>
 </g>
 <defs>
  <clipPath id="p980bfa876a">
   <rect x="28.8" y="28.8" width="558" height="494.5248"/>
  </clipPath>
 </defs>
</svg>
